<?xml version="1.0" encoding="us-ascii" standalone="no"?><svg xmlns="http://www.w3.org/2000/svg" xmlns:xlink="http://www.w3.org/1999/xlink" contentStyleType="text/css" height="235px" preserveAspectRatio="none" style="width:468px;height:235px;background:#FFFFFF;" version="1.1" viewBox="0 0 468 235" width="468px" zoomAndPan="magnify"><defs/><g><!--class Adjuster--><g id="elem_Adjuster"><rect codeLine="1" fill="#F1F1F1" height="113.1875" id="Adjuster" rx="2.5" ry="2.5" style="stroke:#181818;stroke-width:0.5;" width="454" x="7" y="115"/><ellipse cx="202.75" cy="131" fill="#ADD1B2" rx="11" ry="11" style="stroke:#181818;stroke-width:1.0;"/><path d="M202.6875,126.8281 Q201.9375,126.8281 201.375,127.125 Q200.8125,127.4063 200.4219,127.9375 Q200.0313,128.4688 199.8281,129.25 Q199.6406,130.0156 199.6406,130.9688 Q199.6406,131.9375 199.8125,132.7031 Q200,133.4531 200.3594,133.9688 Q200.7344,134.4844 201.3125,134.7656 Q201.8906,135.0313 202.6875,135.0313 Q203.4219,135.0313 204.1563,134.8594 Q204.9063,134.6875 205.7813,134.3906 L205.7813,136.5469 Q205.375,136.7031 204.9844,136.8281 Q204.5938,136.9375 204.1875,137.0156 Q203.7813,137.0938 203.3594,137.125 Q202.9375,137.1719 202.4375,137.1719 Q201.0313,137.1719 200,136.7188 Q198.9844,136.2656 198.3125,135.4531 Q197.6406,134.6406 197.3125,133.5 Q196.9844,132.3438 196.9844,130.9531 Q196.9844,129.5781 197.3594,128.4219 Q197.7344,127.2656 198.4531,126.4375 Q199.1719,125.6094 200.2344,125.1563 Q201.2969,124.6875 202.6875,124.6875 Q203.5938,124.6875 204.5,124.9219 Q205.4063,125.1406 206.2344,125.5469 L205.4063,127.6406 Q204.7188,127.3125 204.0313,127.0781 Q203.3438,126.8281 202.6875,126.8281 Z " fill="#000000"/><text fill="#000000" font-family="sans-serif" font-size="14" lengthAdjust="spacing" textLength="54" x="223.25" y="135.8467">Adjuster</text><line style="stroke:#181818;stroke-width:0.5;" x1="8" x2="460" y1="147" y2="147"/><line style="stroke:#181818;stroke-width:0.5;" x1="8" x2="460" y1="155" y2="155"/><text fill="#000000" font-family="sans-serif" font-size="14" lengthAdjust="spacing" textLength="428" x="27" y="171.9951">CalculateCameraSize(dungeonGenerator:DungeonGenerator) : float</text><text fill="#000000" font-family="sans-serif" font-size="14" lengthAdjust="spacing" textLength="107" x="27" y="188.292">OnEnable() : void</text><text fill="#000000" font-family="sans-serif" font-size="14" lengthAdjust="spacing" textLength="112" x="27" y="204.5889">OnDisable() : void</text><ellipse cx="18" cy="217.5391" fill="#84BE84" rx="3" ry="3" style="stroke:#038048;stroke-width:1.0;"/><text fill="#000000" font-family="sans-serif" font-size="14" lengthAdjust="spacing" textLength="386" x="27" y="220.8857">AdjustPosition(dungeonGenerator:DungeonGenerator) : void</text></g><!--class MonoBehaviour--><g id="elem_MonoBehaviour"><rect fill="#F1F1F1" height="48" id="MonoBehaviour" rx="2.5" ry="2.5" style="stroke:#181818;stroke-width:0.5;" width="133" x="167.5" y="7"/><ellipse cx="182.5" cy="23" fill="#ADD1B2" rx="11" ry="11" style="stroke:#181818;stroke-width:1.0;"/><path d="M182.4375,18.8281 Q181.6875,18.8281 181.125,19.125 Q180.5625,19.4063 180.1719,19.9375 Q179.7813,20.4688 179.5781,21.25 Q179.3906,22.0156 179.3906,22.9688 Q179.3906,23.9375 179.5625,24.7031 Q179.75,25.4531 180.1094,25.9688 Q180.4844,26.4844 181.0625,26.7656 Q181.6406,27.0313 182.4375,27.0313 Q183.1719,27.0313 183.9063,26.8594 Q184.6563,26.6875 185.5313,26.3906 L185.5313,28.5469 Q185.125,28.7031 184.7344,28.8281 Q184.3438,28.9375 183.9375,29.0156 Q183.5313,29.0938 183.1094,29.125 Q182.6875,29.1719 182.1875,29.1719 Q180.7813,29.1719 179.75,28.7188 Q178.7344,28.2656 178.0625,27.4531 Q177.3906,26.6406 177.0625,25.5 Q176.7344,24.3438 176.7344,22.9531 Q176.7344,21.5781 177.1094,20.4219 Q177.4844,19.2656 178.2031,18.4375 Q178.9219,17.6094 179.9844,17.1563 Q181.0469,16.6875 182.4375,16.6875 Q183.3438,16.6875 184.25,16.9219 Q185.1563,17.1406 185.9844,17.5469 L185.1563,19.6406 Q184.4688,19.3125 183.7813,19.0781 Q183.0938,18.8281 182.4375,18.8281 Z " fill="#000000"/><text fill="#000000" font-family="sans-serif" font-size="14" lengthAdjust="spacing" textLength="101" x="196.5" y="27.8467">MonoBehaviour</text><line style="stroke:#181818;stroke-width:0.5;" x1="168.5" x2="299.5" y1="39" y2="39"/><line style="stroke:#181818;stroke-width:0.5;" x1="168.5" x2="299.5" y1="47" y2="47"/></g><!--reverse link MonoBehaviour to Adjuster--><g id="link_MonoBehaviour_Adjuster"><path codeLine="7" d="M234,75.3 C234,87.85 234,101.74 234,114.94 " fill="none" id="MonoBehaviour-backto-Adjuster" style="stroke:#181818;stroke-width:1.0;"/><polygon fill="none" points="227,75.18,234,55.18,241,75.18,227,75.18" style="stroke:#181818;stroke-width:1.0;"/></g><!--SRC=[Iyv9B2vMS4p9AYqkIIrIgEPI00Bdn9paqfp4abJdnDpKeiJWpAfKZPJIlFJK_3ptr3oWI4b-aPKBce2cWfL2Mav-OWdO2Fyyrxp4f9nK3P1mMNvc2bJK9RCOKrWRwe20_EBCaipyFE8i0sklvVBDpyjtIir8BClCBorIiAdHrOLx1m00]--></g></svg>