<?xml version="1.0" encoding="us-ascii" standalone="no"?><svg xmlns="http://www.w3.org/2000/svg" xmlns:xlink="http://www.w3.org/1999/xlink" contentStyleType="text/css" height="391px" preserveAspectRatio="none" style="width:687px;height:391px;background:#FFFFFF;" version="1.1" viewBox="0 0 687 391" width="687px" zoomAndPan="magnify"><defs/><g><!--class ButtonInvoke--><g id="elem_ButtonInvoke"><rect codeLine="1" fill="#F1F1F1" height="113.1875" id="ButtonInvoke" rx="2.5" ry="2.5" style="stroke:#181818;stroke-width:0.5;" width="673" x="7" y="115"/><ellipse cx="296.25" cy="131" fill="#ADD1B2" rx="11" ry="11" style="stroke:#181818;stroke-width:1.0;"/><path d="M296.1875,126.8281 Q295.4375,126.8281 294.875,127.125 Q294.3125,127.4063 293.9219,127.9375 Q293.5313,128.4688 293.3281,129.25 Q293.1406,130.0156 293.1406,130.9688 Q293.1406,131.9375 293.3125,132.7031 Q293.5,133.4531 293.8594,133.9688 Q294.2344,134.4844 294.8125,134.7656 Q295.3906,135.0313 296.1875,135.0313 Q296.9219,135.0313 297.6563,134.8594 Q298.4063,134.6875 299.2813,134.3906 L299.2813,136.5469 Q298.875,136.7031 298.4844,136.8281 Q298.0938,136.9375 297.6875,137.0156 Q297.2813,137.0938 296.8594,137.125 Q296.4375,137.1719 295.9375,137.1719 Q294.5313,137.1719 293.5,136.7188 Q292.4844,136.2656 291.8125,135.4531 Q291.1406,134.6406 290.8125,133.5 Q290.4844,132.3438 290.4844,130.9531 Q290.4844,129.5781 290.8594,128.4219 Q291.2344,127.2656 291.9531,126.4375 Q292.6719,125.6094 293.7344,125.1563 Q294.7969,124.6875 296.1875,124.6875 Q297.0938,124.6875 298,124.9219 Q298.9063,125.1406 299.7344,125.5469 L298.9063,127.6406 Q298.2188,127.3125 297.5313,127.0781 Q296.8438,126.8281 296.1875,126.8281 Z " fill="#000000"/><text fill="#000000" font-family="sans-serif" font-size="14" lengthAdjust="spacing" textLength="86" x="316.75" y="135.8467">ButtonInvoke</text><line style="stroke:#181818;stroke-width:0.5;" x1="8" x2="679" y1="147" y2="147"/><ellipse cx="18" cy="160.6484" fill="none" rx="3" ry="3" style="stroke:#038048;stroke-width:1.0;"/><text fill="#000000" font-family="sans-serif" font-size="14" lengthAdjust="spacing" textLength="202" x="27" y="163.9951">&#171;readonly&#187; customLabel : string</text><ellipse cx="18" cy="176.9453" fill="none" rx="3" ry="3" style="stroke:#038048;stroke-width:1.0;"/><text fill="#000000" font-family="sans-serif" font-size="14" lengthAdjust="spacing" textLength="210" x="27" y="180.292">&#171;readonly&#187; methodName : string</text><ellipse cx="18" cy="193.2422" fill="none" rx="3" ry="3" style="stroke:#038048;stroke-width:1.0;"/><text fill="#000000" font-family="sans-serif" font-size="14" lengthAdjust="spacing" textLength="243" x="27" y="196.5889">&#171;readonly&#187; methodParameter : object</text><line style="stroke:#181818;stroke-width:0.5;" x1="8" x2="679" y1="203.8906" y2="203.8906"/><ellipse cx="18" cy="217.5391" fill="#84BE84" rx="3" ry="3" style="stroke:#038048;stroke-width:1.0;"/><text fill="#000000" font-family="sans-serif" font-size="14" lengthAdjust="spacing" textLength="647" x="27" y="220.8857">ButtonInvoke(methodName:string, methodParameter:object, displayIn:DisplayIn, customLabel:string)</text></g><!--class DisplayIn--><g id="elem_DisplayIn"><rect codeLine="7" fill="#F1F1F1" height="96.8906" id="DisplayIn" rx="2.5" ry="2.5" style="stroke:#181818;stroke-width:0.5;" width="133" x="277" y="288"/><ellipse cx="310.9" cy="304" fill="#EB937F" rx="11" ry="11" style="stroke:#181818;stroke-width:1.0;"/><path d="M313.9156,310 L306.9313,310 L306.9313,297.8594 L313.9156,297.8594 L313.9156,299.9688 L309.4938,299.9688 L309.4938,302.6406 L313.6031,302.6406 L313.6031,304.75 L309.4938,304.75 L309.4938,307.875 L313.9156,307.875 L313.9156,310 Z " fill="#000000"/><text fill="#000000" font-family="sans-serif" font-size="14" lengthAdjust="spacing" textLength="59" x="329.1" y="308.8467">DisplayIn</text><line style="stroke:#181818;stroke-width:0.5;" x1="278" x2="409" y1="320" y2="320"/><text fill="#000000" font-family="sans-serif" font-size="14" lengthAdjust="spacing" textLength="66" x="283" y="336.9951">PlayMode,</text><text fill="#000000" font-family="sans-serif" font-size="14" lengthAdjust="spacing" textLength="64" x="283" y="353.292">EditMode,</text><text fill="#000000" font-family="sans-serif" font-size="14" lengthAdjust="spacing" textLength="121" x="283" y="369.5889">PlayAndEditModes,</text><line style="stroke:#181818;stroke-width:0.5;" x1="278" x2="409" y1="376.8906" y2="376.8906"/></g><!--class PropertyAttribute--><g id="elem_PropertyAttribute"><rect fill="#F1F1F1" height="48" id="PropertyAttribute" rx="2.5" ry="2.5" style="stroke:#181818;stroke-width:0.5;" width="146" x="270.5" y="7"/><ellipse cx="285.5" cy="23" fill="#ADD1B2" rx="11" ry="11" style="stroke:#181818;stroke-width:1.0;"/><path d="M285.4375,18.8281 Q284.6875,18.8281 284.125,19.125 Q283.5625,19.4063 283.1719,19.9375 Q282.7813,20.4688 282.5781,21.25 Q282.3906,22.0156 282.3906,22.9688 Q282.3906,23.9375 282.5625,24.7031 Q282.75,25.4531 283.1094,25.9688 Q283.4844,26.4844 284.0625,26.7656 Q284.6406,27.0313 285.4375,27.0313 Q286.1719,27.0313 286.9063,26.8594 Q287.6563,26.6875 288.5313,26.3906 L288.5313,28.5469 Q288.125,28.7031 287.7344,28.8281 Q287.3438,28.9375 286.9375,29.0156 Q286.5313,29.0938 286.1094,29.125 Q285.6875,29.1719 285.1875,29.1719 Q283.7813,29.1719 282.75,28.7188 Q281.7344,28.2656 281.0625,27.4531 Q280.3906,26.6406 280.0625,25.5 Q279.7344,24.3438 279.7344,22.9531 Q279.7344,21.5781 280.1094,20.4219 Q280.4844,19.2656 281.2031,18.4375 Q281.9219,17.6094 282.9844,17.1563 Q284.0469,16.6875 285.4375,16.6875 Q286.3438,16.6875 287.25,16.9219 Q288.1563,17.1406 288.9844,17.5469 L288.1563,19.6406 Q287.4688,19.3125 286.7813,19.0781 Q286.0938,18.8281 285.4375,18.8281 Z " fill="#000000"/><text fill="#000000" font-family="sans-serif" font-size="14" lengthAdjust="spacing" textLength="114" x="299.5" y="27.8467">PropertyAttribute</text><line style="stroke:#181818;stroke-width:0.5;" x1="271.5" x2="415.5" y1="39" y2="39"/><line style="stroke:#181818;stroke-width:0.5;" x1="271.5" x2="415.5" y1="47" y2="47"/></g><!--reverse link PropertyAttribute to ButtonInvoke--><g id="link_PropertyAttribute_ButtonInvoke"><path codeLine="12" d="M343.5,75.3 C343.5,87.85 343.5,101.74 343.5,114.94 " fill="none" id="PropertyAttribute-backto-ButtonInvoke" style="stroke:#181818;stroke-width:1.0;"/><polygon fill="none" points="336.5,75.18,343.5,55.18,350.5,75.18,336.5,75.18" style="stroke:#181818;stroke-width:1.0;"/></g><!--link ButtonInvoke to DisplayIn--><g id="link_ButtonInvoke_DisplayIn"><path codeLine="13" d="M331.34,228.14 C330.51,245.77 330.56,265.21 331.48,282.65 " fill="none" id="ButtonInvoke-to-DisplayIn" style="stroke:#181818;stroke-width:1.0;"/><polygon fill="#181818" points="331.79,287.99,335.2422,278.766,331.4897,282.999,327.2567,279.2465,331.79,287.99" style="stroke:#181818;stroke-width:1.0;"/><text fill="#000000" font-family="sans-serif" font-size="13" lengthAdjust="spacing" textLength="53" x="273.1779" y="276.8482">displayIn</text></g><!--reverse link ButtonInvoke to DisplayIn--><g id="link_ButtonInvoke_DisplayIn"><path codeLine="14" d="M356.9,243.54 C357.19,258.57 356.85,274.08 355.9,287.99 " fill="none" id="ButtonInvoke-backto-DisplayIn" style="stroke:#181818;stroke-width:1.0;"/><ellipse cx="356.6544" cy="236.1353" fill="#FFFFFF" rx="8" ry="8" style="stroke:#181818;stroke-width:1.0;"/><line style="stroke:#181818;stroke-width:1.0;" x1="356.9288" x2="356.38" y1="244.1306" y2="228.14"/><line style="stroke:#181818;stroke-width:1.0;" x1="348.6591" x2="364.6497" y1="236.4097" y2="235.8609"/></g><!--SRC=[ZP1D3e8m44Rtd6B2IaEv024a65sGgE4AXKuKXPQqWmbHxswLV-F2hZepRrw-DY-vCR1fY9HCv4rT4UuEsED166haGicoZIB86qEgslCCImZ0a2xawHTN8PsLEF8A_y1IhYr8g2shiWlcrBFpFAj96NH2zhqUTCiCH67gahU93BR3ZSsZzuArytHGDXMCLF_er1O79P1zgfqeQAhUirYAeMcObQHQrQYfZSbwiuOGmeVlB-8xYx_r_GZSCQKx1LXYdfMCenS0]--></g></svg>