<?xml version="1.0" encoding="us-ascii" standalone="no"?><svg xmlns="http://www.w3.org/2000/svg" xmlns:xlink="http://www.w3.org/1999/xlink" contentStyleType="text/css" height="359px" preserveAspectRatio="none" style="width:285px;height:359px;background:#FFFFFF;" version="1.1" viewBox="0 0 285 359" width="285px" zoomAndPan="magnify"><defs/><g><!--class CameraBounds--><g id="elem_CameraBounds"><rect codeLine="1" fill="#F1F1F1" height="129.4844" id="CameraBounds" rx="2.5" ry="2.5" style="stroke:#181818;stroke-width:0.5;" width="214" x="39.6186" y="115"/><ellipse cx="94.3686" cy="131" fill="#ADD1B2" rx="11" ry="11" style="stroke:#181818;stroke-width:1.0;"/><path d="M94.3061,126.8281 Q93.5561,126.8281 92.9936,127.125 Q92.4311,127.4063 92.0404,127.9375 Q91.6498,128.4688 91.4467,129.25 Q91.2592,130.0156 91.2592,130.9688 Q91.2592,131.9375 91.4311,132.7031 Q91.6186,133.4531 91.9779,133.9688 Q92.3529,134.4844 92.9311,134.7656 Q93.5092,135.0313 94.3061,135.0313 Q95.0404,135.0313 95.7748,134.8594 Q96.5248,134.6875 97.3998,134.3906 L97.3998,136.5469 Q96.9936,136.7031 96.6029,136.8281 Q96.2123,136.9375 95.8061,137.0156 Q95.3998,137.0938 94.9779,137.125 Q94.5561,137.1719 94.0561,137.1719 Q92.6498,137.1719 91.6186,136.7188 Q90.6029,136.2656 89.9311,135.4531 Q89.2592,134.6406 88.9311,133.5 Q88.6029,132.3438 88.6029,130.9531 Q88.6029,129.5781 88.9779,128.4219 Q89.3529,127.2656 90.0717,126.4375 Q90.7904,125.6094 91.8529,125.1563 Q92.9154,124.6875 94.3061,124.6875 Q95.2123,124.6875 96.1186,124.9219 Q97.0248,125.1406 97.8529,125.5469 L97.0248,127.6406 Q96.3373,127.3125 95.6498,127.0781 Q94.9623,126.8281 94.3061,126.8281 Z " fill="#000000"/><text fill="#000000" font-family="sans-serif" font-size="14" lengthAdjust="spacing" textLength="96" x="114.8686" y="135.8467">CameraBounds</text><line style="stroke:#181818;stroke-width:0.5;" x1="40.6186" x2="252.6186" y1="147" y2="147"/><line style="stroke:#181818;stroke-width:0.5;" x1="40.6186" x2="252.6186" y1="155" y2="155"/><text fill="#000000" font-family="sans-serif" font-size="14" lengthAdjust="spacing" textLength="77" x="59.6186" y="171.9951">Start() : void</text><text fill="#000000" font-family="sans-serif" font-size="14" lengthAdjust="spacing" textLength="120" x="59.6186" y="188.292">LateUpdate() : void</text><text fill="#000000" font-family="sans-serif" font-size="14" lengthAdjust="spacing" textLength="183" x="59.6186" y="204.5889">UpdateCanvasBounds() : void</text><text fill="#000000" font-family="sans-serif" font-size="14" lengthAdjust="spacing" textLength="187" x="59.6186" y="220.8857">ClampCameraPosition() : void</text><ellipse cx="50.6186" cy="233.8359" fill="#84BE84" rx="3" ry="3" style="stroke:#038048;stroke-width:1.0;"/><text fill="#000000" font-family="sans-serif" font-size="14" lengthAdjust="spacing" textLength="188" x="59.6186" y="237.1826">SetZoom(newSize:float) : void</text></g><!--class MonoBehaviour--><g id="elem_MonoBehaviour"><rect fill="#F1F1F1" height="48" id="MonoBehaviour" rx="2.5" ry="2.5" style="stroke:#181818;stroke-width:0.5;" width="133" x="80.1186" y="7"/><ellipse cx="95.1186" cy="23" fill="#ADD1B2" rx="11" ry="11" style="stroke:#181818;stroke-width:1.0;"/><path d="M95.0561,18.8281 Q94.3061,18.8281 93.7436,19.125 Q93.1811,19.4063 92.7904,19.9375 Q92.3998,20.4688 92.1967,21.25 Q92.0092,22.0156 92.0092,22.9688 Q92.0092,23.9375 92.1811,24.7031 Q92.3686,25.4531 92.7279,25.9688 Q93.1029,26.4844 93.6811,26.7656 Q94.2592,27.0313 95.0561,27.0313 Q95.7904,27.0313 96.5248,26.8594 Q97.2748,26.6875 98.1498,26.3906 L98.1498,28.5469 Q97.7436,28.7031 97.3529,28.8281 Q96.9623,28.9375 96.5561,29.0156 Q96.1498,29.0938 95.7279,29.125 Q95.3061,29.1719 94.8061,29.1719 Q93.3998,29.1719 92.3686,28.7188 Q91.3529,28.2656 90.6811,27.4531 Q90.0092,26.6406 89.6811,25.5 Q89.3529,24.3438 89.3529,22.9531 Q89.3529,21.5781 89.7279,20.4219 Q90.1029,19.2656 90.8217,18.4375 Q91.5404,17.6094 92.6029,17.1563 Q93.6654,16.6875 95.0561,16.6875 Q95.9623,16.6875 96.8686,16.9219 Q97.7748,17.1406 98.6029,17.5469 L97.7748,19.6406 Q97.0873,19.3125 96.3998,19.0781 Q95.7123,18.8281 95.0561,18.8281 Z " fill="#000000"/><text fill="#000000" font-family="sans-serif" font-size="14" lengthAdjust="spacing" textLength="101" x="109.1186" y="27.8467">MonoBehaviour</text><line style="stroke:#181818;stroke-width:0.5;" x1="81.1186" x2="212.1186" y1="39" y2="39"/><line style="stroke:#181818;stroke-width:0.5;" x1="81.1186" x2="212.1186" y1="47" y2="47"/></g><!--class Camera--><g id="elem_Camera"><rect fill="#F1F1F1" height="48" id="Camera" rx="2.5" ry="2.5" style="stroke:#181818;stroke-width:0.5;" width="81" x="37.1186" y="304"/><ellipse cx="52.1186" cy="320" fill="#ADD1B2" rx="11" ry="11" style="stroke:#181818;stroke-width:1.0;"/><path d="M52.0561,315.8281 Q51.3061,315.8281 50.7436,316.125 Q50.1811,316.4063 49.7904,316.9375 Q49.3998,317.4688 49.1967,318.25 Q49.0092,319.0156 49.0092,319.9688 Q49.0092,320.9375 49.1811,321.7031 Q49.3686,322.4531 49.7279,322.9688 Q50.1029,323.4844 50.6811,323.7656 Q51.2592,324.0313 52.0561,324.0313 Q52.7904,324.0313 53.5248,323.8594 Q54.2748,323.6875 55.1498,323.3906 L55.1498,325.5469 Q54.7436,325.7031 54.3529,325.8281 Q53.9623,325.9375 53.5561,326.0156 Q53.1498,326.0938 52.7279,326.125 Q52.3061,326.1719 51.8061,326.1719 Q50.3998,326.1719 49.3686,325.7188 Q48.3529,325.2656 47.6811,324.4531 Q47.0092,323.6406 46.6811,322.5 Q46.3529,321.3438 46.3529,319.9531 Q46.3529,318.5781 46.7279,317.4219 Q47.1029,316.2656 47.8217,315.4375 Q48.5404,314.6094 49.6029,314.1563 Q50.6654,313.6875 52.0561,313.6875 Q52.9623,313.6875 53.8686,313.9219 Q54.7748,314.1406 55.6029,314.5469 L54.7748,316.6406 Q54.0873,316.3125 53.3998,316.0781 Q52.7123,315.8281 52.0561,315.8281 Z " fill="#000000"/><text fill="#000000" font-family="sans-serif" font-size="14" lengthAdjust="spacing" textLength="49" x="66.1186" y="324.8467">Camera</text><line style="stroke:#181818;stroke-width:0.5;" x1="38.1186" x2="117.1186" y1="336" y2="336"/><line style="stroke:#181818;stroke-width:0.5;" x1="38.1186" x2="117.1186" y1="344" y2="344"/></g><!--class RectTransform--><g id="elem_RectTransform"><rect fill="#F1F1F1" height="48" id="RectTransform" rx="2.5" ry="2.5" style="stroke:#181818;stroke-width:0.5;" width="125" x="153.1186" y="304"/><ellipse cx="168.1186" cy="320" fill="#ADD1B2" rx="11" ry="11" style="stroke:#181818;stroke-width:1.0;"/><path d="M168.0561,315.8281 Q167.3061,315.8281 166.7436,316.125 Q166.1811,316.4063 165.7904,316.9375 Q165.3998,317.4688 165.1967,318.25 Q165.0092,319.0156 165.0092,319.9688 Q165.0092,320.9375 165.1811,321.7031 Q165.3686,322.4531 165.7279,322.9688 Q166.1029,323.4844 166.6811,323.7656 Q167.2592,324.0313 168.0561,324.0313 Q168.7904,324.0313 169.5248,323.8594 Q170.2748,323.6875 171.1498,323.3906 L171.1498,325.5469 Q170.7436,325.7031 170.3529,325.8281 Q169.9623,325.9375 169.5561,326.0156 Q169.1498,326.0938 168.7279,326.125 Q168.3061,326.1719 167.8061,326.1719 Q166.3998,326.1719 165.3686,325.7188 Q164.3529,325.2656 163.6811,324.4531 Q163.0092,323.6406 162.6811,322.5 Q162.3529,321.3438 162.3529,319.9531 Q162.3529,318.5781 162.7279,317.4219 Q163.1029,316.2656 163.8217,315.4375 Q164.5404,314.6094 165.6029,314.1563 Q166.6654,313.6875 168.0561,313.6875 Q168.9623,313.6875 169.8686,313.9219 Q170.7748,314.1406 171.6029,314.5469 L170.7748,316.6406 Q170.0873,316.3125 169.3998,316.0781 Q168.7123,315.8281 168.0561,315.8281 Z " fill="#000000"/><text fill="#000000" font-family="sans-serif" font-size="14" lengthAdjust="spacing" textLength="93" x="182.1186" y="324.8467">RectTransform</text><line style="stroke:#181818;stroke-width:0.5;" x1="154.1186" x2="277.1186" y1="336" y2="336"/><line style="stroke:#181818;stroke-width:0.5;" x1="154.1186" x2="277.1186" y1="344" y2="344"/></g><!--reverse link MonoBehaviour to CameraBounds--><g id="link_MonoBehaviour_CameraBounds"><path codeLine="8" d="M146.6186,75.6 C146.6186,87.95 146.6186,101.66 146.6186,114.93 " fill="none" id="MonoBehaviour-backto-CameraBounds" style="stroke:#181818;stroke-width:1.0;"/><polygon fill="none" points="139.6186,75.21,146.6186,55.21,153.6186,75.21,139.6186,75.21" style="stroke:#181818;stroke-width:1.0;"/></g><!--link CameraBounds to Camera--><g id="link_CameraBounds_Camera"><path codeLine="9" d="M116.5586,244.33 C107.5386,263.48 98.1086,283.5 90.7886,299.04 " fill="none" id="CameraBounds-to-Camera" style="stroke:#181818;stroke-width:1.0;"/><polygon fill="#181818" points="88.5886,303.71,96.0615,297.2948,90.7327,299.1931,88.8344,293.8642,88.5886,303.71" style="stroke:#181818;stroke-width:1.0;"/><text fill="#000000" font-family="sans-serif" font-size="13" lengthAdjust="spacing" textLength="76" x="6" y="293.0443">mainCamera</text></g><!--link CameraBounds to RectTransform--><g id="link_CameraBounds_RectTransform"><path codeLine="10" d="M176.6886,244.33 C185.6986,263.48 195.1286,283.5 202.4486,299.04 " fill="none" id="CameraBounds-to-RectTransform" style="stroke:#181818;stroke-width:1.0;"/><polygon fill="#181818" points="204.6486,303.71,204.4147,293.8639,202.51,299.1904,197.1834,297.2857,204.6486,303.71" style="stroke:#181818;stroke-width:1.0;"/><text fill="#000000" font-family="sans-serif" font-size="13" lengthAdjust="spacing" textLength="65" x="129.0528" y="293.0443">canvasRect</text></g><!--SRC=[RO_F2i8m38VlUugmqqJw0aCyR5S5iNhn5hOC2sipsco2VzxTkOfGC8SSldmalpGzXW0rMl9OyUZQ08yCvjA2NeeLb32nQHUqGw7pqCuzvP7Lw2OCSKSwhtkqGpnnu634i4k5DMYI2xCj7DsqkLFPzOpoSrxPdXrNTCN9yEXXyrGgoPmb3oYrXToYSP7cN_MFr2oPZzH83fz-ykX2nzw-0G00]--></g></svg>