<?xml version="1.0" encoding="us-ascii" standalone="no"?><svg xmlns="http://www.w3.org/2000/svg" xmlns:xlink="http://www.w3.org/1999/xlink" contentStyleType="text/css" height="343px" preserveAspectRatio="none" style="width:284px;height:343px;background:#FFFFFF;" version="1.1" viewBox="0 0 284 343" width="284px" zoomAndPan="magnify"><defs/><g><!--class CameraBounds--><g id="elem_CameraBounds"><rect codeLine="1" fill="#F1F1F1" height="113.1875" id="CameraBounds" rx="2.5" ry="2.5" style="stroke:#181818;stroke-width:0.5;" width="214" x="39.3157" y="115"/><ellipse cx="94.0658" cy="131" fill="#ADD1B2" rx="11" ry="11" style="stroke:#181818;stroke-width:1.0;"/><path d="M94.0033,126.8281 Q93.2533,126.8281 92.6908,127.125 Q92.1283,127.4063 91.7376,127.9375 Q91.347,128.4688 91.1439,129.25 Q90.9564,130.0156 90.9564,130.9688 Q90.9564,131.9375 91.1283,132.7031 Q91.3158,133.4531 91.6751,133.9688 Q92.0501,134.4844 92.6283,134.7656 Q93.2064,135.0313 94.0033,135.0313 Q94.7376,135.0313 95.472,134.8594 Q96.222,134.6875 97.097,134.3906 L97.097,136.5469 Q96.6908,136.7031 96.3001,136.8281 Q95.9095,136.9375 95.5033,137.0156 Q95.097,137.0938 94.6751,137.125 Q94.2533,137.1719 93.7533,137.1719 Q92.347,137.1719 91.3158,136.7188 Q90.3001,136.2656 89.6283,135.4531 Q88.9564,134.6406 88.6283,133.5 Q88.3001,132.3438 88.3001,130.9531 Q88.3001,129.5781 88.6751,128.4219 Q89.0501,127.2656 89.7689,126.4375 Q90.4876,125.6094 91.5501,125.1563 Q92.6126,124.6875 94.0033,124.6875 Q94.9095,124.6875 95.8158,124.9219 Q96.722,125.1406 97.5501,125.5469 L96.722,127.6406 Q96.0345,127.3125 95.347,127.0781 Q94.6595,126.8281 94.0033,126.8281 Z " fill="#000000"/><text fill="#000000" font-family="sans-serif" font-size="14" lengthAdjust="spacing" textLength="96" x="114.5658" y="135.8467">CameraBounds</text><line style="stroke:#181818;stroke-width:0.5;" x1="40.3157" x2="252.3157" y1="147" y2="147"/><line style="stroke:#181818;stroke-width:0.5;" x1="40.3157" x2="252.3157" y1="155" y2="155"/><text fill="#000000" font-family="sans-serif" font-size="14" lengthAdjust="spacing" textLength="77" x="59.3157" y="171.9951">Start() : void</text><text fill="#000000" font-family="sans-serif" font-size="14" lengthAdjust="spacing" textLength="120" x="59.3157" y="188.292">LateUpdate() : void</text><text fill="#000000" font-family="sans-serif" font-size="14" lengthAdjust="spacing" textLength="187" x="59.3157" y="204.5889">ClampCameraPosition() : void</text><ellipse cx="50.3157" cy="217.5391" fill="#84BE84" rx="3" ry="3" style="stroke:#038048;stroke-width:1.0;"/><text fill="#000000" font-family="sans-serif" font-size="14" lengthAdjust="spacing" textLength="188" x="59.3157" y="220.8857">SetZoom(newSize:float) : void</text></g><!--class MonoBehaviour--><g id="elem_MonoBehaviour"><rect fill="#F1F1F1" height="48" id="MonoBehaviour" rx="2.5" ry="2.5" style="stroke:#181818;stroke-width:0.5;" width="133" x="79.8158" y="7"/><ellipse cx="94.8158" cy="23" fill="#ADD1B2" rx="11" ry="11" style="stroke:#181818;stroke-width:1.0;"/><path d="M94.7533,18.8281 Q94.0033,18.8281 93.4408,19.125 Q92.8783,19.4063 92.4876,19.9375 Q92.097,20.4688 91.8939,21.25 Q91.7064,22.0156 91.7064,22.9688 Q91.7064,23.9375 91.8783,24.7031 Q92.0658,25.4531 92.4251,25.9688 Q92.8001,26.4844 93.3783,26.7656 Q93.9564,27.0313 94.7533,27.0313 Q95.4876,27.0313 96.222,26.8594 Q96.972,26.6875 97.847,26.3906 L97.847,28.5469 Q97.4408,28.7031 97.0501,28.8281 Q96.6595,28.9375 96.2533,29.0156 Q95.847,29.0938 95.4251,29.125 Q95.0033,29.1719 94.5033,29.1719 Q93.097,29.1719 92.0658,28.7188 Q91.0501,28.2656 90.3783,27.4531 Q89.7064,26.6406 89.3783,25.5 Q89.0501,24.3438 89.0501,22.9531 Q89.0501,21.5781 89.4251,20.4219 Q89.8001,19.2656 90.5189,18.4375 Q91.2376,17.6094 92.3001,17.1563 Q93.3626,16.6875 94.7533,16.6875 Q95.6595,16.6875 96.5658,16.9219 Q97.472,17.1406 98.3001,17.5469 L97.472,19.6406 Q96.7845,19.3125 96.097,19.0781 Q95.4095,18.8281 94.7533,18.8281 Z " fill="#000000"/><text fill="#000000" font-family="sans-serif" font-size="14" lengthAdjust="spacing" textLength="101" x="108.8158" y="27.8467">MonoBehaviour</text><line style="stroke:#181818;stroke-width:0.5;" x1="80.8158" x2="211.8157" y1="39" y2="39"/><line style="stroke:#181818;stroke-width:0.5;" x1="80.8158" x2="211.8157" y1="47" y2="47"/></g><!--class Camera--><g id="elem_Camera"><rect fill="#F1F1F1" height="48" id="Camera" rx="2.5" ry="2.5" style="stroke:#181818;stroke-width:0.5;" width="81" x="36.8157" y="288"/><ellipse cx="51.8157" cy="304" fill="#ADD1B2" rx="11" ry="11" style="stroke:#181818;stroke-width:1.0;"/><path d="M51.7532,299.8281 Q51.0032,299.8281 50.4407,300.125 Q49.8782,300.4063 49.4876,300.9375 Q49.097,301.4688 48.8939,302.25 Q48.7064,303.0156 48.7064,303.9688 Q48.7064,304.9375 48.8782,305.7031 Q49.0657,306.4531 49.4251,306.9688 Q49.8001,307.4844 50.3782,307.7656 Q50.9564,308.0313 51.7532,308.0313 Q52.4876,308.0313 53.222,307.8594 Q53.972,307.6875 54.847,307.3906 L54.847,309.5469 Q54.4407,309.7031 54.0501,309.8281 Q53.6595,309.9375 53.2532,310.0156 Q52.847,310.0938 52.4251,310.125 Q52.0032,310.1719 51.5032,310.1719 Q50.097,310.1719 49.0657,309.7188 Q48.0501,309.2656 47.3782,308.4531 Q46.7064,307.6406 46.3782,306.5 Q46.0501,305.3438 46.0501,303.9531 Q46.0501,302.5781 46.4251,301.4219 Q46.8001,300.2656 47.5189,299.4375 Q48.2376,298.6094 49.3001,298.1563 Q50.3626,297.6875 51.7532,297.6875 Q52.6595,297.6875 53.5657,297.9219 Q54.472,298.1406 55.3001,298.5469 L54.472,300.6406 Q53.7845,300.3125 53.097,300.0781 Q52.4095,299.8281 51.7532,299.8281 Z " fill="#000000"/><text fill="#000000" font-family="sans-serif" font-size="14" lengthAdjust="spacing" textLength="49" x="65.8158" y="308.8467">Camera</text><line style="stroke:#181818;stroke-width:0.5;" x1="37.8157" x2="116.8158" y1="320" y2="320"/><line style="stroke:#181818;stroke-width:0.5;" x1="37.8157" x2="116.8158" y1="328" y2="328"/></g><!--class RectTransform--><g id="elem_RectTransform"><rect fill="#F1F1F1" height="48" id="RectTransform" rx="2.5" ry="2.5" style="stroke:#181818;stroke-width:0.5;" width="125" x="152.8158" y="288"/><ellipse cx="167.8158" cy="304" fill="#ADD1B2" rx="11" ry="11" style="stroke:#181818;stroke-width:1.0;"/><path d="M167.7533,299.8281 Q167.0033,299.8281 166.4408,300.125 Q165.8783,300.4063 165.4876,300.9375 Q165.097,301.4688 164.8939,302.25 Q164.7064,303.0156 164.7064,303.9688 Q164.7064,304.9375 164.8783,305.7031 Q165.0658,306.4531 165.4251,306.9688 Q165.8001,307.4844 166.3783,307.7656 Q166.9564,308.0313 167.7533,308.0313 Q168.4876,308.0313 169.222,307.8594 Q169.972,307.6875 170.847,307.3906 L170.847,309.5469 Q170.4408,309.7031 170.0501,309.8281 Q169.6595,309.9375 169.2533,310.0156 Q168.847,310.0938 168.4251,310.125 Q168.0033,310.1719 167.5033,310.1719 Q166.097,310.1719 165.0658,309.7188 Q164.0501,309.2656 163.3783,308.4531 Q162.7064,307.6406 162.3783,306.5 Q162.0501,305.3438 162.0501,303.9531 Q162.0501,302.5781 162.4251,301.4219 Q162.8001,300.2656 163.5189,299.4375 Q164.2376,298.6094 165.3001,298.1563 Q166.3626,297.6875 167.7533,297.6875 Q168.6595,297.6875 169.5658,297.9219 Q170.472,298.1406 171.3001,298.5469 L170.472,300.6406 Q169.7845,300.3125 169.097,300.0781 Q168.4095,299.8281 167.7533,299.8281 Z " fill="#000000"/><text fill="#000000" font-family="sans-serif" font-size="14" lengthAdjust="spacing" textLength="93" x="181.8158" y="308.8467">RectTransform</text><line style="stroke:#181818;stroke-width:0.5;" x1="153.8158" x2="276.8158" y1="320" y2="320"/><line style="stroke:#181818;stroke-width:0.5;" x1="153.8158" x2="276.8158" y1="328" y2="328"/></g><!--reverse link MonoBehaviour to CameraBounds--><g id="link_MonoBehaviour_CameraBounds"><path codeLine="7" d="M146.3158,75.3 C146.3158,87.85 146.3158,101.74 146.3158,114.94 " fill="none" id="MonoBehaviour-backto-CameraBounds" style="stroke:#181818;stroke-width:1.0;"/><polygon fill="none" points="139.3157,75.18,146.3158,55.18,153.3158,75.18,139.3157,75.18" style="stroke:#181818;stroke-width:1.0;"/></g><!--link CameraBounds to Camera--><g id="link_CameraBounds_Camera"><path codeLine="8" d="M118.6558,228.04 C109.2058,247 99.0458,267.38 91.1658,283.21 " fill="none" id="CameraBounds-to-Camera" style="stroke:#181818;stroke-width:1.0;"/><polygon fill="#181818" points="88.7958,287.96,96.3824,281.6796,91.0204,283.4822,89.2179,278.1202,88.7958,287.96" style="stroke:#181818;stroke-width:1.0;"/><text fill="#000000" font-family="sans-serif" font-size="13" lengthAdjust="spacing" textLength="76" x="6" y="276.9618">mainCamera</text></g><!--link CameraBounds to RectTransform--><g id="link_CameraBounds_RectTransform"><path codeLine="9" d="M173.9858,228.04 C183.4357,247 193.5858,267.38 201.4758,283.21 " fill="none" id="CameraBounds-to-RectTransform" style="stroke:#181818;stroke-width:1.0;"/><polygon fill="#181818" points="203.8458,287.96,203.4111,278.1207,201.6154,283.485,196.2511,281.6893,203.8458,287.96" style="stroke:#181818;stroke-width:1.0;"/><text fill="#000000" font-family="sans-serif" font-size="13" lengthAdjust="spacing" textLength="65" x="127.5784" y="276.9618">canvasRect</text></g><!--SRC=[ROwz2i9048JxFCMIAYBt0a4iabP14ctibcI31xdTSBU9uC-x6uq81qunnSV7C4sF8K29ZZmMCd8Ru9x0d5hHQxQ272QnxGVjKEaqj7F7lEpH3Sl4GO9LAnmBQwX9po8kOxhMzaPvrmlgptacUs4fw8AJbT73vc5Cz2c93XgpXTIXvOMcN_MFr21F62fgD8Lt7prowCIx5m00]--></g></svg>