<?xml version="1.0" encoding="us-ascii" standalone="no"?><svg xmlns="http://www.w3.org/2000/svg" xmlns:xlink="http://www.w3.org/1999/xlink" contentStyleType="text/css" height="327px" preserveAspectRatio="none" style="width:346px;height:327px;background:#FFFFFF;" version="1.1" viewBox="0 0 346 327" width="346px" zoomAndPan="magnify"><defs/><g><!--class Export--><g id="elem_Export"><rect codeLine="1" fill="#F1F1F1" height="96.8906" id="Export" rx="2.5" ry="2.5" style="stroke:#181818;stroke-width:0.5;" width="332" x="7" y="115"/><ellipse cx="148.25" cy="131" fill="#ADD1B2" rx="11" ry="11" style="stroke:#181818;stroke-width:1.0;"/><path d="M148.1875,126.8281 Q147.4375,126.8281 146.875,127.125 Q146.3125,127.4063 145.9219,127.9375 Q145.5313,128.4688 145.3281,129.25 Q145.1406,130.0156 145.1406,130.9688 Q145.1406,131.9375 145.3125,132.7031 Q145.5,133.4531 145.8594,133.9688 Q146.2344,134.4844 146.8125,134.7656 Q147.3906,135.0313 148.1875,135.0313 Q148.9219,135.0313 149.6563,134.8594 Q150.4063,134.6875 151.2813,134.3906 L151.2813,136.5469 Q150.875,136.7031 150.4844,136.8281 Q150.0938,136.9375 149.6875,137.0156 Q149.2813,137.0938 148.8594,137.125 Q148.4375,137.1719 147.9375,137.1719 Q146.5313,137.1719 145.5,136.7188 Q144.4844,136.2656 143.8125,135.4531 Q143.1406,134.6406 142.8125,133.5 Q142.4844,132.3438 142.4844,130.9531 Q142.4844,129.5781 142.8594,128.4219 Q143.2344,127.2656 143.9531,126.4375 Q144.6719,125.6094 145.7344,125.1563 Q146.7969,124.6875 148.1875,124.6875 Q149.0938,124.6875 150,124.9219 Q150.9063,125.1406 151.7344,125.5469 L150.9063,127.6406 Q150.2188,127.3125 149.5313,127.0781 Q148.8438,126.8281 148.1875,126.8281 Z " fill="#000000"/><text fill="#000000" font-family="sans-serif" font-size="14" lengthAdjust="spacing" textLength="41" x="168.75" y="135.8467">Export</text><line style="stroke:#181818;stroke-width:0.5;" x1="8" x2="338" y1="147" y2="147"/><line style="stroke:#181818;stroke-width:0.5;" x1="8" x2="338" y1="155" y2="155"/><ellipse cx="18" cy="168.6484" fill="#84BE84" rx="3" ry="3" style="stroke:#038048;stroke-width:1.0;"/><text fill="#000000" font-family="sans-serif" font-size="14" lengthAdjust="spacing" textLength="94" x="27" y="171.9951">OnClick() : void</text><text fill="#000000" font-family="sans-serif" font-size="14" lengthAdjust="spacing" textLength="306" x="27" y="188.292">NoToolkitCaptureAndSaveAsPDF() : IEnumerator</text><ellipse cx="18" cy="201.2422" fill="#84BE84" rx="3" ry="3" style="stroke:#038048;stroke-width:1.0;"/><text fill="#000000" font-family="sans-serif" font-size="14" lengthAdjust="spacing" textLength="288" x="27" y="204.5889">ToolkitCaptureAndSaveAsPDF() : IEnumerator</text></g><!--class MonoBehaviour--><g id="elem_MonoBehaviour"><rect fill="#F1F1F1" height="48" id="MonoBehaviour" rx="2.5" ry="2.5" style="stroke:#181818;stroke-width:0.5;" width="133" x="106.5" y="7"/><ellipse cx="121.5" cy="23" fill="#ADD1B2" rx="11" ry="11" style="stroke:#181818;stroke-width:1.0;"/><path d="M121.4375,18.8281 Q120.6875,18.8281 120.125,19.125 Q119.5625,19.4063 119.1719,19.9375 Q118.7813,20.4688 118.5781,21.25 Q118.3906,22.0156 118.3906,22.9688 Q118.3906,23.9375 118.5625,24.7031 Q118.75,25.4531 119.1094,25.9688 Q119.4844,26.4844 120.0625,26.7656 Q120.6406,27.0313 121.4375,27.0313 Q122.1719,27.0313 122.9063,26.8594 Q123.6563,26.6875 124.5313,26.3906 L124.5313,28.5469 Q124.125,28.7031 123.7344,28.8281 Q123.3438,28.9375 122.9375,29.0156 Q122.5313,29.0938 122.1094,29.125 Q121.6875,29.1719 121.1875,29.1719 Q119.7813,29.1719 118.75,28.7188 Q117.7344,28.2656 117.0625,27.4531 Q116.3906,26.6406 116.0625,25.5 Q115.7344,24.3438 115.7344,22.9531 Q115.7344,21.5781 116.1094,20.4219 Q116.4844,19.2656 117.2031,18.4375 Q117.9219,17.6094 118.9844,17.1563 Q120.0469,16.6875 121.4375,16.6875 Q122.3438,16.6875 123.25,16.9219 Q124.1563,17.1406 124.9844,17.5469 L124.1563,19.6406 Q123.4688,19.3125 122.7813,19.0781 Q122.0938,18.8281 121.4375,18.8281 Z " fill="#000000"/><text fill="#000000" font-family="sans-serif" font-size="14" lengthAdjust="spacing" textLength="101" x="135.5" y="27.8467">MonoBehaviour</text><line style="stroke:#181818;stroke-width:0.5;" x1="107.5" x2="238.5" y1="39" y2="39"/><line style="stroke:#181818;stroke-width:0.5;" x1="107.5" x2="238.5" y1="47" y2="47"/></g><!--class UIDocument--><g id="elem_UIDocument"><rect fill="#F1F1F1" height="48" id="UIDocument" rx="2.5" ry="2.5" style="stroke:#181818;stroke-width:0.5;" width="113" x="50.5" y="272"/><ellipse cx="65.5" cy="288" fill="#ADD1B2" rx="11" ry="11" style="stroke:#181818;stroke-width:1.0;"/><path d="M65.4375,283.8281 Q64.6875,283.8281 64.125,284.125 Q63.5625,284.4063 63.1719,284.9375 Q62.7813,285.4688 62.5781,286.25 Q62.3906,287.0156 62.3906,287.9688 Q62.3906,288.9375 62.5625,289.7031 Q62.75,290.4531 63.1094,290.9688 Q63.4844,291.4844 64.0625,291.7656 Q64.6406,292.0313 65.4375,292.0313 Q66.1719,292.0313 66.9063,291.8594 Q67.6563,291.6875 68.5313,291.3906 L68.5313,293.5469 Q68.125,293.7031 67.7344,293.8281 Q67.3438,293.9375 66.9375,294.0156 Q66.5313,294.0938 66.1094,294.125 Q65.6875,294.1719 65.1875,294.1719 Q63.7813,294.1719 62.75,293.7188 Q61.7344,293.2656 61.0625,292.4531 Q60.3906,291.6406 60.0625,290.5 Q59.7344,289.3438 59.7344,287.9531 Q59.7344,286.5781 60.1094,285.4219 Q60.4844,284.2656 61.2031,283.4375 Q61.9219,282.6094 62.9844,282.1563 Q64.0469,281.6875 65.4375,281.6875 Q66.3438,281.6875 67.25,281.9219 Q68.1563,282.1406 68.9844,282.5469 L68.1563,284.6406 Q67.4688,284.3125 66.7813,284.0781 Q66.0938,283.8281 65.4375,283.8281 Z " fill="#000000"/><text fill="#000000" font-family="sans-serif" font-size="14" lengthAdjust="spacing" textLength="81" x="79.5" y="292.8467">UIDocument</text><line style="stroke:#181818;stroke-width:0.5;" x1="51.5" x2="162.5" y1="304" y2="304"/><line style="stroke:#181818;stroke-width:0.5;" x1="51.5" x2="162.5" y1="312" y2="312"/></g><!--class Camera--><g id="elem_Camera"><rect fill="#F1F1F1" height="48" id="Camera" rx="2.5" ry="2.5" style="stroke:#181818;stroke-width:0.5;" width="81" x="198.5" y="272"/><ellipse cx="213.5" cy="288" fill="#ADD1B2" rx="11" ry="11" style="stroke:#181818;stroke-width:1.0;"/><path d="M213.4375,283.8281 Q212.6875,283.8281 212.125,284.125 Q211.5625,284.4063 211.1719,284.9375 Q210.7813,285.4688 210.5781,286.25 Q210.3906,287.0156 210.3906,287.9688 Q210.3906,288.9375 210.5625,289.7031 Q210.75,290.4531 211.1094,290.9688 Q211.4844,291.4844 212.0625,291.7656 Q212.6406,292.0313 213.4375,292.0313 Q214.1719,292.0313 214.9063,291.8594 Q215.6563,291.6875 216.5313,291.3906 L216.5313,293.5469 Q216.125,293.7031 215.7344,293.8281 Q215.3438,293.9375 214.9375,294.0156 Q214.5313,294.0938 214.1094,294.125 Q213.6875,294.1719 213.1875,294.1719 Q211.7813,294.1719 210.75,293.7188 Q209.7344,293.2656 209.0625,292.4531 Q208.3906,291.6406 208.0625,290.5 Q207.7344,289.3438 207.7344,287.9531 Q207.7344,286.5781 208.1094,285.4219 Q208.4844,284.2656 209.2031,283.4375 Q209.9219,282.6094 210.9844,282.1563 Q212.0469,281.6875 213.4375,281.6875 Q214.3438,281.6875 215.25,281.9219 Q216.1563,282.1406 216.9844,282.5469 L216.1563,284.6406 Q215.4688,284.3125 214.7813,284.0781 Q214.0938,283.8281 213.4375,283.8281 Z " fill="#000000"/><text fill="#000000" font-family="sans-serif" font-size="14" lengthAdjust="spacing" textLength="49" x="227.5" y="292.8467">Camera</text><line style="stroke:#181818;stroke-width:0.5;" x1="199.5" x2="278.5" y1="304" y2="304"/><line style="stroke:#181818;stroke-width:0.5;" x1="199.5" x2="278.5" y1="312" y2="312"/></g><!--reverse link MonoBehaviour to Export--><g id="link_MonoBehaviour_Export"><path codeLine="6" d="M173,75.37 C173,88.03 173,101.93 173,114.84 " fill="none" id="MonoBehaviour-backto-Export" style="stroke:#181818;stroke-width:1.0;"/><polygon fill="none" points="166,75.03,173,55.03,180,75.03,166,75.03" style="stroke:#181818;stroke-width:1.0;"/></g><!--link Export to UIDocument--><g id="link_Export_UIDocument"><path codeLine="7" d="M148.8,212.35 C139.53,230.68 129.26,250.98 121.22,266.88 " fill="none" id="Export-to-UIDocument" style="stroke:#181818;stroke-width:1.0;"/><polygon fill="#181818" points="118.8,271.66,126.4346,265.438,121.0589,267.1994,119.2975,261.8237,118.8,271.66" style="stroke:#181818;stroke-width:1.0;"/><text fill="#000000" font-family="sans-serif" font-size="13" lengthAdjust="spacing" textLength="11" x="109.3356" y="260.9821">ui</text></g><!--link Export to Camera--><g id="link_Export_Camera"><path codeLine="8" d="M197.2,212.35 C206.47,230.68 216.74,250.98 224.78,266.88 " fill="none" id="Export-to-Camera" style="stroke:#181818;stroke-width:1.0;"/><polygon fill="#181818" points="227.2,271.66,226.7025,261.8237,224.9411,267.1994,219.5654,265.438,227.2,271.66" style="stroke:#181818;stroke-width:1.0;"/><text fill="#000000" font-family="sans-serif" font-size="13" lengthAdjust="spacing" textLength="25" x="196.2769" y="260.9821">cam</text></g><!--SRC=[Iyv9B2vMSAqeo2ygKQZcKW02RGN_FEUSpEHi3Kq5AuMo_CmKiB1VVaX-VavsPebpOa59QL6gOrvAS69PgcDnW8iRMAMdQrvfRcfHOab-4TGS4ZJKSldcv-KxfMOabcNcbnOfsDJewaATnGLrdQwkdO9IQQQIGgYdItuoK6SUgbHoOgwIWdCYo4G0]--></g></svg>