<?xml version="1.0" encoding="us-ascii" standalone="no"?><svg xmlns="http://www.w3.org/2000/svg" xmlns:xlink="http://www.w3.org/1999/xlink" contentStyleType="text/css" height="218px" preserveAspectRatio="none" style="width:184px;height:218px;background:#FFFFFF;" version="1.1" viewBox="0 0 184 218" width="184px" zoomAndPan="magnify"><defs/><g><!--class MoveCamera--><g id="elem_MoveCamera"><rect codeLine="1" fill="#F1F1F1" height="96.8906" id="MoveCamera" rx="2.5" ry="2.5" style="stroke:#181818;stroke-width:0.5;" width="170" x="7" y="115"/><ellipse cx="46.3" cy="131" fill="#ADD1B2" rx="11" ry="11" style="stroke:#181818;stroke-width:1.0;"/><path d="M46.2375,126.8281 Q45.4875,126.8281 44.925,127.125 Q44.3625,127.4063 43.9719,127.9375 Q43.5813,128.4688 43.3781,129.25 Q43.1906,130.0156 43.1906,130.9688 Q43.1906,131.9375 43.3625,132.7031 Q43.55,133.4531 43.9094,133.9688 Q44.2844,134.4844 44.8625,134.7656 Q45.4406,135.0313 46.2375,135.0313 Q46.9719,135.0313 47.7063,134.8594 Q48.4563,134.6875 49.3313,134.3906 L49.3313,136.5469 Q48.925,136.7031 48.5344,136.8281 Q48.1438,136.9375 47.7375,137.0156 Q47.3313,137.0938 46.9094,137.125 Q46.4875,137.1719 45.9875,137.1719 Q44.5813,137.1719 43.55,136.7188 Q42.5344,136.2656 41.8625,135.4531 Q41.1906,134.6406 40.8625,133.5 Q40.5344,132.3438 40.5344,130.9531 Q40.5344,129.5781 40.9094,128.4219 Q41.2844,127.2656 42.0031,126.4375 Q42.7219,125.6094 43.7844,125.1563 Q44.8469,124.6875 46.2375,124.6875 Q47.1438,124.6875 48.05,124.9219 Q48.9563,125.1406 49.7844,125.5469 L48.9563,127.6406 Q48.2688,127.3125 47.5813,127.0781 Q46.8938,126.8281 46.2375,126.8281 Z " fill="#000000"/><text fill="#000000" font-family="sans-serif" font-size="14" lengthAdjust="spacing" textLength="84" x="65.7" y="135.8467">MoveCamera</text><line style="stroke:#181818;stroke-width:0.5;" x1="8" x2="176" y1="147" y2="147"/><ellipse cx="18" cy="160.6484" fill="none" rx="3" ry="3" style="stroke:#038048;stroke-width:1.0;"/><text fill="#000000" font-family="sans-serif" font-size="14" lengthAdjust="spacing" textLength="140" x="27" y="163.9951">panSpeed : float = 20f</text><ellipse cx="18" cy="176.9453" fill="none" rx="3" ry="3" style="stroke:#038048;stroke-width:1.0;"/><text fill="#000000" font-family="sans-serif" font-size="14" lengthAdjust="spacing" textLength="144" x="27" y="180.292">zoomSpeed : float = 1f</text><line style="stroke:#181818;stroke-width:0.5;" x1="8" x2="176" y1="187.5938" y2="187.5938"/><text fill="#000000" font-family="sans-serif" font-size="14" lengthAdjust="spacing" textLength="93" x="13" y="204.5889">Update() : void</text></g><!--class MonoBehaviour--><g id="elem_MonoBehaviour"><rect fill="#F1F1F1" height="48" id="MonoBehaviour" rx="2.5" ry="2.5" style="stroke:#181818;stroke-width:0.5;" width="133" x="25.5" y="7"/><ellipse cx="40.5" cy="23" fill="#ADD1B2" rx="11" ry="11" style="stroke:#181818;stroke-width:1.0;"/><path d="M40.4375,18.8281 Q39.6875,18.8281 39.125,19.125 Q38.5625,19.4063 38.1719,19.9375 Q37.7813,20.4688 37.5781,21.25 Q37.3906,22.0156 37.3906,22.9688 Q37.3906,23.9375 37.5625,24.7031 Q37.75,25.4531 38.1094,25.9688 Q38.4844,26.4844 39.0625,26.7656 Q39.6406,27.0313 40.4375,27.0313 Q41.1719,27.0313 41.9063,26.8594 Q42.6563,26.6875 43.5313,26.3906 L43.5313,28.5469 Q43.125,28.7031 42.7344,28.8281 Q42.3438,28.9375 41.9375,29.0156 Q41.5313,29.0938 41.1094,29.125 Q40.6875,29.1719 40.1875,29.1719 Q38.7813,29.1719 37.75,28.7188 Q36.7344,28.2656 36.0625,27.4531 Q35.3906,26.6406 35.0625,25.5 Q34.7344,24.3438 34.7344,22.9531 Q34.7344,21.5781 35.1094,20.4219 Q35.4844,19.2656 36.2031,18.4375 Q36.9219,17.6094 37.9844,17.1563 Q39.0469,16.6875 40.4375,16.6875 Q41.3438,16.6875 42.25,16.9219 Q43.1563,17.1406 43.9844,17.5469 L43.1563,19.6406 Q42.4688,19.3125 41.7813,19.0781 Q41.0938,18.8281 40.4375,18.8281 Z " fill="#000000"/><text fill="#000000" font-family="sans-serif" font-size="14" lengthAdjust="spacing" textLength="101" x="54.5" y="27.8467">MonoBehaviour</text><line style="stroke:#181818;stroke-width:0.5;" x1="26.5" x2="157.5" y1="39" y2="39"/><line style="stroke:#181818;stroke-width:0.5;" x1="26.5" x2="157.5" y1="47" y2="47"/></g><!--reverse link MonoBehaviour to MoveCamera--><g id="link_MonoBehaviour_MoveCamera"><path codeLine="6" d="M92,75.37 C92,88.03 92,101.93 92,114.84 " fill="none" id="MonoBehaviour-backto-MoveCamera" style="stroke:#181818;stroke-width:1.0;"/><polygon fill="none" points="85,75.03,92,55.03,99,75.03,85,75.03" style="stroke:#181818;stroke-width:1.0;"/></g><!--SRC=[Iyv9B2vMyCqlItLEp4qjIbIevb800cs5WiIyu8BKr1G5AuMqdFp44WLR1IE3DAXaLNv-Bhgi8KGoj20biIHLGnCeKvQVcS9Lo-MRdvVlb9gHM9QPNrgaO5EZguja7m00]--></g></svg>