<?xml version="1.0" encoding="us-ascii" standalone="no"?><svg xmlns="http://www.w3.org/2000/svg" xmlns:xlink="http://www.w3.org/1999/xlink" contentStyleType="text/css" height="343px" preserveAspectRatio="none" style="width:423px;height:343px;background:#FFFFFF;" version="1.1" viewBox="0 0 423 343" width="423px" zoomAndPan="magnify"><defs/><g><!--class TilemapGrid--><g id="elem_TilemapGrid"><rect codeLine="1" fill="#F1F1F1" height="113.1875" id="TilemapGrid" rx="2.5" ry="2.5" style="stroke:#181818;stroke-width:0.5;" width="409" x="7" y="115"/><ellipse cx="167.75" cy="131" fill="#ADD1B2" rx="11" ry="11" style="stroke:#181818;stroke-width:1.0;"/><path d="M167.6875,126.8281 Q166.9375,126.8281 166.375,127.125 Q165.8125,127.4063 165.4219,127.9375 Q165.0313,128.4688 164.8281,129.25 Q164.6406,130.0156 164.6406,130.9688 Q164.6406,131.9375 164.8125,132.7031 Q165,133.4531 165.3594,133.9688 Q165.7344,134.4844 166.3125,134.7656 Q166.8906,135.0313 167.6875,135.0313 Q168.4219,135.0313 169.1563,134.8594 Q169.9063,134.6875 170.7813,134.3906 L170.7813,136.5469 Q170.375,136.7031 169.9844,136.8281 Q169.5938,136.9375 169.1875,137.0156 Q168.7813,137.0938 168.3594,137.125 Q167.9375,137.1719 167.4375,137.1719 Q166.0313,137.1719 165,136.7188 Q163.9844,136.2656 163.3125,135.4531 Q162.6406,134.6406 162.3125,133.5 Q161.9844,132.3438 161.9844,130.9531 Q161.9844,129.5781 162.3594,128.4219 Q162.7344,127.2656 163.4531,126.4375 Q164.1719,125.6094 165.2344,125.1563 Q166.2969,124.6875 167.6875,124.6875 Q168.5938,124.6875 169.5,124.9219 Q170.4063,125.1406 171.2344,125.5469 L170.4063,127.6406 Q169.7188,127.3125 169.0313,127.0781 Q168.3438,126.8281 167.6875,126.8281 Z " fill="#000000"/><text fill="#000000" font-family="sans-serif" font-size="14" lengthAdjust="spacing" textLength="79" x="188.25" y="135.8467">TilemapGrid</text><line style="stroke:#181818;stroke-width:0.5;" x1="8" x2="415" y1="147" y2="147"/><line style="stroke:#181818;stroke-width:0.5;" x1="8" x2="415" y1="155" y2="155"/><text fill="#000000" font-family="sans-serif" font-size="14" lengthAdjust="spacing" textLength="107" x="27" y="171.9951">OnEnable() : void</text><text fill="#000000" font-family="sans-serif" font-size="14" lengthAdjust="spacing" textLength="112" x="27" y="188.292">OnDisable() : void</text><ellipse cx="18" cy="201.2422" fill="#84BE84" rx="3" ry="3" style="stroke:#038048;stroke-width:1.0;"/><text fill="#000000" font-family="sans-serif" font-size="14" lengthAdjust="spacing" textLength="383" x="27" y="204.5889">GenerateGrid(dungeonGenerator:DungeonGenerator) : void</text><text fill="#000000" font-family="sans-serif" font-size="14" lengthAdjust="spacing" textLength="135" x="27" y="220.8857">GenerateGrid() : void</text></g><!--class MonoBehaviour--><g id="elem_MonoBehaviour"><rect fill="#F1F1F1" height="48" id="MonoBehaviour" rx="2.5" ry="2.5" style="stroke:#181818;stroke-width:0.5;" width="133" x="145" y="7"/><ellipse cx="160" cy="23" fill="#ADD1B2" rx="11" ry="11" style="stroke:#181818;stroke-width:1.0;"/><path d="M159.9375,18.8281 Q159.1875,18.8281 158.625,19.125 Q158.0625,19.4063 157.6719,19.9375 Q157.2813,20.4688 157.0781,21.25 Q156.8906,22.0156 156.8906,22.9688 Q156.8906,23.9375 157.0625,24.7031 Q157.25,25.4531 157.6094,25.9688 Q157.9844,26.4844 158.5625,26.7656 Q159.1406,27.0313 159.9375,27.0313 Q160.6719,27.0313 161.4063,26.8594 Q162.1563,26.6875 163.0313,26.3906 L163.0313,28.5469 Q162.625,28.7031 162.2344,28.8281 Q161.8438,28.9375 161.4375,29.0156 Q161.0313,29.0938 160.6094,29.125 Q160.1875,29.1719 159.6875,29.1719 Q158.2813,29.1719 157.25,28.7188 Q156.2344,28.2656 155.5625,27.4531 Q154.8906,26.6406 154.5625,25.5 Q154.2344,24.3438 154.2344,22.9531 Q154.2344,21.5781 154.6094,20.4219 Q154.9844,19.2656 155.7031,18.4375 Q156.4219,17.6094 157.4844,17.1563 Q158.5469,16.6875 159.9375,16.6875 Q160.8438,16.6875 161.75,16.9219 Q162.6563,17.1406 163.4844,17.5469 L162.6563,19.6406 Q161.9688,19.3125 161.2813,19.0781 Q160.5938,18.8281 159.9375,18.8281 Z " fill="#000000"/><text fill="#000000" font-family="sans-serif" font-size="14" lengthAdjust="spacing" textLength="101" x="174" y="27.8467">MonoBehaviour</text><line style="stroke:#181818;stroke-width:0.5;" x1="146" x2="277" y1="39" y2="39"/><line style="stroke:#181818;stroke-width:0.5;" x1="146" x2="277" y1="47" y2="47"/></g><!--class Tilemap--><g id="elem_Tilemap"><rect fill="#F1F1F1" height="48" id="Tilemap" rx="2.5" ry="2.5" style="stroke:#181818;stroke-width:0.5;" width="83" x="111" y="288"/><ellipse cx="126" cy="304" fill="#ADD1B2" rx="11" ry="11" style="stroke:#181818;stroke-width:1.0;"/><path d="M125.9375,299.8281 Q125.1875,299.8281 124.625,300.125 Q124.0625,300.4063 123.6719,300.9375 Q123.2813,301.4688 123.0781,302.25 Q122.8906,303.0156 122.8906,303.9688 Q122.8906,304.9375 123.0625,305.7031 Q123.25,306.4531 123.6094,306.9688 Q123.9844,307.4844 124.5625,307.7656 Q125.1406,308.0313 125.9375,308.0313 Q126.6719,308.0313 127.4063,307.8594 Q128.1563,307.6875 129.0313,307.3906 L129.0313,309.5469 Q128.625,309.7031 128.2344,309.8281 Q127.8438,309.9375 127.4375,310.0156 Q127.0313,310.0938 126.6094,310.125 Q126.1875,310.1719 125.6875,310.1719 Q124.2813,310.1719 123.25,309.7188 Q122.2344,309.2656 121.5625,308.4531 Q120.8906,307.6406 120.5625,306.5 Q120.2344,305.3438 120.2344,303.9531 Q120.2344,302.5781 120.6094,301.4219 Q120.9844,300.2656 121.7031,299.4375 Q122.4219,298.6094 123.4844,298.1563 Q124.5469,297.6875 125.9375,297.6875 Q126.8438,297.6875 127.75,297.9219 Q128.6563,298.1406 129.4844,298.5469 L128.6563,300.6406 Q127.9688,300.3125 127.2813,300.0781 Q126.5938,299.8281 125.9375,299.8281 Z " fill="#000000"/><text fill="#000000" font-family="sans-serif" font-size="14" lengthAdjust="spacing" textLength="51" x="140" y="308.8467">Tilemap</text><line style="stroke:#181818;stroke-width:0.5;" x1="112" x2="193" y1="320" y2="320"/><line style="stroke:#181818;stroke-width:0.5;" x1="112" x2="193" y1="328" y2="328"/></g><!--class TileBase--><g id="elem_TileBase"><rect fill="#F1F1F1" height="48" id="TileBase" rx="2.5" ry="2.5" style="stroke:#181818;stroke-width:0.5;" width="85" x="229" y="288"/><ellipse cx="244" cy="304" fill="#ADD1B2" rx="11" ry="11" style="stroke:#181818;stroke-width:1.0;"/><path d="M243.9375,299.8281 Q243.1875,299.8281 242.625,300.125 Q242.0625,300.4063 241.6719,300.9375 Q241.2813,301.4688 241.0781,302.25 Q240.8906,303.0156 240.8906,303.9688 Q240.8906,304.9375 241.0625,305.7031 Q241.25,306.4531 241.6094,306.9688 Q241.9844,307.4844 242.5625,307.7656 Q243.1406,308.0313 243.9375,308.0313 Q244.6719,308.0313 245.4063,307.8594 Q246.1563,307.6875 247.0313,307.3906 L247.0313,309.5469 Q246.625,309.7031 246.2344,309.8281 Q245.8438,309.9375 245.4375,310.0156 Q245.0313,310.0938 244.6094,310.125 Q244.1875,310.1719 243.6875,310.1719 Q242.2813,310.1719 241.25,309.7188 Q240.2344,309.2656 239.5625,308.4531 Q238.8906,307.6406 238.5625,306.5 Q238.2344,305.3438 238.2344,303.9531 Q238.2344,302.5781 238.6094,301.4219 Q238.9844,300.2656 239.7031,299.4375 Q240.4219,298.6094 241.4844,298.1563 Q242.5469,297.6875 243.9375,297.6875 Q244.8438,297.6875 245.75,297.9219 Q246.6563,298.1406 247.4844,298.5469 L246.6563,300.6406 Q245.9688,300.3125 245.2813,300.0781 Q244.5938,299.8281 243.9375,299.8281 Z " fill="#000000"/><text fill="#000000" font-family="sans-serif" font-size="14" lengthAdjust="spacing" textLength="53" x="258" y="308.8467">TileBase</text><line style="stroke:#181818;stroke-width:0.5;" x1="230" x2="313" y1="320" y2="320"/><line style="stroke:#181818;stroke-width:0.5;" x1="230" x2="313" y1="328" y2="328"/></g><!--reverse link MonoBehaviour to TilemapGrid--><g id="link_MonoBehaviour_TilemapGrid"><path codeLine="7" d="M211.5,75.3 C211.5,87.85 211.5,101.74 211.5,114.94 " fill="none" id="MonoBehaviour-backto-TilemapGrid" style="stroke:#181818;stroke-width:1.0;"/><polygon fill="none" points="204.5,75.18,211.5,55.18,218.5,75.18,204.5,75.18" style="stroke:#181818;stroke-width:1.0;"/></g><!--link TilemapGrid to Tilemap--><g id="link_TilemapGrid_Tilemap"><path codeLine="8" d="M187.84,228.04 C179.77,247 171.08,267.38 164.34,283.21 " fill="none" id="TilemapGrid-to-Tilemap" style="stroke:#181818;stroke-width:1.0;"/><polygon fill="#181818" points="162.31,287.96,169.5142,281.2444,164.2675,283.3591,162.1528,278.1124,162.31,287.96" style="stroke:#181818;stroke-width:1.0;"/><text fill="#000000" font-family="sans-serif" font-size="13" lengthAdjust="spacing" textLength="44" x="115.1863" y="276.9618">tilemap</text></g><!--link TilemapGrid to TileBase--><g id="link_TilemapGrid_TileBase"><path codeLine="9" d="M235.56,228.04 C243.77,247 252.61,267.38 259.46,283.21 " fill="none" id="TilemapGrid-to-TileBase" style="stroke:#181818;stroke-width:1.0;"/><polygon fill="#181818" points="261.52,287.96,261.6143,278.1116,259.5332,283.3717,254.2731,281.2905,261.52,287.96" style="stroke:#181818;stroke-width:1.0;"/><text fill="#000000" font-family="sans-serif" font-size="13" lengthAdjust="spacing" textLength="55" x="196.9158" y="276.9618">tilePrefab</text></g><!--SRC=[Iyv9B2vM2CdCISrDB70loanHgEPI00B_FDUynAISL0rD1Ik5ilpC5AYeIsOnfh2sWdjgNcfHOaago0IDbDAyzDJyFAXOVf6L2ve0YcOKhN2PMYxV_BnyfzICnBBC_D8Y1PiQNLraPt8XErbNrqv1gGGYe0HJXLr5G55gMc8IH95JOd4g0000]--></g></svg>