<?xml version="1.0" encoding="us-ascii" standalone="no"?><svg xmlns="http://www.w3.org/2000/svg" xmlns:xlink="http://www.w3.org/1999/xlink" contentStyleType="text/css" height="186px" preserveAspectRatio="none" style="width:147px;height:186px;background:#FFFFFF;" version="1.1" viewBox="0 0 147 186" width="147px" zoomAndPan="magnify"><defs/><g><!--class Bootstrap--><g id="elem_Bootstrap"><rect codeLine="1" fill="#F1F1F1" height="64.2969" id="Bootstrap" rx="2.5" ry="2.5" style="stroke:#181818;stroke-width:0.5;" width="94" x="26.5" y="115"/><ellipse cx="41.5" cy="131" fill="#ADD1B2" rx="11" ry="11" style="stroke:#181818;stroke-width:1.0;"/><path d="M41.4375,126.8281 Q40.6875,126.8281 40.125,127.125 Q39.5625,127.4063 39.1719,127.9375 Q38.7813,128.4688 38.5781,129.25 Q38.3906,130.0156 38.3906,130.9688 Q38.3906,131.9375 38.5625,132.7031 Q38.75,133.4531 39.1094,133.9688 Q39.4844,134.4844 40.0625,134.7656 Q40.6406,135.0313 41.4375,135.0313 Q42.1719,135.0313 42.9063,134.8594 Q43.6563,134.6875 44.5313,134.3906 L44.5313,136.5469 Q44.125,136.7031 43.7344,136.8281 Q43.3438,136.9375 42.9375,137.0156 Q42.5313,137.0938 42.1094,137.125 Q41.6875,137.1719 41.1875,137.1719 Q39.7813,137.1719 38.75,136.7188 Q37.7344,136.2656 37.0625,135.4531 Q36.3906,134.6406 36.0625,133.5 Q35.7344,132.3438 35.7344,130.9531 Q35.7344,129.5781 36.1094,128.4219 Q36.4844,127.2656 37.2031,126.4375 Q37.9219,125.6094 38.9844,125.1563 Q40.0469,124.6875 41.4375,124.6875 Q42.3438,124.6875 43.25,124.9219 Q44.1563,125.1406 44.9844,125.5469 L44.1563,127.6406 Q43.4688,127.3125 42.7813,127.0781 Q42.0938,126.8281 41.4375,126.8281 Z " fill="#000000"/><text fill="#000000" font-family="sans-serif" font-size="14" lengthAdjust="spacing" textLength="62" x="55.5" y="135.8467">Bootstrap</text><line style="stroke:#181818;stroke-width:0.5;" x1="27.5" x2="119.5" y1="147" y2="147"/><line style="stroke:#181818;stroke-width:0.5;" x1="27.5" x2="119.5" y1="155" y2="155"/><text fill="#000000" font-family="sans-serif" font-size="14" lengthAdjust="spacing" textLength="77" x="32.5" y="171.9951">Start() : void</text></g><!--class MonoBehaviour--><g id="elem_MonoBehaviour"><rect fill="#F1F1F1" height="48" id="MonoBehaviour" rx="2.5" ry="2.5" style="stroke:#181818;stroke-width:0.5;" width="133" x="7" y="7"/><ellipse cx="22" cy="23" fill="#ADD1B2" rx="11" ry="11" style="stroke:#181818;stroke-width:1.0;"/><path d="M21.9375,18.8281 Q21.1875,18.8281 20.625,19.125 Q20.0625,19.4063 19.6719,19.9375 Q19.2813,20.4688 19.0781,21.25 Q18.8906,22.0156 18.8906,22.9688 Q18.8906,23.9375 19.0625,24.7031 Q19.25,25.4531 19.6094,25.9688 Q19.9844,26.4844 20.5625,26.7656 Q21.1406,27.0313 21.9375,27.0313 Q22.6719,27.0313 23.4063,26.8594 Q24.1563,26.6875 25.0313,26.3906 L25.0313,28.5469 Q24.625,28.7031 24.2344,28.8281 Q23.8438,28.9375 23.4375,29.0156 Q23.0313,29.0938 22.6094,29.125 Q22.1875,29.1719 21.6875,29.1719 Q20.2813,29.1719 19.25,28.7188 Q18.2344,28.2656 17.5625,27.4531 Q16.8906,26.6406 16.5625,25.5 Q16.2344,24.3438 16.2344,22.9531 Q16.2344,21.5781 16.6094,20.4219 Q16.9844,19.2656 17.7031,18.4375 Q18.4219,17.6094 19.4844,17.1563 Q20.5469,16.6875 21.9375,16.6875 Q22.8438,16.6875 23.75,16.9219 Q24.6563,17.1406 25.4844,17.5469 L24.6563,19.6406 Q23.9688,19.3125 23.2813,19.0781 Q22.5938,18.8281 21.9375,18.8281 Z " fill="#000000"/><text fill="#000000" font-family="sans-serif" font-size="14" lengthAdjust="spacing" textLength="101" x="36" y="27.8467">MonoBehaviour</text><line style="stroke:#181818;stroke-width:0.5;" x1="8" x2="139" y1="39" y2="39"/><line style="stroke:#181818;stroke-width:0.5;" x1="8" x2="139" y1="47" y2="47"/></g><!--reverse link MonoBehaviour to Bootstrap--><g id="link_MonoBehaviour_Bootstrap"><path codeLine="4" d="M73.5,75.09 C73.5,88.28 73.5,102.52 73.5,114.75 " fill="none" id="MonoBehaviour-backto-Bootstrap" style="stroke:#181818;stroke-width:1.0;"/><polygon fill="none" points="66.5,75.07,73.5,55.07,80.5,75.07,66.5,75.07" style="stroke:#181818;stroke-width:1.0;"/></g><!--SRC=[Iyv9B2vMSChFBoakAKeiKAZcKW22u9B4eX8DJGKhXRByp1IkMYxV_BnyfzICnBBC_D8Y1PiQNLs47W00]--></g></svg>