<?xml version="1.0" encoding="us-ascii" standalone="no"?><svg xmlns="http://www.w3.org/2000/svg" xmlns:xlink="http://www.w3.org/1999/xlink" contentStyleType="text/css" height="77px" preserveAspectRatio="none" style="width:111px;height:77px;background:#FFFFFF;" version="1.1" viewBox="0 0 111 77" width="111px" zoomAndPan="magnify"><defs/><g><!--class EventBus--><g id="elem_EventBus"><rect codeLine="1" fill="#F1F1F1" height="56.2656" id="EventBus" rx="2.5" ry="2.5" style="stroke:#181818;stroke-width:0.5;" width="90" x="7" y="7"/><ellipse cx="22" cy="27.1328" fill="#ADD1B2" rx="11" ry="11" style="stroke:#181818;stroke-width:1.0;"/><path d="M21.9375,22.9609 Q21.1875,22.9609 20.625,23.2578 Q20.0625,23.5391 19.6719,24.0703 Q19.2813,24.6016 19.0781,25.3828 Q18.8906,26.1484 18.8906,27.1016 Q18.8906,28.0703 19.0625,28.8359 Q19.25,29.5859 19.6094,30.1016 Q19.9844,30.6172 20.5625,30.8984 Q21.1406,31.1641 21.9375,31.1641 Q22.6719,31.1641 23.4063,30.9922 Q24.1563,30.8203 25.0313,30.5234 L25.0313,32.6797 Q24.625,32.8359 24.2344,32.9609 Q23.8438,33.0703 23.4375,33.1484 Q23.0313,33.2266 22.6094,33.2578 Q22.1875,33.3047 21.6875,33.3047 Q20.2813,33.3047 19.25,32.8516 Q18.2344,32.3984 17.5625,31.5859 Q16.8906,30.7734 16.5625,29.6328 Q16.2344,28.4766 16.2344,27.0859 Q16.2344,25.7109 16.6094,24.5547 Q16.9844,23.3984 17.7031,22.5703 Q18.4219,21.7422 19.4844,21.2891 Q20.5469,20.8203 21.9375,20.8203 Q22.8438,20.8203 23.75,21.0547 Q24.6563,21.2734 25.4844,21.6797 L24.6563,23.7734 Q23.9688,23.4453 23.2813,23.2109 Q22.5938,22.9609 21.9375,22.9609 Z " fill="#000000"/><text fill="#000000" font-family="sans-serif" font-size="12" font-style="italic" lengthAdjust="spacing" textLength="40" x="45" y="23.1387">&#171;static&#187;</text><text fill="#000000" font-family="sans-serif" font-size="14" lengthAdjust="spacing" textLength="58" x="36" y="38.9639">EventBus</text><line style="stroke:#181818;stroke-width:0.5;" x1="8" x2="96" y1="47.2656" y2="47.2656"/><line style="stroke:#181818;stroke-width:0.5;" x1="8" x2="96" y1="55.2656" y2="55.2656"/></g><!--SRC=[Iyv9B2vMS2rBpIjnAYrMiB4fBaaioKosirEevge50000]--></g></svg>