<?xml version="1.0" encoding="us-ascii" standalone="no"?><svg xmlns="http://www.w3.org/2000/svg" xmlns:xlink="http://www.w3.org/1999/xlink" contentStyleType="text/css" height="178px" preserveAspectRatio="none" style="width:183px;height:178px;background:#FFFFFF;" version="1.1" viewBox="0 0 183 178" width="183px" zoomAndPan="magnify"><defs/><g><!--class EventBus--><g id="elem_EventBus"><rect codeLine="1" fill="#F1F1F1" height="56.2656" id="EventBus" rx="2.5" ry="2.5" style="stroke:#181818;stroke-width:0.5;" width="90" x="86.2219" y="7"/><ellipse cx="101.2219" cy="27.1328" fill="#ADD1B2" rx="11" ry="11" style="stroke:#181818;stroke-width:1.0;"/><path d="M101.1594,22.9609 Q100.4094,22.9609 99.8469,23.2578 Q99.2844,23.5391 98.8938,24.0703 Q98.5031,24.6016 98.3,25.3828 Q98.1125,26.1484 98.1125,27.1016 Q98.1125,28.0703 98.2844,28.8359 Q98.4719,29.5859 98.8313,30.1016 Q99.2063,30.6172 99.7844,30.8984 Q100.3625,31.1641 101.1594,31.1641 Q101.8938,31.1641 102.6281,30.9922 Q103.3781,30.8203 104.2531,30.5234 L104.2531,32.6797 Q103.8469,32.8359 103.4563,32.9609 Q103.0656,33.0703 102.6594,33.1484 Q102.2531,33.2266 101.8313,33.2578 Q101.4094,33.3047 100.9094,33.3047 Q99.5031,33.3047 98.4719,32.8516 Q97.4563,32.3984 96.7844,31.5859 Q96.1125,30.7734 95.7844,29.6328 Q95.4563,28.4766 95.4563,27.0859 Q95.4563,25.7109 95.8313,24.5547 Q96.2063,23.3984 96.925,22.5703 Q97.6438,21.7422 98.7063,21.2891 Q99.7688,20.8203 101.1594,20.8203 Q102.0656,20.8203 102.9719,21.0547 Q103.8781,21.2734 104.7063,21.6797 L103.8781,23.7734 Q103.1906,23.4453 102.5031,23.2109 Q101.8156,22.9609 101.1594,22.9609 Z " fill="#000000"/><text fill="#000000" font-family="sans-serif" font-size="12" font-style="italic" lengthAdjust="spacing" textLength="40" x="124.2219" y="23.1387">&#171;static&#187;</text><text fill="#000000" font-family="sans-serif" font-size="14" lengthAdjust="spacing" textLength="58" x="115.2219" y="38.9639">EventBus</text><line style="stroke:#181818;stroke-width:0.5;" x1="87.2219" x2="175.2219" y1="47.2656" y2="47.2656"/><line style="stroke:#181818;stroke-width:0.5;" x1="87.2219" x2="175.2219" y1="55.2656" y2="55.2656"/></g><!--class Action--><g id="elem_Action"><rect fill="#F1F1F1" height="48" id="Action" rx="2.5" ry="2.5" style="stroke:#181818;stroke-width:0.5;" width="72" x="95.2219" y="123"/><ellipse cx="110.2219" cy="139" fill="#ADD1B2" rx="11" ry="11" style="stroke:#181818;stroke-width:1.0;"/><path d="M110.1594,134.8281 Q109.4094,134.8281 108.8469,135.125 Q108.2844,135.4063 107.8938,135.9375 Q107.5031,136.4688 107.3,137.25 Q107.1125,138.0156 107.1125,138.9688 Q107.1125,139.9375 107.2844,140.7031 Q107.4719,141.4531 107.8313,141.9688 Q108.2063,142.4844 108.7844,142.7656 Q109.3625,143.0313 110.1594,143.0313 Q110.8938,143.0313 111.6281,142.8594 Q112.3781,142.6875 113.2531,142.3906 L113.2531,144.5469 Q112.8469,144.7031 112.4563,144.8281 Q112.0656,144.9375 111.6594,145.0156 Q111.2531,145.0938 110.8313,145.125 Q110.4094,145.1719 109.9094,145.1719 Q108.5031,145.1719 107.4719,144.7188 Q106.4563,144.2656 105.7844,143.4531 Q105.1125,142.6406 104.7844,141.5 Q104.4563,140.3438 104.4563,138.9531 Q104.4563,137.5781 104.8313,136.4219 Q105.2063,135.2656 105.925,134.4375 Q106.6438,133.6094 107.7063,133.1563 Q108.7688,132.6875 110.1594,132.6875 Q111.0656,132.6875 111.9719,132.9219 Q112.8781,133.1406 113.7063,133.5469 L112.8781,135.6406 Q112.1906,135.3125 111.5031,135.0781 Q110.8156,134.8281 110.1594,134.8281 Z " fill="#000000"/><text fill="#000000" font-family="sans-serif" font-size="14" lengthAdjust="spacing" textLength="40" x="124.2219" y="143.8467">Action</text><line style="stroke:#181818;stroke-width:0.5;" x1="96.2219" x2="166.2219" y1="155" y2="155"/><line style="stroke:#181818;stroke-width:0.5;" x1="96.2219" x2="166.2219" y1="163" y2="163"/></g><!--link EventBus to Action--><g id="link_EventBus_Action"><path codeLine="3" d="M131.2219,63.19 C131.2219,79.8 131.2219,100.99 131.2219,117.78 " fill="none" id="EventBus-to-Action" style="stroke:#181818;stroke-width:1.0;"/><polygon fill="#181818" points="131.2219,122.84,135.2219,113.84,131.2219,117.84,127.2219,113.84,131.2219,122.84" style="stroke:#181818;stroke-width:1.0;"/><text fill="#000000" font-family="sans-serif" font-size="13" lengthAdjust="spacing" textLength="111" x="6" y="111.811">OnStartGeneration</text></g><!--SRC=[Iyv9B2vMS2rBpIjnAYrMiB4fBaaioKosirEevghbWelhwjefAFdd1PSa5fMuf-Qb5W4LvUSfAJWcWsW0]--></g></svg>