<?xml version="1.0" encoding="us-ascii" standalone="no"?><svg xmlns="http://www.w3.org/2000/svg" xmlns:xlink="http://www.w3.org/1999/xlink" contentStyleType="text/css" height="447px" preserveAspectRatio="none" style="width:1565px;height:447px;background:#FFFFFF;" version="1.1" viewBox="0 0 1565 447" width="1565px" zoomAndPan="magnify"><defs/><g><!--class Adjective--><g id="elem_Adjective"><rect codeLine="1" fill="#F1F1F1" height="325.0469" id="Adjective" rx="2.5" ry="2.5" style="stroke:#181818;stroke-width:0.5;" width="1551" x="7" y="115"/><ellipse cx="748.75" cy="131" fill="#ADD1B2" rx="11" ry="11" style="stroke:#181818;stroke-width:1.0;"/><path d="M748.6875,126.8281 Q747.9375,126.8281 747.375,127.125 Q746.8125,127.4063 746.4219,127.9375 Q746.0313,128.4688 745.8281,129.25 Q745.6406,130.0156 745.6406,130.9688 Q745.6406,131.9375 745.8125,132.7031 Q746,133.4531 746.3594,133.9688 Q746.7344,134.4844 747.3125,134.7656 Q747.8906,135.0313 748.6875,135.0313 Q749.4219,135.0313 750.1563,134.8594 Q750.9063,134.6875 751.7813,134.3906 L751.7813,136.5469 Q751.375,136.7031 750.9844,136.8281 Q750.5938,136.9375 750.1875,137.0156 Q749.7813,137.0938 749.3594,137.125 Q748.9375,137.1719 748.4375,137.1719 Q747.0313,137.1719 746,136.7188 Q744.9844,136.2656 744.3125,135.4531 Q743.6406,134.6406 743.3125,133.5 Q742.9844,132.3438 742.9844,130.9531 Q742.9844,129.5781 743.3594,128.4219 Q743.7344,127.2656 744.4531,126.4375 Q745.1719,125.6094 746.2344,125.1563 Q747.2969,124.6875 748.6875,124.6875 Q749.5938,124.6875 750.5,124.9219 Q751.4063,125.1406 752.2344,125.5469 L751.4063,127.6406 Q750.7188,127.3125 750.0313,127.0781 Q749.3438,126.8281 748.6875,126.8281 Z " fill="#000000"/><text fill="#000000" font-family="sans-serif" font-size="14" lengthAdjust="spacing" textLength="59" x="769.25" y="135.8467">Adjective</text><line style="stroke:#181818;stroke-width:0.5;" x1="8" x2="1557" y1="147" y2="147"/><ellipse cx="18" cy="160.6484" fill="none" rx="3" ry="3" style="stroke:#038048;stroke-width:1.0;"/><text fill="#000000" font-family="sans-serif" font-size="14" lengthAdjust="spacing" textLength="153" x="27" y="163.9951">Base : string &#171;get&#187; &#171;set&#187;</text><ellipse cx="18" cy="176.9453" fill="none" rx="3" ry="3" style="stroke:#038048;stroke-width:1.0;"/><text fill="#000000" font-family="sans-serif" font-size="14" lengthAdjust="spacing" textLength="308" x="27" y="180.292">SingularNominativeFeminine : string &#171;get&#187; &#171;set&#187;</text><ellipse cx="18" cy="193.2422" fill="none" rx="3" ry="3" style="stroke:#038048;stroke-width:1.0;"/><text fill="#000000" font-family="sans-serif" font-size="14" lengthAdjust="spacing" textLength="288" x="27" y="196.5889">SingularGenitiveFeminine : string &#171;get&#187; &#171;set&#187;</text><ellipse cx="18" cy="209.5391" fill="none" rx="3" ry="3" style="stroke:#038048;stroke-width:1.0;"/><text fill="#000000" font-family="sans-serif" font-size="14" lengthAdjust="spacing" textLength="311" x="27" y="212.8857">SingularNominativeMasculine : string &#171;get&#187; &#171;set&#187;</text><ellipse cx="18" cy="225.8359" fill="none" rx="3" ry="3" style="stroke:#038048;stroke-width:1.0;"/><text fill="#000000" font-family="sans-serif" font-size="14" lengthAdjust="spacing" textLength="293" x="27" y="229.1826">SingularNominativeNeuter : string &#171;get&#187; &#171;set&#187;</text><ellipse cx="18" cy="242.1328" fill="none" rx="3" ry="3" style="stroke:#038048;stroke-width:1.0;"/><text fill="#000000" font-family="sans-serif" font-size="14" lengthAdjust="spacing" textLength="265" x="27" y="245.4795">SingularGenitiveOther : string &#171;get&#187; &#171;set&#187;</text><ellipse cx="18" cy="258.4297" fill="none" rx="3" ry="3" style="stroke:#038048;stroke-width:1.0;"/><text fill="#000000" font-family="sans-serif" font-size="14" lengthAdjust="spacing" textLength="234" x="27" y="261.7764">PluralNominative : string &#171;get&#187; &#171;set&#187;</text><ellipse cx="18" cy="274.7266" fill="none" rx="3" ry="3" style="stroke:#038048;stroke-width:1.0;"/><text fill="#000000" font-family="sans-serif" font-size="14" lengthAdjust="spacing" textLength="214" x="27" y="278.0732">PluralGenitive : string &#171;get&#187; &#171;set&#187;</text><line style="stroke:#181818;stroke-width:0.5;" x1="8" x2="1557" y1="285.375" y2="285.375"/><ellipse cx="18" cy="299.0234" fill="#84BE84" rx="3" ry="3" style="stroke:#038048;stroke-width:1.0;"/><text fill="#000000" font-family="sans-serif" font-size="14" lengthAdjust="spacing" textLength="1525" x="27" y="302.3701">Adjective(Base:string, SingularNominativeFeminine:string, SingularGenitiveFeminine:string, SingularNominativeMasculine:string, SingularNominativeNeuter:string, SingularGenitiveOther:string, PluralNominative:string, PluralGenitive:string)</text><ellipse cx="18" cy="315.3203" fill="#84BE84" rx="3" ry="3" style="stroke:#038048;stroke-width:1.0;"/><text fill="#000000" font-family="sans-serif" font-size="14" lengthAdjust="spacing" text-decoration="underline" textLength="244" x="27" y="318.667">ToAdjective(values:object[]) : Adjective</text><ellipse cx="18" cy="331.6172" fill="#84BE84" rx="3" ry="3" style="stroke:#038048;stroke-width:1.0;"/><text fill="#000000" font-family="sans-serif" font-size="14" lengthAdjust="spacing" textLength="190" x="27" y="334.9639">SingNomFem(Title:int) : string</text><ellipse cx="18" cy="347.9141" fill="#84BE84" rx="3" ry="3" style="stroke:#038048;stroke-width:1.0;"/><text fill="#000000" font-family="sans-serif" font-size="14" lengthAdjust="spacing" textLength="193" x="27" y="351.2607">SingNomMasc(Title:int) : string</text><ellipse cx="18" cy="364.2109" fill="#84BE84" rx="3" ry="3" style="stroke:#038048;stroke-width:1.0;"/><text fill="#000000" font-family="sans-serif" font-size="14" lengthAdjust="spacing" textLength="207" x="27" y="367.5576">SingNomNeuter(Title:int) : string</text><ellipse cx="18" cy="380.5078" fill="#84BE84" rx="3" ry="3" style="stroke:#038048;stroke-width:1.0;"/><text fill="#000000" font-family="sans-serif" font-size="14" lengthAdjust="spacing" textLength="185" x="27" y="383.8545">SingGenFem(Title:int) : string</text><ellipse cx="18" cy="396.8047" fill="#84BE84" rx="3" ry="3" style="stroke:#038048;stroke-width:1.0;"/><text fill="#000000" font-family="sans-serif" font-size="14" lengthAdjust="spacing" textLength="194" x="27" y="400.1514">SingGenOther(Title:int) : string</text><ellipse cx="18" cy="413.1016" fill="#84BE84" rx="3" ry="3" style="stroke:#038048;stroke-width:1.0;"/><text fill="#000000" font-family="sans-serif" font-size="14" lengthAdjust="spacing" textLength="173" x="27" y="416.4482">PluralNom(Title:int) : string</text><ellipse cx="18" cy="429.3984" fill="#84BE84" rx="3" ry="3" style="stroke:#038048;stroke-width:1.0;"/><text fill="#000000" font-family="sans-serif" font-size="14" lengthAdjust="spacing" textLength="168" x="27" y="432.7451">PluralGen(Title:int) : string</text></g><!--class DbClass--><g id="elem_DbClass"><rect fill="#F1F1F1" height="48" id="DbClass" rx="2.5" ry="2.5" style="stroke:#181818;stroke-width:0.5;" width="81" x="742" y="7"/><ellipse cx="757" cy="23" fill="#ADD1B2" rx="11" ry="11" style="stroke:#181818;stroke-width:1.0;"/><path d="M756.9375,18.8281 Q756.1875,18.8281 755.625,19.125 Q755.0625,19.4063 754.6719,19.9375 Q754.2813,20.4688 754.0781,21.25 Q753.8906,22.0156 753.8906,22.9688 Q753.8906,23.9375 754.0625,24.7031 Q754.25,25.4531 754.6094,25.9688 Q754.9844,26.4844 755.5625,26.7656 Q756.1406,27.0313 756.9375,27.0313 Q757.6719,27.0313 758.4063,26.8594 Q759.1563,26.6875 760.0313,26.3906 L760.0313,28.5469 Q759.625,28.7031 759.2344,28.8281 Q758.8438,28.9375 758.4375,29.0156 Q758.0313,29.0938 757.6094,29.125 Q757.1875,29.1719 756.6875,29.1719 Q755.2813,29.1719 754.25,28.7188 Q753.2344,28.2656 752.5625,27.4531 Q751.8906,26.6406 751.5625,25.5 Q751.2344,24.3438 751.2344,22.9531 Q751.2344,21.5781 751.6094,20.4219 Q751.9844,19.2656 752.7031,18.4375 Q753.4219,17.6094 754.4844,17.1563 Q755.5469,16.6875 756.9375,16.6875 Q757.8438,16.6875 758.75,16.9219 Q759.6563,17.1406 760.4844,17.5469 L759.6563,19.6406 Q758.9688,19.3125 758.2813,19.0781 Q757.5938,18.8281 756.9375,18.8281 Z " fill="#000000"/><text fill="#000000" font-family="sans-serif" font-size="14" lengthAdjust="spacing" textLength="49" x="771" y="27.8467">DbClass</text><line style="stroke:#181818;stroke-width:0.5;" x1="743" x2="822" y1="39" y2="39"/><line style="stroke:#181818;stroke-width:0.5;" x1="743" x2="822" y1="47" y2="47"/></g><!--reverse link DbClass to Adjective--><g id="link_DbClass_Adjective"><path codeLine="20" d="M782.5,75.27 C782.5,87.02 782.5,100.48 782.5,114.74 " fill="none" id="DbClass-backto-Adjective" style="stroke:#181818;stroke-width:1.0;"/><polygon fill="none" points="775.5,75,782.5,55,789.5,75,775.5,75" style="stroke:#181818;stroke-width:1.0;"/></g><!--SRC=[dPFB3i8W44NtVWLB6_K7cgQ9Z-ZAHw8xumBhH358am9kgl_kq5RGgaNjXeOvm-NU2GcdKfB-xWY9OcSWUOlWro43Ae64HAgCYJs9eZseECPLchLYbbZId6QpzCG4DUrZm3yclkwSW63_z3d5APM9vd-rpa0ho7wzwbmT_4qBhZFAdTHt_5t2HzjfjSsKmfBjDepZ1Qddtd263RY1APFyg594PglrR6g5UrEr7LIUSwcGJgvabJhxPyero33Tcetr9i3WRF5XVAY5HjihfZY4JAZ01lmC6Qj-gZJhuT25NnAX8fe6p8RbPV2mjyorDTeEYqSUNNezbyyD]--></g></svg>