<?xml version="1.0" encoding="us-ascii" standalone="no"?><svg xmlns="http://www.w3.org/2000/svg" xmlns:xlink="http://www.w3.org/1999/xlink" contentStyleType="text/css" height="365px" preserveAspectRatio="none" style="width:753px;height:365px;background:#FFFFFF;" version="1.1" viewBox="0 0 753 365" width="753px" zoomAndPan="magnify"><defs/><g><!--class Hazard--><g id="elem_Hazard"><rect codeLine="1" fill="#F1F1F1" height="243.5625" id="Hazard" rx="2.5" ry="2.5" style="stroke:#181818;stroke-width:0.5;" width="739" x="7" y="115"/><ellipse cx="350.25" cy="131" fill="#ADD1B2" rx="11" ry="11" style="stroke:#181818;stroke-width:1.0;"/><path d="M350.1875,126.8281 Q349.4375,126.8281 348.875,127.125 Q348.3125,127.4063 347.9219,127.9375 Q347.5313,128.4688 347.3281,129.25 Q347.1406,130.0156 347.1406,130.9688 Q347.1406,131.9375 347.3125,132.7031 Q347.5,133.4531 347.8594,133.9688 Q348.2344,134.4844 348.8125,134.7656 Q349.3906,135.0313 350.1875,135.0313 Q350.9219,135.0313 351.6563,134.8594 Q352.4063,134.6875 353.2813,134.3906 L353.2813,136.5469 Q352.875,136.7031 352.4844,136.8281 Q352.0938,136.9375 351.6875,137.0156 Q351.2813,137.0938 350.8594,137.125 Q350.4375,137.1719 349.9375,137.1719 Q348.5313,137.1719 347.5,136.7188 Q346.4844,136.2656 345.8125,135.4531 Q345.1406,134.6406 344.8125,133.5 Q344.4844,132.3438 344.4844,130.9531 Q344.4844,129.5781 344.8594,128.4219 Q345.2344,127.2656 345.9531,126.4375 Q346.6719,125.6094 347.7344,125.1563 Q348.7969,124.6875 350.1875,124.6875 Q351.0938,124.6875 352,124.9219 Q352.9063,125.1406 353.7344,125.5469 L352.9063,127.6406 Q352.2188,127.3125 351.5313,127.0781 Q350.8438,126.8281 350.1875,126.8281 Z " fill="#000000"/><text fill="#000000" font-family="sans-serif" font-size="14" lengthAdjust="spacing" textLength="44" x="370.75" y="135.8467">Hazard</text><line style="stroke:#181818;stroke-width:0.5;" x1="8" x2="745" y1="147" y2="147"/><ellipse cx="18" cy="160.6484" fill="none" rx="3" ry="3" style="stroke:#038048;stroke-width:1.0;"/><text fill="#000000" font-family="sans-serif" font-size="14" lengthAdjust="spacing" textLength="116" x="27" y="163.9951">id : int &#171;get&#187; &#171;set&#187;</text><ellipse cx="18" cy="176.9453" fill="none" rx="3" ry="3" style="stroke:#038048;stroke-width:1.0;"/><text fill="#000000" font-family="sans-serif" font-size="14" lengthAdjust="spacing" textLength="161" x="27" y="180.292">Name : string &#171;get&#187; &#171;set&#187;</text><ellipse cx="18" cy="193.2422" fill="none" rx="3" ry="3" style="stroke:#038048;stroke-width:1.0;"/><text fill="#000000" font-family="sans-serif" font-size="14" lengthAdjust="spacing" textLength="195" x="27" y="196.5889">Complexity : string &#171;get&#187; &#171;set&#187;</text><ellipse cx="18" cy="209.5391" fill="none" rx="3" ry="3" style="stroke:#038048;stroke-width:1.0;"/><text fill="#000000" font-family="sans-serif" font-size="14" lengthAdjust="spacing" textLength="196" x="27" y="212.8857">Description : string &#171;get&#187; &#171;set&#187;</text><ellipse cx="18" cy="225.8359" fill="none" rx="3" ry="3" style="stroke:#038048;stroke-width:1.0;"/><text fill="#000000" font-family="sans-serif" font-size="14" lengthAdjust="spacing" textLength="230" x="27" y="229.1826">MechDescription : string &#171;get&#187; &#171;set&#187;</text><ellipse cx="18" cy="242.1328" fill="none" rx="3" ry="3" style="stroke:#038048;stroke-width:1.0;"/><text fill="#000000" font-family="sans-serif" font-size="14" lengthAdjust="spacing" textLength="138" x="27" y="245.4795">Level : int &#171;get&#187; &#171;set&#187;</text><ellipse cx="18" cy="258.4297" fill="none" rx="3" ry="3" style="stroke:#038048;stroke-width:1.0;"/><text fill="#000000" font-family="sans-serif" font-size="14" lengthAdjust="spacing" textLength="167" x="27" y="261.7764">Stealth : string &#171;get&#187; &#171;set&#187;</text><line style="stroke:#181818;stroke-width:0.5;" x1="8" x2="745" y1="269.0781" y2="269.0781"/><ellipse cx="18" cy="282.7266" fill="#84BE84" rx="3" ry="3" style="stroke:#038048;stroke-width:1.0;"/><text fill="#000000" font-family="sans-serif" font-size="14" lengthAdjust="spacing" textLength="52" x="27" y="286.0732">Hazard()</text><ellipse cx="18" cy="299.0234" fill="#84BE84" rx="3" ry="3" style="stroke:#038048;stroke-width:1.0;"/><text fill="#000000" font-family="sans-serif" font-size="14" lengthAdjust="spacing" textLength="713" x="27" y="302.3701">Hazard(id:int, name:string, complexity:string, description:string, mechDescription:string, level:int, stealth:string)</text><ellipse cx="18" cy="315.3203" fill="#84BE84" rx="3" ry="3" style="stroke:#038048;stroke-width:1.0;"/><text fill="#000000" font-family="sans-serif" font-size="14" lengthAdjust="spacing" text-decoration="underline" textLength="214" x="27" y="318.667">ToHazard(values:object[]) : Hazard</text><ellipse cx="18" cy="331.6172" fill="#84BE84" rx="3" ry="3" style="stroke:#038048;stroke-width:1.0;"/><text fill="#000000" font-family="sans-serif" font-size="14" lengthAdjust="spacing" textLength="181" x="27" y="334.9639">&#171;override&#187; ToString() : string</text><ellipse cx="18" cy="347.9141" fill="#84BE84" rx="3" ry="3" style="stroke:#038048;stroke-width:1.0;"/><text fill="#000000" font-family="sans-serif" font-size="14" lengthAdjust="spacing" textLength="158" x="27" y="351.2607">ToTextFileString() : string</text></g><!--class DbClass--><g id="elem_DbClass"><rect fill="#F1F1F1" height="48" id="DbClass" rx="2.5" ry="2.5" style="stroke:#181818;stroke-width:0.5;" width="81" x="336" y="7"/><ellipse cx="351" cy="23" fill="#ADD1B2" rx="11" ry="11" style="stroke:#181818;stroke-width:1.0;"/><path d="M350.9375,18.8281 Q350.1875,18.8281 349.625,19.125 Q349.0625,19.4063 348.6719,19.9375 Q348.2813,20.4688 348.0781,21.25 Q347.8906,22.0156 347.8906,22.9688 Q347.8906,23.9375 348.0625,24.7031 Q348.25,25.4531 348.6094,25.9688 Q348.9844,26.4844 349.5625,26.7656 Q350.1406,27.0313 350.9375,27.0313 Q351.6719,27.0313 352.4063,26.8594 Q353.1563,26.6875 354.0313,26.3906 L354.0313,28.5469 Q353.625,28.7031 353.2344,28.8281 Q352.8438,28.9375 352.4375,29.0156 Q352.0313,29.0938 351.6094,29.125 Q351.1875,29.1719 350.6875,29.1719 Q349.2813,29.1719 348.25,28.7188 Q347.2344,28.2656 346.5625,27.4531 Q345.8906,26.6406 345.5625,25.5 Q345.2344,24.3438 345.2344,22.9531 Q345.2344,21.5781 345.6094,20.4219 Q345.9844,19.2656 346.7031,18.4375 Q347.4219,17.6094 348.4844,17.1563 Q349.5469,16.6875 350.9375,16.6875 Q351.8438,16.6875 352.75,16.9219 Q353.6563,17.1406 354.4844,17.5469 L353.6563,19.6406 Q352.9688,19.3125 352.2813,19.0781 Q351.5938,18.8281 350.9375,18.8281 Z " fill="#000000"/><text fill="#000000" font-family="sans-serif" font-size="14" lengthAdjust="spacing" textLength="49" x="365" y="27.8467">DbClass</text><line style="stroke:#181818;stroke-width:0.5;" x1="337" x2="416" y1="39" y2="39"/><line style="stroke:#181818;stroke-width:0.5;" x1="337" x2="416" y1="47" y2="47"/></g><!--reverse link DbClass to Hazard--><g id="link_DbClass_Hazard"><path codeLine="15" d="M376.5,75.02 C376.5,86.94 376.5,100.49 376.5,114.55 " fill="none" id="DbClass-backto-Hazard" style="stroke:#181818;stroke-width:1.0;"/><polygon fill="none" points="369.5,75,376.5,55,383.5,75,369.5,75" style="stroke:#181818;stroke-width:1.0;"/></g><!--SRC=[bLAxRW8n4EpvYYqv1NxWPD608WgWuJf4OUmLBFATaRsSUFvx37OSeIWvuMRbsTdnpChAIEzXAY_IQRZs89mF80qbKCCWn1PvD0hLFsfgBsIDWU3PKRFzWpEszS7WYVZSnPoWLuuEJBRfeivHxTwWpx15ys-I9QCqlEiIYklf5wzNqcLG7a0Jrb76-G6ed3j3-iTnnkhN91at3yjHraTlgVNzzjMpP59tg6ooqKfpH5_QpHuLhzP521CxQK88sw9pf37agkpoATSlSkP4gso59_uaWxyPzzvaCtv-574R3fFy5m00]--></g></svg>