<?xml version="1.0" encoding="us-ascii" standalone="no"?><svg xmlns="http://www.w3.org/2000/svg" xmlns:xlink="http://www.w3.org/1999/xlink" contentStyleType="text/css" height="332px" preserveAspectRatio="none" style="width:559px;height:332px;background:#FFFFFF;" version="1.1" viewBox="0 0 559 332" width="559px" zoomAndPan="magnify"><defs/><g><!--class Monster--><g id="elem_Monster"><rect codeLine="1" fill="#F1F1F1" height="210.9688" id="Monster" rx="2.5" ry="2.5" style="stroke:#181818;stroke-width:0.5;" width="545" x="7" y="115"/><ellipse cx="248.75" cy="131" fill="#ADD1B2" rx="11" ry="11" style="stroke:#181818;stroke-width:1.0;"/><path d="M248.6875,126.8281 Q247.9375,126.8281 247.375,127.125 Q246.8125,127.4063 246.4219,127.9375 Q246.0313,128.4688 245.8281,129.25 Q245.6406,130.0156 245.6406,130.9688 Q245.6406,131.9375 245.8125,132.7031 Q246,133.4531 246.3594,133.9688 Q246.7344,134.4844 247.3125,134.7656 Q247.8906,135.0313 248.6875,135.0313 Q249.4219,135.0313 250.1563,134.8594 Q250.9063,134.6875 251.7813,134.3906 L251.7813,136.5469 Q251.375,136.7031 250.9844,136.8281 Q250.5938,136.9375 250.1875,137.0156 Q249.7813,137.0938 249.3594,137.125 Q248.9375,137.1719 248.4375,137.1719 Q247.0313,137.1719 246,136.7188 Q244.9844,136.2656 244.3125,135.4531 Q243.6406,134.6406 243.3125,133.5 Q242.9844,132.3438 242.9844,130.9531 Q242.9844,129.5781 243.3594,128.4219 Q243.7344,127.2656 244.4531,126.4375 Q245.1719,125.6094 246.2344,125.1563 Q247.2969,124.6875 248.6875,124.6875 Q249.5938,124.6875 250.5,124.9219 Q251.4063,125.1406 252.2344,125.5469 L251.4063,127.6406 Q250.7188,127.3125 250.0313,127.0781 Q249.3438,126.8281 248.6875,126.8281 Z " fill="#000000"/><text fill="#000000" font-family="sans-serif" font-size="14" lengthAdjust="spacing" textLength="53" x="269.25" y="135.8467">Monster</text><line style="stroke:#181818;stroke-width:0.5;" x1="8" x2="551" y1="147" y2="147"/><ellipse cx="18" cy="160.6484" fill="none" rx="3" ry="3" style="stroke:#038048;stroke-width:1.0;"/><text fill="#000000" font-family="sans-serif" font-size="14" lengthAdjust="spacing" textLength="116" x="27" y="163.9951">id : int &#171;get&#187; &#171;set&#187;</text><ellipse cx="18" cy="176.9453" fill="none" rx="3" ry="3" style="stroke:#038048;stroke-width:1.0;"/><text fill="#000000" font-family="sans-serif" font-size="14" lengthAdjust="spacing" textLength="161" x="27" y="180.292">Name : string &#171;get&#187; &#171;set&#187;</text><ellipse cx="18" cy="193.2422" fill="none" rx="3" ry="3" style="stroke:#038048;stroke-width:1.0;"/><text fill="#000000" font-family="sans-serif" font-size="14" lengthAdjust="spacing" textLength="196" x="27" y="196.5889">Description : string &#171;get&#187; &#171;set&#187;</text><ellipse cx="18" cy="209.5391" fill="none" rx="3" ry="3" style="stroke:#038048;stroke-width:1.0;"/><text fill="#000000" font-family="sans-serif" font-size="14" lengthAdjust="spacing" textLength="230" x="27" y="212.8857">MechDescription : string &#171;get&#187; &#171;set&#187;</text><ellipse cx="18" cy="225.8359" fill="none" rx="3" ry="3" style="stroke:#038048;stroke-width:1.0;"/><text fill="#000000" font-family="sans-serif" font-size="14" lengthAdjust="spacing" textLength="138" x="27" y="229.1826">Level : int &#171;get&#187; &#171;set&#187;</text><line style="stroke:#181818;stroke-width:0.5;" x1="8" x2="551" y1="236.4844" y2="236.4844"/><ellipse cx="18" cy="250.1328" fill="#84BE84" rx="3" ry="3" style="stroke:#038048;stroke-width:1.0;"/><text fill="#000000" font-family="sans-serif" font-size="14" lengthAdjust="spacing" textLength="61" x="27" y="253.4795">Monster()</text><ellipse cx="18" cy="266.4297" fill="#84BE84" rx="3" ry="3" style="stroke:#038048;stroke-width:1.0;"/><text fill="#000000" font-family="sans-serif" font-size="14" lengthAdjust="spacing" textLength="519" x="27" y="269.7764">Monster(id:int, Name:string, Description:string, MechDescription:string, Level:int)</text><ellipse cx="18" cy="282.7266" fill="#84BE84" rx="3" ry="3" style="stroke:#038048;stroke-width:1.0;"/><text fill="#000000" font-family="sans-serif" font-size="14" lengthAdjust="spacing" text-decoration="underline" textLength="232" x="27" y="286.0732">ToMonster(values:object[]) : Monster</text><ellipse cx="18" cy="299.0234" fill="#84BE84" rx="3" ry="3" style="stroke:#038048;stroke-width:1.0;"/><text fill="#000000" font-family="sans-serif" font-size="14" lengthAdjust="spacing" textLength="181" x="27" y="302.3701">&#171;override&#187; ToString() : string</text><ellipse cx="18" cy="315.3203" fill="#84BE84" rx="3" ry="3" style="stroke:#038048;stroke-width:1.0;"/><text fill="#000000" font-family="sans-serif" font-size="14" lengthAdjust="spacing" textLength="158" x="27" y="318.667">ToTextFileString() : string</text></g><!--class DbClass--><g id="elem_DbClass"><rect fill="#F1F1F1" height="48" id="DbClass" rx="2.5" ry="2.5" style="stroke:#181818;stroke-width:0.5;" width="81" x="239" y="7"/><ellipse cx="254" cy="23" fill="#ADD1B2" rx="11" ry="11" style="stroke:#181818;stroke-width:1.0;"/><path d="M253.9375,18.8281 Q253.1875,18.8281 252.625,19.125 Q252.0625,19.4063 251.6719,19.9375 Q251.2813,20.4688 251.0781,21.25 Q250.8906,22.0156 250.8906,22.9688 Q250.8906,23.9375 251.0625,24.7031 Q251.25,25.4531 251.6094,25.9688 Q251.9844,26.4844 252.5625,26.7656 Q253.1406,27.0313 253.9375,27.0313 Q254.6719,27.0313 255.4063,26.8594 Q256.1563,26.6875 257.0313,26.3906 L257.0313,28.5469 Q256.625,28.7031 256.2344,28.8281 Q255.8438,28.9375 255.4375,29.0156 Q255.0313,29.0938 254.6094,29.125 Q254.1875,29.1719 253.6875,29.1719 Q252.2813,29.1719 251.25,28.7188 Q250.2344,28.2656 249.5625,27.4531 Q248.8906,26.6406 248.5625,25.5 Q248.2344,24.3438 248.2344,22.9531 Q248.2344,21.5781 248.6094,20.4219 Q248.9844,19.2656 249.7031,18.4375 Q250.4219,17.6094 251.4844,17.1563 Q252.5469,16.6875 253.9375,16.6875 Q254.8438,16.6875 255.75,16.9219 Q256.6563,17.1406 257.4844,17.5469 L256.6563,19.6406 Q255.9688,19.3125 255.2813,19.0781 Q254.5938,18.8281 253.9375,18.8281 Z " fill="#000000"/><text fill="#000000" font-family="sans-serif" font-size="14" lengthAdjust="spacing" textLength="49" x="268" y="27.8467">DbClass</text><line style="stroke:#181818;stroke-width:0.5;" x1="240" x2="319" y1="39" y2="39"/><line style="stroke:#181818;stroke-width:0.5;" x1="240" x2="319" y1="47" y2="47"/></g><!--reverse link DbClass to Monster--><g id="link_DbClass_Monster"><path codeLine="13" d="M279.5,75.55 C279.5,87.52 279.5,101.03 279.5,114.86 " fill="none" id="DbClass-backto-Monster" style="stroke:#181818;stroke-width:1.0;"/><polygon fill="none" points="272.5,75.37,279.5,55.37,286.5,75.37,272.5,75.37" style="stroke:#181818;stroke-width:1.0;"/></g><!--SRC=[bP713e8m38RlFCME4F45oC95uacyoCruWD5W3MvcgyG4UNS73c8mQjobMVltxzTKrBanB5NI46ZMUio-1SEIHGmbCSuhe3YsqVJHbRVv6Qp0a4PPVT0aO8J62w6IlwGfYECVyWqqK7_bS-lumUoFPMIRme4_Uiu8Nq6dt8neoW-ZUu_HkJMK4ugEPMeSqkJr5KoaYXC8sXy2I-fAheTprO3MM885pzHkyFQ3QMqdorG6DrfZ3U-ApakArN0vVbykH_y7]--></g></svg>