<?xml version="1.0" encoding="us-ascii" standalone="no"?><svg xmlns="http://www.w3.org/2000/svg" xmlns:xlink="http://www.w3.org/1999/xlink" contentStyleType="text/css" height="457px" preserveAspectRatio="none" style="width:885px;height:457px;background:#FFFFFF;" version="1.1" viewBox="0 0 885 457" width="885px" zoomAndPan="magnify"><defs/><g><!--class Name--><g id="elem_Name"><rect codeLine="1" fill="#F1F1F1" height="227.2656" id="Name" rx="2.5" ry="2.5" style="stroke:#181818;stroke-width:0.5;" width="871" x="7" y="115"/><ellipse cx="419.25" cy="131" fill="#ADD1B2" rx="11" ry="11" style="stroke:#181818;stroke-width:1.0;"/><path d="M419.1875,126.8281 Q418.4375,126.8281 417.875,127.125 Q417.3125,127.4063 416.9219,127.9375 Q416.5313,128.4688 416.3281,129.25 Q416.1406,130.0156 416.1406,130.9688 Q416.1406,131.9375 416.3125,132.7031 Q416.5,133.4531 416.8594,133.9688 Q417.2344,134.4844 417.8125,134.7656 Q418.3906,135.0313 419.1875,135.0313 Q419.9219,135.0313 420.6563,134.8594 Q421.4063,134.6875 422.2813,134.3906 L422.2813,136.5469 Q421.875,136.7031 421.4844,136.8281 Q421.0938,136.9375 420.6875,137.0156 Q420.2813,137.0938 419.8594,137.125 Q419.4375,137.1719 418.9375,137.1719 Q417.5313,137.1719 416.5,136.7188 Q415.4844,136.2656 414.8125,135.4531 Q414.1406,134.6406 413.8125,133.5 Q413.4844,132.3438 413.4844,130.9531 Q413.4844,129.5781 413.8594,128.4219 Q414.2344,127.2656 414.9531,126.4375 Q415.6719,125.6094 416.7344,125.1563 Q417.7969,124.6875 419.1875,124.6875 Q420.0938,124.6875 421,124.9219 Q421.9063,125.1406 422.7344,125.5469 L421.9063,127.6406 Q421.2188,127.3125 420.5313,127.0781 Q419.8438,126.8281 419.1875,126.8281 Z " fill="#000000"/><text fill="#000000" font-family="sans-serif" font-size="14" lengthAdjust="spacing" textLength="38" x="439.75" y="135.8467">Name</text><line style="stroke:#181818;stroke-width:0.5;" x1="8" x2="877" y1="147" y2="147"/><ellipse cx="18" cy="160.6484" fill="none" rx="3" ry="3" style="stroke:#038048;stroke-width:1.0;"/><text fill="#000000" font-family="sans-serif" font-size="14" lengthAdjust="spacing" textLength="153" x="27" y="163.9951">Base : string &#171;get&#187; &#171;set&#187;</text><ellipse cx="18" cy="176.9453" fill="none" rx="3" ry="3" style="stroke:#038048;stroke-width:1.0;"/><text fill="#000000" font-family="sans-serif" font-size="14" lengthAdjust="spacing" textLength="248" x="27" y="180.292">SingularNominative : string &#171;get&#187; &#171;set&#187;</text><ellipse cx="18" cy="193.2422" fill="none" rx="3" ry="3" style="stroke:#038048;stroke-width:1.0;"/><text fill="#000000" font-family="sans-serif" font-size="14" lengthAdjust="spacing" textLength="228" x="27" y="196.5889">SingularGenitive : string &#171;get&#187; &#171;set&#187;</text><ellipse cx="18" cy="209.5391" fill="none" rx="3" ry="3" style="stroke:#038048;stroke-width:1.0;"/><text fill="#000000" font-family="sans-serif" font-size="14" lengthAdjust="spacing" textLength="234" x="27" y="212.8857">PluralNominative : string &#171;get&#187; &#171;set&#187;</text><ellipse cx="18" cy="225.8359" fill="none" rx="3" ry="3" style="stroke:#038048;stroke-width:1.0;"/><text fill="#000000" font-family="sans-serif" font-size="14" lengthAdjust="spacing" textLength="214" x="27" y="229.1826">PluralGenitive : string &#171;get&#187; &#171;set&#187;</text><line style="stroke:#181818;stroke-width:0.5;" x1="8" x2="877" y1="236.4844" y2="236.4844"/><ellipse cx="18" cy="250.1328" fill="#84BE84" rx="3" ry="3" style="stroke:#038048;stroke-width:1.0;"/><text fill="#000000" font-family="sans-serif" font-size="14" lengthAdjust="spacing" textLength="845" x="27" y="253.4795">Name(Base:string, SingularNominative:string, SingularGenitive:string, PluralNominative:string, PluralGenitive:string, gender:Gender)</text><ellipse cx="18" cy="266.4297" fill="#84BE84" rx="3" ry="3" style="stroke:#038048;stroke-width:1.0;"/><text fill="#000000" font-family="sans-serif" font-size="14" lengthAdjust="spacing" text-decoration="underline" textLength="202" x="27" y="269.7764">ToName(values:object[]) : Name</text><ellipse cx="18" cy="282.7266" fill="#84BE84" rx="3" ry="3" style="stroke:#038048;stroke-width:1.0;"/><text fill="#000000" font-family="sans-serif" font-size="14" lengthAdjust="spacing" textLength="113" x="27" y="286.0732">SingNom() : string</text><ellipse cx="18" cy="299.0234" fill="#84BE84" rx="3" ry="3" style="stroke:#038048;stroke-width:1.0;"/><text fill="#000000" font-family="sans-serif" font-size="14" lengthAdjust="spacing" textLength="108" x="27" y="302.3701">SingGen() : string</text><ellipse cx="18" cy="315.3203" fill="#84BE84" rx="3" ry="3" style="stroke:#038048;stroke-width:1.0;"/><text fill="#000000" font-family="sans-serif" font-size="14" lengthAdjust="spacing" textLength="124" x="27" y="318.667">PluralNom() : string</text><ellipse cx="18" cy="331.6172" fill="#84BE84" rx="3" ry="3" style="stroke:#038048;stroke-width:1.0;"/><text fill="#000000" font-family="sans-serif" font-size="14" lengthAdjust="spacing" textLength="119" x="27" y="334.9639">PluralGen() : string</text></g><!--class DbClass--><g id="elem_DbClass"><rect fill="#F1F1F1" height="48" id="DbClass" rx="2.5" ry="2.5" style="stroke:#181818;stroke-width:0.5;" width="81" x="402" y="7"/><ellipse cx="417" cy="23" fill="#ADD1B2" rx="11" ry="11" style="stroke:#181818;stroke-width:1.0;"/><path d="M416.9375,18.8281 Q416.1875,18.8281 415.625,19.125 Q415.0625,19.4063 414.6719,19.9375 Q414.2813,20.4688 414.0781,21.25 Q413.8906,22.0156 413.8906,22.9688 Q413.8906,23.9375 414.0625,24.7031 Q414.25,25.4531 414.6094,25.9688 Q414.9844,26.4844 415.5625,26.7656 Q416.1406,27.0313 416.9375,27.0313 Q417.6719,27.0313 418.4063,26.8594 Q419.1563,26.6875 420.0313,26.3906 L420.0313,28.5469 Q419.625,28.7031 419.2344,28.8281 Q418.8438,28.9375 418.4375,29.0156 Q418.0313,29.0938 417.6094,29.125 Q417.1875,29.1719 416.6875,29.1719 Q415.2813,29.1719 414.25,28.7188 Q413.2344,28.2656 412.5625,27.4531 Q411.8906,26.6406 411.5625,25.5 Q411.2344,24.3438 411.2344,22.9531 Q411.2344,21.5781 411.6094,20.4219 Q411.9844,19.2656 412.7031,18.4375 Q413.4219,17.6094 414.4844,17.1563 Q415.5469,16.6875 416.9375,16.6875 Q417.8438,16.6875 418.75,16.9219 Q419.6563,17.1406 420.4844,17.5469 L419.6563,19.6406 Q418.9688,19.3125 418.2813,19.0781 Q417.5938,18.8281 416.9375,18.8281 Z " fill="#000000"/><text fill="#000000" font-family="sans-serif" font-size="14" lengthAdjust="spacing" textLength="49" x="431" y="27.8467">DbClass</text><line style="stroke:#181818;stroke-width:0.5;" x1="403" x2="482" y1="39" y2="39"/><line style="stroke:#181818;stroke-width:0.5;" x1="403" x2="482" y1="47" y2="47"/></g><!--class Gender--><g id="elem_Gender"><rect fill="#F1F1F1" height="48" id="Gender" rx="2.5" ry="2.5" style="stroke:#181818;stroke-width:0.5;" width="80" x="402.5" y="402"/><ellipse cx="417.5" cy="418" fill="#ADD1B2" rx="11" ry="11" style="stroke:#181818;stroke-width:1.0;"/><path d="M417.4375,413.8281 Q416.6875,413.8281 416.125,414.125 Q415.5625,414.4063 415.1719,414.9375 Q414.7813,415.4688 414.5781,416.25 Q414.3906,417.0156 414.3906,417.9688 Q414.3906,418.9375 414.5625,419.7031 Q414.75,420.4531 415.1094,420.9688 Q415.4844,421.4844 416.0625,421.7656 Q416.6406,422.0313 417.4375,422.0313 Q418.1719,422.0313 418.9063,421.8594 Q419.6563,421.6875 420.5313,421.3906 L420.5313,423.5469 Q420.125,423.7031 419.7344,423.8281 Q419.3438,423.9375 418.9375,424.0156 Q418.5313,424.0938 418.1094,424.125 Q417.6875,424.1719 417.1875,424.1719 Q415.7813,424.1719 414.75,423.7188 Q413.7344,423.2656 413.0625,422.4531 Q412.3906,421.6406 412.0625,420.5 Q411.7344,419.3438 411.7344,417.9531 Q411.7344,416.5781 412.1094,415.4219 Q412.4844,414.2656 413.2031,413.4375 Q413.9219,412.6094 414.9844,412.1563 Q416.0469,411.6875 417.4375,411.6875 Q418.3438,411.6875 419.25,411.9219 Q420.1563,412.1406 420.9844,412.5469 L420.1563,414.6406 Q419.4688,414.3125 418.7813,414.0781 Q418.0938,413.8281 417.4375,413.8281 Z " fill="#000000"/><text fill="#000000" font-family="sans-serif" font-size="14" lengthAdjust="spacing" textLength="48" x="431.5" y="422.8467">Gender</text><line style="stroke:#181818;stroke-width:0.5;" x1="403.5" x2="481.5" y1="434" y2="434"/><line style="stroke:#181818;stroke-width:0.5;" x1="403.5" x2="481.5" y1="442" y2="442"/></g><!--reverse link DbClass to Name--><g id="link_DbClass_Name"><path codeLine="14" d="M442.5,75.38 C442.5,87.38 442.5,100.97 442.5,114.98 " fill="none" id="DbClass-backto-Name" style="stroke:#181818;stroke-width:1.0;"/><polygon fill="none" points="435.5,75.19,442.5,55.19,449.5,75.19,435.5,75.19" style="stroke:#181818;stroke-width:1.0;"/></g><!--link Name to Gender--><g id="link_Name_Gender"><path codeLine="15" d="M442.5,342.09 C442.5,362.35 442.5,381.74 442.5,396.67 " fill="none" id="Name-to-Gender" style="stroke:#181818;stroke-width:1.0;"/><polygon fill="#181818" points="442.5,401.96,446.5,392.96,442.5,396.96,438.5,392.96,442.5,401.96" style="stroke:#181818;stroke-width:1.0;"/><text fill="#000000" font-family="sans-serif" font-size="13" lengthAdjust="spacing" textLength="44" x="392.8625" y="390.9618">Gender</text></g><!--SRC=[ZLAz2eCm6DnzYWydfSqB175e2zsaq6wbGxH1KcA49BfOtxtviIBQGh8SvEwxxowauaGfA4X3OOZ0d1qSYAA0GMd9H0rPLbETvmQLnKbpDLJ7YIpQXWcYMHyySQQ2XUWll9E4X_jxVQYxBPpOejZBzZyQRQYl-KoiCww8ZRwcuaabFZj8foY3qcQu6k7MkbGzuHrLk2rVjDBtHsggsFl5Cvg5IJetN136U4lC8VzHgwanEfL7zokoDq9-j_iV2EKG- -mnUFm0]--></g></svg>