<?xml version="1.0" encoding="us-ascii" standalone="no"?><svg xmlns="http://www.w3.org/2000/svg" xmlns:xlink="http://www.w3.org/1999/xlink" contentStyleType="text/css" height="474px" preserveAspectRatio="none" style="width:936px;height:474px;background:#FFFFFF;" version="1.1" viewBox="0 0 936 474" width="936px" zoomAndPan="magnify"><defs/><g><!--class Noun--><g id="elem_Noun"><rect codeLine="1" fill="#F1F1F1" height="243.5625" id="Noun" rx="2.5" ry="2.5" style="stroke:#181818;stroke-width:0.5;" width="922" x="7" y="115"/><ellipse cx="446.75" cy="131" fill="#ADD1B2" rx="11" ry="11" style="stroke:#181818;stroke-width:1.0;"/><path d="M446.6875,126.8281 Q445.9375,126.8281 445.375,127.125 Q444.8125,127.4063 444.4219,127.9375 Q444.0313,128.4688 443.8281,129.25 Q443.6406,130.0156 443.6406,130.9688 Q443.6406,131.9375 443.8125,132.7031 Q444,133.4531 444.3594,133.9688 Q444.7344,134.4844 445.3125,134.7656 Q445.8906,135.0313 446.6875,135.0313 Q447.4219,135.0313 448.1563,134.8594 Q448.9063,134.6875 449.7813,134.3906 L449.7813,136.5469 Q449.375,136.7031 448.9844,136.8281 Q448.5938,136.9375 448.1875,137.0156 Q447.7813,137.0938 447.3594,137.125 Q446.9375,137.1719 446.4375,137.1719 Q445.0313,137.1719 444,136.7188 Q442.9844,136.2656 442.3125,135.4531 Q441.6406,134.6406 441.3125,133.5 Q440.9844,132.3438 440.9844,130.9531 Q440.9844,129.5781 441.3594,128.4219 Q441.7344,127.2656 442.4531,126.4375 Q443.1719,125.6094 444.2344,125.1563 Q445.2969,124.6875 446.6875,124.6875 Q447.5938,124.6875 448.5,124.9219 Q449.4063,125.1406 450.2344,125.5469 L449.4063,127.6406 Q448.7188,127.3125 448.0313,127.0781 Q447.3438,126.8281 446.6875,126.8281 Z " fill="#000000"/><text fill="#000000" font-family="sans-serif" font-size="14" lengthAdjust="spacing" textLength="34" x="467.25" y="135.8467">Noun</text><line style="stroke:#181818;stroke-width:0.5;" x1="8" x2="928" y1="147" y2="147"/><ellipse cx="18" cy="160.6484" fill="none" rx="3" ry="3" style="stroke:#038048;stroke-width:1.0;"/><text fill="#000000" font-family="sans-serif" font-size="14" lengthAdjust="spacing" textLength="153" x="27" y="163.9951">Base : string &#171;get&#187; &#171;set&#187;</text><ellipse cx="18" cy="176.9453" fill="none" rx="3" ry="3" style="stroke:#038048;stroke-width:1.0;"/><text fill="#000000" font-family="sans-serif" font-size="14" lengthAdjust="spacing" textLength="248" x="27" y="180.292">SingularNominative : string &#171;get&#187; &#171;set&#187;</text><ellipse cx="18" cy="193.2422" fill="none" rx="3" ry="3" style="stroke:#038048;stroke-width:1.0;"/><text fill="#000000" font-family="sans-serif" font-size="14" lengthAdjust="spacing" textLength="228" x="27" y="196.5889">SingularGenitive : string &#171;get&#187; &#171;set&#187;</text><ellipse cx="18" cy="209.5391" fill="none" rx="3" ry="3" style="stroke:#038048;stroke-width:1.0;"/><text fill="#000000" font-family="sans-serif" font-size="14" lengthAdjust="spacing" textLength="234" x="27" y="212.8857">PluralNominative : string &#171;get&#187; &#171;set&#187;</text><ellipse cx="18" cy="225.8359" fill="none" rx="3" ry="3" style="stroke:#038048;stroke-width:1.0;"/><text fill="#000000" font-family="sans-serif" font-size="14" lengthAdjust="spacing" textLength="214" x="27" y="229.1826">PluralGenitive : string &#171;get&#187; &#171;set&#187;</text><ellipse cx="18" cy="242.1328" fill="none" rx="3" ry="3" style="stroke:#038048;stroke-width:1.0;"/><text fill="#000000" font-family="sans-serif" font-size="14" lengthAdjust="spacing" textLength="132" x="27" y="245.4795">Title : int &#171;get&#187; &#171;set&#187;</text><line style="stroke:#181818;stroke-width:0.5;" x1="8" x2="928" y1="252.7813" y2="252.7813"/><ellipse cx="18" cy="266.4297" fill="#84BE84" rx="3" ry="3" style="stroke:#038048;stroke-width:1.0;"/><text fill="#000000" font-family="sans-serif" font-size="14" lengthAdjust="spacing" textLength="896" x="27" y="269.7764">Noun(Base:string, SingularNominative:string, SingularGenitive:string, PluralNominative:string, PluralGenitive:string, gender:Gender, title:int)</text><ellipse cx="18" cy="282.7266" fill="#84BE84" rx="3" ry="3" style="stroke:#038048;stroke-width:1.0;"/><text fill="#000000" font-family="sans-serif" font-size="14" lengthAdjust="spacing" text-decoration="underline" textLength="194" x="27" y="286.0732">ToNoun(values:object[]) : Noun</text><ellipse cx="18" cy="299.0234" fill="#84BE84" rx="3" ry="3" style="stroke:#038048;stroke-width:1.0;"/><text fill="#000000" font-family="sans-serif" font-size="14" lengthAdjust="spacing" textLength="113" x="27" y="302.3701">SingNom() : string</text><ellipse cx="18" cy="315.3203" fill="#84BE84" rx="3" ry="3" style="stroke:#038048;stroke-width:1.0;"/><text fill="#000000" font-family="sans-serif" font-size="14" lengthAdjust="spacing" textLength="108" x="27" y="318.667">SingGen() : string</text><ellipse cx="18" cy="331.6172" fill="#84BE84" rx="3" ry="3" style="stroke:#038048;stroke-width:1.0;"/><text fill="#000000" font-family="sans-serif" font-size="14" lengthAdjust="spacing" textLength="124" x="27" y="334.9639">PluralNom() : string</text><ellipse cx="18" cy="347.9141" fill="#84BE84" rx="3" ry="3" style="stroke:#038048;stroke-width:1.0;"/><text fill="#000000" font-family="sans-serif" font-size="14" lengthAdjust="spacing" textLength="119" x="27" y="351.2607">PluralGen() : string</text></g><!--class DbClass--><g id="elem_DbClass"><rect fill="#F1F1F1" height="48" id="DbClass" rx="2.5" ry="2.5" style="stroke:#181818;stroke-width:0.5;" width="81" x="427.5" y="7"/><ellipse cx="442.5" cy="23" fill="#ADD1B2" rx="11" ry="11" style="stroke:#181818;stroke-width:1.0;"/><path d="M442.4375,18.8281 Q441.6875,18.8281 441.125,19.125 Q440.5625,19.4063 440.1719,19.9375 Q439.7813,20.4688 439.5781,21.25 Q439.3906,22.0156 439.3906,22.9688 Q439.3906,23.9375 439.5625,24.7031 Q439.75,25.4531 440.1094,25.9688 Q440.4844,26.4844 441.0625,26.7656 Q441.6406,27.0313 442.4375,27.0313 Q443.1719,27.0313 443.9063,26.8594 Q444.6563,26.6875 445.5313,26.3906 L445.5313,28.5469 Q445.125,28.7031 444.7344,28.8281 Q444.3438,28.9375 443.9375,29.0156 Q443.5313,29.0938 443.1094,29.125 Q442.6875,29.1719 442.1875,29.1719 Q440.7813,29.1719 439.75,28.7188 Q438.7344,28.2656 438.0625,27.4531 Q437.3906,26.6406 437.0625,25.5 Q436.7344,24.3438 436.7344,22.9531 Q436.7344,21.5781 437.1094,20.4219 Q437.4844,19.2656 438.2031,18.4375 Q438.9219,17.6094 439.9844,17.1563 Q441.0469,16.6875 442.4375,16.6875 Q443.3438,16.6875 444.25,16.9219 Q445.1563,17.1406 445.9844,17.5469 L445.1563,19.6406 Q444.4688,19.3125 443.7813,19.0781 Q443.0938,18.8281 442.4375,18.8281 Z " fill="#000000"/><text fill="#000000" font-family="sans-serif" font-size="14" lengthAdjust="spacing" textLength="49" x="456.5" y="27.8467">DbClass</text><line style="stroke:#181818;stroke-width:0.5;" x1="428.5" x2="507.5" y1="39" y2="39"/><line style="stroke:#181818;stroke-width:0.5;" x1="428.5" x2="507.5" y1="47" y2="47"/></g><!--class Gender--><g id="elem_Gender"><rect fill="#F1F1F1" height="48" id="Gender" rx="2.5" ry="2.5" style="stroke:#181818;stroke-width:0.5;" width="80" x="428" y="419"/><ellipse cx="443" cy="435" fill="#ADD1B2" rx="11" ry="11" style="stroke:#181818;stroke-width:1.0;"/><path d="M442.9375,430.8281 Q442.1875,430.8281 441.625,431.125 Q441.0625,431.4063 440.6719,431.9375 Q440.2813,432.4688 440.0781,433.25 Q439.8906,434.0156 439.8906,434.9688 Q439.8906,435.9375 440.0625,436.7031 Q440.25,437.4531 440.6094,437.9688 Q440.9844,438.4844 441.5625,438.7656 Q442.1406,439.0313 442.9375,439.0313 Q443.6719,439.0313 444.4063,438.8594 Q445.1563,438.6875 446.0313,438.3906 L446.0313,440.5469 Q445.625,440.7031 445.2344,440.8281 Q444.8438,440.9375 444.4375,441.0156 Q444.0313,441.0938 443.6094,441.125 Q443.1875,441.1719 442.6875,441.1719 Q441.2813,441.1719 440.25,440.7188 Q439.2344,440.2656 438.5625,439.4531 Q437.8906,438.6406 437.5625,437.5 Q437.2344,436.3438 437.2344,434.9531 Q437.2344,433.5781 437.6094,432.4219 Q437.9844,431.2656 438.7031,430.4375 Q439.4219,429.6094 440.4844,429.1563 Q441.5469,428.6875 442.9375,428.6875 Q443.8438,428.6875 444.75,428.9219 Q445.6563,429.1406 446.4844,429.5469 L445.6563,431.6406 Q444.9688,431.3125 444.2813,431.0781 Q443.5938,430.8281 442.9375,430.8281 Z " fill="#000000"/><text fill="#000000" font-family="sans-serif" font-size="14" lengthAdjust="spacing" textLength="48" x="457" y="439.8467">Gender</text><line style="stroke:#181818;stroke-width:0.5;" x1="429" x2="507" y1="451" y2="451"/><line style="stroke:#181818;stroke-width:0.5;" x1="429" x2="507" y1="459" y2="459"/></g><!--reverse link DbClass to Noun--><g id="link_DbClass_Noun"><path codeLine="15" d="M468,75.02 C468,86.94 468,100.49 468,114.55 " fill="none" id="DbClass-backto-Noun" style="stroke:#181818;stroke-width:1.0;"/><polygon fill="none" points="461,75,468,55,475,75,461,75" style="stroke:#181818;stroke-width:1.0;"/></g><!--link Noun to Gender--><g id="link_Noun_Gender"><path codeLine="16" d="M468,359.03 C468,379.35 468,398.63 468,413.48 " fill="none" id="Noun-to-Gender" style="stroke:#181818;stroke-width:1.0;"/><polygon fill="#181818" points="468,418.75,472,409.75,468,413.75,464,409.75,468,418.75" style="stroke:#181818;stroke-width:1.0;"/><text fill="#000000" font-family="sans-serif" font-size="13" lengthAdjust="spacing" textLength="44" x="418.6375" y="408.094">Gender</text></g><!--SRC=[ZLBB2eCm4Bpx5OidfVK7WdXe2zwaK6-bXsY3fAG9cCIBzT-RXnNH2kOoa9cTdLssPbXAA8Jcq0TWtW5EM19085LBUGDfsX2LPGQbnL5pCvHck2t4ctAiQBUx8YUSxj5VcMuns-_lzNlTIwgO5L6kDXHs9P5T1V96npyphwXV-ubOJh4WLlg6y2TfKUxW2Ch6H2PaFARgfJ8-zG2bS04xp3IHI5GlKglx8pOZsV_PpatlA9xMCIDCZpKnvTsY5bL3SAdExeJIJvButkwOaYI3q8yHWiSl]--></g></svg>