<?xml version="1.0" encoding="us-ascii" standalone="no"?><svg xmlns="http://www.w3.org/2000/svg" xmlns:xlink="http://www.w3.org/1999/xlink" contentStyleType="text/css" height="189px" preserveAspectRatio="none" style="width:199px;height:189px;background:#FFFFFF;" version="1.1" viewBox="0 0 199 189" width="199px" zoomAndPan="magnify"><defs/><g><!--class MapSizeVerificator--><g id="elem_MapSizeVerificator"><rect codeLine="1" fill="#F1F1F1" height="64.2969" id="MapSizeVerificator" rx="2.5" ry="2.5" style="stroke:#181818;stroke-width:0.5;" width="185" x="7" y="118"/><ellipse cx="37.3" cy="134" fill="#ADD1B2" rx="11" ry="11" style="stroke:#181818;stroke-width:1.0;"/><path d="M37.2375,129.8281 Q36.4875,129.8281 35.925,130.125 Q35.3625,130.4063 34.9719,130.9375 Q34.5813,131.4688 34.3781,132.25 Q34.1906,133.0156 34.1906,133.9688 Q34.1906,134.9375 34.3625,135.7031 Q34.55,136.4531 34.9094,136.9688 Q35.2844,137.4844 35.8625,137.7656 Q36.4406,138.0313 37.2375,138.0313 Q37.9719,138.0313 38.7063,137.8594 Q39.4563,137.6875 40.3313,137.3906 L40.3313,139.5469 Q39.925,139.7031 39.5344,139.8281 Q39.1438,139.9375 38.7375,140.0156 Q38.3313,140.0938 37.9094,140.125 Q37.4875,140.1719 36.9875,140.1719 Q35.5813,140.1719 34.55,139.7188 Q33.5344,139.2656 32.8625,138.4531 Q32.1906,137.6406 31.8625,136.5 Q31.5344,135.3438 31.5344,133.9531 Q31.5344,132.5781 31.9094,131.4219 Q32.2844,130.2656 33.0031,129.4375 Q33.7219,128.6094 34.7844,128.1563 Q35.8469,127.6875 37.2375,127.6875 Q38.1438,127.6875 39.05,127.9219 Q39.9563,128.1406 40.7844,128.5469 L39.9563,130.6406 Q39.2688,130.3125 38.5813,130.0781 Q37.8938,129.8281 37.2375,129.8281 Z " fill="#000000"/><text fill="#000000" font-family="sans-serif" font-size="14" lengthAdjust="spacing" textLength="119" x="54.7" y="138.8467">MapSizeVerificator</text><line style="stroke:#181818;stroke-width:0.5;" x1="8" x2="191" y1="150" y2="150"/><line style="stroke:#181818;stroke-width:0.5;" x1="8" x2="191" y1="158" y2="158"/><ellipse cx="18" cy="171.6484" fill="#84BE84" rx="3" ry="3" style="stroke:#038048;stroke-width:1.0;"/><text fill="#000000" font-family="sans-serif" font-size="14" lengthAdjust="spacing" textLength="159" x="27" y="174.9951">Check(value:string) : bool</text></g><!--class IVerificator`1--><g id="elem_IVerificator`1"><rect codeLine="4" fill="#F1F1F1" height="48" id="IVerificator`1" rx="2.5" ry="2.5" style="stroke:#181818;stroke-width:0.5;" width="130" x="34.5" y="10"/><ellipse cx="49.5" cy="26" fill="#ADD1B2" rx="11" ry="11" style="stroke:#181818;stroke-width:1.0;"/><path d="M49.4375,21.8281 Q48.6875,21.8281 48.125,22.125 Q47.5625,22.4063 47.1719,22.9375 Q46.7813,23.4688 46.5781,24.25 Q46.3906,25.0156 46.3906,25.9688 Q46.3906,26.9375 46.5625,27.7031 Q46.75,28.4531 47.1094,28.9688 Q47.4844,29.4844 48.0625,29.7656 Q48.6406,30.0313 49.4375,30.0313 Q50.1719,30.0313 50.9063,29.8594 Q51.6563,29.6875 52.5313,29.3906 L52.5313,31.5469 Q52.125,31.7031 51.7344,31.8281 Q51.3438,31.9375 50.9375,32.0156 Q50.5313,32.0938 50.1094,32.125 Q49.6875,32.1719 49.1875,32.1719 Q47.7813,32.1719 46.75,31.7188 Q45.7344,31.2656 45.0625,30.4531 Q44.3906,29.6406 44.0625,28.5 Q43.7344,27.3438 43.7344,25.9531 Q43.7344,24.5781 44.1094,23.4219 Q44.4844,22.2656 45.2031,21.4375 Q45.9219,20.6094 46.9844,20.1563 Q48.0469,19.6875 49.4375,19.6875 Q50.3438,19.6875 51.25,19.9219 Q52.1563,20.1406 52.9844,20.5469 L52.1563,22.6406 Q51.4688,22.3125 50.7813,22.0781 Q50.0938,21.8281 49.4375,21.8281 Z " fill="#000000"/><text fill="#000000" font-family="sans-serif" font-size="14" lengthAdjust="spacing" textLength="88" x="63.5" y="30.8467">IVerificator`1</text><rect fill="#FFFFFF" height="15.9688" style="stroke:#181818;stroke-width:1.0;stroke-dasharray:2.0,2.0;" width="8" x="159.5" y="7"/><text fill="#000000" font-family="sans-serif" font-size="12" font-style="italic" lengthAdjust="spacing" textLength="6" x="160.5" y="19.1387">T</text><line style="stroke:#181818;stroke-width:0.5;" x1="35.5" x2="163.5" y1="42" y2="42"/><line style="stroke:#181818;stroke-width:0.5;" x1="35.5" x2="163.5" y1="50" y2="50"/></g><!--reverse link IVerificator`1 to MapSizeVerificator--><g id="link_IVerificator`1_MapSizeVerificator"><path codeLine="6" d="M99.5,78.09 C99.5,91.28 99.5,105.52 99.5,117.75 " fill="none" id="IVerificator`1-backto-MapSizeVerificator" style="stroke:#181818;stroke-width:1.0;"/><polygon fill="none" points="92.5,78.07,99.5,58.07,106.5,78.07,92.5,78.07" style="stroke:#181818;stroke-width:1.0;"/><text fill="#000000" font-family="sans-serif" font-size="13" lengthAdjust="spacing" textLength="47" x="46.4781" y="78.2437">&lt;string&gt;</text></g><!--SRC=[Iyv9B2vMy4qi2CwiIWrBBSfCoqnEBCalKgZcKW02RGNdZDJaR8son9pILAlYagBCl7HD1Ik5fFpy7AvQhcImRYLF98q9Xaes8NP0xRLSwE8AIZOG4-oK56ngT7MnM0i0]--></g></svg>