<?xml version="1.0" encoding="us-ascii" standalone="no"?><svg xmlns="http://www.w3.org/2000/svg" xmlns:xlink="http://www.w3.org/1999/xlink" contentStyleType="text/css" height="189px" preserveAspectRatio="none" style="width:199px;height:189px;background:#FFFFFF;" version="1.1" viewBox="0 0 199 189" width="199px" zoomAndPan="magnify"><defs/><g><!--class RoomSizeVerificator--><g id="elem_RoomSizeVerificator"><rect codeLine="1" fill="#F1F1F1" height="64.2969" id="RoomSizeVerificator" rx="2.5" ry="2.5" style="stroke:#181818;stroke-width:0.5;" width="185" x="7" y="118"/><ellipse cx="32.8" cy="134" fill="#ADD1B2" rx="11" ry="11" style="stroke:#181818;stroke-width:1.0;"/><path d="M32.7375,129.8281 Q31.9875,129.8281 31.425,130.125 Q30.8625,130.4063 30.4719,130.9375 Q30.0812,131.4688 29.8781,132.25 Q29.6906,133.0156 29.6906,133.9688 Q29.6906,134.9375 29.8625,135.7031 Q30.05,136.4531 30.4094,136.9688 Q30.7844,137.4844 31.3625,137.7656 Q31.9406,138.0313 32.7375,138.0313 Q33.4719,138.0313 34.2063,137.8594 Q34.9563,137.6875 35.8313,137.3906 L35.8313,139.5469 Q35.425,139.7031 35.0344,139.8281 Q34.6438,139.9375 34.2375,140.0156 Q33.8313,140.0938 33.4094,140.125 Q32.9875,140.1719 32.4875,140.1719 Q31.0812,140.1719 30.05,139.7188 Q29.0344,139.2656 28.3625,138.4531 Q27.6906,137.6406 27.3625,136.5 Q27.0344,135.3438 27.0344,133.9531 Q27.0344,132.5781 27.4094,131.4219 Q27.7844,130.2656 28.5031,129.4375 Q29.2219,128.6094 30.2844,128.1563 Q31.3469,127.6875 32.7375,127.6875 Q33.6438,127.6875 34.55,127.9219 Q35.4563,128.1406 36.2844,128.5469 L35.4563,130.6406 Q34.7688,130.3125 34.0813,130.0781 Q33.3938,129.8281 32.7375,129.8281 Z " fill="#000000"/><text fill="#000000" font-family="sans-serif" font-size="14" lengthAdjust="spacing" textLength="129" x="49.2" y="138.8467">RoomSizeVerificator</text><line style="stroke:#181818;stroke-width:0.5;" x1="8" x2="191" y1="150" y2="150"/><line style="stroke:#181818;stroke-width:0.5;" x1="8" x2="191" y1="158" y2="158"/><ellipse cx="18" cy="171.6484" fill="#84BE84" rx="3" ry="3" style="stroke:#038048;stroke-width:1.0;"/><text fill="#000000" font-family="sans-serif" font-size="14" lengthAdjust="spacing" textLength="159" x="27" y="174.9951">Check(value:string) : bool</text></g><!--class IVerificator`1--><g id="elem_IVerificator`1"><rect codeLine="4" fill="#F1F1F1" height="48" id="IVerificator`1" rx="2.5" ry="2.5" style="stroke:#181818;stroke-width:0.5;" width="130" x="34.5" y="10"/><ellipse cx="49.5" cy="26" fill="#ADD1B2" rx="11" ry="11" style="stroke:#181818;stroke-width:1.0;"/><path d="M49.4375,21.8281 Q48.6875,21.8281 48.125,22.125 Q47.5625,22.4063 47.1719,22.9375 Q46.7813,23.4688 46.5781,24.25 Q46.3906,25.0156 46.3906,25.9688 Q46.3906,26.9375 46.5625,27.7031 Q46.75,28.4531 47.1094,28.9688 Q47.4844,29.4844 48.0625,29.7656 Q48.6406,30.0313 49.4375,30.0313 Q50.1719,30.0313 50.9063,29.8594 Q51.6563,29.6875 52.5313,29.3906 L52.5313,31.5469 Q52.125,31.7031 51.7344,31.8281 Q51.3438,31.9375 50.9375,32.0156 Q50.5313,32.0938 50.1094,32.125 Q49.6875,32.1719 49.1875,32.1719 Q47.7813,32.1719 46.75,31.7188 Q45.7344,31.2656 45.0625,30.4531 Q44.3906,29.6406 44.0625,28.5 Q43.7344,27.3438 43.7344,25.9531 Q43.7344,24.5781 44.1094,23.4219 Q44.4844,22.2656 45.2031,21.4375 Q45.9219,20.6094 46.9844,20.1563 Q48.0469,19.6875 49.4375,19.6875 Q50.3438,19.6875 51.25,19.9219 Q52.1563,20.1406 52.9844,20.5469 L52.1563,22.6406 Q51.4688,22.3125 50.7813,22.0781 Q50.0938,21.8281 49.4375,21.8281 Z " fill="#000000"/><text fill="#000000" font-family="sans-serif" font-size="14" lengthAdjust="spacing" textLength="88" x="63.5" y="30.8467">IVerificator`1</text><rect fill="#FFFFFF" height="15.9688" style="stroke:#181818;stroke-width:1.0;stroke-dasharray:2.0,2.0;" width="8" x="159.5" y="7"/><text fill="#000000" font-family="sans-serif" font-size="12" font-style="italic" lengthAdjust="spacing" textLength="6" x="160.5" y="19.1387">T</text><line style="stroke:#181818;stroke-width:0.5;" x1="35.5" x2="163.5" y1="42" y2="42"/><line style="stroke:#181818;stroke-width:0.5;" x1="35.5" x2="163.5" y1="50" y2="50"/></g><!--reverse link IVerificator`1 to RoomSizeVerificator--><g id="link_IVerificator`1_RoomSizeVerificator"><path codeLine="6" d="M99.5,78.09 C99.5,91.28 99.5,105.52 99.5,117.75 " fill="none" id="IVerificator`1-backto-RoomSizeVerificator" style="stroke:#181818;stroke-width:1.0;"/><polygon fill="none" points="92.5,78.07,99.5,58.07,106.5,78.07,92.5,78.07" style="stroke:#181818;stroke-width:1.0;"/><text fill="#000000" font-family="sans-serif" font-size="13" lengthAdjust="spacing" textLength="47" x="46.4781" y="78.2437">&lt;string&gt;</text></g><!--SRC=[Iyv9B2vM2ChFpmtEh4eDIotAJCjCJYp9BrAevb800cq5vupKv6oDiiISqbIhufAYpBnqJGKhXQJy_1okMgvai7ObJoID2OPADY5sGEsrNEZY2aes41Fib1HiQdHriTaB0000]--></g></svg>