<?xml version="1.0" encoding="us-ascii" standalone="no"?><svg xmlns="http://www.w3.org/2000/svg" xmlns:xlink="http://www.w3.org/1999/xlink" contentStyleType="text/css" height="109px" preserveAspectRatio="none" style="width:331px;height:109px;background:#FFFFFF;" version="1.1" viewBox="0 0 331 109" width="331px" zoomAndPan="magnify"><defs/><g><!--class SimpleSizesVerificator--><g id="elem_SimpleSizesVerificator"><rect codeLine="1" fill="#F1F1F1" height="88.8594" id="SimpleSizesVerificator" rx="2.5" ry="2.5" style="stroke:#181818;stroke-width:0.5;" width="310" x="7" y="7"/><ellipse cx="86.75" cy="27.1328" fill="#ADD1B2" rx="11" ry="11" style="stroke:#181818;stroke-width:1.0;"/><path d="M86.6875,22.9609 Q85.9375,22.9609 85.375,23.2578 Q84.8125,23.5391 84.4219,24.0703 Q84.0313,24.6016 83.8281,25.3828 Q83.6406,26.1484 83.6406,27.1016 Q83.6406,28.0703 83.8125,28.8359 Q84,29.5859 84.3594,30.1016 Q84.7344,30.6172 85.3125,30.8984 Q85.8906,31.1641 86.6875,31.1641 Q87.4219,31.1641 88.1563,30.9922 Q88.9063,30.8203 89.7813,30.5234 L89.7813,32.6797 Q89.375,32.8359 88.9844,32.9609 Q88.5938,33.0703 88.1875,33.1484 Q87.7813,33.2266 87.3594,33.2578 Q86.9375,33.3047 86.4375,33.3047 Q85.0313,33.3047 84,32.8516 Q82.9844,32.3984 82.3125,31.5859 Q81.6406,30.7734 81.3125,29.6328 Q80.9844,28.4766 80.9844,27.0859 Q80.9844,25.7109 81.3594,24.5547 Q81.7344,23.3984 82.4531,22.5703 Q83.1719,21.7422 84.2344,21.2891 Q85.2969,20.8203 86.6875,20.8203 Q87.5938,20.8203 88.5,21.0547 Q89.4063,21.2734 90.2344,21.6797 L89.4063,23.7734 Q88.7188,23.4453 88.0313,23.2109 Q87.3438,22.9609 86.6875,22.9609 Z " fill="#000000"/><text fill="#000000" font-family="sans-serif" font-size="12" font-style="italic" lengthAdjust="spacing" textLength="40" x="158.25" y="23.1387">&#171;static&#187;</text><text fill="#000000" font-family="sans-serif" font-size="14" lengthAdjust="spacing" textLength="142" x="107.25" y="38.9639">SimpleSizesVerificator</text><line style="stroke:#181818;stroke-width:0.5;" x1="8" x2="316" y1="47.2656" y2="47.2656"/><line style="stroke:#181818;stroke-width:0.5;" x1="8" x2="316" y1="55.2656" y2="55.2656"/><ellipse cx="18" cy="68.9141" fill="#84BE84" rx="3" ry="3" style="stroke:#038048;stroke-width:1.0;"/><text fill="#000000" font-family="sans-serif" font-size="14" lengthAdjust="spacing" text-decoration="underline" textLength="272" x="27" y="72.2607">GetIntFromStringSizeOfRoom(s:string) : int</text><ellipse cx="18" cy="85.2109" fill="#84BE84" rx="3" ry="3" style="stroke:#038048;stroke-width:1.0;"/><text fill="#000000" font-family="sans-serif" font-size="14" lengthAdjust="spacing" text-decoration="underline" textLength="284" x="27" y="88.5576">GetIntFromStringCountOfRoom(s:string) : int</text></g><!--SRC=[Iyv9B2vM2CxCBSX93SwiIYqEIotAJCjCJYp9BrAmiIakIIp9JBQpKwZcKW02ROLgY4YjWdjgYMTUYLjHVcvmIL5cNZf8itzQK7v-haQnLJ5OI5F1IY4phuIGJkVyqhmI75fh0G00]--></g></svg>