<?xml version="1.0" encoding="us-ascii" standalone="no"?><svg xmlns="http://www.w3.org/2000/svg" xmlns:xlink="http://www.w3.org/1999/xlink" contentStyleType="text/css" height="202px" preserveAspectRatio="none" style="width:278px;height:202px;background:#FFFFFF;" version="1.1" viewBox="0 0 278 202" width="278px" zoomAndPan="magnify"><defs/><g><!--class AbstractButton--><g id="elem_AbstractButton"><rect codeLine="1" fill="#F1F1F1" height="80.5938" id="AbstractButton" rx="2.5" ry="2.5" style="stroke:#181818;stroke-width:0.5;" width="263" x="8" y="115"/><ellipse cx="87.75" cy="131" fill="#A9DCDF" rx="11" ry="11" style="stroke:#181818;stroke-width:1.0;"/><path d="M90.7031,136 L89.875,133.1094 L85.6875,133.1094 L84.8438,136 L82.25,136 L86.1875,123.8125 L89.3438,123.8125 L93.2969,136 L90.7031,136 Z M89.2656,130.9531 L88.5,128.2969 Q88.4375,128.1406 88.3438,127.8125 Q88.25,127.4688 88.125,127.0625 Q88.0156,126.6406 87.9063,126.2344 Q87.8125,125.8125 87.7813,125.5313 Q87.75,125.7031 87.6875,125.9531 Q87.6406,126.2031 87.5625,126.4844 Q87.5,126.7656 87.4219,127.0469 Q87.3438,127.3281 87.2813,127.5781 Q87.2188,127.8281 87.1563,128.0156 Q87.1094,128.2031 87.0781,128.2969 L86.3125,130.9531 L89.2656,130.9531 Z " fill="#000000"/><text fill="#000000" font-family="sans-serif" font-size="14" font-style="italic" lengthAdjust="spacing" textLength="95" x="108.25" y="135.8467">AbstractButton</text><line style="stroke:#181818;stroke-width:0.5;" x1="9" x2="270" y1="147" y2="147"/><line style="stroke:#181818;stroke-width:0.5;" x1="9" x2="270" y1="155" y2="155"/><ellipse cx="19" cy="168.6484" fill="#84BE84" rx="3" ry="3" style="stroke:#038048;stroke-width:1.0;"/><text fill="#000000" font-family="sans-serif" font-size="14" lengthAdjust="spacing" textLength="237" x="28" y="171.9951">Link(uIDocument:UIDocument) : void</text><ellipse cx="19" cy="184.9453" fill="#84BE84" rx="3" ry="3" style="stroke:#038048;stroke-width:1.0;"/><text fill="#000000" font-family="sans-serif" font-size="14" font-style="italic" lengthAdjust="spacing" textLength="87" x="28" y="188.292">Action() : void</text></g><!--class MonoBehaviour--><g id="elem_MonoBehaviour"><rect fill="#F1F1F1" height="48" id="MonoBehaviour" rx="2.5" ry="2.5" style="stroke:#181818;stroke-width:0.5;" width="133" x="7" y="7"/><ellipse cx="22" cy="23" fill="#ADD1B2" rx="11" ry="11" style="stroke:#181818;stroke-width:1.0;"/><path d="M21.9375,18.8281 Q21.1875,18.8281 20.625,19.125 Q20.0625,19.4063 19.6719,19.9375 Q19.2813,20.4688 19.0781,21.25 Q18.8906,22.0156 18.8906,22.9688 Q18.8906,23.9375 19.0625,24.7031 Q19.25,25.4531 19.6094,25.9688 Q19.9844,26.4844 20.5625,26.7656 Q21.1406,27.0313 21.9375,27.0313 Q22.6719,27.0313 23.4063,26.8594 Q24.1563,26.6875 25.0313,26.3906 L25.0313,28.5469 Q24.625,28.7031 24.2344,28.8281 Q23.8438,28.9375 23.4375,29.0156 Q23.0313,29.0938 22.6094,29.125 Q22.1875,29.1719 21.6875,29.1719 Q20.2813,29.1719 19.25,28.7188 Q18.2344,28.2656 17.5625,27.4531 Q16.8906,26.6406 16.5625,25.5 Q16.2344,24.3438 16.2344,22.9531 Q16.2344,21.5781 16.6094,20.4219 Q16.9844,19.2656 17.7031,18.4375 Q18.4219,17.6094 19.4844,17.1563 Q20.5469,16.6875 21.9375,16.6875 Q22.8438,16.6875 23.75,16.9219 Q24.6563,17.1406 25.4844,17.5469 L24.6563,19.6406 Q23.9688,19.3125 23.2813,19.0781 Q22.5938,18.8281 21.9375,18.8281 Z " fill="#000000"/><text fill="#000000" font-family="sans-serif" font-size="14" lengthAdjust="spacing" textLength="101" x="36" y="27.8467">MonoBehaviour</text><line style="stroke:#181818;stroke-width:0.5;" x1="8" x2="139" y1="39" y2="39"/><line style="stroke:#181818;stroke-width:0.5;" x1="8" x2="139" y1="47" y2="47"/></g><!--class ILink--><g id="elem_ILink"><rect fill="#F1F1F1" height="48" id="ILink" rx="2.5" ry="2.5" style="stroke:#181818;stroke-width:0.5;" width="63" x="175" y="7"/><ellipse cx="190" cy="23" fill="#ADD1B2" rx="11" ry="11" style="stroke:#181818;stroke-width:1.0;"/><path d="M189.9375,18.8281 Q189.1875,18.8281 188.625,19.125 Q188.0625,19.4063 187.6719,19.9375 Q187.2813,20.4688 187.0781,21.25 Q186.8906,22.0156 186.8906,22.9688 Q186.8906,23.9375 187.0625,24.7031 Q187.25,25.4531 187.6094,25.9688 Q187.9844,26.4844 188.5625,26.7656 Q189.1406,27.0313 189.9375,27.0313 Q190.6719,27.0313 191.4063,26.8594 Q192.1563,26.6875 193.0313,26.3906 L193.0313,28.5469 Q192.625,28.7031 192.2344,28.8281 Q191.8438,28.9375 191.4375,29.0156 Q191.0313,29.0938 190.6094,29.125 Q190.1875,29.1719 189.6875,29.1719 Q188.2813,29.1719 187.25,28.7188 Q186.2344,28.2656 185.5625,27.4531 Q184.8906,26.6406 184.5625,25.5 Q184.2344,24.3438 184.2344,22.9531 Q184.2344,21.5781 184.6094,20.4219 Q184.9844,19.2656 185.7031,18.4375 Q186.4219,17.6094 187.4844,17.1563 Q188.5469,16.6875 189.9375,16.6875 Q190.8438,16.6875 191.75,16.9219 Q192.6563,17.1406 193.4844,17.5469 L192.6563,19.6406 Q191.9688,19.3125 191.2813,19.0781 Q190.5938,18.8281 189.9375,18.8281 Z " fill="#000000"/><text fill="#000000" font-family="sans-serif" font-size="14" lengthAdjust="spacing" textLength="31" x="204" y="27.8467">ILink</text><line style="stroke:#181818;stroke-width:0.5;" x1="176" x2="237" y1="39" y2="39"/><line style="stroke:#181818;stroke-width:0.5;" x1="176" x2="237" y1="47" y2="47"/></g><!--reverse link MonoBehaviour to AbstractButton--><g id="link_MonoBehaviour_AbstractButton"><path codeLine="5" d="M95.48,72.8 C102.75,86.29 110.82,101.27 118.05,114.69 " fill="none" id="MonoBehaviour-backto-AbstractButton" style="stroke:#181818;stroke-width:1.0;"/><polygon fill="none" points="89.24,75.97,85.91,55.04,101.56,69.33,89.24,75.97" style="stroke:#181818;stroke-width:1.0;"/></g><!--reverse link ILink to AbstractButton--><g id="link_ILink_AbstractButton"><path codeLine="6" d="M184.19,72.8 C176.81,86.29 168.61,101.27 161.27,114.69 " fill="none" id="ILink-backto-AbstractButton" style="stroke:#181818;stroke-width:1.0;"/><polygon fill="none" points="178.16,69.23,193.9,55.04,190.44,75.95,178.16,69.23" style="stroke:#181818;stroke-width:1.0;"/></g><!--SRC=[IqmgBYbAJ2vHICv9B2vMS8HodKfBIlBp5Agv5810My4dCozRezJJ9J-vD3SrhyGg5CxKLB1IAClFJ84gh4w46b2hu9XSafcVfm5NKClbcv-NxvIQaLYMcLzQf61JewkBPX-N9yWYR380]--></g></svg>