<?xml version="1.0" encoding="us-ascii" standalone="no"?><svg xmlns="http://www.w3.org/2000/svg" xmlns:xlink="http://www.w3.org/1999/xlink" contentStyleType="text/css" height="218px" preserveAspectRatio="none" style="width:229px;height:218px;background:#FFFFFF;" version="1.1" viewBox="0 0 229 218" width="229px" zoomAndPan="magnify"><defs/><g><!--class AbstractButton--><g id="elem_AbstractButton"><rect codeLine="1" fill="#F1F1F1" height="96.8906" id="AbstractButton" rx="2.5" ry="2.5" style="stroke:#181818;stroke-width:0.5;" width="215" x="7" y="115"/><ellipse cx="62.75" cy="131" fill="#A9DCDF" rx="11" ry="11" style="stroke:#181818;stroke-width:1.0;"/><path d="M65.7031,136 L64.875,133.1094 L60.6875,133.1094 L59.8438,136 L57.25,136 L61.1875,123.8125 L64.3438,123.8125 L68.2969,136 L65.7031,136 Z M64.2656,130.9531 L63.5,128.2969 Q63.4375,128.1406 63.3438,127.8125 Q63.25,127.4688 63.125,127.0625 Q63.0156,126.6406 62.9063,126.2344 Q62.8125,125.8125 62.7813,125.5313 Q62.75,125.7031 62.6875,125.9531 Q62.6406,126.2031 62.5625,126.4844 Q62.5,126.7656 62.4219,127.0469 Q62.3438,127.3281 62.2813,127.5781 Q62.2188,127.8281 62.1563,128.0156 Q62.1094,128.2031 62.0781,128.2969 L61.3125,130.9531 L64.2656,130.9531 Z " fill="#000000"/><text fill="#000000" font-family="sans-serif" font-size="14" font-style="italic" lengthAdjust="spacing" textLength="95" x="83.25" y="135.8467">AbstractButton</text><line style="stroke:#181818;stroke-width:0.5;" x1="8" x2="221" y1="147" y2="147"/><line style="stroke:#181818;stroke-width:0.5;" x1="8" x2="221" y1="155" y2="155"/><ellipse cx="18" cy="168.6484" fill="#84BE84" rx="3" ry="3" style="stroke:#038048;stroke-width:1.0;"/><text fill="#000000" font-family="sans-serif" font-size="14" lengthAdjust="spacing" textLength="174" x="27" y="171.9951">Link(element:Button) : void</text><ellipse cx="18" cy="184.9453" fill="#84BE84" rx="3" ry="3" style="stroke:#038048;stroke-width:1.0;"/><text fill="#000000" font-family="sans-serif" font-size="14" lengthAdjust="spacing" textLength="189" x="27" y="188.292">Unlink(element:Button) : void</text><ellipse cx="18" cy="201.2422" fill="#84BE84" rx="3" ry="3" style="stroke:#038048;stroke-width:1.0;"/><text fill="#000000" font-family="sans-serif" font-size="14" font-style="italic" lengthAdjust="spacing" textLength="94" x="27" y="204.5889">OnClick() : void</text></g><!--class IButton--><g id="elem_IButton"><rect fill="#F1F1F1" height="48" id="IButton" rx="2.5" ry="2.5" style="stroke:#181818;stroke-width:0.5;" width="80" x="74.5" y="7"/><ellipse cx="89.5" cy="23" fill="#ADD1B2" rx="11" ry="11" style="stroke:#181818;stroke-width:1.0;"/><path d="M89.4375,18.8281 Q88.6875,18.8281 88.125,19.125 Q87.5625,19.4063 87.1719,19.9375 Q86.7813,20.4688 86.5781,21.25 Q86.3906,22.0156 86.3906,22.9688 Q86.3906,23.9375 86.5625,24.7031 Q86.75,25.4531 87.1094,25.9688 Q87.4844,26.4844 88.0625,26.7656 Q88.6406,27.0313 89.4375,27.0313 Q90.1719,27.0313 90.9063,26.8594 Q91.6563,26.6875 92.5313,26.3906 L92.5313,28.5469 Q92.125,28.7031 91.7344,28.8281 Q91.3438,28.9375 90.9375,29.0156 Q90.5313,29.0938 90.1094,29.125 Q89.6875,29.1719 89.1875,29.1719 Q87.7813,29.1719 86.75,28.7188 Q85.7344,28.2656 85.0625,27.4531 Q84.3906,26.6406 84.0625,25.5 Q83.7344,24.3438 83.7344,22.9531 Q83.7344,21.5781 84.1094,20.4219 Q84.4844,19.2656 85.2031,18.4375 Q85.9219,17.6094 86.9844,17.1563 Q88.0469,16.6875 89.4375,16.6875 Q90.3438,16.6875 91.25,16.9219 Q92.1563,17.1406 92.9844,17.5469 L92.1563,19.6406 Q91.4688,19.3125 90.7813,19.0781 Q90.0938,18.8281 89.4375,18.8281 Z " fill="#000000"/><text fill="#000000" font-family="sans-serif" font-size="14" lengthAdjust="spacing" textLength="48" x="103.5" y="27.8467">IButton</text><line style="stroke:#181818;stroke-width:0.5;" x1="75.5" x2="153.5" y1="39" y2="39"/><line style="stroke:#181818;stroke-width:0.5;" x1="75.5" x2="153.5" y1="47" y2="47"/></g><!--reverse link IButton to AbstractButton--><g id="link_IButton_AbstractButton"><path codeLine="6" d="M114.5,75.37 C114.5,88.03 114.5,101.93 114.5,114.84 " fill="none" id="IButton-backto-AbstractButton" style="stroke:#181818;stroke-width:1.0;"/><polygon fill="none" points="107.5,75.03,114.5,55.03,121.5,75.03,107.5,75.03" style="stroke:#181818;stroke-width:1.0;"/></g><!--SRC=[IqmgBYbAJ2vHICv9B2vMS8HodKfBIlBp5Agv5810My4dCozR8pKdDJSrhyGA8gUfOALGbf-P0bKHcfT3K4rr8jJqMWN_FEUSpEHi3RYAMYvFg9qsDRgwQEu00000]--></g></svg>