<?xml version="1.0" encoding="us-ascii" standalone="no"?><svg xmlns="http://www.w3.org/2000/svg" xmlns:xlink="http://www.w3.org/1999/xlink" contentStyleType="text/css" height="477px" preserveAspectRatio="none" style="width:2054px;height:477px;background:#FFFFFF;" version="1.1" viewBox="0 0 2054 477" width="2054px" zoomAndPan="magnify"><defs/><g><!--class CustomInputField--><g id="elem_CustomInputField"><rect codeLine="1" fill="#F1F1F1" height="162.0781" id="CustomInputField" rx="2.5" ry="2.5" style="stroke:#181818;stroke-width:0.5;" width="358" x="1513.5" y="200.88"/><ellipse cx="1631.75" cy="216.88" fill="#ADD1B2" rx="11" ry="11" style="stroke:#181818;stroke-width:1.0;"/><path d="M1631.6875,212.7081 Q1630.9375,212.7081 1630.375,213.005 Q1629.8125,213.2863 1629.4219,213.8175 Q1629.0313,214.3488 1628.8281,215.13 Q1628.6406,215.8956 1628.6406,216.8488 Q1628.6406,217.8175 1628.8125,218.5831 Q1629,219.3331 1629.3594,219.8488 Q1629.7344,220.3644 1630.3125,220.6456 Q1630.8906,220.9113 1631.6875,220.9113 Q1632.4219,220.9113 1633.1563,220.7394 Q1633.9063,220.5675 1634.7813,220.2706 L1634.7813,222.4269 Q1634.375,222.5831 1633.9844,222.7081 Q1633.5938,222.8175 1633.1875,222.8956 Q1632.7813,222.9738 1632.3594,223.005 Q1631.9375,223.0519 1631.4375,223.0519 Q1630.0313,223.0519 1629,222.5988 Q1627.9844,222.1456 1627.3125,221.3331 Q1626.6406,220.5206 1626.3125,219.38 Q1625.9844,218.2238 1625.9844,216.8331 Q1625.9844,215.4581 1626.3594,214.3019 Q1626.7344,213.1456 1627.4531,212.3175 Q1628.1719,211.4894 1629.2344,211.0363 Q1630.2969,210.5675 1631.6875,210.5675 Q1632.5938,210.5675 1633.5,210.8019 Q1634.4063,211.0206 1635.2344,211.4269 L1634.4063,213.5206 Q1633.7188,213.1925 1633.0313,212.9581 Q1632.3438,212.7081 1631.6875,212.7081 Z " fill="#000000"/><text fill="#000000" font-family="sans-serif" font-size="14" lengthAdjust="spacing" textLength="113" x="1652.25" y="221.7267">CustomInputField</text><line style="stroke:#181818;stroke-width:0.5;" x1="1514.5" x2="1870.5" y1="232.88" y2="232.88"/><ellipse cx="1524.5" cy="246.5284" fill="none" rx="3" ry="3" style="stroke:#038048;stroke-width:1.0;"/><text fill="#000000" font-family="sans-serif" font-size="14" lengthAdjust="spacing" textLength="150" x="1533.5" y="249.8751">Text : string &#171;get&#187; &#171;set&#187;</text><line style="stroke:#181818;stroke-width:0.5;" x1="1514.5" x2="1870.5" y1="257.1769" y2="257.1769"/><ellipse cx="1524.5" cy="270.8253" fill="#84BE84" rx="3" ry="3" style="stroke:#038048;stroke-width:1.0;"/><text fill="#000000" font-family="sans-serif" font-size="14" lengthAdjust="spacing" textLength="121" x="1533.5" y="274.172">CustomInputField()</text><ellipse cx="1524.5" cy="287.1222" fill="#84BE84" rx="3" ry="3" style="stroke:#038048;stroke-width:1.0;"/><text fill="#000000" font-family="sans-serif" font-size="14" lengthAdjust="spacing" textLength="318" x="1533.5" y="290.4689">SetBorderSettings(width:float, radious:float) : void</text><ellipse cx="1524.5" cy="303.4191" fill="#84BE84" rx="3" ry="3" style="stroke:#038048;stroke-width:1.0;"/><text fill="#000000" font-family="sans-serif" font-size="14" lengthAdjust="spacing" textLength="239" x="1533.5" y="306.7657">SetMarginSettings(margin:float) : void</text><ellipse cx="1524.5" cy="319.7159" fill="#84BE84" rx="3" ry="3" style="stroke:#038048;stroke-width:1.0;"/><text fill="#000000" font-family="sans-serif" font-size="14" lengthAdjust="spacing" textLength="250" x="1533.5" y="323.0626">SetPaddingSettings(padding:float) : void</text><ellipse cx="1524.5" cy="336.0128" fill="#84BE84" rx="3" ry="3" style="stroke:#038048;stroke-width:1.0;"/><text fill="#000000" font-family="sans-serif" font-size="14" lengthAdjust="spacing" textLength="332" x="1533.5" y="339.3595">OnInjectValidator(validator:DelegateValidator) : void</text><ellipse cx="1524.5" cy="352.3097" fill="#84BE84" rx="3" ry="3" style="stroke:#038048;stroke-width:1.0;"/><text fill="#000000" font-family="sans-serif" font-size="14" lengthAdjust="spacing" textLength="242" x="1533.5" y="355.6564">Validate(flag:bool, newvalue:int) : void</text></g><!--class UxmlFactory--><g id="elem_UxmlFactory"><rect codeLine="10" fill="#F1F1F1" height="48" id="UxmlFactory" rx="2.5" ry="2.5" style="stroke:#181818;stroke-width:0.5;" width="112" x="1906.5" y="257.88"/><ellipse cx="1921.5" cy="273.88" fill="#ADD1B2" rx="11" ry="11" style="stroke:#181818;stroke-width:1.0;"/><path d="M1921.4375,269.7081 Q1920.6875,269.7081 1920.125,270.005 Q1919.5625,270.2863 1919.1719,270.8175 Q1918.7813,271.3488 1918.5781,272.13 Q1918.3906,272.8956 1918.3906,273.8488 Q1918.3906,274.8175 1918.5625,275.5831 Q1918.75,276.3331 1919.1094,276.8488 Q1919.4844,277.3644 1920.0625,277.6456 Q1920.6406,277.9113 1921.4375,277.9113 Q1922.1719,277.9113 1922.9063,277.7394 Q1923.6563,277.5675 1924.5313,277.2706 L1924.5313,279.4269 Q1924.125,279.5831 1923.7344,279.7081 Q1923.3438,279.8175 1922.9375,279.8956 Q1922.5313,279.9738 1922.1094,280.005 Q1921.6875,280.0519 1921.1875,280.0519 Q1919.7813,280.0519 1918.75,279.5988 Q1917.7344,279.1456 1917.0625,278.3331 Q1916.3906,277.5206 1916.0625,276.38 Q1915.7344,275.2238 1915.7344,273.8331 Q1915.7344,272.4581 1916.1094,271.3019 Q1916.4844,270.1456 1917.2031,269.3175 Q1917.9219,268.4894 1918.9844,268.0363 Q1920.0469,267.5675 1921.4375,267.5675 Q1922.3438,267.5675 1923.25,267.8019 Q1924.1563,268.0206 1924.9844,268.4269 L1924.1563,270.5206 Q1923.4688,270.1925 1922.7813,269.9581 Q1922.0938,269.7081 1921.4375,269.7081 Z " fill="#000000"/><text fill="#000000" font-family="sans-serif" font-size="14" lengthAdjust="spacing" textLength="80" x="1935.5" y="278.7267">UxmlFactory</text><line style="stroke:#181818;stroke-width:0.5;" x1="1907.5" x2="2017.5" y1="289.88" y2="289.88"/><line style="stroke:#181818;stroke-width:0.5;" x1="1907.5" x2="2017.5" y1="297.88" y2="297.88"/></g><!--class UxmlTraits--><g id="elem_UxmlTraits"><rect codeLine="12" fill="#F1F1F1" height="64.2969" id="UxmlTraits" rx="2.5" ry="2.5" style="stroke:#181818;stroke-width:0.5;" width="541" x="7" y="76.88"/><ellipse cx="238.75" cy="92.88" fill="#ADD1B2" rx="11" ry="11" style="stroke:#181818;stroke-width:1.0;"/><path d="M238.6875,88.7081 Q237.9375,88.7081 237.375,89.005 Q236.8125,89.2863 236.4219,89.8175 Q236.0313,90.3488 235.8281,91.13 Q235.6406,91.8956 235.6406,92.8488 Q235.6406,93.8175 235.8125,94.5831 Q236,95.3331 236.3594,95.8488 Q236.7344,96.3644 237.3125,96.6456 Q237.8906,96.9113 238.6875,96.9113 Q239.4219,96.9113 240.1563,96.7394 Q240.9063,96.5675 241.7813,96.2706 L241.7813,98.4269 Q241.375,98.5831 240.9844,98.7081 Q240.5938,98.8175 240.1875,98.8956 Q239.7813,98.9738 239.3594,99.005 Q238.9375,99.0519 238.4375,99.0519 Q237.0313,99.0519 236,98.5988 Q234.9844,98.1456 234.3125,97.3331 Q233.6406,96.5206 233.3125,95.38 Q232.9844,94.2238 232.9844,92.8331 Q232.9844,91.4581 233.3594,90.3019 Q233.7344,89.1456 234.4531,88.3175 Q235.1719,87.4894 236.2344,87.0363 Q237.2969,86.5675 238.6875,86.5675 Q239.5938,86.5675 240.5,86.8019 Q241.4063,87.0206 242.2344,87.4269 L241.4063,89.5206 Q240.7188,89.1925 240.0313,88.9581 Q239.3438,88.7081 238.6875,88.7081 Z " fill="#000000"/><text fill="#000000" font-family="sans-serif" font-size="14" lengthAdjust="spacing" textLength="69" x="259.25" y="97.7267">UxmlTraits</text><line style="stroke:#181818;stroke-width:0.5;" x1="8" x2="547" y1="108.88" y2="108.88"/><line style="stroke:#181818;stroke-width:0.5;" x1="8" x2="547" y1="116.88" y2="116.88"/><ellipse cx="18" cy="130.5284" fill="#84BE84" rx="3" ry="3" style="stroke:#038048;stroke-width:1.0;"/><text fill="#000000" font-family="sans-serif" font-size="14" lengthAdjust="spacing" textLength="515" x="27" y="133.8751">&#171;override&#187; Init(ve:VisualElement, bag:IUxmlAttributes, cc:CreationContext) : void</text></g><!--class UxmlFactory`2--><g id="elem_UxmlFactory`2"><rect codeLine="15" fill="#F1F1F1" height="48" id="UxmlFactory`2" rx="2.5" ry="2.5" style="stroke:#181818;stroke-width:0.5;" width="161" x="1882" y="84.88"/><ellipse cx="1897" cy="100.88" fill="#ADD1B2" rx="11" ry="11" style="stroke:#181818;stroke-width:1.0;"/><path d="M1896.9375,96.7081 Q1896.1875,96.7081 1895.625,97.005 Q1895.0625,97.2863 1894.6719,97.8175 Q1894.2813,98.3488 1894.0781,99.13 Q1893.8906,99.8956 1893.8906,100.8488 Q1893.8906,101.8175 1894.0625,102.5831 Q1894.25,103.3331 1894.6094,103.8488 Q1894.9844,104.3644 1895.5625,104.6456 Q1896.1406,104.9113 1896.9375,104.9113 Q1897.6719,104.9113 1898.4063,104.7394 Q1899.1563,104.5675 1900.0313,104.2706 L1900.0313,106.4269 Q1899.625,106.5831 1899.2344,106.7081 Q1898.8438,106.8175 1898.4375,106.8956 Q1898.0313,106.9738 1897.6094,107.005 Q1897.1875,107.0519 1896.6875,107.0519 Q1895.2813,107.0519 1894.25,106.5988 Q1893.2344,106.1456 1892.5625,105.3331 Q1891.8906,104.5206 1891.5625,103.38 Q1891.2344,102.2238 1891.2344,100.8331 Q1891.2344,99.4581 1891.6094,98.3019 Q1891.9844,97.1456 1892.7031,96.3175 Q1893.4219,95.4894 1894.4844,95.0363 Q1895.5469,94.5675 1896.9375,94.5675 Q1897.8438,94.5675 1898.75,94.8019 Q1899.6563,95.0206 1900.4844,95.4269 L1899.6563,97.5206 Q1898.9688,97.1925 1898.2813,96.9581 Q1897.5938,96.7081 1896.9375,96.7081 Z " fill="#000000"/><text fill="#000000" font-family="sans-serif" font-size="14" lengthAdjust="spacing" textLength="96" x="1911" y="105.7267">UxmlFactory`2</text><rect fill="#FFFFFF" height="15.9688" style="stroke:#181818;stroke-width:1.0;stroke-dasharray:2.0,2.0;" width="31" x="2015" y="81.88"/><text fill="#000000" font-family="sans-serif" font-size="12" font-style="italic" lengthAdjust="spacing" textLength="29" x="2016" y="94.0187">T1,T2</text><line style="stroke:#181818;stroke-width:0.5;" x1="1883" x2="2042" y1="116.88" y2="116.88"/><line style="stroke:#181818;stroke-width:0.5;" x1="1883" x2="2042" y1="124.88" y2="124.88"/></g><!--class VisualElement--><g id="elem_VisualElement"><rect fill="#F1F1F1" height="48" id="VisualElement" rx="2.5" ry="2.5" style="stroke:#181818;stroke-width:0.5;" width="122" x="1631.5" y="84.88"/><ellipse cx="1646.5" cy="100.88" fill="#ADD1B2" rx="11" ry="11" style="stroke:#181818;stroke-width:1.0;"/><path d="M1646.4375,96.7081 Q1645.6875,96.7081 1645.125,97.005 Q1644.5625,97.2863 1644.1719,97.8175 Q1643.7813,98.3488 1643.5781,99.13 Q1643.3906,99.8956 1643.3906,100.8488 Q1643.3906,101.8175 1643.5625,102.5831 Q1643.75,103.3331 1644.1094,103.8488 Q1644.4844,104.3644 1645.0625,104.6456 Q1645.6406,104.9113 1646.4375,104.9113 Q1647.1719,104.9113 1647.9063,104.7394 Q1648.6563,104.5675 1649.5313,104.2706 L1649.5313,106.4269 Q1649.125,106.5831 1648.7344,106.7081 Q1648.3438,106.8175 1647.9375,106.8956 Q1647.5313,106.9738 1647.1094,107.005 Q1646.6875,107.0519 1646.1875,107.0519 Q1644.7813,107.0519 1643.75,106.5988 Q1642.7344,106.1456 1642.0625,105.3331 Q1641.3906,104.5206 1641.0625,103.38 Q1640.7344,102.2238 1640.7344,100.8331 Q1640.7344,99.4581 1641.1094,98.3019 Q1641.4844,97.1456 1642.2031,96.3175 Q1642.9219,95.4894 1643.9844,95.0363 Q1645.0469,94.5675 1646.4375,94.5675 Q1647.3438,94.5675 1648.25,94.8019 Q1649.1563,95.0206 1649.9844,95.4269 L1649.1563,97.5206 Q1648.4688,97.1925 1647.7813,96.9581 Q1647.0938,96.7081 1646.4375,96.7081 Z " fill="#000000"/><text fill="#000000" font-family="sans-serif" font-size="14" lengthAdjust="spacing" textLength="90" x="1660.5" y="105.7267">VisualElement</text><line style="stroke:#181818;stroke-width:0.5;" x1="1632.5" x2="1752.5" y1="116.88" y2="116.88"/><line style="stroke:#181818;stroke-width:0.5;" x1="1632.5" x2="1752.5" y1="124.88" y2="124.88"/></g><!--class TextField--><g id="elem_TextField"><rect fill="#F1F1F1" height="48" id="TextField" rx="2.5" ry="2.5" style="stroke:#181818;stroke-width:0.5;" width="90" x="1647.5" y="422.88"/><ellipse cx="1662.5" cy="438.88" fill="#ADD1B2" rx="11" ry="11" style="stroke:#181818;stroke-width:1.0;"/><path d="M1662.4375,434.7081 Q1661.6875,434.7081 1661.125,435.005 Q1660.5625,435.2863 1660.1719,435.8175 Q1659.7813,436.3488 1659.5781,437.13 Q1659.3906,437.8956 1659.3906,438.8488 Q1659.3906,439.8175 1659.5625,440.5831 Q1659.75,441.3331 1660.1094,441.8488 Q1660.4844,442.3644 1661.0625,442.6456 Q1661.6406,442.9113 1662.4375,442.9113 Q1663.1719,442.9113 1663.9063,442.7394 Q1664.6563,442.5675 1665.5313,442.2706 L1665.5313,444.4269 Q1665.125,444.5831 1664.7344,444.7081 Q1664.3438,444.8175 1663.9375,444.8956 Q1663.5313,444.9738 1663.1094,445.005 Q1662.6875,445.0519 1662.1875,445.0519 Q1660.7813,445.0519 1659.75,444.5988 Q1658.7344,444.1456 1658.0625,443.3331 Q1657.3906,442.5206 1657.0625,441.38 Q1656.7344,440.2238 1656.7344,438.8331 Q1656.7344,437.4581 1657.1094,436.3019 Q1657.4844,435.1456 1658.2031,434.3175 Q1658.9219,433.4894 1659.9844,433.0363 Q1661.0469,432.5675 1662.4375,432.5675 Q1663.3438,432.5675 1664.25,432.8019 Q1665.1563,433.0206 1665.9844,433.4269 L1665.1563,435.5206 Q1664.4688,435.1925 1663.7813,434.9581 Q1663.0938,434.7081 1662.4375,434.7081 Z " fill="#000000"/><text fill="#000000" font-family="sans-serif" font-size="14" lengthAdjust="spacing" textLength="58" x="1676.5" y="443.7267">TextField</text><line style="stroke:#181818;stroke-width:0.5;" x1="1648.5" x2="1736.5" y1="454.88" y2="454.88"/><line style="stroke:#181818;stroke-width:0.5;" x1="1648.5" x2="1736.5" y1="462.88" y2="462.88"/></g><!--class UxmlStringAttributeDescription--><g id="elem_UxmlStringAttributeDescription"><rect fill="#F1F1F1" height="48" id="UxmlStringAttributeDescription" rx="2.5" ry="2.5" style="stroke:#181818;stroke-width:0.5;" width="234" x="1362.5" y="84.88"/><ellipse cx="1377.5" cy="100.88" fill="#ADD1B2" rx="11" ry="11" style="stroke:#181818;stroke-width:1.0;"/><path d="M1377.4375,96.7081 Q1376.6875,96.7081 1376.125,97.005 Q1375.5625,97.2863 1375.1719,97.8175 Q1374.7813,98.3488 1374.5781,99.13 Q1374.3906,99.8956 1374.3906,100.8488 Q1374.3906,101.8175 1374.5625,102.5831 Q1374.75,103.3331 1375.1094,103.8488 Q1375.4844,104.3644 1376.0625,104.6456 Q1376.6406,104.9113 1377.4375,104.9113 Q1378.1719,104.9113 1378.9063,104.7394 Q1379.6563,104.5675 1380.5313,104.2706 L1380.5313,106.4269 Q1380.125,106.5831 1379.7344,106.7081 Q1379.3438,106.8175 1378.9375,106.8956 Q1378.5313,106.9738 1378.1094,107.005 Q1377.6875,107.0519 1377.1875,107.0519 Q1375.7813,107.0519 1374.75,106.5988 Q1373.7344,106.1456 1373.0625,105.3331 Q1372.3906,104.5206 1372.0625,103.38 Q1371.7344,102.2238 1371.7344,100.8331 Q1371.7344,99.4581 1372.1094,98.3019 Q1372.4844,97.1456 1373.2031,96.3175 Q1373.9219,95.4894 1374.9844,95.0363 Q1376.0469,94.5675 1377.4375,94.5675 Q1378.3438,94.5675 1379.25,94.8019 Q1380.1563,95.0206 1380.9844,95.4269 L1380.1563,97.5206 Q1379.4688,97.1925 1378.7813,96.9581 Q1378.0938,96.7081 1377.4375,96.7081 Z " fill="#000000"/><text fill="#000000" font-family="sans-serif" font-size="14" lengthAdjust="spacing" textLength="202" x="1391.5" y="105.7267">UxmlStringAttributeDescription</text><line style="stroke:#181818;stroke-width:0.5;" x1="1363.5" x2="1595.5" y1="116.88" y2="116.88"/><line style="stroke:#181818;stroke-width:0.5;" x1="1363.5" x2="1595.5" y1="124.88" y2="124.88"/></g><!--class UxmlFloatAttributeDescription--><g id="elem_UxmlFloatAttributeDescription"><rect fill="#F1F1F1" height="48" id="UxmlFloatAttributeDescription" rx="2.5" ry="2.5" style="stroke:#181818;stroke-width:0.5;" width="228" x="1099.5" y="84.88"/><ellipse cx="1114.5" cy="100.88" fill="#ADD1B2" rx="11" ry="11" style="stroke:#181818;stroke-width:1.0;"/><path d="M1114.4375,96.7081 Q1113.6875,96.7081 1113.125,97.005 Q1112.5625,97.2863 1112.1719,97.8175 Q1111.7813,98.3488 1111.5781,99.13 Q1111.3906,99.8956 1111.3906,100.8488 Q1111.3906,101.8175 1111.5625,102.5831 Q1111.75,103.3331 1112.1094,103.8488 Q1112.4844,104.3644 1113.0625,104.6456 Q1113.6406,104.9113 1114.4375,104.9113 Q1115.1719,104.9113 1115.9063,104.7394 Q1116.6563,104.5675 1117.5313,104.2706 L1117.5313,106.4269 Q1117.125,106.5831 1116.7344,106.7081 Q1116.3438,106.8175 1115.9375,106.8956 Q1115.5313,106.9738 1115.1094,107.005 Q1114.6875,107.0519 1114.1875,107.0519 Q1112.7813,107.0519 1111.75,106.5988 Q1110.7344,106.1456 1110.0625,105.3331 Q1109.3906,104.5206 1109.0625,103.38 Q1108.7344,102.2238 1108.7344,100.8331 Q1108.7344,99.4581 1109.1094,98.3019 Q1109.4844,97.1456 1110.2031,96.3175 Q1110.9219,95.4894 1111.9844,95.0363 Q1113.0469,94.5675 1114.4375,94.5675 Q1115.3438,94.5675 1116.25,94.8019 Q1117.1563,95.0206 1117.9844,95.4269 L1117.1563,97.5206 Q1116.4688,97.1925 1115.7813,96.9581 Q1115.0938,96.7081 1114.4375,96.7081 Z " fill="#000000"/><text fill="#000000" font-family="sans-serif" font-size="14" lengthAdjust="spacing" textLength="196" x="1128.5" y="105.7267">UxmlFloatAttributeDescription</text><line style="stroke:#181818;stroke-width:0.5;" x1="1100.5" x2="1326.5" y1="116.88" y2="116.88"/><line style="stroke:#181818;stroke-width:0.5;" x1="1100.5" x2="1326.5" y1="124.88" y2="124.88"/></g><!--class UxmlColorAttributeDescription--><g id="elem_UxmlColorAttributeDescription"><rect fill="#F1F1F1" height="48" id="UxmlColorAttributeDescription" rx="2.5" ry="2.5" style="stroke:#181818;stroke-width:0.5;" width="231" x="833" y="84.88"/><ellipse cx="848" cy="100.88" fill="#ADD1B2" rx="11" ry="11" style="stroke:#181818;stroke-width:1.0;"/><path d="M847.9375,96.7081 Q847.1875,96.7081 846.625,97.005 Q846.0625,97.2863 845.6719,97.8175 Q845.2813,98.3488 845.0781,99.13 Q844.8906,99.8956 844.8906,100.8488 Q844.8906,101.8175 845.0625,102.5831 Q845.25,103.3331 845.6094,103.8488 Q845.9844,104.3644 846.5625,104.6456 Q847.1406,104.9113 847.9375,104.9113 Q848.6719,104.9113 849.4063,104.7394 Q850.1563,104.5675 851.0313,104.2706 L851.0313,106.4269 Q850.625,106.5831 850.2344,106.7081 Q849.8438,106.8175 849.4375,106.8956 Q849.0313,106.9738 848.6094,107.005 Q848.1875,107.0519 847.6875,107.0519 Q846.2813,107.0519 845.25,106.5988 Q844.2344,106.1456 843.5625,105.3331 Q842.8906,104.5206 842.5625,103.38 Q842.2344,102.2238 842.2344,100.8331 Q842.2344,99.4581 842.6094,98.3019 Q842.9844,97.1456 843.7031,96.3175 Q844.4219,95.4894 845.4844,95.0363 Q846.5469,94.5675 847.9375,94.5675 Q848.8438,94.5675 849.75,94.8019 Q850.6563,95.0206 851.4844,95.4269 L850.6563,97.5206 Q849.9688,97.1925 849.2813,96.9581 Q848.5938,96.7081 847.9375,96.7081 Z " fill="#000000"/><text fill="#000000" font-family="sans-serif" font-size="14" lengthAdjust="spacing" textLength="199" x="862" y="105.7267">UxmlColorAttributeDescription</text><line style="stroke:#181818;stroke-width:0.5;" x1="834" x2="1063" y1="116.88" y2="116.88"/><line style="stroke:#181818;stroke-width:0.5;" x1="834" x2="1063" y1="124.88" y2="124.88"/></g><!--class UxmlIntAttributeDescription--><g id="elem_UxmlIntAttributeDescription"><rect fill="#F1F1F1" height="48" id="UxmlIntAttributeDescription" rx="2.5" ry="2.5" style="stroke:#181818;stroke-width:0.5;" width="215" x="583" y="84.88"/><ellipse cx="598" cy="100.88" fill="#ADD1B2" rx="11" ry="11" style="stroke:#181818;stroke-width:1.0;"/><path d="M597.9375,96.7081 Q597.1875,96.7081 596.625,97.005 Q596.0625,97.2863 595.6719,97.8175 Q595.2813,98.3488 595.0781,99.13 Q594.8906,99.8956 594.8906,100.8488 Q594.8906,101.8175 595.0625,102.5831 Q595.25,103.3331 595.6094,103.8488 Q595.9844,104.3644 596.5625,104.6456 Q597.1406,104.9113 597.9375,104.9113 Q598.6719,104.9113 599.4063,104.7394 Q600.1563,104.5675 601.0313,104.2706 L601.0313,106.4269 Q600.625,106.5831 600.2344,106.7081 Q599.8438,106.8175 599.4375,106.8956 Q599.0313,106.9738 598.6094,107.005 Q598.1875,107.0519 597.6875,107.0519 Q596.2813,107.0519 595.25,106.5988 Q594.2344,106.1456 593.5625,105.3331 Q592.8906,104.5206 592.5625,103.38 Q592.2344,102.2238 592.2344,100.8331 Q592.2344,99.4581 592.6094,98.3019 Q592.9844,97.1456 593.7031,96.3175 Q594.4219,95.4894 595.4844,95.0363 Q596.5469,94.5675 597.9375,94.5675 Q598.8438,94.5675 599.75,94.8019 Q600.6563,95.0206 601.4844,95.4269 L600.6563,97.5206 Q599.9688,97.1925 599.2813,96.9581 Q598.5938,96.7081 597.9375,96.7081 Z " fill="#000000"/><text fill="#000000" font-family="sans-serif" font-size="14" lengthAdjust="spacing" textLength="183" x="612" y="105.7267">UxmlIntAttributeDescription</text><line style="stroke:#181818;stroke-width:0.5;" x1="584" x2="797" y1="116.88" y2="116.88"/><line style="stroke:#181818;stroke-width:0.5;" x1="584" x2="797" y1="124.88" y2="124.88"/></g><!--reverse link VisualElement to CustomInputField--><g id="link_VisualElement_CustomInputField"><path codeLine="17" d="M1692.5,152.98 C1692.5,167.5 1692.5,184.21 1692.5,200.65 " fill="none" id="VisualElement-backto-CustomInputField" style="stroke:#181818;stroke-width:1.0;"/><polygon fill="none" points="1685.5,152.94,1692.5,132.94,1699.5,152.94,1685.5,152.94" style="stroke:#181818;stroke-width:1.0;"/></g><!--link CustomInputField to TextField--><g id="link_CustomInputField_TextField"><path codeLine="18" d="M1692.5,362.95 C1692.5,382.62 1692.5,402.41 1692.5,417.72 " fill="none" id="CustomInputField-to-TextField" style="stroke:#181818;stroke-width:1.0;"/><polygon fill="#181818" points="1692.5,422.73,1696.5,413.73,1692.5,417.73,1688.5,413.73,1692.5,422.73" style="stroke:#181818;stroke-width:1.0;"/><text fill="#000000" font-family="sans-serif" font-size="13" lengthAdjust="spacing" textLength="52" x="1633.8375" y="411.7036">TextField</text></g><!--reverse link UxmlFactory`2 to UxmlFactory--><g id="link_UxmlFactory`2_UxmlFactory"><path codeLine="19" d="M1962.5,153.29 C1962.5,186.47 1962.5,230.91 1962.5,257.64 " fill="none" id="UxmlFactory`2-backto-UxmlFactory" style="stroke:#181818;stroke-width:1.0;"/><polygon fill="none" points="1955.5,152.94,1962.5,132.94,1969.5,152.94,1955.5,152.94" style="stroke:#181818;stroke-width:1.0;"/><text fill="#000000" font-family="sans-serif" font-size="13" lengthAdjust="spacing" textLength="185" x="1753.7969" y="153.1112">&lt;CustomInputField,UxmlTraits&gt;</text></g><!--link UxmlTraits to UxmlStringAttributeDescription--><g id="link_UxmlTraits_UxmlStringAttributeDescription"><path codeLine="20" d="M418.84,74.06 C470.19,63.04 528.89,52.32 583,46.88 C747.51,30.36 1164.74,15.16 1327,46.88 C1359.5,53.23 1393.81,66.53 1421.65,79.19 " fill="none" id="UxmlTraits-UxmlStringAttributeDescription" style="stroke:#181818;stroke-width:1.0;"/><polygon fill="none" points="405.95,76.86,412.662,79.496,417.6768,74.3141,410.9648,71.6781,405.95,76.86" style="stroke:#181818;stroke-width:1.0;"/><polygon fill="#181818" points="1433.55,84.75,1427.0819,77.3227,1429.018,82.638,1423.7027,84.574,1433.55,84.75" style="stroke:#181818;stroke-width:1.0;"/><line style="stroke:#181818;stroke-width:1.0;" x1="1429.018" x2="1421.77" y1="82.638" y2="79.25"/><text fill="#000000" font-family="sans-serif" font-size="13" lengthAdjust="spacing" textLength="71" x="1341.6784" y="73.7287">_description</text></g><!--link UxmlTraits to UxmlFloatAttributeDescription--><g id="link_UxmlTraits_UxmlFloatAttributeDescription"><path codeLine="21" d="M476.67,75.08 C508.63,70.84 541.41,67.19 572.5,64.88 C683.75,56.63 964.25,47.85 1074.5,64.88 C1095.84,68.18 1118.39,74.16 1138.97,80.68 " fill="none" id="UxmlTraits-UxmlFloatAttributeDescription" style="stroke:#181818;stroke-width:1.0;"/><polygon fill="none" points="463.51,76.87,469.9954,80.0226,475.4,75.2486,468.9145,72.096,463.51,76.87" style="stroke:#181818;stroke-width:1.0;"/><polygon fill="#181818" points="1151.51,84.78,1144.2,78.1798,1146.7579,83.2253,1141.7124,85.7832,1151.51,84.78" style="stroke:#181818;stroke-width:1.0;"/><line style="stroke:#181818;stroke-width:1.0;" x1="1146.7579" x2="1139.155" y1="83.2253" y2="80.735"/><text fill="#000000" font-family="sans-serif" font-size="13" lengthAdjust="spacing" textLength="46" x="1083.7313" y="73.7664">_border</text></g><!--link UxmlTraits to UxmlFloatAttributeDescription--><g id="link_UxmlTraits_UxmlFloatAttributeDescription"><path codeLine="22" d="M433.43,74.33 C480.16,65.51 531.69,57.28 579.5,52.88 C687.49,42.95 960.87,33.13 1067.5,52.88 C1096.18,58.19 1126.49,68.9 1152.02,79.55 " fill="none" id="UxmlTraits-UxmlFloatAttributeDescription-1" style="stroke:#181818;stroke-width:1.0;"/><polygon fill="none" points="420.38,76.83,427.0277,79.6244,432.1639,74.5629,425.5162,71.7685,420.38,76.83" style="stroke:#181818;stroke-width:1.0;"/><polygon fill="#181818" points="1164.15,84.75,1157.4513,77.5301,1159.5537,82.7817,1154.3021,84.8842,1164.15,84.75" style="stroke:#181818;stroke-width:1.0;"/><line style="stroke:#181818;stroke-width:1.0;" x1="1159.5537" x2="1152.2" y1="82.7817" y2="79.63"/><text fill="#000000" font-family="sans-serif" font-size="13" lengthAdjust="spacing" textLength="50" x="1157.9103" y="73.7287">_radious</text></g><!--link UxmlTraits to UxmlFloatAttributeDescription--><g id="link_UxmlTraits_UxmlFloatAttributeDescription"><path codeLine="23" d="M407.6,73.69 C462.39,60.59 527.1,47.34 586.5,40.88 C638.86,35.19 1008.98,29.95 1060.5,40.88 C1095.33,48.27 1131.86,64.16 1160.49,78.72 " fill="none" id="UxmlTraits-UxmlFloatAttributeDescription-2" style="stroke:#181818;stroke-width:1.0;"/><polygon fill="none" points="394.63,76.83,401.4027,79.306,406.2931,74.0066,399.5204,71.5306,394.63,76.83" style="stroke:#181818;stroke-width:1.0;"/><polygon fill="#181818" points="1172.25,84.85,1166.1171,77.1437,1167.8159,82.5394,1162.4202,84.2382,1172.25,84.85" style="stroke:#181818;stroke-width:1.0;"/><line style="stroke:#181818;stroke-width:1.0;" x1="1167.8159" x2="1160.72" y1="82.5394" y2="78.84"/><text fill="#000000" font-family="sans-serif" font-size="13" lengthAdjust="spacing" textLength="47" x="1108.6578" y="73.8543">_margin</text></g><!--link UxmlTraits to UxmlFloatAttributeDescription--><g id="link_UxmlTraits_UxmlFloatAttributeDescription"><path codeLine="24" d="M389.85,73.21 C449.64,56.08 524.82,37.44 593.5,28.88 C644.22,22.56 1003.76,17.14 1053.5,28.88 C1093.84,38.4 1135.6,59.74 1166.34,77.98 " fill="none" id="UxmlTraits-UxmlFloatAttributeDescription-3" style="stroke:#181818;stroke-width:1.0;"/><polygon fill="none" points="377.33,76.84,384.2056,79.0139,388.8568,73.5033,381.9812,71.3294,377.33,76.84" style="stroke:#181818;stroke-width:1.0;"/><polygon fill="#181818" points="1177.55,84.79,1171.9301,76.7019,1173.2752,82.1965,1167.7806,83.5416,1177.55,84.79" style="stroke:#181818;stroke-width:1.0;"/><line style="stroke:#181818;stroke-width:1.0;" x1="1173.2752" x2="1166.44" y1="82.1965" y2="78.04"/><text fill="#000000" font-family="sans-serif" font-size="13" lengthAdjust="spacing" textLength="54" x="1175.2566" y="73.779">_padding</text></g><!--link UxmlTraits to UxmlColorAttributeDescription--><g id="link_UxmlTraits_UxmlColorAttributeDescription"><path codeLine="25" d="M418.87,74.28 C525.28,53.22 674.42,34.33 803.83,56.88 C830.48,61.52 858.7,70.64 883.07,79.96 " fill="none" id="UxmlTraits-UxmlColorAttributeDescription" style="stroke:#181818;stroke-width:1.0;"/><polygon fill="none" points="406.11,76.86,412.7827,79.5941,417.8729,74.4863,411.2002,71.7522,406.11,76.86" style="stroke:#181818;stroke-width:1.0;"/><polygon fill="#181818" points="895.43,84.83,888.5176,77.8144,890.7767,83.0005,885.5905,85.2596,895.43,84.83" style="stroke:#181818;stroke-width:1.0;"/><line style="stroke:#181818;stroke-width:1.0;" x1="890.7767" x2="883.335" y1="83.0005" y2="80.065"/><text fill="#000000" font-family="sans-serif" font-size="13" lengthAdjust="spacing" textLength="106" x="762.4445" y="73.7674">_colorBackground</text></g><!--link UxmlTraits to UxmlColorAttributeDescription--><g id="link_UxmlTraits_UxmlColorAttributeDescription"><path codeLine="26" d="M381.18,72.96 C485.71,41.75 651.31,6 792.17,36.88 C828.98,44.95 867.47,62.54 897.04,78.32 " fill="none" id="UxmlTraits-UxmlColorAttributeDescription-1" style="stroke:#181818;stroke-width:1.0;"/><polygon fill="none" points="368.43,76.84,375.3345,78.9204,379.9104,73.3471,373.0059,71.2668,368.43,76.84" style="stroke:#181818;stroke-width:1.0;"/><polygon fill="#181818" points="908.73,84.71,902.7457,76.8877,904.3409,82.315,898.9137,83.9102,908.73,84.71" style="stroke:#181818;stroke-width:1.0;"/><line style="stroke:#181818;stroke-width:1.0;" x1="904.3409" x2="897.32" y1="82.315" y2="78.475"/><text fill="#000000" font-family="sans-serif" font-size="13" lengthAdjust="spacing" textLength="76" x="908.2764" y="73.6785">_colorBorder</text></g><!--link UxmlTraits to UxmlIntAttributeDescription--><g id="link_UxmlTraits_UxmlIntAttributeDescription"><path codeLine="27" d="M561.16,108.88 C563.99,108.88 566.82,108.88 569.65,108.88 " fill="none" id="UxmlTraits-UxmlIntAttributeDescription" style="stroke:#181818;stroke-width:1.0;"/><polygon fill="none" points="548.13,108.88,554.13,112.88,560.13,108.88,554.13,104.88,548.13,108.88" style="stroke:#181818;stroke-width:1.0;"/><polygon fill="#181818" points="582.89,108.88,573.89,104.88,577.89,108.88,573.89,112.88,582.89,108.88" style="stroke:#181818;stroke-width:1.0;"/><line style="stroke:#181818;stroke-width:1.0;" x1="577.89" x2="569.89" y1="108.88" y2="108.88"/><text fill="#000000" font-family="sans-serif" font-size="13" lengthAdjust="spacing" textLength="52" x="522.4756" y="102.7883">_fontSize</text></g><!--SRC=[bPBBRi8m44Nt-Gehgw26HLb6KQG2HSgYQYKeszROG-hMsCYU1FhwzpeFGWfKQhAnPpp7TtmpJ59hoIItg3UfskOu4o0v-VI8-wxE3e91Sp0776l3mRWD2fNPO2SulaHhgIc6n50kT6xhS40YKcZ1Z-WTDPbGBRgfmh-A7oZdhgojtjRnnV9xbQfNOBYaKd2AsWJ5OHTDGK964Tgp4xR9Gx2MD8jMMikGADYv2tA8X3gLMi0UNSQYSSsGECu0ayIjjbozRuzLpZxkDt96cLDxTwPsimj31ThMwJZM1HWZEBXRKYKmA21Q2fjJUIjX0ygvkd9zfILxWqvrbIFOa30MJGnG55fDj4BNLTleGSxlTF4yykF5TRWO9LK_lnH8_3KSdlrpxsmwXiE4-ENxgz0dxTOxKI9-V0g7nxSdVYtOORoECxfKUU9WcH7Rydb-LJcl36yTc1xFp-5LDQ8rDol7vNzOCxszkNgEUsFDGFVcc9RQZ2bxoupE5Q_vIPdimtSiwi6ktQZDnGVKOAekjlm3]--></g></svg>