<?xml version="1.0" encoding="us-ascii" standalone="no"?><svg xmlns="http://www.w3.org/2000/svg" xmlns:xlink="http://www.w3.org/1999/xlink" contentStyleType="text/css" height="359px" preserveAspectRatio="none" style="width:1122px;height:359px;background:#FFFFFF;" version="1.1" viewBox="0 0 1122 359" width="1122px" zoomAndPan="magnify"><defs/><g><!--class SubmitButton--><g id="elem_SubmitButton"><rect codeLine="1" fill="#F1F1F1" height="96.8906" id="SubmitButton" rx="2.5" ry="2.5" style="stroke:#181818;stroke-width:0.5;" width="1108" x="7" y="115"/><ellipse cx="512.75" cy="131" fill="#ADD1B2" rx="11" ry="11" style="stroke:#181818;stroke-width:1.0;"/><path d="M512.6875,126.8281 Q511.9375,126.8281 511.375,127.125 Q510.8125,127.4063 510.4219,127.9375 Q510.0313,128.4688 509.8281,129.25 Q509.6406,130.0156 509.6406,130.9688 Q509.6406,131.9375 509.8125,132.7031 Q510,133.4531 510.3594,133.9688 Q510.7344,134.4844 511.3125,134.7656 Q511.8906,135.0313 512.6875,135.0313 Q513.4219,135.0313 514.1563,134.8594 Q514.9063,134.6875 515.7813,134.3906 L515.7813,136.5469 Q515.375,136.7031 514.9844,136.8281 Q514.5938,136.9375 514.1875,137.0156 Q513.7813,137.0938 513.3594,137.125 Q512.9375,137.1719 512.4375,137.1719 Q511.0313,137.1719 510,136.7188 Q508.9844,136.2656 508.3125,135.4531 Q507.6406,134.6406 507.3125,133.5 Q506.9844,132.3438 506.9844,130.9531 Q506.9844,129.5781 507.3594,128.4219 Q507.7344,127.2656 508.4531,126.4375 Q509.1719,125.6094 510.2344,125.1563 Q511.2969,124.6875 512.6875,124.6875 Q513.5938,124.6875 514.5,124.9219 Q515.4063,125.1406 516.2344,125.5469 L515.4063,127.6406 Q514.7188,127.3125 514.0313,127.0781 Q513.3438,126.8281 512.6875,126.8281 Z " fill="#000000"/><text fill="#000000" font-family="sans-serif" font-size="14" lengthAdjust="spacing" textLength="88" x="533.25" y="135.8467">SubmitButton</text><line style="stroke:#181818;stroke-width:0.5;" x1="8" x2="1114" y1="147" y2="147"/><line style="stroke:#181818;stroke-width:0.5;" x1="8" x2="1114" y1="155" y2="155"/><ellipse cx="18" cy="168.6484" fill="#84BE84" rx="3" ry="3" style="stroke:#038048;stroke-width:1.0;"/><text fill="#000000" font-family="sans-serif" font-size="14" lengthAdjust="spacing" textLength="1082" x="27" y="171.9951">SubmitButton(countR:CustomInputField, maxR:CustomInputField, minR:CustomInputField, lvlH:CustomInputField, countH:CustomInputField, _trap:Toggle, _human:Toggle)</text><ellipse cx="18" cy="184.9453" fill="#84BE84" rx="3" ry="3" style="stroke:#038048;stroke-width:1.0;"/><text fill="#000000" font-family="sans-serif" font-size="14" lengthAdjust="spacing" textLength="863" x="27" y="188.292">SubmitButton(size:DropdownField, count:DropdownField, lvl:CustomInputField, countH:CustomInputField, _trap:Toggle, _human:Toggle)</text><ellipse cx="18" cy="201.2422" fill="#84BE84" rx="3" ry="3" style="stroke:#038048;stroke-width:1.0;"/><text fill="#000000" font-family="sans-serif" font-size="14" lengthAdjust="spacing" textLength="167" x="27" y="204.5889">&#171;override&#187; OnClick() : void</text></g><!--class SubmitButtonState--><g id="elem_SubmitButtonState"><rect codeLine="6" fill="#F1F1F1" height="80.5938" id="SubmitButtonState" rx="2.5" ry="2.5" style="stroke:#181818;stroke-width:0.5;" width="152" x="485" y="272"/><ellipse cx="500" cy="288" fill="#EB937F" rx="11" ry="11" style="stroke:#181818;stroke-width:1.0;"/><path d="M503.0156,294 L496.0313,294 L496.0313,281.8594 L503.0156,281.8594 L503.0156,283.9688 L498.5938,283.9688 L498.5938,286.6406 L502.7031,286.6406 L502.7031,288.75 L498.5938,288.75 L498.5938,291.875 L503.0156,291.875 L503.0156,294 Z " fill="#000000"/><text fill="#000000" font-family="sans-serif" font-size="14" lengthAdjust="spacing" textLength="120" x="514" y="292.8467">SubmitButtonState</text><line style="stroke:#181818;stroke-width:0.5;" x1="486" x2="636" y1="304" y2="304"/><text fill="#000000" font-family="sans-serif" font-size="14" lengthAdjust="spacing" textLength="41" x="491" y="320.9951">HARD,</text><text fill="#000000" font-family="sans-serif" font-size="14" lengthAdjust="spacing" textLength="34" x="491" y="337.292">EASY,</text><line style="stroke:#181818;stroke-width:0.5;" x1="486" x2="636" y1="344.5938" y2="344.5938"/></g><!--class AbstractButton--><g id="elem_AbstractButton"><rect fill="#F1F1F1" height="48" id="AbstractButton" rx="2.5" ry="2.5" style="stroke:#181818;stroke-width:0.5;" width="127" x="497.5" y="7"/><ellipse cx="512.5" cy="23" fill="#ADD1B2" rx="11" ry="11" style="stroke:#181818;stroke-width:1.0;"/><path d="M512.4375,18.8281 Q511.6875,18.8281 511.125,19.125 Q510.5625,19.4063 510.1719,19.9375 Q509.7813,20.4688 509.5781,21.25 Q509.3906,22.0156 509.3906,22.9688 Q509.3906,23.9375 509.5625,24.7031 Q509.75,25.4531 510.1094,25.9688 Q510.4844,26.4844 511.0625,26.7656 Q511.6406,27.0313 512.4375,27.0313 Q513.1719,27.0313 513.9063,26.8594 Q514.6563,26.6875 515.5313,26.3906 L515.5313,28.5469 Q515.125,28.7031 514.7344,28.8281 Q514.3438,28.9375 513.9375,29.0156 Q513.5313,29.0938 513.1094,29.125 Q512.6875,29.1719 512.1875,29.1719 Q510.7813,29.1719 509.75,28.7188 Q508.7344,28.2656 508.0625,27.4531 Q507.3906,26.6406 507.0625,25.5 Q506.7344,24.3438 506.7344,22.9531 Q506.7344,21.5781 507.1094,20.4219 Q507.4844,19.2656 508.2031,18.4375 Q508.9219,17.6094 509.9844,17.1563 Q511.0469,16.6875 512.4375,16.6875 Q513.3438,16.6875 514.25,16.9219 Q515.1563,17.1406 515.9844,17.5469 L515.1563,19.6406 Q514.4688,19.3125 513.7813,19.0781 Q513.0938,18.8281 512.4375,18.8281 Z " fill="#000000"/><text fill="#000000" font-family="sans-serif" font-size="14" lengthAdjust="spacing" textLength="95" x="526.5" y="27.8467">AbstractButton</text><line style="stroke:#181818;stroke-width:0.5;" x1="498.5" x2="623.5" y1="39" y2="39"/><line style="stroke:#181818;stroke-width:0.5;" x1="498.5" x2="623.5" y1="47" y2="47"/></g><!--reverse link AbstractButton to SubmitButton--><g id="link_AbstractButton_SubmitButton"><path codeLine="10" d="M561,75.37 C561,88.03 561,101.93 561,114.84 " fill="none" id="AbstractButton-backto-SubmitButton" style="stroke:#181818;stroke-width:1.0;"/><polygon fill="none" points="554,75.03,561,55.03,568,75.03,554,75.03" style="stroke:#181818;stroke-width:1.0;"/></g><!--reverse link SubmitButton to SubmitButtonState--><g id="link_SubmitButton_SubmitButtonState"><path codeLine="11" d="M561,227.57 C561,242.61 561,258.24 561,271.88 " fill="none" id="SubmitButton-backto-SubmitButtonState" style="stroke:#181818;stroke-width:1.0;"/><ellipse cx="561" cy="220.23" fill="#FFFFFF" rx="8" ry="8" style="stroke:#181818;stroke-width:1.0;"/><line style="stroke:#181818;stroke-width:1.0;" x1="561" x2="561" y1="228.23" y2="212.23"/><line style="stroke:#181818;stroke-width:1.0;" x1="553" x2="569" y1="220.23" y2="220.23"/></g><!--SRC=[hP7B2eCm44NtVaMMYle38eBL5higQ3TTbQZ1XkOXPc9B7__U81QgPDbPPSxDt5mo3SDAeKhNdC960qY1dWuovI-WsqWje8mohK3olUWrx2XXRO0ulbin5JRCHbPOyEHk4yumu3uwogvZn7GNpR6OMyyMKz47YV91zgsyYL_pDJH1_fmZZkL8Xe6s94dGGMICDbVNGn4Q9MsTjqE4vekm5M0WysyNQPa7qscRLgV0N4zhPTvilak9Ns6uc7OME_DNwkJz0G00]--></g></svg>