<?xml version="1.0" encoding="us-ascii" standalone="no"?><svg xmlns="http://www.w3.org/2000/svg" xmlns:xlink="http://www.w3.org/1999/xlink" contentStyleType="text/css" height="219px" preserveAspectRatio="none" style="width:300px;height:219px;background:#FFFFFF;" version="1.1" viewBox="0 0 300 219" width="300px" zoomAndPan="magnify"><defs/><g><!--class Tab--><g id="elem_Tab"><rect codeLine="1" fill="#F1F1F1" height="96.8906" id="Tab" rx="2.5" ry="2.5" style="stroke:#181818;stroke-width:0.5;" width="286" x="7" y="7"/><ellipse cx="134.75" cy="23" fill="#ADD1B2" rx="11" ry="11" style="stroke:#181818;stroke-width:1.0;"/><path d="M134.6875,18.8281 Q133.9375,18.8281 133.375,19.125 Q132.8125,19.4063 132.4219,19.9375 Q132.0313,20.4688 131.8281,21.25 Q131.6406,22.0156 131.6406,22.9688 Q131.6406,23.9375 131.8125,24.7031 Q132,25.4531 132.3594,25.9688 Q132.7344,26.4844 133.3125,26.7656 Q133.8906,27.0313 134.6875,27.0313 Q135.4219,27.0313 136.1563,26.8594 Q136.9063,26.6875 137.7813,26.3906 L137.7813,28.5469 Q137.375,28.7031 136.9844,28.8281 Q136.5938,28.9375 136.1875,29.0156 Q135.7813,29.0938 135.3594,29.125 Q134.9375,29.1719 134.4375,29.1719 Q133.0313,29.1719 132,28.7188 Q130.9844,28.2656 130.3125,27.4531 Q129.6406,26.6406 129.3125,25.5 Q128.9844,24.3438 128.9844,22.9531 Q128.9844,21.5781 129.3594,20.4219 Q129.7344,19.2656 130.4531,18.4375 Q131.1719,17.6094 132.2344,17.1563 Q133.2969,16.6875 134.6875,16.6875 Q135.5938,16.6875 136.5,16.9219 Q137.4063,17.1406 138.2344,17.5469 L137.4063,19.6406 Q136.7188,19.3125 136.0313,19.0781 Q135.3438,18.8281 134.6875,18.8281 Z " fill="#000000"/><text fill="#000000" font-family="sans-serif" font-size="14" lengthAdjust="spacing" textLength="22" x="155.25" y="27.8467">Tab</text><line style="stroke:#181818;stroke-width:0.5;" x1="8" x2="292" y1="39" y2="39"/><line style="stroke:#181818;stroke-width:0.5;" x1="8" x2="292" y1="47" y2="47"/><ellipse cx="18" cy="60.6484" fill="#84BE84" rx="3" ry="3" style="stroke:#038048;stroke-width:1.0;"/><text fill="#000000" font-family="sans-serif" font-size="14" lengthAdjust="spacing" textLength="260" x="27" y="63.9951">Tab(scrollView:ScrollView, button:Button)</text><ellipse cx="18" cy="76.9453" fill="#84BE84" rx="3" ry="3" style="stroke:#038048;stroke-width:1.0;"/><text fill="#000000" font-family="sans-serif" font-size="14" lengthAdjust="spacing" textLength="162" x="27" y="80.292">InactiveScrollView() : void</text><ellipse cx="18" cy="93.2422" fill="#84BE84" rx="3" ry="3" style="stroke:#038048;stroke-width:1.0;"/><text fill="#000000" font-family="sans-serif" font-size="14" lengthAdjust="spacing" textLength="151" x="27" y="96.5889">ActiveScrollView() : void</text></g><!--class Button--><g id="elem_Button"><rect fill="#F1F1F1" height="48" id="Button" rx="2.5" ry="2.5" style="stroke:#181818;stroke-width:0.5;" width="75" x="112.5" y="164"/><ellipse cx="127.5" cy="180" fill="#ADD1B2" rx="11" ry="11" style="stroke:#181818;stroke-width:1.0;"/><path d="M127.4375,175.8281 Q126.6875,175.8281 126.125,176.125 Q125.5625,176.4063 125.1719,176.9375 Q124.7813,177.4688 124.5781,178.25 Q124.3906,179.0156 124.3906,179.9688 Q124.3906,180.9375 124.5625,181.7031 Q124.75,182.4531 125.1094,182.9688 Q125.4844,183.4844 126.0625,183.7656 Q126.6406,184.0313 127.4375,184.0313 Q128.1719,184.0313 128.9063,183.8594 Q129.6563,183.6875 130.5313,183.3906 L130.5313,185.5469 Q130.125,185.7031 129.7344,185.8281 Q129.3438,185.9375 128.9375,186.0156 Q128.5313,186.0938 128.1094,186.125 Q127.6875,186.1719 127.1875,186.1719 Q125.7813,186.1719 124.75,185.7188 Q123.7344,185.2656 123.0625,184.4531 Q122.3906,183.6406 122.0625,182.5 Q121.7344,181.3438 121.7344,179.9531 Q121.7344,178.5781 122.1094,177.4219 Q122.4844,176.2656 123.2031,175.4375 Q123.9219,174.6094 124.9844,174.1563 Q126.0469,173.6875 127.4375,173.6875 Q128.3438,173.6875 129.25,173.9219 Q130.1563,174.1406 130.9844,174.5469 L130.1563,176.6406 Q129.4688,176.3125 128.7813,176.0781 Q128.0938,175.8281 127.4375,175.8281 Z " fill="#000000"/><text fill="#000000" font-family="sans-serif" font-size="14" lengthAdjust="spacing" textLength="43" x="141.5" y="184.8467">Button</text><line style="stroke:#181818;stroke-width:0.5;" x1="113.5" x2="186.5" y1="196" y2="196"/><line style="stroke:#181818;stroke-width:0.5;" x1="113.5" x2="186.5" y1="204" y2="204"/></g><!--link Tab to Button--><g id="link_Tab_Button"><path codeLine="6" d="M150,104.35 C150,122.52 150,142.63 150,158.47 " fill="none" id="Tab-to-Button" style="stroke:#181818;stroke-width:1.0;"/><polygon fill="#181818" points="150,163.66,154,154.66,150,158.66,146,154.66,150,163.66" style="stroke:#181818;stroke-width:1.0;"/><text fill="#000000" font-family="sans-serif" font-size="13" lengthAdjust="spacing" textLength="40" x="105.125" y="152.9821">Button</text></g><!--SRC=[Iyv9B2vM24bCKgZcKW02RH1RepYvA3yd9ompjTmg6CxKKKWgBId9pxDo0bEQKFMUUOd99PbbgGY56feALWfb-PafK1MEEELhkK0sw-hQAIX135LIWD00]--></g></svg>