<?xml version="1.0" encoding="us-ascii" standalone="no"?><svg xmlns="http://www.w3.org/2000/svg" xmlns:xlink="http://www.w3.org/1999/xlink" contentStyleType="text/css" height="186px" preserveAspectRatio="none" style="width:200px;height:186px;background:#FFFFFF;" version="1.1" viewBox="0 0 200 186" width="200px" zoomAndPan="magnify"><defs/><g><!--class TabButtonUIToolkit--><g id="elem_TabButtonUIToolkit"><rect codeLine="1" fill="#F1F1F1" height="64.2969" id="TabButtonUIToolkit" rx="2.5" ry="2.5" style="stroke:#181818;stroke-width:0.5;" width="186" x="7" y="115"/><ellipse cx="35.95" cy="131" fill="#ADD1B2" rx="11" ry="11" style="stroke:#181818;stroke-width:1.0;"/><path d="M35.8875,126.8281 Q35.1375,126.8281 34.575,127.125 Q34.0125,127.4063 33.6219,127.9375 Q33.2313,128.4688 33.0281,129.25 Q32.8406,130.0156 32.8406,130.9688 Q32.8406,131.9375 33.0125,132.7031 Q33.2,133.4531 33.5594,133.9688 Q33.9344,134.4844 34.5125,134.7656 Q35.0906,135.0313 35.8875,135.0313 Q36.6219,135.0313 37.3563,134.8594 Q38.1063,134.6875 38.9813,134.3906 L38.9813,136.5469 Q38.575,136.7031 38.1844,136.8281 Q37.7938,136.9375 37.3875,137.0156 Q36.9813,137.0938 36.5594,137.125 Q36.1375,137.1719 35.6375,137.1719 Q34.2313,137.1719 33.2,136.7188 Q32.1844,136.2656 31.5125,135.4531 Q30.8406,134.6406 30.5125,133.5 Q30.1844,132.3438 30.1844,130.9531 Q30.1844,129.5781 30.5594,128.4219 Q30.9344,127.2656 31.6531,126.4375 Q32.3719,125.6094 33.4344,125.1563 Q34.4969,124.6875 35.8875,124.6875 Q36.7938,124.6875 37.7,124.9219 Q38.6063,125.1406 39.4344,125.5469 L38.6063,127.6406 Q37.9188,127.3125 37.2313,127.0781 Q36.5438,126.8281 35.8875,126.8281 Z " fill="#000000"/><text fill="#000000" font-family="sans-serif" font-size="14" lengthAdjust="spacing" textLength="123" x="53.05" y="135.8467">TabButtonUIToolkit</text><line style="stroke:#181818;stroke-width:0.5;" x1="8" x2="192" y1="147" y2="147"/><line style="stroke:#181818;stroke-width:0.5;" x1="8" x2="192" y1="155" y2="155"/><ellipse cx="18" cy="168.6484" fill="#84BE84" rx="3" ry="3" style="stroke:#038048;stroke-width:1.0;"/><text fill="#000000" font-family="sans-serif" font-size="14" lengthAdjust="spacing" textLength="160" x="27" y="171.9951">&#171;override&#187; Action() : void</text></g><!--class AbstractButton--><g id="elem_AbstractButton"><rect fill="#F1F1F1" height="48" id="AbstractButton" rx="2.5" ry="2.5" style="stroke:#181818;stroke-width:0.5;" width="127" x="36.5" y="7"/><ellipse cx="51.5" cy="23" fill="#ADD1B2" rx="11" ry="11" style="stroke:#181818;stroke-width:1.0;"/><path d="M51.4375,18.8281 Q50.6875,18.8281 50.125,19.125 Q49.5625,19.4063 49.1719,19.9375 Q48.7813,20.4688 48.5781,21.25 Q48.3906,22.0156 48.3906,22.9688 Q48.3906,23.9375 48.5625,24.7031 Q48.75,25.4531 49.1094,25.9688 Q49.4844,26.4844 50.0625,26.7656 Q50.6406,27.0313 51.4375,27.0313 Q52.1719,27.0313 52.9063,26.8594 Q53.6563,26.6875 54.5313,26.3906 L54.5313,28.5469 Q54.125,28.7031 53.7344,28.8281 Q53.3438,28.9375 52.9375,29.0156 Q52.5313,29.0938 52.1094,29.125 Q51.6875,29.1719 51.1875,29.1719 Q49.7813,29.1719 48.75,28.7188 Q47.7344,28.2656 47.0625,27.4531 Q46.3906,26.6406 46.0625,25.5 Q45.7344,24.3438 45.7344,22.9531 Q45.7344,21.5781 46.1094,20.4219 Q46.4844,19.2656 47.2031,18.4375 Q47.9219,17.6094 48.9844,17.1563 Q50.0469,16.6875 51.4375,16.6875 Q52.3438,16.6875 53.25,16.9219 Q54.1563,17.1406 54.9844,17.5469 L54.1563,19.6406 Q53.4688,19.3125 52.7813,19.0781 Q52.0938,18.8281 51.4375,18.8281 Z " fill="#000000"/><text fill="#000000" font-family="sans-serif" font-size="14" lengthAdjust="spacing" textLength="95" x="65.5" y="27.8467">AbstractButton</text><line style="stroke:#181818;stroke-width:0.5;" x1="37.5" x2="162.5" y1="39" y2="39"/><line style="stroke:#181818;stroke-width:0.5;" x1="37.5" x2="162.5" y1="47" y2="47"/></g><!--reverse link AbstractButton to TabButtonUIToolkit--><g id="link_AbstractButton_TabButtonUIToolkit"><path codeLine="4" d="M100,75.09 C100,88.28 100,102.52 100,114.75 " fill="none" id="AbstractButton-backto-TabButtonUIToolkit" style="stroke:#181818;stroke-width:1.0;"/><polygon fill="none" points="93,75.07,100,55.07,107,75.07,93,75.07" style="stroke:#181818;stroke-width:1.0;"/></g><!--SRC=[Iyv9B2vM24bCSYejASdF2_KCoS_FoSuiKQZcKW02RGKRc_oorAAYp9HKEpi5n-IIpFmy3Kq5AuMo_CmKhbeknwJYagB4v1A8TWMR6brTBAO10000]--></g></svg>