<?xml version="1.0" encoding="us-ascii" standalone="no"?><svg xmlns="http://www.w3.org/2000/svg" xmlns:xlink="http://www.w3.org/1999/xlink" contentStyleType="text/css" height="117px" preserveAspectRatio="none" style="width:248px;height:117px;background:#FFFFFF;" version="1.1" viewBox="0 0 248 117" width="248px" zoomAndPan="magnify"><defs/><g><!--class TabController--><g id="elem_TabController"><rect codeLine="1" fill="#F1F1F1" height="96.8906" id="TabController" rx="2.5" ry="2.5" style="stroke:#181818;stroke-width:0.5;" width="227" x="7" y="7"/><ellipse cx="72.75" cy="23" fill="#ADD1B2" rx="11" ry="11" style="stroke:#181818;stroke-width:1.0;"/><path d="M72.6875,18.8281 Q71.9375,18.8281 71.375,19.125 Q70.8125,19.4063 70.4219,19.9375 Q70.0313,20.4688 69.8281,21.25 Q69.6406,22.0156 69.6406,22.9688 Q69.6406,23.9375 69.8125,24.7031 Q70,25.4531 70.3594,25.9688 Q70.7344,26.4844 71.3125,26.7656 Q71.8906,27.0313 72.6875,27.0313 Q73.4219,27.0313 74.1563,26.8594 Q74.9063,26.6875 75.7813,26.3906 L75.7813,28.5469 Q75.375,28.7031 74.9844,28.8281 Q74.5938,28.9375 74.1875,29.0156 Q73.7813,29.0938 73.3594,29.125 Q72.9375,29.1719 72.4375,29.1719 Q71.0313,29.1719 70,28.7188 Q68.9844,28.2656 68.3125,27.4531 Q67.6406,26.6406 67.3125,25.5 Q66.9844,24.3438 66.9844,22.9531 Q66.9844,21.5781 67.3594,20.4219 Q67.7344,19.2656 68.4531,18.4375 Q69.1719,17.6094 70.2344,17.1563 Q71.2969,16.6875 72.6875,16.6875 Q73.5938,16.6875 74.5,16.9219 Q75.4063,17.1406 76.2344,17.5469 L75.4063,19.6406 Q74.7188,19.3125 74.0313,19.0781 Q73.3438,18.8281 72.6875,18.8281 Z " fill="#000000"/><text fill="#000000" font-family="sans-serif" font-size="14" lengthAdjust="spacing" textLength="87" x="93.25" y="27.8467">TabController</text><line style="stroke:#181818;stroke-width:0.5;" x1="8" x2="233" y1="39" y2="39"/><line style="stroke:#181818;stroke-width:0.5;" x1="8" x2="233" y1="47" y2="47"/><ellipse cx="18" cy="60.6484" fill="#84BE84" rx="3" ry="3" style="stroke:#038048;stroke-width:1.0;"/><text fill="#000000" font-family="sans-serif" font-size="14" lengthAdjust="spacing" textLength="174" x="27" y="63.9951">AddTab(element:Tab) : void</text><ellipse cx="18" cy="76.9453" fill="#84BE84" rx="3" ry="3" style="stroke:#038048;stroke-width:1.0;"/><text fill="#000000" font-family="sans-serif" font-size="14" lengthAdjust="spacing" textLength="201" x="27" y="80.292">RemoveTab(element:Tab) : void</text><ellipse cx="18" cy="93.2422" fill="#84BE84" rx="3" ry="3" style="stroke:#038048;stroke-width:1.0;"/><text fill="#000000" font-family="sans-serif" font-size="14" lengthAdjust="spacing" textLength="188" x="27" y="96.5889">ActiveTab(element:Tab) : void</text></g><!--SRC=[Iyv9B2vM24bCSixFAodApyb9BLAevb800cq5nvGKe8H6QavgRcfUYHMGhQbWfL2Mdva2LH2KcfjVbefVZMDoIIPkDRK0]--></g></svg>