<?xml version="1.0" encoding="us-ascii" standalone="no"?><svg xmlns="http://www.w3.org/2000/svg" xmlns:xlink="http://www.w3.org/1999/xlink" contentStyleType="text/css" height="218px" preserveAspectRatio="none" style="width:309px;height:218px;background:#FFFFFF;" version="1.1" viewBox="0 0 309 218" width="309px" zoomAndPan="magnify"><defs/><g><!--class TabController--><g id="elem_TabController"><rect codeLine="1" fill="#F1F1F1" height="96.8906" id="TabController" rx="2.5" ry="2.5" style="stroke:#181818;stroke-width:0.5;" width="295" x="7" y="115"/><ellipse cx="106.75" cy="131" fill="#ADD1B2" rx="11" ry="11" style="stroke:#181818;stroke-width:1.0;"/><path d="M106.6875,126.8281 Q105.9375,126.8281 105.375,127.125 Q104.8125,127.4063 104.4219,127.9375 Q104.0313,128.4688 103.8281,129.25 Q103.6406,130.0156 103.6406,130.9688 Q103.6406,131.9375 103.8125,132.7031 Q104,133.4531 104.3594,133.9688 Q104.7344,134.4844 105.3125,134.7656 Q105.8906,135.0313 106.6875,135.0313 Q107.4219,135.0313 108.1563,134.8594 Q108.9063,134.6875 109.7813,134.3906 L109.7813,136.5469 Q109.375,136.7031 108.9844,136.8281 Q108.5938,136.9375 108.1875,137.0156 Q107.7813,137.0938 107.3594,137.125 Q106.9375,137.1719 106.4375,137.1719 Q105.0313,137.1719 104,136.7188 Q102.9844,136.2656 102.3125,135.4531 Q101.6406,134.6406 101.3125,133.5 Q100.9844,132.3438 100.9844,130.9531 Q100.9844,129.5781 101.3594,128.4219 Q101.7344,127.2656 102.4531,126.4375 Q103.1719,125.6094 104.2344,125.1563 Q105.2969,124.6875 106.6875,124.6875 Q107.5938,124.6875 108.5,124.9219 Q109.4063,125.1406 110.2344,125.5469 L109.4063,127.6406 Q108.7188,127.3125 108.0313,127.0781 Q107.3438,126.8281 106.6875,126.8281 Z " fill="#000000"/><text fill="#000000" font-family="sans-serif" font-size="14" lengthAdjust="spacing" textLength="87" x="127.25" y="135.8467">TabController</text><line style="stroke:#181818;stroke-width:0.5;" x1="8" x2="301" y1="147" y2="147"/><line style="stroke:#181818;stroke-width:0.5;" x1="8" x2="301" y1="155" y2="155"/><ellipse cx="18" cy="168.6484" fill="#84BE84" rx="3" ry="3" style="stroke:#038048;stroke-width:1.0;"/><text fill="#000000" font-family="sans-serif" font-size="14" lengthAdjust="spacing" textLength="242" x="27" y="171.9951">AddTab(element:VisualElement) : void</text><ellipse cx="18" cy="184.9453" fill="#84BE84" rx="3" ry="3" style="stroke:#038048;stroke-width:1.0;"/><text fill="#000000" font-family="sans-serif" font-size="14" lengthAdjust="spacing" textLength="269" x="27" y="188.292">RemoveTab(element:VisualElement) : void</text><ellipse cx="18" cy="201.2422" fill="#84BE84" rx="3" ry="3" style="stroke:#038048;stroke-width:1.0;"/><text fill="#000000" font-family="sans-serif" font-size="14" lengthAdjust="spacing" textLength="256" x="27" y="204.5889">ActiveTab(element:VisualElement) : void</text></g><!--class MonoBehaviour--><g id="elem_MonoBehaviour"><rect fill="#F1F1F1" height="48" id="MonoBehaviour" rx="2.5" ry="2.5" style="stroke:#181818;stroke-width:0.5;" width="133" x="88" y="7"/><ellipse cx="103" cy="23" fill="#ADD1B2" rx="11" ry="11" style="stroke:#181818;stroke-width:1.0;"/><path d="M102.9375,18.8281 Q102.1875,18.8281 101.625,19.125 Q101.0625,19.4063 100.6719,19.9375 Q100.2813,20.4688 100.0781,21.25 Q99.8906,22.0156 99.8906,22.9688 Q99.8906,23.9375 100.0625,24.7031 Q100.25,25.4531 100.6094,25.9688 Q100.9844,26.4844 101.5625,26.7656 Q102.1406,27.0313 102.9375,27.0313 Q103.6719,27.0313 104.4063,26.8594 Q105.1563,26.6875 106.0313,26.3906 L106.0313,28.5469 Q105.625,28.7031 105.2344,28.8281 Q104.8438,28.9375 104.4375,29.0156 Q104.0313,29.0938 103.6094,29.125 Q103.1875,29.1719 102.6875,29.1719 Q101.2813,29.1719 100.25,28.7188 Q99.2344,28.2656 98.5625,27.4531 Q97.8906,26.6406 97.5625,25.5 Q97.2344,24.3438 97.2344,22.9531 Q97.2344,21.5781 97.6094,20.4219 Q97.9844,19.2656 98.7031,18.4375 Q99.4219,17.6094 100.4844,17.1563 Q101.5469,16.6875 102.9375,16.6875 Q103.8438,16.6875 104.75,16.9219 Q105.6563,17.1406 106.4844,17.5469 L105.6563,19.6406 Q104.9688,19.3125 104.2813,19.0781 Q103.5938,18.8281 102.9375,18.8281 Z " fill="#000000"/><text fill="#000000" font-family="sans-serif" font-size="14" lengthAdjust="spacing" textLength="101" x="117" y="27.8467">MonoBehaviour</text><line style="stroke:#181818;stroke-width:0.5;" x1="89" x2="220" y1="39" y2="39"/><line style="stroke:#181818;stroke-width:0.5;" x1="89" x2="220" y1="47" y2="47"/></g><!--reverse link MonoBehaviour to TabController--><g id="link_MonoBehaviour_TabController"><path codeLine="6" d="M154.5,75.37 C154.5,88.03 154.5,101.93 154.5,114.84 " fill="none" id="MonoBehaviour-backto-TabController" style="stroke:#181818;stroke-width:1.0;"/><polygon fill="none" points="147.5,75.03,154.5,55.03,161.5,75.03,147.5,75.03" style="stroke:#181818;stroke-width:1.0;"/></g><!--SRC=[Iyv9B2vM24bCSixFAodApyb9BLAevb800cq5nvGKe8H6QavgRcfUYLLOPd5fOeuhXAUfOALGbf-P0bKQb9gRNvPAh6h7v99CObJNSldcv-KxfMOabcNcbnOfsDJewgAw5G00]--></g></svg>