<?xml version="1.0" encoding="us-ascii" standalone="no"?><svg xmlns="http://www.w3.org/2000/svg" xmlns:xlink="http://www.w3.org/1999/xlink" contentStyleType="text/css" height="189px" preserveAspectRatio="none" style="width:134px;height:189px;background:#FFFFFF;" version="1.1" viewBox="0 0 134 189" width="134px" zoomAndPan="magnify"><defs/><g><!--class IButton--><g id="elem_IButton"><rect codeLine="1" fill="#F1F1F1" height="64.2969" id="IButton" rx="2.5" ry="2.5" style="stroke:#181818;stroke-width:0.5;" width="120" x="7" y="118"/><ellipse cx="40" cy="134" fill="#B4A7E5" rx="11" ry="11" style="stroke:#181818;stroke-width:1.0;"/><path d="M42.5625,140 L37.0469,140 L37.0469,138.5313 L38.5313,137.8594 L38.5313,130 L37.0469,129.3281 L37.0469,127.8594 L42.5625,127.8594 L42.5625,129.3281 L41.0938,130 L41.0938,137.8594 L42.5625,138.5313 L42.5625,140 Z " fill="#000000"/><text fill="#000000" font-family="sans-serif" font-size="14" font-style="italic" lengthAdjust="spacing" textLength="48" x="58" y="138.8467">IButton</text><line style="stroke:#181818;stroke-width:0.5;" x1="8" x2="126" y1="150" y2="150"/><line style="stroke:#181818;stroke-width:0.5;" x1="8" x2="126" y1="158" y2="158"/><ellipse cx="18" cy="171.6484" fill="#84BE84" rx="3" ry="3" style="stroke:#038048;stroke-width:1.0;"/><text fill="#000000" font-family="sans-serif" font-size="14" font-style="italic" lengthAdjust="spacing" textLength="94" x="27" y="174.9951">OnClick() : void</text></g><!--class ILink`1--><g id="elem_ILink`1"><rect codeLine="4" fill="#F1F1F1" height="48" id="ILink`1" rx="2.5" ry="2.5" style="stroke:#181818;stroke-width:0.5;" width="89" x="22.5" y="10"/><ellipse cx="37.5" cy="26" fill="#ADD1B2" rx="11" ry="11" style="stroke:#181818;stroke-width:1.0;"/><path d="M37.4375,21.8281 Q36.6875,21.8281 36.125,22.125 Q35.5625,22.4063 35.1719,22.9375 Q34.7813,23.4688 34.5781,24.25 Q34.3906,25.0156 34.3906,25.9688 Q34.3906,26.9375 34.5625,27.7031 Q34.75,28.4531 35.1094,28.9688 Q35.4844,29.4844 36.0625,29.7656 Q36.6406,30.0313 37.4375,30.0313 Q38.1719,30.0313 38.9063,29.8594 Q39.6563,29.6875 40.5313,29.3906 L40.5313,31.5469 Q40.125,31.7031 39.7344,31.8281 Q39.3438,31.9375 38.9375,32.0156 Q38.5313,32.0938 38.1094,32.125 Q37.6875,32.1719 37.1875,32.1719 Q35.7813,32.1719 34.75,31.7188 Q33.7344,31.2656 33.0625,30.4531 Q32.3906,29.6406 32.0625,28.5 Q31.7344,27.3438 31.7344,25.9531 Q31.7344,24.5781 32.1094,23.4219 Q32.4844,22.2656 33.2031,21.4375 Q33.9219,20.6094 34.9844,20.1563 Q36.0469,19.6875 37.4375,19.6875 Q38.3438,19.6875 39.25,19.9219 Q40.1563,20.1406 40.9844,20.5469 L40.1563,22.6406 Q39.4688,22.3125 38.7813,22.0781 Q38.0938,21.8281 37.4375,21.8281 Z " fill="#000000"/><text fill="#000000" font-family="sans-serif" font-size="14" lengthAdjust="spacing" textLength="47" x="51.5" y="30.8467">ILink`1</text><rect fill="#FFFFFF" height="15.9688" style="stroke:#181818;stroke-width:1.0;stroke-dasharray:2.0,2.0;" width="8" x="106.5" y="7"/><text fill="#000000" font-family="sans-serif" font-size="12" font-style="italic" lengthAdjust="spacing" textLength="6" x="107.5" y="19.1387">T</text><line style="stroke:#181818;stroke-width:0.5;" x1="23.5" x2="110.5" y1="42" y2="42"/><line style="stroke:#181818;stroke-width:0.5;" x1="23.5" x2="110.5" y1="50" y2="50"/></g><!--reverse link ILink`1 to IButton--><g id="link_ILink`1_IButton"><path codeLine="6" d="M67,78.09 C67,91.28 67,105.52 67,117.75 " fill="none" id="ILink`1-backto-IButton" style="stroke:#181818;stroke-width:1.0;"/><polygon fill="none" points="60,78.07,67,58.07,74,78.07,60,78.07" style="stroke:#181818;stroke-width:1.0;"/><text fill="#000000" font-family="sans-serif" font-size="13" lengthAdjust="spacing" textLength="54" x="6.0813" y="78.2437">&lt;Button&gt;</text></g><!--SRC=[oymhIIrAIqnELV1qAYqfoSzJgEPI009jXUh4fEAIeiJaabe5_ppddCpaR0rD1Ik5ilpC5AvQhkISnE9Y1ILFdyoyx0H39PiGEw36MYwuW8AI3SGyEoK5cnfTNPZn0000]--></g></svg>