<?xml version="1.0" encoding="us-ascii" standalone="no"?><svg xmlns="http://www.w3.org/2000/svg" xmlns:xlink="http://www.w3.org/1999/xlink" contentStyleType="text/css" height="85px" preserveAspectRatio="none" style="width:185px;height:85px;background:#FFFFFF;" version="1.1" viewBox="0 0 185 85" width="185px" zoomAndPan="magnify"><defs/><g><!--class ILink`1--><g id="elem_ILink`1"><rect codeLine="1" fill="#F1F1F1" height="64.2969" id="ILink`1" rx="2.5" ry="2.5" style="stroke:#181818;stroke-width:0.5;" width="164" x="7" y="7"/><ellipse cx="56.25" cy="23" fill="#B4A7E5" rx="11" ry="11" style="stroke:#181818;stroke-width:1.0;"/><path d="M58.8125,29 L53.2969,29 L53.2969,27.5313 L54.7813,26.8594 L54.7813,19 L53.2969,18.3281 L53.2969,16.8594 L58.8125,16.8594 L58.8125,18.3281 L57.3438,19 L57.3438,26.8594 L58.8125,27.5313 L58.8125,29 Z " fill="#000000"/><text fill="#000000" font-family="sans-serif" font-size="14" font-style="italic" lengthAdjust="spacing" textLength="47" x="76.75" y="27.8467">ILink`1</text><rect fill="#FFFFFF" height="15.9688" style="stroke:#181818;stroke-width:1.0;stroke-dasharray:2.0,2.0;" width="8" x="166" y="4"/><text fill="#000000" font-family="sans-serif" font-size="12" font-style="italic" lengthAdjust="spacing" textLength="6" x="167" y="16.1387">T</text><line style="stroke:#181818;stroke-width:0.5;" x1="8" x2="170" y1="39" y2="39"/><line style="stroke:#181818;stroke-width:0.5;" x1="8" x2="170" y1="47" y2="47"/><ellipse cx="18" cy="60.6484" fill="#84BE84" rx="3" ry="3" style="stroke:#038048;stroke-width:1.0;"/><text fill="#000000" font-family="sans-serif" font-size="14" lengthAdjust="spacing" textLength="138" x="27" y="63.9951">Link(element:T) : void</text></g><!--SRC=[oymhIIrAIqnELL3ozCdCoqumLB89iLEevb800cq5a916QavgRcfUYLM8feALGbb-PWfNBG00]--></g></svg>