<?xml version="1.0" encoding="us-ascii" standalone="no"?><svg xmlns="http://www.w3.org/2000/svg" xmlns:xlink="http://www.w3.org/1999/xlink" contentStyleType="text/css" height="85px" preserveAspectRatio="none" style="width:177px;height:85px;background:#FFFFFF;" version="1.1" viewBox="0 0 177 85" width="177px" zoomAndPan="magnify"><defs/><g><!--class IVerificator`1--><g id="elem_IVerificator`1"><rect codeLine="1" fill="#F1F1F1" height="64.2969" id="IVerificator`1" rx="2.5" ry="2.5" style="stroke:#181818;stroke-width:0.5;" width="156" x="7" y="7"/><ellipse cx="33.7" cy="23" fill="#B4A7E5" rx="11" ry="11" style="stroke:#181818;stroke-width:1.0;"/><path d="M36.2625,29 L30.7469,29 L30.7469,27.5313 L32.2313,26.8594 L32.2313,19 L30.7469,18.3281 L30.7469,16.8594 L36.2625,16.8594 L36.2625,18.3281 L34.7938,19 L34.7938,26.8594 L36.2625,27.5313 L36.2625,29 Z " fill="#000000"/><text fill="#000000" font-family="sans-serif" font-size="14" font-style="italic" lengthAdjust="spacing" textLength="88" x="50.3" y="27.8467">IVerificator`1</text><rect fill="#FFFFFF" height="15.9688" style="stroke:#181818;stroke-width:1.0;stroke-dasharray:2.0,2.0;" width="8" x="158" y="4"/><text fill="#000000" font-family="sans-serif" font-size="12" font-style="italic" lengthAdjust="spacing" textLength="6" x="159" y="16.1387">T</text><line style="stroke:#181818;stroke-width:0.5;" x1="8" x2="162" y1="39" y2="39"/><line style="stroke:#181818;stroke-width:0.5;" x1="8" x2="162" y1="47" y2="47"/><ellipse cx="18" cy="60.6484" fill="#84BE84" rx="3" ry="3" style="stroke:#038048;stroke-width:1.0;"/><text fill="#000000" font-family="sans-serif" font-size="14" font-style="italic" lengthAdjust="spacing" textLength="130" x="27" y="63.9951">Check(value:T) : bool</text></g><!--SRC=[oymhIIrAIqnELL3o34ijoapBJ4uioIzAC5Io2R5JgEPI009jXUh4fEAIeiJaabe5vupKv6oDiiISqbIh44q5AuMa_FmShbe0]--></g></svg>