<?xml version="1.0" encoding="us-ascii" standalone="no"?><svg xmlns="http://www.w3.org/2000/svg" xmlns:xlink="http://www.w3.org/1999/xlink" contentStyleType="text/css" height="349px" preserveAspectRatio="none" style="width:1263px;height:349px;background:#FFFFFF;" version="1.1" viewBox="0 0 1263 349" width="1263px" zoomAndPan="magnify"><defs/><g><!--class DBManager--><g id="elem_DBManager"><rect codeLine="1" fill="#F1F1F1" height="227.2656" id="DBManager" rx="2.5" ry="2.5" style="stroke:#181818;stroke-width:0.5;" width="1249" x="7" y="115"/><ellipse cx="590.25" cy="131" fill="#ADD1B2" rx="11" ry="11" style="stroke:#181818;stroke-width:1.0;"/><path d="M590.1875,126.8281 Q589.4375,126.8281 588.875,127.125 Q588.3125,127.4063 587.9219,127.9375 Q587.5313,128.4688 587.3281,129.25 Q587.1406,130.0156 587.1406,130.9688 Q587.1406,131.9375 587.3125,132.7031 Q587.5,133.4531 587.8594,133.9688 Q588.2344,134.4844 588.8125,134.7656 Q589.3906,135.0313 590.1875,135.0313 Q590.9219,135.0313 591.6563,134.8594 Q592.4063,134.6875 593.2813,134.3906 L593.2813,136.5469 Q592.875,136.7031 592.4844,136.8281 Q592.0938,136.9375 591.6875,137.0156 Q591.2813,137.0938 590.8594,137.125 Q590.4375,137.1719 589.9375,137.1719 Q588.5313,137.1719 587.5,136.7188 Q586.4844,136.2656 585.8125,135.4531 Q585.1406,134.6406 584.8125,133.5 Q584.4844,132.3438 584.4844,130.9531 Q584.4844,129.5781 584.8594,128.4219 Q585.2344,127.2656 585.9531,126.4375 Q586.6719,125.6094 587.7344,125.1563 Q588.7969,124.6875 590.1875,124.6875 Q591.0938,124.6875 592,124.9219 Q592.9063,125.1406 593.7344,125.5469 L592.9063,127.6406 Q592.2188,127.3125 591.5313,127.0781 Q590.8438,126.8281 590.1875,126.8281 Z " fill="#000000"/><text fill="#000000" font-family="sans-serif" font-size="14" lengthAdjust="spacing" textLength="74" x="610.75" y="135.8467">DBManager</text><line style="stroke:#181818;stroke-width:0.5;" x1="8" x2="1255" y1="147" y2="147"/><text fill="#000000" font-family="sans-serif" font-size="14" lengthAdjust="spacing" text-decoration="underline" textLength="278" x="27" y="163.9951">dbName : string = "/DungeonGenerator.db"</text><ellipse cx="18" cy="176.9453" fill="none" rx="3" ry="3" style="stroke:#038048;stroke-width:1.0;"/><text fill="#000000" font-family="sans-serif" font-size="14" lengthAdjust="spacing" text-decoration="underline" textLength="90" x="27" y="180.292">dbLink : string</text><ellipse cx="18" cy="193.2422" fill="none" rx="3" ry="3" style="stroke:#038048;stroke-width:1.0;"/><text fill="#000000" font-family="sans-serif" font-size="14" lengthAdjust="spacing" textLength="208" x="27" y="196.5889">useHumansInBattle : bool = true</text><ellipse cx="18" cy="209.5391" fill="none" rx="3" ry="3" style="stroke:#038048;stroke-width:1.0;"/><text fill="#000000" font-family="sans-serif" font-size="14" lengthAdjust="spacing" textLength="155" x="27" y="212.8857">useHazards : bool = true</text><line style="stroke:#181818;stroke-width:0.5;" x1="8" x2="1255" y1="220.1875" y2="220.1875"/><text fill="#000000" font-family="sans-serif" font-size="14" lengthAdjust="spacing" textLength="88" x="27" y="237.1826">Awake() : void</text><text fill="#000000" font-family="sans-serif" font-size="14" lengthAdjust="spacing" textLength="141" x="27" y="253.4795">InitGenerators() : void</text><text fill="#000000" font-family="sans-serif" font-size="14" lengthAdjust="spacing" text-decoration="underline" textLength="104" x="27" y="269.7764">CheckDB() : bool</text><ellipse cx="18" cy="282.7266" fill="#84BE84" rx="3" ry="3" style="stroke:#038048;stroke-width:1.0;"/><text fill="#000000" font-family="sans-serif" font-size="14" lengthAdjust="spacing" textLength="1116" x="27" y="286.0732">GenerateRoomsContent(partyMemberAmount:int, partyLevel:int, roomAmount:int, useHumansInBattle:bool, useHazards:bool) : List&lt;Tuple&lt;int, List&lt;Monster&gt;, List&lt;Hazard&gt;&gt;&gt;</text><ellipse cx="18" cy="299.0234" fill="#84BE84" rx="3" ry="3" style="stroke:#038048;stroke-width:1.0;"/><text fill="#000000" font-family="sans-serif" font-size="14" lengthAdjust="spacing" textLength="1223" x="27" y="302.3701">GenerateRoomsContent(partyMemberAmount:int, partyLevel:int, roomCoordinates:List&lt;object&gt;, useHumansInBattle:bool, useHazards:bool) : List&lt;Tuple&lt;object, List&lt;Monster&gt;, List&lt;Hazard&gt;&gt;&gt;</text><ellipse cx="18" cy="315.3203" fill="#84BE84" rx="3" ry="3" style="stroke:#038048;stroke-width:1.0;"/><text fill="#000000" font-family="sans-serif" font-size="14" lengthAdjust="spacing" textLength="569" x="27" y="318.667">SaveRoomContentsToFile(rooms:List&lt;Tuple&lt;object, List&lt;Monster&gt;, List&lt;Hazard&gt;&gt;&gt;) : void</text><text fill="#000000" font-family="sans-serif" font-size="14" lengthAdjust="spacing" textLength="209" x="27" y="334.9639">generateDungeonName() : String</text></g><!--class MonoBehaviour--><g id="elem_MonoBehaviour"><rect fill="#F1F1F1" height="48" id="MonoBehaviour" rx="2.5" ry="2.5" style="stroke:#181818;stroke-width:0.5;" width="133" x="565" y="7"/><ellipse cx="580" cy="23" fill="#ADD1B2" rx="11" ry="11" style="stroke:#181818;stroke-width:1.0;"/><path d="M579.9375,18.8281 Q579.1875,18.8281 578.625,19.125 Q578.0625,19.4063 577.6719,19.9375 Q577.2813,20.4688 577.0781,21.25 Q576.8906,22.0156 576.8906,22.9688 Q576.8906,23.9375 577.0625,24.7031 Q577.25,25.4531 577.6094,25.9688 Q577.9844,26.4844 578.5625,26.7656 Q579.1406,27.0313 579.9375,27.0313 Q580.6719,27.0313 581.4063,26.8594 Q582.1563,26.6875 583.0313,26.3906 L583.0313,28.5469 Q582.625,28.7031 582.2344,28.8281 Q581.8438,28.9375 581.4375,29.0156 Q581.0313,29.0938 580.6094,29.125 Q580.1875,29.1719 579.6875,29.1719 Q578.2813,29.1719 577.25,28.7188 Q576.2344,28.2656 575.5625,27.4531 Q574.8906,26.6406 574.5625,25.5 Q574.2344,24.3438 574.2344,22.9531 Q574.2344,21.5781 574.6094,20.4219 Q574.9844,19.2656 575.7031,18.4375 Q576.4219,17.6094 577.4844,17.1563 Q578.5469,16.6875 579.9375,16.6875 Q580.8438,16.6875 581.75,16.9219 Q582.6563,17.1406 583.4844,17.5469 L582.6563,19.6406 Q581.9688,19.3125 581.2813,19.0781 Q580.5938,18.8281 579.9375,18.8281 Z " fill="#000000"/><text fill="#000000" font-family="sans-serif" font-size="14" lengthAdjust="spacing" textLength="101" x="594" y="27.8467">MonoBehaviour</text><line style="stroke:#181818;stroke-width:0.5;" x1="566" x2="697" y1="39" y2="39"/><line style="stroke:#181818;stroke-width:0.5;" x1="566" x2="697" y1="47" y2="47"/></g><!--reverse link MonoBehaviour to DBManager--><g id="link_MonoBehaviour_DBManager"><path codeLine="14" d="M631.5,75.38 C631.5,87.38 631.5,100.97 631.5,114.98 " fill="none" id="MonoBehaviour-backto-DBManager" style="stroke:#181818;stroke-width:1.0;"/><polygon fill="none" points="624.5,75.19,631.5,55.19,638.5,75.19,624.5,75.19" style="stroke:#181818;stroke-width:1.0;"/></g><!--SRC=[hPB1Ji9048RlFCN64qRGUuDDA4Gb0G_22qpRILbfPyZkR8qYxswxtM297jJOsypV_vzlToShmLerJrP0KA1HXu5gleCL49qTLPu-GeKgKbQCfaBTgekRkQC2cUwHq82mkSxJ2- -wwlkMcdOdNv2TnGTN0Ta59I1Iji4fSzd4Yd7O-mlUmEJs6tdw0ZiSNZPApJhthGLfES7OS-q4DDjYjfidNcqpmwpWmoVcoiwO14c6Up3oki8gHJEjs954ccIaV7k9DPPTRHfFN_zokgWTDEgTnpTQWgMsCjcuVOaJR_NrYiaAcZYKdIUEutz2dJ6RN5EJO2C_WDDdp2J-AtXd_ndx6chF7R3jXkzqYSCMAy3y8lFiWOjmAs4fsstrRxpkzkuuQ58umItKcfrHa_Vn-7FRFm00]--></g></svg>