<?xml version="1.0" encoding="us-ascii" standalone="no"?><svg xmlns="http://www.w3.org/2000/svg" xmlns:xlink="http://www.w3.org/1999/xlink" contentStyleType="text/css" height="327px" preserveAspectRatio="none" style="width:729px;height:327px;background:#FFFFFF;" version="1.1" viewBox="0 0 729 327" width="729px" zoomAndPan="magnify"><defs/><g><!--class HazardGenerator--><g id="elem_HazardGenerator"><rect codeLine="1" fill="#F1F1F1" height="96.8906" id="HazardGenerator" rx="2.5" ry="2.5" style="stroke:#181818;stroke-width:0.5;" width="384" x="7" y="115"/><ellipse cx="139.75" cy="131" fill="#ADD1B2" rx="11" ry="11" style="stroke:#181818;stroke-width:1.0;"/><path d="M139.6875,126.8281 Q138.9375,126.8281 138.375,127.125 Q137.8125,127.4063 137.4219,127.9375 Q137.0313,128.4688 136.8281,129.25 Q136.6406,130.0156 136.6406,130.9688 Q136.6406,131.9375 136.8125,132.7031 Q137,133.4531 137.3594,133.9688 Q137.7344,134.4844 138.3125,134.7656 Q138.8906,135.0313 139.6875,135.0313 Q140.4219,135.0313 141.1563,134.8594 Q141.9063,134.6875 142.7813,134.3906 L142.7813,136.5469 Q142.375,136.7031 141.9844,136.8281 Q141.5938,136.9375 141.1875,137.0156 Q140.7813,137.0938 140.3594,137.125 Q139.9375,137.1719 139.4375,137.1719 Q138.0313,137.1719 137,136.7188 Q135.9844,136.2656 135.3125,135.4531 Q134.6406,134.6406 134.3125,133.5 Q133.9844,132.3438 133.9844,130.9531 Q133.9844,129.5781 134.3594,128.4219 Q134.7344,127.2656 135.4531,126.4375 Q136.1719,125.6094 137.2344,125.1563 Q138.2969,124.6875 139.6875,124.6875 Q140.5938,124.6875 141.5,124.9219 Q142.4063,125.1406 143.2344,125.5469 L142.4063,127.6406 Q141.7188,127.3125 141.0313,127.0781 Q140.3438,126.8281 139.6875,126.8281 Z " fill="#000000"/><text fill="#000000" font-family="sans-serif" font-size="14" lengthAdjust="spacing" textLength="110" x="160.25" y="135.8467">HazardGenerator</text><line style="stroke:#181818;stroke-width:0.5;" x1="8" x2="390" y1="147" y2="147"/><line style="stroke:#181818;stroke-width:0.5;" x1="8" x2="390" y1="155" y2="155"/><ellipse cx="18" cy="168.6484" fill="#84BE84" rx="3" ry="3" style="stroke:#038048;stroke-width:1.0;"/><text fill="#000000" font-family="sans-serif" font-size="14" lengthAdjust="spacing" textLength="118" x="27" y="171.9951">HazardGenerator()</text><ellipse cx="18" cy="184.9453" fill="#84BE84" rx="3" ry="3" style="stroke:#038048;stroke-width:1.0;"/><text fill="#000000" font-family="sans-serif" font-size="14" lengthAdjust="spacing" textLength="358" x="27" y="188.292">BuildHazard(xpbudget:int, party_level:int) : List&lt;Hazard&gt;</text><ellipse cx="18" cy="201.2422" fill="#84BE84" rx="3" ry="3" style="stroke:#038048;stroke-width:1.0;"/><text fill="#000000" font-family="sans-serif" font-size="14" lengthAdjust="spacing" textLength="337" x="27" y="204.5889">BuildSimpleHazard(xpbudget:int, party_level:int) : int</text></g><!--class Dictionary`2--><g id="elem_Dictionary`2"><rect codeLine="6" fill="#F1F1F1" height="48" id="Dictionary`2" rx="2.5" ry="2.5" style="stroke:#181818;stroke-width:0.5;" width="146" x="426" y="139.5"/><ellipse cx="441" cy="155.5" fill="#ADD1B2" rx="11" ry="11" style="stroke:#181818;stroke-width:1.0;"/><path d="M440.9375,151.3281 Q440.1875,151.3281 439.625,151.625 Q439.0625,151.9063 438.6719,152.4375 Q438.2813,152.9688 438.0781,153.75 Q437.8906,154.5156 437.8906,155.4688 Q437.8906,156.4375 438.0625,157.2031 Q438.25,157.9531 438.6094,158.4688 Q438.9844,158.9844 439.5625,159.2656 Q440.1406,159.5313 440.9375,159.5313 Q441.6719,159.5313 442.4063,159.3594 Q443.1563,159.1875 444.0313,158.8906 L444.0313,161.0469 Q443.625,161.2031 443.2344,161.3281 Q442.8438,161.4375 442.4375,161.5156 Q442.0313,161.5938 441.6094,161.625 Q441.1875,161.6719 440.6875,161.6719 Q439.2813,161.6719 438.25,161.2188 Q437.2344,160.7656 436.5625,159.9531 Q435.8906,159.1406 435.5625,158 Q435.2344,156.8438 435.2344,155.4531 Q435.2344,154.0781 435.6094,152.9219 Q435.9844,151.7656 436.7031,150.9375 Q437.4219,150.1094 438.4844,149.6563 Q439.5469,149.1875 440.9375,149.1875 Q441.8438,149.1875 442.75,149.4219 Q443.6563,149.6406 444.4844,150.0469 L443.6563,152.1406 Q442.9688,151.8125 442.2813,151.5781 Q441.5938,151.3281 440.9375,151.3281 Z " fill="#000000"/><text fill="#000000" font-family="sans-serif" font-size="14" lengthAdjust="spacing" textLength="81" x="455" y="160.3467">Dictionary`2</text><rect fill="#FFFFFF" height="15.9688" style="stroke:#181818;stroke-width:1.0;stroke-dasharray:2.0,2.0;" width="31" x="544" y="136.5"/><text fill="#000000" font-family="sans-serif" font-size="12" font-style="italic" lengthAdjust="spacing" textLength="29" x="545" y="148.6387">T1,T2</text><line style="stroke:#181818;stroke-width:0.5;" x1="427" x2="571" y1="171.5" y2="171.5"/><line style="stroke:#181818;stroke-width:0.5;" x1="427" x2="571" y1="179.5" y2="179.5"/></g><!--class ObjectGenerator--><g id="elem_ObjectGenerator"><rect fill="#F1F1F1" height="48" id="ObjectGenerator" rx="2.5" ry="2.5" style="stroke:#181818;stroke-width:0.5;" width="139" x="129.5" y="7"/><ellipse cx="144.5" cy="23" fill="#ADD1B2" rx="11" ry="11" style="stroke:#181818;stroke-width:1.0;"/><path d="M144.4375,18.8281 Q143.6875,18.8281 143.125,19.125 Q142.5625,19.4063 142.1719,19.9375 Q141.7813,20.4688 141.5781,21.25 Q141.3906,22.0156 141.3906,22.9688 Q141.3906,23.9375 141.5625,24.7031 Q141.75,25.4531 142.1094,25.9688 Q142.4844,26.4844 143.0625,26.7656 Q143.6406,27.0313 144.4375,27.0313 Q145.1719,27.0313 145.9063,26.8594 Q146.6563,26.6875 147.5313,26.3906 L147.5313,28.5469 Q147.125,28.7031 146.7344,28.8281 Q146.3438,28.9375 145.9375,29.0156 Q145.5313,29.0938 145.1094,29.125 Q144.6875,29.1719 144.1875,29.1719 Q142.7813,29.1719 141.75,28.7188 Q140.7344,28.2656 140.0625,27.4531 Q139.3906,26.6406 139.0625,25.5 Q138.7344,24.3438 138.7344,22.9531 Q138.7344,21.5781 139.1094,20.4219 Q139.4844,19.2656 140.2031,18.4375 Q140.9219,17.6094 141.9844,17.1563 Q143.0469,16.6875 144.4375,16.6875 Q145.3438,16.6875 146.25,16.9219 Q147.1563,17.1406 147.9844,17.5469 L147.1563,19.6406 Q146.4688,19.3125 145.7813,19.0781 Q145.0938,18.8281 144.4375,18.8281 Z " fill="#000000"/><text fill="#000000" font-family="sans-serif" font-size="14" lengthAdjust="spacing" textLength="107" x="158.5" y="27.8467">ObjectGenerator</text><line style="stroke:#181818;stroke-width:0.5;" x1="130.5" x2="267.5" y1="39" y2="39"/><line style="stroke:#181818;stroke-width:0.5;" x1="130.5" x2="267.5" y1="47" y2="47"/></g><!--class Hazard--><g id="elem_Hazard"><rect fill="#F1F1F1" height="48" id="Hazard" rx="2.5" ry="2.5" style="stroke:#181818;stroke-width:0.5;" width="76" x="161" y="272"/><ellipse cx="176" cy="288" fill="#ADD1B2" rx="11" ry="11" style="stroke:#181818;stroke-width:1.0;"/><path d="M175.9375,283.8281 Q175.1875,283.8281 174.625,284.125 Q174.0625,284.4063 173.6719,284.9375 Q173.2813,285.4688 173.0781,286.25 Q172.8906,287.0156 172.8906,287.9688 Q172.8906,288.9375 173.0625,289.7031 Q173.25,290.4531 173.6094,290.9688 Q173.9844,291.4844 174.5625,291.7656 Q175.1406,292.0313 175.9375,292.0313 Q176.6719,292.0313 177.4063,291.8594 Q178.1563,291.6875 179.0313,291.3906 L179.0313,293.5469 Q178.625,293.7031 178.2344,293.8281 Q177.8438,293.9375 177.4375,294.0156 Q177.0313,294.0938 176.6094,294.125 Q176.1875,294.1719 175.6875,294.1719 Q174.2813,294.1719 173.25,293.7188 Q172.2344,293.2656 171.5625,292.4531 Q170.8906,291.6406 170.5625,290.5 Q170.2344,289.3438 170.2344,287.9531 Q170.2344,286.5781 170.6094,285.4219 Q170.9844,284.2656 171.7031,283.4375 Q172.4219,282.6094 173.4844,282.1563 Q174.5469,281.6875 175.9375,281.6875 Q176.8438,281.6875 177.75,281.9219 Q178.6563,282.1406 179.4844,282.5469 L178.6563,284.6406 Q177.9688,284.3125 177.2813,284.0781 Q176.5938,283.8281 175.9375,283.8281 Z " fill="#000000"/><text fill="#000000" font-family="sans-serif" font-size="14" lengthAdjust="spacing" textLength="44" x="190" y="292.8467">Hazard</text><line style="stroke:#181818;stroke-width:0.5;" x1="162" x2="236" y1="304" y2="304"/><line style="stroke:#181818;stroke-width:0.5;" x1="162" x2="236" y1="312" y2="312"/></g><!--reverse link ObjectGenerator to HazardGenerator--><g id="link_ObjectGenerator_HazardGenerator"><path codeLine="8" d="M199,75.37 C199,88.03 199,101.93 199,114.84 " fill="none" id="ObjectGenerator-backto-HazardGenerator" style="stroke:#181818;stroke-width:1.0;"/><polygon fill="none" points="192,75.03,199,55.03,206,75.03,192,75.03" style="stroke:#181818;stroke-width:1.0;"/></g><!--link HazardGenerator to Dictionary`2--><g id="link_HazardGenerator_Dictionary`2"><path codeLine="9" d="M404.21,194.95 C410.64,193.8 417.06,192.45 423.49,190.91 " fill="none" id="HazardGenerator-Dictionary`2" style="stroke:#181818;stroke-width:1.0;"/><polygon fill="none" points="391.19,197,397.7406,200.0149,403.043,195.1278,396.4924,192.1129,391.19,197" style="stroke:#181818;stroke-width:1.0;"/><polygon fill="#181818" points="436.25,187.57,426.5315,185.9731,431.4121,188.833,428.5523,193.7137,436.25,187.57" style="stroke:#181818;stroke-width:1.0;"/><line style="stroke:#181818;stroke-width:1.0;" x1="431.4121" x2="423.67" y1="188.833" y2="190.855"/><text fill="#000000" font-family="sans-serif" font-size="13" lengthAdjust="spacing" textLength="153" x="439.7734" y="207.7437">simpleExpCostList&lt;int,int&gt;</text></g><!--link HazardGenerator to Dictionary`2--><g id="link_HazardGenerator_Dictionary`2"><path codeLine="10" d="M404.41,173.97 C407.18,173.8 409.96,173.63 412.73,173.44 " fill="none" id="HazardGenerator-Dictionary`2-1" style="stroke:#181818;stroke-width:1.0;"/><polygon fill="none" points="391.19,174.67,397.3926,178.348,403.1733,174.0372,396.9707,170.3592,391.19,174.67" style="stroke:#181818;stroke-width:1.0;"/><polygon fill="#181818" points="425.72,172.45,416.4425,169.1442,420.7344,172.8293,417.0494,177.1212,425.72,172.45" style="stroke:#181818;stroke-width:1.0;"/><line style="stroke:#181818;stroke-width:1.0;" x1="420.7344" x2="412.755" y1="172.8293" y2="173.435"/><text fill="#000000" font-family="sans-serif" font-size="13" lengthAdjust="spacing" textLength="165" x="385.5809" y="207.7024">complexExpCostList&lt;int,int&gt;</text></g><!--link HazardGenerator to Dictionary`2--><g id="link_HazardGenerator_Dictionary`2"><path codeLine="11" d="M404.41,153.03 C407.18,153.2 409.96,153.37 412.73,153.56 " fill="none" id="HazardGenerator-Dictionary`2-2" style="stroke:#181818;stroke-width:1.0;"/><polygon fill="none" points="391.19,152.33,396.9707,156.6408,403.1733,152.9628,397.3926,148.652,391.19,152.33" style="stroke:#181818;stroke-width:1.0;"/><polygon fill="#181818" points="425.72,154.55,417.0494,149.8788,420.7344,154.1707,416.4425,157.8558,425.72,154.55" style="stroke:#181818;stroke-width:1.0;"/><line style="stroke:#181818;stroke-width:1.0;" x1="420.7344" x2="412.755" y1="154.1707" y2="153.565"/><text fill="#000000" font-family="sans-serif" font-size="13" lengthAdjust="spacing" textLength="234" x="488.021" y="128.2703">simple_hazards_by_lvl&lt;int,List&lt;Hazard&gt;&gt;</text></g><!--link HazardGenerator to Dictionary`2--><g id="link_HazardGenerator_Dictionary`2"><path codeLine="12" d="M404.21,132.05 C410.64,133.2 417.06,134.55 423.49,136.09 " fill="none" id="HazardGenerator-Dictionary`2-3" style="stroke:#181818;stroke-width:1.0;"/><polygon fill="none" points="391.19,130,396.4924,134.8871,403.043,131.8722,397.7406,126.9851,391.19,130" style="stroke:#181818;stroke-width:1.0;"/><polygon fill="#181818" points="436.25,139.43,428.5523,133.2863,431.4121,138.167,426.5315,141.0269,436.25,139.43" style="stroke:#181818;stroke-width:1.0;"/><line style="stroke:#181818;stroke-width:1.0;" x1="431.4121" x2="423.67" y1="138.167" y2="136.145"/><text fill="#000000" font-family="sans-serif" font-size="13" lengthAdjust="spacing" textLength="246" x="451.6891" y="128.4241">complex_hazards_by_lvl&lt;int,List&lt;Hazard&gt;&gt;</text></g><!--link HazardGenerator to Hazard--><g id="link_HazardGenerator_Hazard"><path codeLine="13" d="M199,212.35 C199,230.52 199,250.63 199,266.47 " fill="none" id="HazardGenerator-to-Hazard" style="stroke:#181818;stroke-width:1.0;"/><polygon fill="#181818" points="199,271.66,203,262.66,199,266.66,195,262.66,199,271.66" style="stroke:#181818;stroke-width:1.0;"/><text fill="#000000" font-family="sans-serif" font-size="13" lengthAdjust="spacing" textLength="41" x="153.0031" y="260.9821">hazard</text></g><!--SRC=[fP0x3y8W58LtVWLXgj4ETZHD1n_HmSH1zqefKGoM1cXJ7_tl0csY8Gu-I0Z9kTnpltC9nqh15RvYcIzfGINMGi8RWEOCVJqOzFgqOZplYa5JPbL-e7h22Zs29PRwad9QKsw50Pp0DLCwxZudh_rRTYuv_TJ5FA05nE6YEIEQYGBBopv2yMuysaM9WMx19ZjHefz1udiO-Yc0drQ42KJAqIoQSYQKTiYMnDm4UVFUznDX-vlV3Jg0zEXgAirC_fexZzS5VaVplrjetJeNr2_o0G00]--></g></svg>