<?xml version="1.0" encoding="us-ascii" standalone="no"?><svg xmlns="http://www.w3.org/2000/svg" xmlns:xlink="http://www.w3.org/1999/xlink" contentStyleType="text/css" height="327px" preserveAspectRatio="none" style="width:834px;height:327px;background:#FFFFFF;" version="1.1" viewBox="0 0 834 327" width="834px" zoomAndPan="magnify"><defs/><g><!--class MonsterGenerator--><g id="elem_MonsterGenerator"><rect codeLine="1" fill="#F1F1F1" height="96.8906" id="MonsterGenerator" rx="2.5" ry="2.5" style="stroke:#181818;stroke-width:0.5;" width="569" x="7" y="115"/><ellipse cx="227.75" cy="131" fill="#ADD1B2" rx="11" ry="11" style="stroke:#181818;stroke-width:1.0;"/><path d="M227.6875,126.8281 Q226.9375,126.8281 226.375,127.125 Q225.8125,127.4063 225.4219,127.9375 Q225.0313,128.4688 224.8281,129.25 Q224.6406,130.0156 224.6406,130.9688 Q224.6406,131.9375 224.8125,132.7031 Q225,133.4531 225.3594,133.9688 Q225.7344,134.4844 226.3125,134.7656 Q226.8906,135.0313 227.6875,135.0313 Q228.4219,135.0313 229.1563,134.8594 Q229.9063,134.6875 230.7813,134.3906 L230.7813,136.5469 Q230.375,136.7031 229.9844,136.8281 Q229.5938,136.9375 229.1875,137.0156 Q228.7813,137.0938 228.3594,137.125 Q227.9375,137.1719 227.4375,137.1719 Q226.0313,137.1719 225,136.7188 Q223.9844,136.2656 223.3125,135.4531 Q222.6406,134.6406 222.3125,133.5 Q221.9844,132.3438 221.9844,130.9531 Q221.9844,129.5781 222.3594,128.4219 Q222.7344,127.2656 223.4531,126.4375 Q224.1719,125.6094 225.2344,125.1563 Q226.2969,124.6875 227.6875,124.6875 Q228.5938,124.6875 229.5,124.9219 Q230.4063,125.1406 231.2344,125.5469 L230.4063,127.6406 Q229.7188,127.3125 229.0313,127.0781 Q228.3438,126.8281 227.6875,126.8281 Z " fill="#000000"/><text fill="#000000" font-family="sans-serif" font-size="14" lengthAdjust="spacing" textLength="119" x="248.25" y="135.8467">MonsterGenerator</text><line style="stroke:#181818;stroke-width:0.5;" x1="8" x2="575" y1="147" y2="147"/><ellipse cx="18" cy="160.6484" fill="none" rx="3" ry="3" style="stroke:#038048;stroke-width:1.0;"/><text fill="#000000" font-family="sans-serif" font-size="14" lengthAdjust="spacing" textLength="165" x="27" y="163.9951">useHumansInBattle : bool</text><line style="stroke:#181818;stroke-width:0.5;" x1="8" x2="575" y1="171.2969" y2="171.2969"/><ellipse cx="18" cy="184.9453" fill="#84BE84" rx="3" ry="3" style="stroke:#038048;stroke-width:1.0;"/><text fill="#000000" font-family="sans-serif" font-size="14" lengthAdjust="spacing" textLength="127" x="27" y="188.292">MonsterGenerator()</text><ellipse cx="18" cy="201.2422" fill="#84BE84" rx="3" ry="3" style="stroke:#038048;stroke-width:1.0;"/><text fill="#000000" font-family="sans-serif" font-size="14" lengthAdjust="spacing" textLength="543" x="27" y="204.5889">BuildCombat(xpbudget:int, party_level:int, _useHumansInBattle:bool) : List&lt;Monster&gt;</text></g><!--class Dictionary`2--><g id="elem_Dictionary`2"><rect codeLine="6" fill="#F1F1F1" height="48" id="Dictionary`2" rx="2.5" ry="2.5" style="stroke:#181818;stroke-width:0.5;" width="146" x="611.5" y="139.5"/><ellipse cx="626.5" cy="155.5" fill="#ADD1B2" rx="11" ry="11" style="stroke:#181818;stroke-width:1.0;"/><path d="M626.4375,151.3281 Q625.6875,151.3281 625.125,151.625 Q624.5625,151.9063 624.1719,152.4375 Q623.7813,152.9688 623.5781,153.75 Q623.3906,154.5156 623.3906,155.4688 Q623.3906,156.4375 623.5625,157.2031 Q623.75,157.9531 624.1094,158.4688 Q624.4844,158.9844 625.0625,159.2656 Q625.6406,159.5313 626.4375,159.5313 Q627.1719,159.5313 627.9063,159.3594 Q628.6563,159.1875 629.5313,158.8906 L629.5313,161.0469 Q629.125,161.2031 628.7344,161.3281 Q628.3438,161.4375 627.9375,161.5156 Q627.5313,161.5938 627.1094,161.625 Q626.6875,161.6719 626.1875,161.6719 Q624.7813,161.6719 623.75,161.2188 Q622.7344,160.7656 622.0625,159.9531 Q621.3906,159.1406 621.0625,158 Q620.7344,156.8438 620.7344,155.4531 Q620.7344,154.0781 621.1094,152.9219 Q621.4844,151.7656 622.2031,150.9375 Q622.9219,150.1094 623.9844,149.6563 Q625.0469,149.1875 626.4375,149.1875 Q627.3438,149.1875 628.25,149.4219 Q629.1563,149.6406 629.9844,150.0469 L629.1563,152.1406 Q628.4688,151.8125 627.7813,151.5781 Q627.0938,151.3281 626.4375,151.3281 Z " fill="#000000"/><text fill="#000000" font-family="sans-serif" font-size="14" lengthAdjust="spacing" textLength="81" x="640.5" y="160.3467">Dictionary`2</text><rect fill="#FFFFFF" height="15.9688" style="stroke:#181818;stroke-width:1.0;stroke-dasharray:2.0,2.0;" width="31" x="729.5" y="136.5"/><text fill="#000000" font-family="sans-serif" font-size="12" font-style="italic" lengthAdjust="spacing" textLength="29" x="730.5" y="148.6387">T1,T2</text><line style="stroke:#181818;stroke-width:0.5;" x1="612.5" x2="756.5" y1="171.5" y2="171.5"/><line style="stroke:#181818;stroke-width:0.5;" x1="612.5" x2="756.5" y1="179.5" y2="179.5"/></g><!--class ObjectGenerator--><g id="elem_ObjectGenerator"><rect fill="#F1F1F1" height="48" id="ObjectGenerator" rx="2.5" ry="2.5" style="stroke:#181818;stroke-width:0.5;" width="139" x="222" y="7"/><ellipse cx="237" cy="23" fill="#ADD1B2" rx="11" ry="11" style="stroke:#181818;stroke-width:1.0;"/><path d="M236.9375,18.8281 Q236.1875,18.8281 235.625,19.125 Q235.0625,19.4063 234.6719,19.9375 Q234.2813,20.4688 234.0781,21.25 Q233.8906,22.0156 233.8906,22.9688 Q233.8906,23.9375 234.0625,24.7031 Q234.25,25.4531 234.6094,25.9688 Q234.9844,26.4844 235.5625,26.7656 Q236.1406,27.0313 236.9375,27.0313 Q237.6719,27.0313 238.4063,26.8594 Q239.1563,26.6875 240.0313,26.3906 L240.0313,28.5469 Q239.625,28.7031 239.2344,28.8281 Q238.8438,28.9375 238.4375,29.0156 Q238.0313,29.0938 237.6094,29.125 Q237.1875,29.1719 236.6875,29.1719 Q235.2813,29.1719 234.25,28.7188 Q233.2344,28.2656 232.5625,27.4531 Q231.8906,26.6406 231.5625,25.5 Q231.2344,24.3438 231.2344,22.9531 Q231.2344,21.5781 231.6094,20.4219 Q231.9844,19.2656 232.7031,18.4375 Q233.4219,17.6094 234.4844,17.1563 Q235.5469,16.6875 236.9375,16.6875 Q237.8438,16.6875 238.75,16.9219 Q239.6563,17.1406 240.4844,17.5469 L239.6563,19.6406 Q238.9688,19.3125 238.2813,19.0781 Q237.5938,18.8281 236.9375,18.8281 Z " fill="#000000"/><text fill="#000000" font-family="sans-serif" font-size="14" lengthAdjust="spacing" textLength="107" x="251" y="27.8467">ObjectGenerator</text><line style="stroke:#181818;stroke-width:0.5;" x1="223" x2="360" y1="39" y2="39"/><line style="stroke:#181818;stroke-width:0.5;" x1="223" x2="360" y1="47" y2="47"/></g><!--class Monster--><g id="elem_Monster"><rect fill="#F1F1F1" height="48" id="Monster" rx="2.5" ry="2.5" style="stroke:#181818;stroke-width:0.5;" width="85" x="249" y="272"/><ellipse cx="264" cy="288" fill="#ADD1B2" rx="11" ry="11" style="stroke:#181818;stroke-width:1.0;"/><path d="M263.9375,283.8281 Q263.1875,283.8281 262.625,284.125 Q262.0625,284.4063 261.6719,284.9375 Q261.2813,285.4688 261.0781,286.25 Q260.8906,287.0156 260.8906,287.9688 Q260.8906,288.9375 261.0625,289.7031 Q261.25,290.4531 261.6094,290.9688 Q261.9844,291.4844 262.5625,291.7656 Q263.1406,292.0313 263.9375,292.0313 Q264.6719,292.0313 265.4063,291.8594 Q266.1563,291.6875 267.0313,291.3906 L267.0313,293.5469 Q266.625,293.7031 266.2344,293.8281 Q265.8438,293.9375 265.4375,294.0156 Q265.0313,294.0938 264.6094,294.125 Q264.1875,294.1719 263.6875,294.1719 Q262.2813,294.1719 261.25,293.7188 Q260.2344,293.2656 259.5625,292.4531 Q258.8906,291.6406 258.5625,290.5 Q258.2344,289.3438 258.2344,287.9531 Q258.2344,286.5781 258.6094,285.4219 Q258.9844,284.2656 259.7031,283.4375 Q260.4219,282.6094 261.4844,282.1563 Q262.5469,281.6875 263.9375,281.6875 Q264.8438,281.6875 265.75,281.9219 Q266.6563,282.1406 267.4844,282.5469 L266.6563,284.6406 Q265.9688,284.3125 265.2813,284.0781 Q264.5938,283.8281 263.9375,283.8281 Z " fill="#000000"/><text fill="#000000" font-family="sans-serif" font-size="14" lengthAdjust="spacing" textLength="53" x="278" y="292.8467">Monster</text><line style="stroke:#181818;stroke-width:0.5;" x1="250" x2="333" y1="304" y2="304"/><line style="stroke:#181818;stroke-width:0.5;" x1="250" x2="333" y1="312" y2="312"/></g><!--reverse link ObjectGenerator to MonsterGenerator--><g id="link_ObjectGenerator_MonsterGenerator"><path codeLine="8" d="M291.5,75.37 C291.5,88.03 291.5,101.93 291.5,114.84 " fill="none" id="ObjectGenerator-backto-MonsterGenerator" style="stroke:#181818;stroke-width:1.0;"/><polygon fill="none" points="284.5,75.03,291.5,55.03,298.5,75.03,284.5,75.03" style="stroke:#181818;stroke-width:1.0;"/></g><!--link MonsterGenerator to Monster--><g id="link_MonsterGenerator_Monster"><path codeLine="9" d="M291.5,212.35 C291.5,230.52 291.5,250.63 291.5,266.47 " fill="none" id="MonsterGenerator-to-Monster" style="stroke:#181818;stroke-width:1.0;"/><polygon fill="#181818" points="291.5,271.66,295.5,262.66,291.5,266.66,287.5,262.66,291.5,271.66" style="stroke:#181818;stroke-width:1.0;"/><text fill="#000000" font-family="sans-serif" font-size="13" lengthAdjust="spacing" textLength="50" x="235.4063" y="260.9821">monster</text></g><!--link MonsterGenerator to Dictionary`2--><g id="link_MonsterGenerator_Dictionary`2"><path codeLine="10" d="M589.16,190.24 C592.28,189.64 595.4,189.02 598.52,188.37 " fill="none" id="MonsterGenerator-Dictionary`2" style="stroke:#181818;stroke-width:1.0;"/><polygon fill="none" points="576.27,192.53,582.8797,195.413,588.0831,190.4205,581.4734,187.5375,576.27,192.53" style="stroke:#181818;stroke-width:1.0;"/><polygon fill="#181818" points="611.36,185.54,601.712,183.5612,606.4761,186.6113,603.426,191.3754,611.36,185.54" style="stroke:#181818;stroke-width:1.0;"/><line style="stroke:#181818;stroke-width:1.0;" x1="606.4761" x2="598.665" y1="186.6113" y2="188.335"/><text fill="#000000" font-family="sans-serif" font-size="13" lengthAdjust="spacing" textLength="109" x="568.9089" y="207.414">expcostlist&lt;int,int&gt;</text></g><!--link MonsterGenerator to Dictionary`2--><g id="link_MonsterGenerator_Dictionary`2"><path codeLine="11" d="M589.16,136.76 C592.28,137.36 595.4,137.98 598.52,138.63 " fill="none" id="MonsterGenerator-Dictionary`2-1" style="stroke:#181818;stroke-width:1.0;"/><polygon fill="none" points="576.27,134.47,581.4734,139.4625,588.0831,136.5795,582.8797,131.587,576.27,134.47" style="stroke:#181818;stroke-width:1.0;"/><polygon fill="#181818" points="611.36,141.46,603.426,135.6246,606.4761,140.3887,601.712,143.4388,611.36,141.46" style="stroke:#181818;stroke-width:1.0;"/><line style="stroke:#181818;stroke-width:1.0;" x1="606.4761" x2="598.665" y1="140.3887" y2="138.665"/><text fill="#000000" font-family="sans-serif" font-size="13" lengthAdjust="spacing" textLength="206" x="621.6244" y="128.3953">monsters_by_lvl&lt;int,List&lt;Monster&gt;&gt;</text></g><!--SRC=[TOyn2y8m48Nt_8gGIT4ETYobWmegA2xkDOc7HDAa95UfgF_TL2kYmK2MU-_UVKzgxZtTMECHt08CE8xMqIkXuOqYOJ3iXSR3igcuyIipvOWQQ4Q5jRgNfutIXvcj1CT1MulcS0JCbC4nhRd3IwdX3FerAAEeh0iQXi2ryfZt20Mv4_c4PNCbKLd3tMMVidmt6U_I8X3VoLQSGEAdHNvBagW2YSecIK5PzPgojp-ssSu6RIsjHzsHTVZX5-m7wSzgVy6N8lG_w-VwLyCew040]--></g></svg>