<?xml version="1.0" encoding="us-ascii" standalone="no"?><svg xmlns="http://www.w3.org/2000/svg" xmlns:xlink="http://www.w3.org/1999/xlink" contentStyleType="text/css" height="392px" preserveAspectRatio="none" style="width:642px;height:392px;background:#FFFFFF;" version="1.1" viewBox="0 0 642 392" width="642px" zoomAndPan="magnify"><defs/><g><!--class NameGenerator--><g id="elem_NameGenerator"><rect codeLine="1" fill="#F1F1F1" height="162.0781" id="NameGenerator" rx="2.5" ry="2.5" style="stroke:#181818;stroke-width:0.5;" width="180" x="7" y="115"/><ellipse cx="41.8" cy="131" fill="#ADD1B2" rx="11" ry="11" style="stroke:#181818;stroke-width:1.0;"/><path d="M41.7375,126.8281 Q40.9875,126.8281 40.425,127.125 Q39.8625,127.4063 39.4719,127.9375 Q39.0813,128.4688 38.8781,129.25 Q38.6906,130.0156 38.6906,130.9688 Q38.6906,131.9375 38.8625,132.7031 Q39.05,133.4531 39.4094,133.9688 Q39.7844,134.4844 40.3625,134.7656 Q40.9406,135.0313 41.7375,135.0313 Q42.4719,135.0313 43.2063,134.8594 Q43.9563,134.6875 44.8313,134.3906 L44.8313,136.5469 Q44.425,136.7031 44.0344,136.8281 Q43.6438,136.9375 43.2375,137.0156 Q42.8313,137.0938 42.4094,137.125 Q41.9875,137.1719 41.4875,137.1719 Q40.0813,137.1719 39.05,136.7188 Q38.0344,136.2656 37.3625,135.4531 Q36.6906,134.6406 36.3625,133.5 Q36.0344,132.3438 36.0344,130.9531 Q36.0344,129.5781 36.4094,128.4219 Q36.7844,127.2656 37.5031,126.4375 Q38.2219,125.6094 39.2844,125.1563 Q40.3469,124.6875 41.7375,124.6875 Q42.6438,124.6875 43.55,124.9219 Q44.4563,125.1406 45.2844,125.5469 L44.4563,127.6406 Q43.7688,127.3125 43.0813,127.0781 Q42.3938,126.8281 41.7375,126.8281 Z " fill="#000000"/><text fill="#000000" font-family="sans-serif" font-size="14" lengthAdjust="spacing" textLength="104" x="60.2" y="135.8467">NameGenerator</text><line style="stroke:#181818;stroke-width:0.5;" x1="8" x2="186" y1="147" y2="147"/><text fill="#000000" font-family="sans-serif" font-size="14" lengthAdjust="spacing" textLength="158" x="13" y="163.9951">nameRowsCount : int = 0</text><text fill="#000000" font-family="sans-serif" font-size="14" lengthAdjust="spacing" textLength="154" x="13" y="180.292">nounRowsCount : int = 0</text><text fill="#000000" font-family="sans-serif" font-size="14" lengthAdjust="spacing" textLength="141" x="13" y="196.5889">adjRowsCount : int = 0</text><text fill="#000000" font-family="sans-serif" font-size="14" lengthAdjust="spacing" textLength="113" x="13" y="212.8857">result : string = ""</text><text fill="#000000" font-family="sans-serif" font-size="14" lengthAdjust="spacing" textLength="148" x="13" y="229.1826">temp_word : string = ""</text><line style="stroke:#181818;stroke-width:0.5;" x1="8" x2="186" y1="236.4844" y2="236.4844"/><ellipse cx="18" cy="250.1328" fill="#84BE84" rx="3" ry="3" style="stroke:#038048;stroke-width:1.0;"/><text fill="#000000" font-family="sans-serif" font-size="14" lengthAdjust="spacing" textLength="112" x="27" y="253.4795">NameGenerator()</text><ellipse cx="18" cy="266.4297" fill="#84BE84" rx="3" ry="3" style="stroke:#038048;stroke-width:1.0;"/><text fill="#000000" font-family="sans-serif" font-size="14" lengthAdjust="spacing" textLength="154" x="27" y="269.7764">GenerateName() : string</text></g><!--class List`1--><g id="elem_List`1"><rect codeLine="10" fill="#F1F1F1" height="48" id="List`1" rx="2.5" ry="2.5" style="stroke:#181818;stroke-width:0.5;" width="80" x="222" y="172"/><ellipse cx="237" cy="188" fill="#ADD1B2" rx="11" ry="11" style="stroke:#181818;stroke-width:1.0;"/><path d="M236.9375,183.8281 Q236.1875,183.8281 235.625,184.125 Q235.0625,184.4063 234.6719,184.9375 Q234.2813,185.4688 234.0781,186.25 Q233.8906,187.0156 233.8906,187.9688 Q233.8906,188.9375 234.0625,189.7031 Q234.25,190.4531 234.6094,190.9688 Q234.9844,191.4844 235.5625,191.7656 Q236.1406,192.0313 236.9375,192.0313 Q237.6719,192.0313 238.4063,191.8594 Q239.1563,191.6875 240.0313,191.3906 L240.0313,193.5469 Q239.625,193.7031 239.2344,193.8281 Q238.8438,193.9375 238.4375,194.0156 Q238.0313,194.0938 237.6094,194.125 Q237.1875,194.1719 236.6875,194.1719 Q235.2813,194.1719 234.25,193.7188 Q233.2344,193.2656 232.5625,192.4531 Q231.8906,191.6406 231.5625,190.5 Q231.2344,189.3438 231.2344,187.9531 Q231.2344,186.5781 231.6094,185.4219 Q231.9844,184.2656 232.7031,183.4375 Q233.4219,182.6094 234.4844,182.1563 Q235.5469,181.6875 236.9375,181.6875 Q237.8438,181.6875 238.75,181.9219 Q239.6563,182.1406 240.4844,182.5469 L239.6563,184.6406 Q238.9688,184.3125 238.2813,184.0781 Q237.5938,183.8281 236.9375,183.8281 Z " fill="#000000"/><text fill="#000000" font-family="sans-serif" font-size="14" lengthAdjust="spacing" textLength="38" x="251" y="192.8467">List`1</text><rect fill="#FFFFFF" height="15.9688" style="stroke:#181818;stroke-width:1.0;stroke-dasharray:2.0,2.0;" width="8" x="297" y="169"/><text fill="#000000" font-family="sans-serif" font-size="12" font-style="italic" lengthAdjust="spacing" textLength="6" x="298" y="181.1387">T</text><line style="stroke:#181818;stroke-width:0.5;" x1="223" x2="301" y1="204" y2="204"/><line style="stroke:#181818;stroke-width:0.5;" x1="223" x2="301" y1="212" y2="212"/></g><!--class ObjectGenerator--><g id="elem_ObjectGenerator"><rect fill="#F1F1F1" height="48" id="ObjectGenerator" rx="2.5" ry="2.5" style="stroke:#181818;stroke-width:0.5;" width="139" x="27.5" y="7"/><ellipse cx="42.5" cy="23" fill="#ADD1B2" rx="11" ry="11" style="stroke:#181818;stroke-width:1.0;"/><path d="M42.4375,18.8281 Q41.6875,18.8281 41.125,19.125 Q40.5625,19.4063 40.1719,19.9375 Q39.7813,20.4688 39.5781,21.25 Q39.3906,22.0156 39.3906,22.9688 Q39.3906,23.9375 39.5625,24.7031 Q39.75,25.4531 40.1094,25.9688 Q40.4844,26.4844 41.0625,26.7656 Q41.6406,27.0313 42.4375,27.0313 Q43.1719,27.0313 43.9063,26.8594 Q44.6563,26.6875 45.5313,26.3906 L45.5313,28.5469 Q45.125,28.7031 44.7344,28.8281 Q44.3438,28.9375 43.9375,29.0156 Q43.5313,29.0938 43.1094,29.125 Q42.6875,29.1719 42.1875,29.1719 Q40.7813,29.1719 39.75,28.7188 Q38.7344,28.2656 38.0625,27.4531 Q37.3906,26.6406 37.0625,25.5 Q36.7344,24.3438 36.7344,22.9531 Q36.7344,21.5781 37.1094,20.4219 Q37.4844,19.2656 38.2031,18.4375 Q38.9219,17.6094 39.9844,17.1563 Q41.0469,16.6875 42.4375,16.6875 Q43.3438,16.6875 44.25,16.9219 Q45.1563,17.1406 45.9844,17.5469 L45.1563,19.6406 Q44.4688,19.3125 43.7813,19.0781 Q43.0938,18.8281 42.4375,18.8281 Z " fill="#000000"/><text fill="#000000" font-family="sans-serif" font-size="14" lengthAdjust="spacing" textLength="107" x="56.5" y="27.8467">ObjectGenerator</text><line style="stroke:#181818;stroke-width:0.5;" x1="28.5" x2="165.5" y1="39" y2="39"/><line style="stroke:#181818;stroke-width:0.5;" x1="28.5" x2="165.5" y1="47" y2="47"/></g><!--class Name--><g id="elem_Name"><rect fill="#F1F1F1" height="48" id="Name" rx="2.5" ry="2.5" style="stroke:#181818;stroke-width:0.5;" width="70" x="565" y="172"/><ellipse cx="580" cy="188" fill="#ADD1B2" rx="11" ry="11" style="stroke:#181818;stroke-width:1.0;"/><path d="M579.9375,183.8281 Q579.1875,183.8281 578.625,184.125 Q578.0625,184.4063 577.6719,184.9375 Q577.2813,185.4688 577.0781,186.25 Q576.8906,187.0156 576.8906,187.9688 Q576.8906,188.9375 577.0625,189.7031 Q577.25,190.4531 577.6094,190.9688 Q577.9844,191.4844 578.5625,191.7656 Q579.1406,192.0313 579.9375,192.0313 Q580.6719,192.0313 581.4063,191.8594 Q582.1563,191.6875 583.0313,191.3906 L583.0313,193.5469 Q582.625,193.7031 582.2344,193.8281 Q581.8438,193.9375 581.4375,194.0156 Q581.0313,194.0938 580.6094,194.125 Q580.1875,194.1719 579.6875,194.1719 Q578.2813,194.1719 577.25,193.7188 Q576.2344,193.2656 575.5625,192.4531 Q574.8906,191.6406 574.5625,190.5 Q574.2344,189.3438 574.2344,187.9531 Q574.2344,186.5781 574.6094,185.4219 Q574.9844,184.2656 575.7031,183.4375 Q576.4219,182.6094 577.4844,182.1563 Q578.5469,181.6875 579.9375,181.6875 Q580.8438,181.6875 581.75,181.9219 Q582.6563,182.1406 583.4844,182.5469 L582.6563,184.6406 Q581.9688,184.3125 581.2813,184.0781 Q580.5938,183.8281 579.9375,183.8281 Z " fill="#000000"/><text fill="#000000" font-family="sans-serif" font-size="14" lengthAdjust="spacing" textLength="38" x="594" y="192.8467">Name</text><line style="stroke:#181818;stroke-width:0.5;" x1="566" x2="634" y1="204" y2="204"/><line style="stroke:#181818;stroke-width:0.5;" x1="566" x2="634" y1="212" y2="212"/></g><!--class Noun--><g id="elem_Noun"><rect fill="#F1F1F1" height="48" id="Noun" rx="2.5" ry="2.5" style="stroke:#181818;stroke-width:0.5;" width="66" x="464" y="172"/><ellipse cx="479" cy="188" fill="#ADD1B2" rx="11" ry="11" style="stroke:#181818;stroke-width:1.0;"/><path d="M478.9375,183.8281 Q478.1875,183.8281 477.625,184.125 Q477.0625,184.4063 476.6719,184.9375 Q476.2813,185.4688 476.0781,186.25 Q475.8906,187.0156 475.8906,187.9688 Q475.8906,188.9375 476.0625,189.7031 Q476.25,190.4531 476.6094,190.9688 Q476.9844,191.4844 477.5625,191.7656 Q478.1406,192.0313 478.9375,192.0313 Q479.6719,192.0313 480.4063,191.8594 Q481.1563,191.6875 482.0313,191.3906 L482.0313,193.5469 Q481.625,193.7031 481.2344,193.8281 Q480.8438,193.9375 480.4375,194.0156 Q480.0313,194.0938 479.6094,194.125 Q479.1875,194.1719 478.6875,194.1719 Q477.2813,194.1719 476.25,193.7188 Q475.2344,193.2656 474.5625,192.4531 Q473.8906,191.6406 473.5625,190.5 Q473.2344,189.3438 473.2344,187.9531 Q473.2344,186.5781 473.6094,185.4219 Q473.9844,184.2656 474.7031,183.4375 Q475.4219,182.6094 476.4844,182.1563 Q477.5469,181.6875 478.9375,181.6875 Q479.8438,181.6875 480.75,181.9219 Q481.6563,182.1406 482.4844,182.5469 L481.6563,184.6406 Q480.9688,184.3125 480.2813,184.0781 Q479.5938,183.8281 478.9375,183.8281 Z " fill="#000000"/><text fill="#000000" font-family="sans-serif" font-size="14" lengthAdjust="spacing" textLength="34" x="493" y="192.8467">Noun</text><line style="stroke:#181818;stroke-width:0.5;" x1="465" x2="529" y1="204" y2="204"/><line style="stroke:#181818;stroke-width:0.5;" x1="465" x2="529" y1="212" y2="212"/></g><!--class Adjective--><g id="elem_Adjective"><rect fill="#F1F1F1" height="48" id="Adjective" rx="2.5" ry="2.5" style="stroke:#181818;stroke-width:0.5;" width="91" x="337.5" y="172"/><ellipse cx="352.5" cy="188" fill="#ADD1B2" rx="11" ry="11" style="stroke:#181818;stroke-width:1.0;"/><path d="M352.4375,183.8281 Q351.6875,183.8281 351.125,184.125 Q350.5625,184.4063 350.1719,184.9375 Q349.7813,185.4688 349.5781,186.25 Q349.3906,187.0156 349.3906,187.9688 Q349.3906,188.9375 349.5625,189.7031 Q349.75,190.4531 350.1094,190.9688 Q350.4844,191.4844 351.0625,191.7656 Q351.6406,192.0313 352.4375,192.0313 Q353.1719,192.0313 353.9063,191.8594 Q354.6563,191.6875 355.5313,191.3906 L355.5313,193.5469 Q355.125,193.7031 354.7344,193.8281 Q354.3438,193.9375 353.9375,194.0156 Q353.5313,194.0938 353.1094,194.125 Q352.6875,194.1719 352.1875,194.1719 Q350.7813,194.1719 349.75,193.7188 Q348.7344,193.2656 348.0625,192.4531 Q347.3906,191.6406 347.0625,190.5 Q346.7344,189.3438 346.7344,187.9531 Q346.7344,186.5781 347.1094,185.4219 Q347.4844,184.2656 348.2031,183.4375 Q348.9219,182.6094 349.9844,182.1563 Q351.0469,181.6875 352.4375,181.6875 Q353.3438,181.6875 354.25,181.9219 Q355.1563,182.1406 355.9844,182.5469 L355.1563,184.6406 Q354.4688,184.3125 353.7813,184.0781 Q353.0938,183.8281 352.4375,183.8281 Z " fill="#000000"/><text fill="#000000" font-family="sans-serif" font-size="14" lengthAdjust="spacing" textLength="59" x="366.5" y="192.8467">Adjective</text><line style="stroke:#181818;stroke-width:0.5;" x1="338.5" x2="427.5" y1="204" y2="204"/><line style="stroke:#181818;stroke-width:0.5;" x1="338.5" x2="427.5" y1="212" y2="212"/></g><!--class Gender--><g id="elem_Gender"><rect fill="#F1F1F1" height="48" id="Gender" rx="2.5" ry="2.5" style="stroke:#181818;stroke-width:0.5;" width="80" x="57" y="337"/><ellipse cx="72" cy="353" fill="#ADD1B2" rx="11" ry="11" style="stroke:#181818;stroke-width:1.0;"/><path d="M71.9375,348.8281 Q71.1875,348.8281 70.625,349.125 Q70.0625,349.4063 69.6719,349.9375 Q69.2813,350.4688 69.0781,351.25 Q68.8906,352.0156 68.8906,352.9688 Q68.8906,353.9375 69.0625,354.7031 Q69.25,355.4531 69.6094,355.9688 Q69.9844,356.4844 70.5625,356.7656 Q71.1406,357.0313 71.9375,357.0313 Q72.6719,357.0313 73.4063,356.8594 Q74.1563,356.6875 75.0313,356.3906 L75.0313,358.5469 Q74.625,358.7031 74.2344,358.8281 Q73.8438,358.9375 73.4375,359.0156 Q73.0313,359.0938 72.6094,359.125 Q72.1875,359.1719 71.6875,359.1719 Q70.2813,359.1719 69.25,358.7188 Q68.2344,358.2656 67.5625,357.4531 Q66.8906,356.6406 66.5625,355.5 Q66.2344,354.3438 66.2344,352.9531 Q66.2344,351.5781 66.6094,350.4219 Q66.9844,349.2656 67.7031,348.4375 Q68.4219,347.6094 69.4844,347.1563 Q70.5469,346.6875 71.9375,346.6875 Q72.8438,346.6875 73.75,346.9219 Q74.6563,347.1406 75.4844,347.5469 L74.6563,349.6406 Q73.9688,349.3125 73.2813,349.0781 Q72.5938,348.8281 71.9375,348.8281 Z " fill="#000000"/><text fill="#000000" font-family="sans-serif" font-size="14" lengthAdjust="spacing" textLength="48" x="86" y="357.8467">Gender</text><line style="stroke:#181818;stroke-width:0.5;" x1="58" x2="136" y1="369" y2="369"/><line style="stroke:#181818;stroke-width:0.5;" x1="58" x2="136" y1="377" y2="377"/></g><!--reverse link ObjectGenerator to NameGenerator--><g id="link_ObjectGenerator_NameGenerator"><path codeLine="12" d="M97,75.06 C97,87.28 97,101 97,114.68 " fill="none" id="ObjectGenerator-backto-NameGenerator" style="stroke:#181818;stroke-width:1.0;"/><polygon fill="none" points="90,75.01,97,55.01,104,75.01,90,75.01" style="stroke:#181818;stroke-width:1.0;"/></g><!--link NameGenerator to Name--><g id="link_NameGenerator_Name"><path codeLine="13" d="M182.54,106.79 C195.07,97.95 208.51,90.3 222.5,85 C286.51,60.76 470.62,51.84 530.5,85 C558.92,100.73 577.26,133.48 587.93,159.34 " fill="none" id="NameGenerator-Name" style="stroke:#181818;stroke-width:1.0;"/><polygon fill="none" points="171.76,114.84,178.9606,114.4511,181.3711,107.6548,174.1705,108.0437,171.76,114.84" style="stroke:#181818;stroke-width:1.0;"/><polygon fill="#181818" points="592.68,171.75,593.1919,161.9145,590.8895,167.0816,585.7224,164.7792,592.68,171.75" style="stroke:#181818;stroke-width:1.0;"/><line style="stroke:#181818;stroke-width:1.0;" x1="590.8895" x2="588.03" y1="167.0816" y2="159.61"/><text fill="#000000" font-family="sans-serif" font-size="13" lengthAdjust="spacing" textLength="75" x="506.9766" y="160.9093">found_name</text></g><!--link NameGenerator to Noun--><g id="link_NameGenerator_Noun"><path codeLine="14" d="M182.54,106.79 C195.07,97.95 208.51,90.3 222.5,85 C308.12,52.57 348.55,40.39 428.5,85 C456.75,100.76 474.8,133.5 485.24,159.36 " fill="none" id="NameGenerator-Noun" style="stroke:#181818;stroke-width:1.0;"/><polygon fill="none" points="171.76,114.84,178.9606,114.4511,181.3711,107.6548,174.1705,108.0437,171.76,114.84" style="stroke:#181818;stroke-width:1.0;"/><polygon fill="#181818" points="489.89,171.76,490.4701,161.9282,488.132,167.0793,482.981,164.7411,489.89,171.76" style="stroke:#181818;stroke-width:1.0;"/><line style="stroke:#181818;stroke-width:1.0;" x1="488.132" x2="485.33" y1="167.0793" y2="159.59"/><text fill="#000000" font-family="sans-serif" font-size="13" lengthAdjust="spacing" textLength="73" x="406.5402" y="160.9218">found_noun</text></g><!--link NameGenerator to Adjective--><g id="link_NameGenerator_Adjective"><path codeLine="15" d="M182.54,106.79 C195.07,97.95 208.51,90.3 222.5,85 C255.75,72.41 270.83,68.84 302.5,85 C333.07,100.59 354.74,133.83 367.84,159.89 " fill="none" id="NameGenerator-Adjective" style="stroke:#181818;stroke-width:1.0;"/><polygon fill="none" points="171.76,114.84,178.9606,114.4511,181.3711,107.6548,174.1705,108.0437,171.76,114.84" style="stroke:#181818;stroke-width:1.0;"/><polygon fill="#181818" points="373.42,171.63,373.176,161.7842,371.2767,167.1127,365.9482,165.2134,373.42,171.63" style="stroke:#181818;stroke-width:1.0;"/><line style="stroke:#181818;stroke-width:1.0;" x1="371.2767" x2="367.84" y1="167.1127" y2="159.89"/><text fill="#000000" font-family="sans-serif" font-size="13" lengthAdjust="spacing" textLength="92" x="297.3042" y="160.883">found_adjective</text></g><!--link NameGenerator to Gender--><g id="link_NameGenerator_Gender"><path codeLine="16" d="M97,277.07 C97,296.74 97,316.53 97,331.84 " fill="none" id="NameGenerator-to-Gender" style="stroke:#181818;stroke-width:1.0;"/><polygon fill="#181818" points="97,336.85,101,327.85,97,331.85,93,327.85,97,336.85" style="stroke:#181818;stroke-width:1.0;"/><text fill="#000000" font-family="sans-serif" font-size="13" lengthAdjust="spacing" textLength="42" x="49.6188" y="325.8236">gender</text></g><!--link NameGenerator to List`1--><g id="link_NameGenerator_List`1"><path codeLine="17" d="M200,253 C211.47,248.8 222.94,241.08 234.4,229.84 " fill="none" id="NameGenerator-List`1" style="stroke:#181818;stroke-width:1.0;"/><polygon fill="none" points="187.23,256.22,194.0249,258.6345,198.867,253.2909,192.0722,250.8765,187.23,256.22" style="stroke:#181818;stroke-width:1.0;"/><polygon fill="#181818" points="243.6,220.08,234.516,223.8855,240.1704,223.7184,240.3375,229.3728,243.6,220.08" style="stroke:#181818;stroke-width:1.0;"/><line style="stroke:#181818;stroke-width:1.0;" x1="240.1704" x2="234.69" y1="223.7184" y2="229.54"/><text fill="#000000" font-family="sans-serif" font-size="13" lengthAdjust="spacing" textLength="89" x="250.2881" y="240.2563">names&lt;Name&gt;</text></g><!--link NameGenerator to List`1--><g id="link_NameGenerator_List`1"><path codeLine="18" d="M200.27,196 C203.1,196 205.92,196 208.75,196 " fill="none" id="NameGenerator-List`1-1" style="stroke:#181818;stroke-width:1.0;"/><polygon fill="none" points="187.23,196,193.23,200,199.23,196,193.23,192,187.23,196" style="stroke:#181818;stroke-width:1.0;"/><polygon fill="#181818" points="221.99,196,212.99,192,216.99,196,212.99,200,221.99,196" style="stroke:#181818;stroke-width:1.0;"/><line style="stroke:#181818;stroke-width:1.0;" x1="216.99" x2="208.99" y1="196" y2="196"/><text fill="#000000" font-family="sans-serif" font-size="13" lengthAdjust="spacing" textLength="85" x="128.3652" y="238.9306">nouns&lt;Noun&gt;</text></g><!--link NameGenerator to List`1--><g id="link_NameGenerator_List`1"><path codeLine="19" d="M200,139 C211.47,143.2 222.94,150.92 234.4,162.16 " fill="none" id="NameGenerator-List`1-2" style="stroke:#181818;stroke-width:1.0;"/><polygon fill="none" points="187.23,135.78,192.0722,141.1235,198.867,138.7091,194.0249,133.3655,187.23,135.78" style="stroke:#181818;stroke-width:1.0;"/><polygon fill="#181818" points="243.6,171.92,240.3375,162.6272,240.1704,168.2816,234.516,168.1145,243.6,171.92" style="stroke:#181818;stroke-width:1.0;"/><line style="stroke:#181818;stroke-width:1.0;" x1="240.1704" x2="234.69" y1="168.2816" y2="162.46"/><text fill="#000000" font-family="sans-serif" font-size="13" lengthAdjust="spacing" textLength="123" x="195.0625" y="141.3783">adjectives&lt;Adjective&gt;</text></g><!--SRC=[XL2n2i8m5Dpp5I6JHGgwIYs8WuieYBlMzYafcaWITT3-kvUgrKgh6Lx2tRsNkvVk4slvB3dGX1IPn6d3hupZA60BVR5ZVLAE3xX47VBUWmFMnYLPtaOPigUz1wqpKks02r4IZWx7rKMRh87hrjrrWYVwHCYpdQ1gP0LBoqnYAgrRzqMqZ96eOFDDJgbxfunkOLWVpUfhq67CnHOnifNVXIZ5FpIeqA2sQx0RU91d31kzdb_gqAjtf38omcV4tJJFExAH9s9HHMqKucC8KVy8AsysghnzjDm1]--></g></svg>