<?xml version="1.0" encoding="us-ascii" standalone="no"?><svg xmlns="http://www.w3.org/2000/svg" xmlns:xlink="http://www.w3.org/1999/xlink" contentStyleType="text/css" height="69px" preserveAspectRatio="none" style="width:160px;height:69px;background:#FFFFFF;" version="1.1" viewBox="0 0 160 69" width="160px" zoomAndPan="magnify"><defs/><g><!--class ObjectGenerator--><g id="elem_ObjectGenerator"><rect codeLine="1" fill="#F1F1F1" height="48" id="ObjectGenerator" rx="2.5" ry="2.5" style="stroke:#181818;stroke-width:0.5;" width="139" x="7" y="7"/><ellipse cx="22" cy="23" fill="#A9DCDF" rx="11" ry="11" style="stroke:#181818;stroke-width:1.0;"/><path d="M24.9531,28 L24.125,25.1094 L19.9375,25.1094 L19.0938,28 L16.5,28 L20.4375,15.8125 L23.5938,15.8125 L27.5469,28 L24.9531,28 Z M23.5156,22.9531 L22.75,20.2969 Q22.6875,20.1406 22.5938,19.8125 Q22.5,19.4688 22.375,19.0625 Q22.2656,18.6406 22.1563,18.2344 Q22.0625,17.8125 22.0313,17.5313 Q22,17.7031 21.9375,17.9531 Q21.8906,18.2031 21.8125,18.4844 Q21.75,18.7656 21.6719,19.0469 Q21.5938,19.3281 21.5313,19.5781 Q21.4688,19.8281 21.4063,20.0156 Q21.3594,20.2031 21.3281,20.2969 L20.5625,22.9531 L23.5156,22.9531 Z " fill="#000000"/><text fill="#000000" font-family="sans-serif" font-size="14" font-style="italic" lengthAdjust="spacing" textLength="107" x="36" y="27.8467">ObjectGenerator</text><line style="stroke:#181818;stroke-width:0.5;" x1="8" x2="145" y1="39" y2="39"/><line style="stroke:#181818;stroke-width:0.5;" x1="8" x2="145" y1="47" y2="47"/></g><!--SRC=[IqmgBYbAJ2vHICv9B2vMy4_AIaqkSK_DIorABCalKgZcgWK0]--></g></svg>