<?xml version="1.0" encoding="us-ascii" standalone="no"?><svg xmlns="http://www.w3.org/2000/svg" xmlns:xlink="http://www.w3.org/1999/xlink" contentStyleType="text/css" height="251px" preserveAspectRatio="none" style="width:1427px;height:251px;background:#FFFFFF;" version="1.1" viewBox="0 0 1427 251" width="1427px" zoomAndPan="magnify"><defs/><g><!--class ThreatGenerator--><g id="elem_ThreatGenerator"><rect codeLine="1" fill="#F1F1F1" height="129.4844" id="ThreatGenerator" rx="2.5" ry="2.5" style="stroke:#181818;stroke-width:0.5;" width="1213" x="7" y="115"/><ellipse cx="555.75" cy="131" fill="#ADD1B2" rx="11" ry="11" style="stroke:#181818;stroke-width:1.0;"/><path d="M555.6875,126.8281 Q554.9375,126.8281 554.375,127.125 Q553.8125,127.4063 553.4219,127.9375 Q553.0313,128.4688 552.8281,129.25 Q552.6406,130.0156 552.6406,130.9688 Q552.6406,131.9375 552.8125,132.7031 Q553,133.4531 553.3594,133.9688 Q553.7344,134.4844 554.3125,134.7656 Q554.8906,135.0313 555.6875,135.0313 Q556.4219,135.0313 557.1563,134.8594 Q557.9063,134.6875 558.7813,134.3906 L558.7813,136.5469 Q558.375,136.7031 557.9844,136.8281 Q557.5938,136.9375 557.1875,137.0156 Q556.7813,137.0938 556.3594,137.125 Q555.9375,137.1719 555.4375,137.1719 Q554.0313,137.1719 553,136.7188 Q551.9844,136.2656 551.3125,135.4531 Q550.6406,134.6406 550.3125,133.5 Q549.9844,132.3438 549.9844,130.9531 Q549.9844,129.5781 550.3594,128.4219 Q550.7344,127.2656 551.4531,126.4375 Q552.1719,125.6094 553.2344,125.1563 Q554.2969,124.6875 555.6875,124.6875 Q556.5938,124.6875 557.5,124.9219 Q558.4063,125.1406 559.2344,125.5469 L558.4063,127.6406 Q557.7188,127.3125 557.0313,127.0781 Q556.3438,126.8281 555.6875,126.8281 Z " fill="#000000"/><text fill="#000000" font-family="sans-serif" font-size="14" lengthAdjust="spacing" textLength="107" x="576.25" y="135.8467">ThreatGenerator</text><line style="stroke:#181818;stroke-width:0.5;" x1="8" x2="1219" y1="147" y2="147"/><line style="stroke:#181818;stroke-width:0.5;" x1="8" x2="1219" y1="155" y2="155"/><ellipse cx="18" cy="168.6484" fill="#84BE84" rx="3" ry="3" style="stroke:#038048;stroke-width:1.0;"/><text fill="#000000" font-family="sans-serif" font-size="14" lengthAdjust="spacing" textLength="115" x="27" y="171.9951">ThreatGenerator()</text><ellipse cx="18" cy="184.9453" fill="#84BE84" rx="3" ry="3" style="stroke:#038048;stroke-width:1.0;"/><text fill="#000000" font-family="sans-serif" font-size="14" lengthAdjust="spacing" textLength="1078" x="27" y="188.292">BuildEncounter(party_member_amount:int, party_level:int, room_amount:int, useHumansInBattle:bool, useHazards:bool) : List&lt;Tuple&lt;int, List&lt;Monster&gt;, List&lt;Hazard&gt;&gt;&gt;</text><ellipse cx="18" cy="201.2422" fill="#84BE84" rx="3" ry="3" style="stroke:#038048;stroke-width:1.0;"/><text fill="#000000" font-family="sans-serif" font-size="14" lengthAdjust="spacing" textLength="1187" x="27" y="204.5889">BuildEncounter(party_member_amount:int, party_level:int, roomsCoordinates:List&lt;object&gt;, useHumansInBattle:bool, useHazards:bool) : List&lt;Tuple&lt;object, List&lt;Monster&gt;, List&lt;Hazard&gt;&gt;&gt;</text><ellipse cx="18" cy="217.5391" fill="#84BE84" rx="3" ry="3" style="stroke:#038048;stroke-width:1.0;"/><text fill="#000000" font-family="sans-serif" font-size="14" lengthAdjust="spacing" textLength="322" x="27" y="220.8857">RandomDifficulty(random:System.Random) : string</text><ellipse cx="18" cy="233.8359" fill="#84BE84" rx="3" ry="3" style="stroke:#038048;stroke-width:1.0;"/><text fill="#000000" font-family="sans-serif" font-size="14" lengthAdjust="spacing" textLength="490" x="27" y="237.1826">BuildRoom(difficulty:string, useHumansInBattle:bool, useHazards:bool) : void</text></g><!--class Dictionary`2--><g id="elem_Dictionary`2"><rect codeLine="8" fill="#F1F1F1" height="48" id="Dictionary`2" rx="2.5" ry="2.5" style="stroke:#181818;stroke-width:0.5;" width="146" x="1255.5" y="155.5"/><ellipse cx="1270.5" cy="171.5" fill="#ADD1B2" rx="11" ry="11" style="stroke:#181818;stroke-width:1.0;"/><path d="M1270.4375,167.3281 Q1269.6875,167.3281 1269.125,167.625 Q1268.5625,167.9063 1268.1719,168.4375 Q1267.7813,168.9688 1267.5781,169.75 Q1267.3906,170.5156 1267.3906,171.4688 Q1267.3906,172.4375 1267.5625,173.2031 Q1267.75,173.9531 1268.1094,174.4688 Q1268.4844,174.9844 1269.0625,175.2656 Q1269.6406,175.5313 1270.4375,175.5313 Q1271.1719,175.5313 1271.9063,175.3594 Q1272.6563,175.1875 1273.5313,174.8906 L1273.5313,177.0469 Q1273.125,177.2031 1272.7344,177.3281 Q1272.3438,177.4375 1271.9375,177.5156 Q1271.5313,177.5938 1271.1094,177.625 Q1270.6875,177.6719 1270.1875,177.6719 Q1268.7813,177.6719 1267.75,177.2188 Q1266.7344,176.7656 1266.0625,175.9531 Q1265.3906,175.1406 1265.0625,174 Q1264.7344,172.8438 1264.7344,171.4531 Q1264.7344,170.0781 1265.1094,168.9219 Q1265.4844,167.7656 1266.2031,166.9375 Q1266.9219,166.1094 1267.9844,165.6563 Q1269.0469,165.1875 1270.4375,165.1875 Q1271.3438,165.1875 1272.25,165.4219 Q1273.1563,165.6406 1273.9844,166.0469 L1273.1563,168.1406 Q1272.4688,167.8125 1271.7813,167.5781 Q1271.0938,167.3281 1270.4375,167.3281 Z " fill="#000000"/><text fill="#000000" font-family="sans-serif" font-size="14" lengthAdjust="spacing" textLength="81" x="1284.5" y="176.3467">Dictionary`2</text><rect fill="#FFFFFF" height="15.9688" style="stroke:#181818;stroke-width:1.0;stroke-dasharray:2.0,2.0;" width="31" x="1373.5" y="152.5"/><text fill="#000000" font-family="sans-serif" font-size="12" font-style="italic" lengthAdjust="spacing" textLength="29" x="1374.5" y="164.6387">T1,T2</text><line style="stroke:#181818;stroke-width:0.5;" x1="1256.5" x2="1400.5" y1="187.5" y2="187.5"/><line style="stroke:#181818;stroke-width:0.5;" x1="1256.5" x2="1400.5" y1="195.5" y2="195.5"/></g><!--class ObjectGenerator--><g id="elem_ObjectGenerator"><rect fill="#F1F1F1" height="48" id="ObjectGenerator" rx="2.5" ry="2.5" style="stroke:#181818;stroke-width:0.5;" width="139" x="544" y="7"/><ellipse cx="559" cy="23" fill="#ADD1B2" rx="11" ry="11" style="stroke:#181818;stroke-width:1.0;"/><path d="M558.9375,18.8281 Q558.1875,18.8281 557.625,19.125 Q557.0625,19.4063 556.6719,19.9375 Q556.2813,20.4688 556.0781,21.25 Q555.8906,22.0156 555.8906,22.9688 Q555.8906,23.9375 556.0625,24.7031 Q556.25,25.4531 556.6094,25.9688 Q556.9844,26.4844 557.5625,26.7656 Q558.1406,27.0313 558.9375,27.0313 Q559.6719,27.0313 560.4063,26.8594 Q561.1563,26.6875 562.0313,26.3906 L562.0313,28.5469 Q561.625,28.7031 561.2344,28.8281 Q560.8438,28.9375 560.4375,29.0156 Q560.0313,29.0938 559.6094,29.125 Q559.1875,29.1719 558.6875,29.1719 Q557.2813,29.1719 556.25,28.7188 Q555.2344,28.2656 554.5625,27.4531 Q553.8906,26.6406 553.5625,25.5 Q553.2344,24.3438 553.2344,22.9531 Q553.2344,21.5781 553.6094,20.4219 Q553.9844,19.2656 554.7031,18.4375 Q555.4219,17.6094 556.4844,17.1563 Q557.5469,16.6875 558.9375,16.6875 Q559.8438,16.6875 560.75,16.9219 Q561.6563,17.1406 562.4844,17.5469 L561.6563,19.6406 Q560.9688,19.3125 560.2813,19.0781 Q559.5938,18.8281 558.9375,18.8281 Z " fill="#000000"/><text fill="#000000" font-family="sans-serif" font-size="14" lengthAdjust="spacing" textLength="107" x="573" y="27.8467">ObjectGenerator</text><line style="stroke:#181818;stroke-width:0.5;" x1="545" x2="682" y1="39" y2="39"/><line style="stroke:#181818;stroke-width:0.5;" x1="545" x2="682" y1="47" y2="47"/></g><!--reverse link ObjectGenerator to ThreatGenerator--><g id="link_ObjectGenerator_ThreatGenerator"><path codeLine="10" d="M613.5,75.6 C613.5,87.95 613.5,101.66 613.5,114.93 " fill="none" id="ObjectGenerator-backto-ThreatGenerator" style="stroke:#181818;stroke-width:1.0;"/><polygon fill="none" points="606.5,75.21,613.5,55.21,620.5,75.21,606.5,75.21" style="stroke:#181818;stroke-width:1.0;"/></g><!--link ThreatGenerator to Dictionary`2--><g id="link_ThreatGenerator_Dictionary`2"><path codeLine="11" d="M1233.16,201.86 C1236.28,201.24 1239.4,200.61 1242.52,199.97 " fill="none" id="ThreatGenerator-Dictionary`2" style="stroke:#181818;stroke-width:1.0;"/><polygon fill="none" points="1220.27,204.36,1226.9213,207.1458,1232.051,202.0777,1225.3997,199.2919,1220.27,204.36" style="stroke:#181818;stroke-width:1.0;"/><polygon fill="#181818" points="1255.36,197.27,1245.7281,195.2143,1250.4677,198.3023,1247.3797,203.0419,1255.36,197.27" style="stroke:#181818;stroke-width:1.0;"/><line style="stroke:#181818;stroke-width:1.0;" x1="1250.4677" x2="1242.64" y1="198.3023" y2="199.945"/><text fill="#000000" font-family="sans-serif" font-size="13" lengthAdjust="spacing" textLength="153" x="1257.25" y="223.5886">xb_by_difficulty&lt;string,int&gt;</text></g><!--link ThreatGenerator to Dictionary`2--><g id="link_ThreatGenerator_Dictionary`2"><path codeLine="12" d="M1233.16,157.14 C1236.28,157.76 1239.4,158.39 1242.52,159.03 " fill="none" id="ThreatGenerator-Dictionary`2-1" style="stroke:#181818;stroke-width:1.0;"/><polygon fill="none" points="1220.27,154.64,1225.3997,159.7081,1232.051,156.9223,1226.9213,151.8542,1220.27,154.64" style="stroke:#181818;stroke-width:1.0;"/><polygon fill="#181818" points="1255.36,161.73,1247.3797,155.9581,1250.4677,160.6977,1245.7281,163.7857,1255.36,161.73" style="stroke:#181818;stroke-width:1.0;"/><line style="stroke:#181818;stroke-width:1.0;" x1="1250.4677" x2="1242.64" y1="160.6977" y2="159.055"/><text fill="#000000" font-family="sans-serif" font-size="13" lengthAdjust="spacing" textLength="161" x="1259.5" y="144.6199">xp_by_party_size&lt;string,int&gt;</text></g><!--SRC=[hL91JiCm4Bpd5LPEgMYHw36AV2X5W0H2Aha79zc2aUsjx4r52lqxYHrH6Wa42DzsTcSyQq-bX7CiVx8Ww18CM45esMl4kdConfF9W2yQgUeBKs5Z26oo4PRQGeCkmHP2zsWg3KrPQ2ZOWWg0HTH74us3gqOBuwxDGX0fI4j45N2n4xPs7fYmbDr8HrdUR1HadkhhMpIkiy27Cd0uv_zXr9qZsbeQGU1IBu_bCrJ4_sexq7_cV2LCZNefrsjPDOhQn7eWlMyxbZuDxLxVaPNcyVE-gyvxKdymqp3nAzDRb7MqZogVZdWfAv9eX6qVvd6MdqtpEUyoie_k_4A7t6HlizauDD4uN3ZZB7ufYx8j3YQpmMJt-3mUtVY5mgPN21_dv0w-KtW7]--></g></svg>