<?xml version="1.0" encoding="us-ascii" standalone="no"?><svg xmlns="http://www.w3.org/2000/svg" xmlns:xlink="http://www.w3.org/1999/xlink" contentStyleType="text/css" height="219px" preserveAspectRatio="none" style="width:564px;height:219px;background:#FFFFFF;" version="1.1" viewBox="0 0 564 219" width="564px" zoomAndPan="magnify"><defs/><g><!--class Room--><g id="elem_Room"><rect codeLine="1" fill="#F1F1F1" height="96.8906" id="Room" rx="2.5" ry="2.5" style="stroke:#181818;stroke-width:0.5;" width="260" x="7" y="7"/><ellipse cx="114.25" cy="23" fill="#ADD1B2" rx="11" ry="11" style="stroke:#181818;stroke-width:1.0;"/><path d="M114.1875,18.8281 Q113.4375,18.8281 112.875,19.125 Q112.3125,19.4063 111.9219,19.9375 Q111.5313,20.4688 111.3281,21.25 Q111.1406,22.0156 111.1406,22.9688 Q111.1406,23.9375 111.3125,24.7031 Q111.5,25.4531 111.8594,25.9688 Q112.2344,26.4844 112.8125,26.7656 Q113.3906,27.0313 114.1875,27.0313 Q114.9219,27.0313 115.6563,26.8594 Q116.4063,26.6875 117.2813,26.3906 L117.2813,28.5469 Q116.875,28.7031 116.4844,28.8281 Q116.0938,28.9375 115.6875,29.0156 Q115.2813,29.0938 114.8594,29.125 Q114.4375,29.1719 113.9375,29.1719 Q112.5313,29.1719 111.5,28.7188 Q110.4844,28.2656 109.8125,27.4531 Q109.1406,26.6406 108.8125,25.5 Q108.4844,24.3438 108.4844,22.9531 Q108.4844,21.5781 108.8594,20.4219 Q109.2344,19.2656 109.9531,18.4375 Q110.6719,17.6094 111.7344,17.1563 Q112.7969,16.6875 114.1875,16.6875 Q115.0938,16.6875 116,16.9219 Q116.9063,17.1406 117.7344,17.5469 L116.9063,19.6406 Q116.2188,19.3125 115.5313,19.0781 Q114.8438,18.8281 114.1875,18.8281 Z " fill="#000000"/><text fill="#000000" font-family="sans-serif" font-size="14" lengthAdjust="spacing" textLength="37" x="134.75" y="27.8467">Room</text><line style="stroke:#181818;stroke-width:0.5;" x1="8" x2="266" y1="39" y2="39"/><line style="stroke:#181818;stroke-width:0.5;" x1="8" x2="266" y1="47" y2="47"/><ellipse cx="18" cy="60.6484" fill="#84BE84" rx="3" ry="3" style="stroke:#038048;stroke-width:1.0;"/><text fill="#000000" font-family="sans-serif" font-size="14" lengthAdjust="spacing" textLength="234" x="27" y="63.9951">Room(position:Vector2, size:Vector2)</text><ellipse cx="18" cy="76.9453" fill="#84BE84" rx="3" ry="3" style="stroke:#038048;stroke-width:1.0;"/><text fill="#000000" font-family="sans-serif" font-size="14" lengthAdjust="spacing" textLength="135" x="27" y="80.292">GetCenter() : Vector2</text><ellipse cx="18" cy="93.2422" fill="#84BE84" rx="3" ry="3" style="stroke:#038048;stroke-width:1.0;"/><text fill="#000000" font-family="sans-serif" font-size="14" lengthAdjust="spacing" textLength="187" x="27" y="96.5889">Intersects(other:Room) : bool</text></g><!--class Corridor--><g id="elem_Corridor"><rect codeLine="6" fill="#F1F1F1" height="64.2969" id="Corridor" rx="2.5" ry="2.5" style="stroke:#181818;stroke-width:0.5;" width="255" x="302.5" y="23.5"/><ellipse cx="398.75" cy="39.5" fill="#ADD1B2" rx="11" ry="11" style="stroke:#181818;stroke-width:1.0;"/><path d="M398.6875,35.3281 Q397.9375,35.3281 397.375,35.625 Q396.8125,35.9063 396.4219,36.4375 Q396.0313,36.9688 395.8281,37.75 Q395.6406,38.5156 395.6406,39.4688 Q395.6406,40.4375 395.8125,41.2031 Q396,41.9531 396.3594,42.4688 Q396.7344,42.9844 397.3125,43.2656 Q397.8906,43.5313 398.6875,43.5313 Q399.4219,43.5313 400.1563,43.3594 Q400.9063,43.1875 401.7813,42.8906 L401.7813,45.0469 Q401.375,45.2031 400.9844,45.3281 Q400.5938,45.4375 400.1875,45.5156 Q399.7813,45.5938 399.3594,45.625 Q398.9375,45.6719 398.4375,45.6719 Q397.0313,45.6719 396,45.2188 Q394.9844,44.7656 394.3125,43.9531 Q393.6406,43.1406 393.3125,42 Q392.9844,40.8438 392.9844,39.4531 Q392.9844,38.0781 393.3594,36.9219 Q393.7344,35.7656 394.4531,34.9375 Q395.1719,34.1094 396.2344,33.6563 Q397.2969,33.1875 398.6875,33.1875 Q399.5938,33.1875 400.5,33.4219 Q401.4063,33.6406 402.2344,34.0469 L401.4063,36.1406 Q400.7188,35.8125 400.0313,35.5781 Q399.3438,35.3281 398.6875,35.3281 Z " fill="#000000"/><text fill="#000000" font-family="sans-serif" font-size="14" lengthAdjust="spacing" textLength="54" x="419.25" y="44.3467">Corridor</text><line style="stroke:#181818;stroke-width:0.5;" x1="303.5" x2="556.5" y1="55.5" y2="55.5"/><line style="stroke:#181818;stroke-width:0.5;" x1="303.5" x2="556.5" y1="63.5" y2="63.5"/><ellipse cx="313.5" cy="77.1484" fill="#84BE84" rx="3" ry="3" style="stroke:#038048;stroke-width:1.0;"/><text fill="#000000" font-family="sans-serif" font-size="14" lengthAdjust="spacing" textLength="229" x="322.5" y="80.4951">Corridor(start:Vector2, end:Vector2)</text></g><!--class Vector2--><g id="elem_Vector2"><rect fill="#F1F1F1" height="48" id="Vector2" rx="2.5" ry="2.5" style="stroke:#181818;stroke-width:0.5;" width="81" x="242.5" y="164"/><ellipse cx="257.5" cy="180" fill="#ADD1B2" rx="11" ry="11" style="stroke:#181818;stroke-width:1.0;"/><path d="M257.4375,175.8281 Q256.6875,175.8281 256.125,176.125 Q255.5625,176.4063 255.1719,176.9375 Q254.7813,177.4688 254.5781,178.25 Q254.3906,179.0156 254.3906,179.9688 Q254.3906,180.9375 254.5625,181.7031 Q254.75,182.4531 255.1094,182.9688 Q255.4844,183.4844 256.0625,183.7656 Q256.6406,184.0313 257.4375,184.0313 Q258.1719,184.0313 258.9063,183.8594 Q259.6563,183.6875 260.5313,183.3906 L260.5313,185.5469 Q260.125,185.7031 259.7344,185.8281 Q259.3438,185.9375 258.9375,186.0156 Q258.5313,186.0938 258.1094,186.125 Q257.6875,186.1719 257.1875,186.1719 Q255.7813,186.1719 254.75,185.7188 Q253.7344,185.2656 253.0625,184.4531 Q252.3906,183.6406 252.0625,182.5 Q251.7344,181.3438 251.7344,179.9531 Q251.7344,178.5781 252.1094,177.4219 Q252.4844,176.2656 253.2031,175.4375 Q253.9219,174.6094 254.9844,174.1563 Q256.0469,173.6875 257.4375,173.6875 Q258.3438,173.6875 259.25,173.9219 Q260.1563,174.1406 260.9844,174.5469 L260.1563,176.6406 Q259.4688,176.3125 258.7813,176.0781 Q258.0938,175.8281 257.4375,175.8281 Z " fill="#000000"/><text fill="#000000" font-family="sans-serif" font-size="14" lengthAdjust="spacing" textLength="49" x="271.5" y="184.8467">Vector2</text><line style="stroke:#181818;stroke-width:0.5;" x1="243.5" x2="322.5" y1="196" y2="196"/><line style="stroke:#181818;stroke-width:0.5;" x1="243.5" x2="322.5" y1="204" y2="204"/></g><!--link Room to Vector2--><g id="link_Room_Vector2"><path codeLine="9" d="M178.2,104.35 C198.49,123.31 222.68,144.38 242.87,160.51 " fill="none" id="Room-to-Vector2" style="stroke:#181818;stroke-width:1.0;"/><polygon fill="#181818" points="246.85,163.66,242.2821,154.9345,242.9318,160.5539,237.3124,161.2036,246.85,163.66" style="stroke:#181818;stroke-width:1.0;"/><text fill="#000000" font-family="sans-serif" font-size="13" lengthAdjust="spacing" textLength="47" x="187.5472" y="154.1736">Position</text></g><!--link Room to Vector2--><g id="link_Room_Vector2"><path codeLine="10" d="M203.6,104.35 C225.41,123 247.94,143.68 263.67,159.7 " fill="none" id="Room-to-Vector2-1" style="stroke:#181818;stroke-width:1.0;"/><polygon fill="#181818" points="267.52,163.66,264.1338,154.4116,264.0422,160.0677,258.3861,159.9761,267.52,163.66" style="stroke:#181818;stroke-width:1.0;"/><text fill="#000000" font-family="sans-serif" font-size="13" lengthAdjust="spacing" textLength="23" x="266.5499" y="152.9821">Size</text></g><!--link Corridor to Vector2--><g id="link_Corridor_Vector2"><path codeLine="11" d="M383.72,87.76 C356.42,109.86 323.58,139.17 302.66,160.2 " fill="none" id="Corridor-to-Vector2" style="stroke:#181818;stroke-width:1.0;"/><polygon fill="#181818" points="299.15,163.76,308.3208,160.1688,302.664,160.2031,302.6298,154.5464,299.15,163.76" style="stroke:#181818;stroke-width:1.0;"/><text fill="#000000" font-family="sans-serif" font-size="13" lengthAdjust="spacing" textLength="27" x="306.3772" y="153.1065">Start</text></g><!--link Corridor to Vector2--><g id="link_Corridor_Vector2"><path codeLine="12" d="M406.51,87.76 C384,110.02 350.47,139.6 323.76,160.66 " fill="none" id="Corridor-to-Vector2-1" style="stroke:#181818;stroke-width:1.0;"/><polygon fill="#181818" points="319.53,163.97,329.0828,161.5732,323.4675,160.8885,324.1523,155.2732,319.53,163.97" style="stroke:#181818;stroke-width:1.0;"/><text fill="#000000" font-family="sans-serif" font-size="13" lengthAdjust="spacing" textLength="23" x="331.2373" y="172.0239">End</text></g><!--SRC=[TOun3i8m34NtdCBgb0gwC7PWgH1YGo2nbzOIaKgCR4-WtfsafCc4D_zd-VrXwaNWGlI4Zu4mcsMnBnAdZdnxmq69TriGzyPrgzFf4RL3hyYsXXOIJEmKSmcHMD87SXl_nhCxqMHcCopcZfZTI9pjQs15UzQYHpyM-soMnaspX-gScbRPNzWrT2vvTlrO_FyF7loOqHS0]--></g></svg>