<?xml version="1.0" encoding="us-ascii" standalone="no"?><svg xmlns="http://www.w3.org/2000/svg" xmlns:xlink="http://www.w3.org/1999/xlink" contentStyleType="text/css" height="381px" preserveAspectRatio="none" style="width:551px;height:381px;background:#FFFFFF;" version="1.1" viewBox="0 0 551 381" width="551px" zoomAndPan="magnify"><defs/><g><!--class DungeonGenerator--><g id="elem_DungeonGenerator"><rect codeLine="1" fill="#F1F1F1" height="259.8594" id="DungeonGenerator" rx="2.5" ry="2.5" style="stroke:#181818;stroke-width:0.5;" width="392" x="7" y="115"/><ellipse cx="137.25" cy="131" fill="#ADD1B2" rx="11" ry="11" style="stroke:#181818;stroke-width:1.0;"/><path d="M137.1875,126.8281 Q136.4375,126.8281 135.875,127.125 Q135.3125,127.4063 134.9219,127.9375 Q134.5313,128.4688 134.3281,129.25 Q134.1406,130.0156 134.1406,130.9688 Q134.1406,131.9375 134.3125,132.7031 Q134.5,133.4531 134.8594,133.9688 Q135.2344,134.4844 135.8125,134.7656 Q136.3906,135.0313 137.1875,135.0313 Q137.9219,135.0313 138.6563,134.8594 Q139.4063,134.6875 140.2813,134.3906 L140.2813,136.5469 Q139.875,136.7031 139.4844,136.8281 Q139.0938,136.9375 138.6875,137.0156 Q138.2813,137.0938 137.8594,137.125 Q137.4375,137.1719 136.9375,137.1719 Q135.5313,137.1719 134.5,136.7188 Q133.4844,136.2656 132.8125,135.4531 Q132.1406,134.6406 131.8125,133.5 Q131.4844,132.3438 131.4844,130.9531 Q131.4844,129.5781 131.8594,128.4219 Q132.2344,127.2656 132.9531,126.4375 Q133.6719,125.6094 134.7344,125.1563 Q135.7969,124.6875 137.1875,124.6875 Q138.0938,124.6875 139,124.9219 Q139.9063,125.1406 140.7344,125.5469 L139.9063,127.6406 Q139.2188,127.3125 138.5313,127.0781 Q137.8438,126.8281 137.1875,126.8281 Z " fill="#000000"/><text fill="#000000" font-family="sans-serif" font-size="14" lengthAdjust="spacing" textLength="123" x="157.75" y="135.8467">DungeonGenerator</text><line style="stroke:#181818;stroke-width:0.5;" x1="8" x2="398" y1="147" y2="147"/><ellipse cx="18" cy="160.6484" fill="none" rx="3" ry="3" style="stroke:#038048;stroke-width:1.0;"/><text fill="#000000" font-family="sans-serif" font-size="14" lengthAdjust="spacing" textLength="133" x="27" y="163.9951">roomCount : int = 10</text><ellipse cx="18" cy="176.9453" fill="none" rx="3" ry="3" style="stroke:#038048;stroke-width:1.0;"/><text fill="#000000" font-family="sans-serif" font-size="14" lengthAdjust="spacing" textLength="200" x="27" y="180.292">minRoomSeparation : float = 3f</text><ellipse cx="18" cy="193.2422" fill="none" rx="3" ry="3" style="stroke:#038048;stroke-width:1.0;"/><text fill="#000000" font-family="sans-serif" font-size="14" lengthAdjust="spacing" text-decoration="underline" textLength="228" x="27" y="196.5889">&#171;event&#187; OnGeneration : Generation</text><line style="stroke:#181818;stroke-width:0.5;" x1="8" x2="398" y1="203.8906" y2="203.8906"/><text fill="#000000" font-family="sans-serif" font-size="14" lengthAdjust="spacing" textLength="77" x="27" y="220.8857">Start() : void</text><ellipse cx="18" cy="233.8359" fill="#84BE84" rx="3" ry="3" style="stroke:#038048;stroke-width:1.0;"/><text fill="#000000" font-family="sans-serif" font-size="14" lengthAdjust="spacing" textLength="177" x="27" y="237.1826">RegenerateDungeon() : void</text><text fill="#000000" font-family="sans-serif" font-size="14" lengthAdjust="spacing" textLength="137" x="27" y="253.4795">ClearDungeon() : void</text><text fill="#000000" font-family="sans-serif" font-size="14" lengthAdjust="spacing" textLength="168" x="27" y="269.7764">GenerationRoutine() : void</text><text fill="#000000" font-family="sans-serif" font-size="14" lengthAdjust="spacing" textLength="123" x="27" y="286.0732">PlaceRooms() : void</text><text fill="#000000" font-family="sans-serif" font-size="14" lengthAdjust="spacing" textLength="146" x="27" y="302.3701">SeparateRooms() : void</text><text fill="#000000" font-family="sans-serif" font-size="14" lengthAdjust="spacing" textLength="141" x="27" y="318.667">ConnectRooms() : void</text><text fill="#000000" font-family="sans-serif" font-size="14" lengthAdjust="spacing" textLength="202" x="27" y="334.9639">CreateRoom(room:Room) : void</text><text fill="#000000" font-family="sans-serif" font-size="14" lengthAdjust="spacing" textLength="321" x="27" y="351.2607">CreateCorridor(roomA:Room, roomB:Room) : void</text><text fill="#000000" font-family="sans-serif" font-size="14" lengthAdjust="spacing" textLength="366" x="27" y="367.5576">CreateCorridorSegment(start:Vector2, end:Vector2) : void</text></g><!--class MonoBehaviour--><g id="elem_MonoBehaviour"><rect fill="#F1F1F1" height="48" id="MonoBehaviour" rx="2.5" ry="2.5" style="stroke:#181818;stroke-width:0.5;" width="133" x="136.5" y="7"/><ellipse cx="151.5" cy="23" fill="#ADD1B2" rx="11" ry="11" style="stroke:#181818;stroke-width:1.0;"/><path d="M151.4375,18.8281 Q150.6875,18.8281 150.125,19.125 Q149.5625,19.4063 149.1719,19.9375 Q148.7813,20.4688 148.5781,21.25 Q148.3906,22.0156 148.3906,22.9688 Q148.3906,23.9375 148.5625,24.7031 Q148.75,25.4531 149.1094,25.9688 Q149.4844,26.4844 150.0625,26.7656 Q150.6406,27.0313 151.4375,27.0313 Q152.1719,27.0313 152.9063,26.8594 Q153.6563,26.6875 154.5313,26.3906 L154.5313,28.5469 Q154.125,28.7031 153.7344,28.8281 Q153.3438,28.9375 152.9375,29.0156 Q152.5313,29.0938 152.1094,29.125 Q151.6875,29.1719 151.1875,29.1719 Q149.7813,29.1719 148.75,28.7188 Q147.7344,28.2656 147.0625,27.4531 Q146.3906,26.6406 146.0625,25.5 Q145.7344,24.3438 145.7344,22.9531 Q145.7344,21.5781 146.1094,20.4219 Q146.4844,19.2656 147.2031,18.4375 Q147.9219,17.6094 148.9844,17.1563 Q150.0469,16.6875 151.4375,16.6875 Q152.3438,16.6875 153.25,16.9219 Q154.1563,17.1406 154.9844,17.5469 L154.1563,19.6406 Q153.4688,19.3125 152.7813,19.0781 Q152.0938,18.8281 151.4375,18.8281 Z " fill="#000000"/><text fill="#000000" font-family="sans-serif" font-size="14" lengthAdjust="spacing" textLength="101" x="165.5" y="27.8467">MonoBehaviour</text><line style="stroke:#181818;stroke-width:0.5;" x1="137.5" x2="268.5" y1="39" y2="39"/><line style="stroke:#181818;stroke-width:0.5;" x1="137.5" x2="268.5" y1="47" y2="47"/></g><!--class Vector2--><g id="elem_Vector2"><rect fill="#F1F1F1" height="48" id="Vector2" rx="2.5" ry="2.5" style="stroke:#181818;stroke-width:0.5;" width="81" x="434.5" y="221"/><ellipse cx="449.5" cy="237" fill="#ADD1B2" rx="11" ry="11" style="stroke:#181818;stroke-width:1.0;"/><path d="M449.4375,232.8281 Q448.6875,232.8281 448.125,233.125 Q447.5625,233.4063 447.1719,233.9375 Q446.7813,234.4688 446.5781,235.25 Q446.3906,236.0156 446.3906,236.9688 Q446.3906,237.9375 446.5625,238.7031 Q446.75,239.4531 447.1094,239.9688 Q447.4844,240.4844 448.0625,240.7656 Q448.6406,241.0313 449.4375,241.0313 Q450.1719,241.0313 450.9063,240.8594 Q451.6563,240.6875 452.5313,240.3906 L452.5313,242.5469 Q452.125,242.7031 451.7344,242.8281 Q451.3438,242.9375 450.9375,243.0156 Q450.5313,243.0938 450.1094,243.125 Q449.6875,243.1719 449.1875,243.1719 Q447.7813,243.1719 446.75,242.7188 Q445.7344,242.2656 445.0625,241.4531 Q444.3906,240.6406 444.0625,239.5 Q443.7344,238.3438 443.7344,236.9531 Q443.7344,235.5781 444.1094,234.4219 Q444.4844,233.2656 445.2031,232.4375 Q445.9219,231.6094 446.9844,231.1563 Q448.0469,230.6875 449.4375,230.6875 Q450.3438,230.6875 451.25,230.9219 Q452.1563,231.1406 452.9844,231.5469 L452.1563,233.6406 Q451.4688,233.3125 450.7813,233.0781 Q450.0938,232.8281 449.4375,232.8281 Z " fill="#000000"/><text fill="#000000" font-family="sans-serif" font-size="14" lengthAdjust="spacing" textLength="49" x="463.5" y="241.8467">Vector2</text><line style="stroke:#181818;stroke-width:0.5;" x1="435.5" x2="514.5" y1="253" y2="253"/><line style="stroke:#181818;stroke-width:0.5;" x1="435.5" x2="514.5" y1="261" y2="261"/></g><!--reverse link MonoBehaviour to DungeonGenerator--><g id="link_MonoBehaviour_DungeonGenerator"><path codeLine="16" d="M203,75.16 C203,87.13 203,100.77 203,114.98 " fill="none" id="MonoBehaviour-backto-DungeonGenerator" style="stroke:#181818;stroke-width:1.0;"/><polygon fill="none" points="196,75.09,203,55.09,210,75.09,196,75.09" style="stroke:#181818;stroke-width:1.0;"/></g><!--link DungeonGenerator to Vector2--><g id="link_DungeonGenerator_Vector2"><path codeLine="17" d="M409.88,316.02 C422.74,306.41 435.59,294.19 448.45,279.35 " fill="none" id="DungeonGenerator-Vector2" style="stroke:#181818;stroke-width:1.0;"/><polygon fill="none" points="399.03,323.5,406.2402,323.3835,408.9058,316.6832,401.6956,316.7997,399.03,323.5" style="stroke:#181818;stroke-width:1.0;"/><polygon fill="#181818" points="456.9,269.23,448.0606,273.5733,453.6948,273.0675,454.2006,278.7017,456.9,269.23" style="stroke:#181818;stroke-width:1.0;"/><line style="stroke:#181818;stroke-width:1.0;" x1="453.6948" x2="448.57" y1="273.0675" y2="279.205"/><text fill="#000000" font-family="sans-serif" font-size="13" lengthAdjust="spacing" textLength="82" x="462.4819" y="289.0473">minRoomSize</text></g><!--link DungeonGenerator to Vector2--><g id="link_DungeonGenerator_Vector2"><path codeLine="18" d="M412.27,245 C415.26,245 418.25,245 421.24,245 " fill="none" id="DungeonGenerator-Vector2-1" style="stroke:#181818;stroke-width:1.0;"/><polygon fill="none" points="399.03,245,405.03,249,411.03,245,405.03,241,399.03,245" style="stroke:#181818;stroke-width:1.0;"/><polygon fill="#181818" points="434.34,245,425.34,241,429.34,245,425.34,249,434.34,245" style="stroke:#181818;stroke-width:1.0;"/><line style="stroke:#181818;stroke-width:1.0;" x1="429.34" x2="421.34" y1="245" y2="245"/><text fill="#000000" font-family="sans-serif" font-size="13" lengthAdjust="spacing" textLength="85" x="342.5865" y="215.106">maxRoomSize</text></g><!--link DungeonGenerator to Vector2--><g id="link_DungeonGenerator_Vector2"><path codeLine="19" d="M409.88,173.98 C422.74,183.59 435.59,195.81 448.45,210.65 " fill="none" id="DungeonGenerator-Vector2-2" style="stroke:#181818;stroke-width:1.0;"/><polygon fill="none" points="399.03,166.5,401.6956,173.2003,408.9058,173.3168,406.2402,166.6165,399.03,166.5" style="stroke:#181818;stroke-width:1.0;"/><polygon fill="#181818" points="456.9,220.77,454.2006,211.2983,453.6948,216.9325,448.0606,216.4267,456.9,220.77" style="stroke:#181818;stroke-width:1.0;"/><line style="stroke:#181818;stroke-width:1.0;" x1="453.6948" x2="448.57" y1="216.9325" y2="210.795"/><text fill="#000000" font-family="sans-serif" font-size="13" lengthAdjust="spacing" textLength="77" x="461.8725" y="210.1189">dungeonSize</text></g><!--SRC=[ZP5DJuGm48Rl_8h9dZ0kYHytWYGk9fwC1XBl3SnY4vWnqqACw_vt2nILB4PxQDg-ppkTZx9Hni1THpKotIEXACi2Xm3SEWTXRZFko48CskqtS7dXfLPJxjG2NvNpQ2Q7x1jM0tIzzz31MAULHu0amHx9fYayplzCdX-NqLHO9JOySqhFkl9nSgmd37sgIo1hKCcgyXqzvyvgmgNyrAWIXpBCyjrNjIPbJ8IbNLC4lIKS-XOFfnKWOn5TiOpGxKXjnqRl_d8KMBUkXw4PMXG_konOhhQ0LCsNB_CnU63Y7RweNdCda7n4qScOWvEvSvJ2PfwiViSD-C2_eUhjlsWrlIxGJm00]--></g></svg>