<?xml version="1.0" encoding="us-ascii" standalone="no"?><svg xmlns="http://www.w3.org/2000/svg" xmlns:xlink="http://www.w3.org/1999/xlink" contentStyleType="text/css" height="343px" preserveAspectRatio="none" style="width:215px;height:343px;background:#FFFFFF;" version="1.1" viewBox="0 0 215 343" width="215px" zoomAndPan="magnify"><defs/><g><!--class TilemapEditor--><g id="elem_TilemapEditor"><rect codeLine="1" fill="#F1F1F1" height="113.1875" id="TilemapEditor" rx="2.5" ry="2.5" style="stroke:#181818;stroke-width:0.5;" width="201" x="7" y="115"/><ellipse cx="58.75" cy="131" fill="#ADD1B2" rx="11" ry="11" style="stroke:#181818;stroke-width:1.0;"/><path d="M58.6875,126.8281 Q57.9375,126.8281 57.375,127.125 Q56.8125,127.4063 56.4219,127.9375 Q56.0313,128.4688 55.8281,129.25 Q55.6406,130.0156 55.6406,130.9688 Q55.6406,131.9375 55.8125,132.7031 Q56,133.4531 56.3594,133.9688 Q56.7344,134.4844 57.3125,134.7656 Q57.8906,135.0313 58.6875,135.0313 Q59.4219,135.0313 60.1563,134.8594 Q60.9063,134.6875 61.7813,134.3906 L61.7813,136.5469 Q61.375,136.7031 60.9844,136.8281 Q60.5938,136.9375 60.1875,137.0156 Q59.7813,137.0938 59.3594,137.125 Q58.9375,137.1719 58.4375,137.1719 Q57.0313,137.1719 56,136.7188 Q54.9844,136.2656 54.3125,135.4531 Q53.6406,134.6406 53.3125,133.5 Q52.9844,132.3438 52.9844,130.9531 Q52.9844,129.5781 53.3594,128.4219 Q53.7344,127.2656 54.4531,126.4375 Q55.1719,125.6094 56.2344,125.1563 Q57.2969,124.6875 58.6875,124.6875 Q59.5938,124.6875 60.5,124.9219 Q61.4063,125.1406 62.2344,125.5469 L61.4063,127.6406 Q60.7188,127.3125 60.0313,127.0781 Q59.3438,126.8281 58.6875,126.8281 Z " fill="#000000"/><text fill="#000000" font-family="sans-serif" font-size="14" lengthAdjust="spacing" textLength="89" x="79.25" y="135.8467">TilemapEditor</text><line style="stroke:#181818;stroke-width:0.5;" x1="8" x2="207" y1="147" y2="147"/><ellipse cx="18" cy="160.6484" fill="none" rx="3" ry="3" style="stroke:#038048;stroke-width:1.0;"/><text fill="#000000" font-family="sans-serif" font-size="14" lengthAdjust="spacing" textLength="117" x="27" y="163.9951">wallTile : RuleTile?</text><ellipse cx="18" cy="176.9453" fill="none" rx="3" ry="3" style="stroke:#038048;stroke-width:1.0;"/><text fill="#000000" font-family="sans-serif" font-size="14" lengthAdjust="spacing" textLength="175" x="27" y="180.292">isEditingMode : bool = false</text><line style="stroke:#181818;stroke-width:0.5;" x1="8" x2="207" y1="187.5938" y2="187.5938"/><text fill="#000000" font-family="sans-serif" font-size="14" lengthAdjust="spacing" textLength="93" x="27" y="204.5889">Update() : void</text><ellipse cx="18" cy="217.5391" fill="#84BE84" rx="3" ry="3" style="stroke:#038048;stroke-width:1.0;"/><text fill="#000000" font-family="sans-serif" font-size="14" lengthAdjust="spacing" textLength="167" x="27" y="220.8857">ToggleEditingMode() : void</text></g><!--class MonoBehaviour--><g id="elem_MonoBehaviour"><rect fill="#F1F1F1" height="48" id="MonoBehaviour" rx="2.5" ry="2.5" style="stroke:#181818;stroke-width:0.5;" width="133" x="41" y="7"/><ellipse cx="56" cy="23" fill="#ADD1B2" rx="11" ry="11" style="stroke:#181818;stroke-width:1.0;"/><path d="M55.9375,18.8281 Q55.1875,18.8281 54.625,19.125 Q54.0625,19.4063 53.6719,19.9375 Q53.2813,20.4688 53.0781,21.25 Q52.8906,22.0156 52.8906,22.9688 Q52.8906,23.9375 53.0625,24.7031 Q53.25,25.4531 53.6094,25.9688 Q53.9844,26.4844 54.5625,26.7656 Q55.1406,27.0313 55.9375,27.0313 Q56.6719,27.0313 57.4063,26.8594 Q58.1563,26.6875 59.0313,26.3906 L59.0313,28.5469 Q58.625,28.7031 58.2344,28.8281 Q57.8438,28.9375 57.4375,29.0156 Q57.0313,29.0938 56.6094,29.125 Q56.1875,29.1719 55.6875,29.1719 Q54.2813,29.1719 53.25,28.7188 Q52.2344,28.2656 51.5625,27.4531 Q50.8906,26.6406 50.5625,25.5 Q50.2344,24.3438 50.2344,22.9531 Q50.2344,21.5781 50.6094,20.4219 Q50.9844,19.2656 51.7031,18.4375 Q52.4219,17.6094 53.4844,17.1563 Q54.5469,16.6875 55.9375,16.6875 Q56.8438,16.6875 57.75,16.9219 Q58.6563,17.1406 59.4844,17.5469 L58.6563,19.6406 Q57.9688,19.3125 57.2813,19.0781 Q56.5938,18.8281 55.9375,18.8281 Z " fill="#000000"/><text fill="#000000" font-family="sans-serif" font-size="14" lengthAdjust="spacing" textLength="101" x="70" y="27.8467">MonoBehaviour</text><line style="stroke:#181818;stroke-width:0.5;" x1="42" x2="173" y1="39" y2="39"/><line style="stroke:#181818;stroke-width:0.5;" x1="42" x2="173" y1="47" y2="47"/></g><!--class Tilemap--><g id="elem_Tilemap"><rect fill="#F1F1F1" height="48" id="Tilemap" rx="2.5" ry="2.5" style="stroke:#181818;stroke-width:0.5;" width="83" x="7" y="288"/><ellipse cx="22" cy="304" fill="#ADD1B2" rx="11" ry="11" style="stroke:#181818;stroke-width:1.0;"/><path d="M21.9375,299.8281 Q21.1875,299.8281 20.625,300.125 Q20.0625,300.4063 19.6719,300.9375 Q19.2813,301.4688 19.0781,302.25 Q18.8906,303.0156 18.8906,303.9688 Q18.8906,304.9375 19.0625,305.7031 Q19.25,306.4531 19.6094,306.9688 Q19.9844,307.4844 20.5625,307.7656 Q21.1406,308.0313 21.9375,308.0313 Q22.6719,308.0313 23.4063,307.8594 Q24.1563,307.6875 25.0313,307.3906 L25.0313,309.5469 Q24.625,309.7031 24.2344,309.8281 Q23.8438,309.9375 23.4375,310.0156 Q23.0313,310.0938 22.6094,310.125 Q22.1875,310.1719 21.6875,310.1719 Q20.2813,310.1719 19.25,309.7188 Q18.2344,309.2656 17.5625,308.4531 Q16.8906,307.6406 16.5625,306.5 Q16.2344,305.3438 16.2344,303.9531 Q16.2344,302.5781 16.6094,301.4219 Q16.9844,300.2656 17.7031,299.4375 Q18.4219,298.6094 19.4844,298.1563 Q20.5469,297.6875 21.9375,297.6875 Q22.8438,297.6875 23.75,297.9219 Q24.6563,298.1406 25.4844,298.5469 L24.6563,300.6406 Q23.9688,300.3125 23.2813,300.0781 Q22.5938,299.8281 21.9375,299.8281 Z " fill="#000000"/><text fill="#000000" font-family="sans-serif" font-size="14" lengthAdjust="spacing" textLength="51" x="36" y="308.8467">Tilemap</text><line style="stroke:#181818;stroke-width:0.5;" x1="8" x2="89" y1="320" y2="320"/><line style="stroke:#181818;stroke-width:0.5;" x1="8" x2="89" y1="328" y2="328"/></g><!--class RuleTile--><g id="elem_RuleTile"><rect fill="#F1F1F1" height="48" id="RuleTile" rx="2.5" ry="2.5" style="stroke:#181818;stroke-width:0.5;" width="83" x="125" y="288"/><ellipse cx="140" cy="304" fill="#ADD1B2" rx="11" ry="11" style="stroke:#181818;stroke-width:1.0;"/><path d="M139.9375,299.8281 Q139.1875,299.8281 138.625,300.125 Q138.0625,300.4063 137.6719,300.9375 Q137.2813,301.4688 137.0781,302.25 Q136.8906,303.0156 136.8906,303.9688 Q136.8906,304.9375 137.0625,305.7031 Q137.25,306.4531 137.6094,306.9688 Q137.9844,307.4844 138.5625,307.7656 Q139.1406,308.0313 139.9375,308.0313 Q140.6719,308.0313 141.4063,307.8594 Q142.1563,307.6875 143.0313,307.3906 L143.0313,309.5469 Q142.625,309.7031 142.2344,309.8281 Q141.8438,309.9375 141.4375,310.0156 Q141.0313,310.0938 140.6094,310.125 Q140.1875,310.1719 139.6875,310.1719 Q138.2813,310.1719 137.25,309.7188 Q136.2344,309.2656 135.5625,308.4531 Q134.8906,307.6406 134.5625,306.5 Q134.2344,305.3438 134.2344,303.9531 Q134.2344,302.5781 134.6094,301.4219 Q134.9844,300.2656 135.7031,299.4375 Q136.4219,298.6094 137.4844,298.1563 Q138.5469,297.6875 139.9375,297.6875 Q140.8438,297.6875 141.75,297.9219 Q142.6563,298.1406 143.4844,298.5469 L142.6563,300.6406 Q141.9688,300.3125 141.2813,300.0781 Q140.5938,299.8281 139.9375,299.8281 Z " fill="#000000"/><text fill="#000000" font-family="sans-serif" font-size="14" lengthAdjust="spacing" textLength="51" x="154" y="308.8467">RuleTile</text><line style="stroke:#181818;stroke-width:0.5;" x1="126" x2="207" y1="320" y2="320"/><line style="stroke:#181818;stroke-width:0.5;" x1="126" x2="207" y1="328" y2="328"/></g><!--reverse link MonoBehaviour to TilemapEditor--><g id="link_MonoBehaviour_TilemapEditor"><path codeLine="7" d="M107.5,75.3 C107.5,87.85 107.5,101.74 107.5,114.94 " fill="none" id="MonoBehaviour-backto-TilemapEditor" style="stroke:#181818;stroke-width:1.0;"/><polygon fill="none" points="100.5,75.18,107.5,55.18,114.5,75.18,100.5,75.18" style="stroke:#181818;stroke-width:1.0;"/></g><!--link TilemapEditor to Tilemap--><g id="link_TilemapEditor_Tilemap"><path codeLine="8" d="M83.84,228.04 C75.77,247 67.08,267.38 60.34,283.21 " fill="none" id="TilemapEditor-to-Tilemap" style="stroke:#181818;stroke-width:1.0;"/><polygon fill="#181818" points="58.31,287.96,65.5142,281.2444,60.2675,283.3591,58.1528,278.1124,58.31,287.96" style="stroke:#181818;stroke-width:1.0;"/><text fill="#000000" font-family="sans-serif" font-size="13" lengthAdjust="spacing" textLength="44" x="11.1863" y="276.9618">tilemap</text></g><!--link TilemapEditor to RuleTile--><g id="link_TilemapEditor_RuleTile"><path codeLine="9" d="M131.16,228.04 C139.23,247 147.92,267.38 154.66,283.21 " fill="none" id="TilemapEditor-to-RuleTile" style="stroke:#181818;stroke-width:1.0;"/><polygon fill="#181818" points="156.69,287.96,156.8472,278.1124,154.7325,283.3591,149.4858,281.2444,156.69,287.96" style="stroke:#181818;stroke-width:1.0;"/><text fill="#000000" font-family="sans-serif" font-size="13" lengthAdjust="spacing" textLength="48" x="100.0262" y="276.9618">floorTile</text></g><!--SRC=[RO_B2i8m44Nt-OeXAqNo0-8319VTIFs0QAPnOEoK9AqBzTzjj3uApcguvroOERAD4KfYFDjcwoX9WAk2VcPmiSoPm1nsBMDUrmEYc5sgVI4kyuC8mn8gon6VohvnDk5ashDEo0srKhnd_Ab-XRigf9ODdcn7qWPOt8mPtwN6Lngp0frUaNwR_voAHKBEzUUD1m00]--></g></svg>