<?xml version="1.0" encoding="us-ascii" standalone="no"?><svg xmlns="http://www.w3.org/2000/svg" xmlns:xlink="http://www.w3.org/1999/xlink" contentStyleType="text/css" height="327px" preserveAspectRatio="none" style="width:274px;height:327px;background:#FFFFFF;" version="1.1" viewBox="0 0 274 327" width="274px" zoomAndPan="magnify"><defs/><g><!--class TilemapEditor--><g id="elem_TilemapEditor"><rect codeLine="1" fill="#F1F1F1" height="96.8906" id="TilemapEditor" rx="2.5" ry="2.5" style="stroke:#181818;stroke-width:0.5;" width="201" x="66" y="115"/><ellipse cx="117.75" cy="131" fill="#ADD1B2" rx="11" ry="11" style="stroke:#181818;stroke-width:1.0;"/><path d="M117.6875,126.8281 Q116.9375,126.8281 116.375,127.125 Q115.8125,127.4063 115.4219,127.9375 Q115.0313,128.4688 114.8281,129.25 Q114.6406,130.0156 114.6406,130.9688 Q114.6406,131.9375 114.8125,132.7031 Q115,133.4531 115.3594,133.9688 Q115.7344,134.4844 116.3125,134.7656 Q116.8906,135.0313 117.6875,135.0313 Q118.4219,135.0313 119.1563,134.8594 Q119.9063,134.6875 120.7813,134.3906 L120.7813,136.5469 Q120.375,136.7031 119.9844,136.8281 Q119.5938,136.9375 119.1875,137.0156 Q118.7813,137.0938 118.3594,137.125 Q117.9375,137.1719 117.4375,137.1719 Q116.0313,137.1719 115,136.7188 Q113.9844,136.2656 113.3125,135.4531 Q112.6406,134.6406 112.3125,133.5 Q111.9844,132.3438 111.9844,130.9531 Q111.9844,129.5781 112.3594,128.4219 Q112.7344,127.2656 113.4531,126.4375 Q114.1719,125.6094 115.2344,125.1563 Q116.2969,124.6875 117.6875,124.6875 Q118.5938,124.6875 119.5,124.9219 Q120.4063,125.1406 121.2344,125.5469 L120.4063,127.6406 Q119.7188,127.3125 119.0313,127.0781 Q118.3438,126.8281 117.6875,126.8281 Z " fill="#000000"/><text fill="#000000" font-family="sans-serif" font-size="14" lengthAdjust="spacing" textLength="89" x="138.25" y="135.8467">TilemapEditor</text><line style="stroke:#181818;stroke-width:0.5;" x1="67" x2="266" y1="147" y2="147"/><ellipse cx="77" cy="160.6484" fill="none" rx="3" ry="3" style="stroke:#038048;stroke-width:1.0;"/><text fill="#000000" font-family="sans-serif" font-size="14" lengthAdjust="spacing" textLength="175" x="86" y="163.9951">isEditingMode : bool = false</text><line style="stroke:#181818;stroke-width:0.5;" x1="67" x2="266" y1="171.2969" y2="171.2969"/><text fill="#000000" font-family="sans-serif" font-size="14" lengthAdjust="spacing" textLength="93" x="86" y="188.292">Update() : void</text><ellipse cx="77" cy="201.2422" fill="#84BE84" rx="3" ry="3" style="stroke:#038048;stroke-width:1.0;"/><text fill="#000000" font-family="sans-serif" font-size="14" lengthAdjust="spacing" textLength="167" x="86" y="204.5889">ToggleEditingMode() : void</text></g><!--class MonoBehaviour--><g id="elem_MonoBehaviour"><rect fill="#F1F1F1" height="48" id="MonoBehaviour" rx="2.5" ry="2.5" style="stroke:#181818;stroke-width:0.5;" width="133" x="100" y="7"/><ellipse cx="115" cy="23" fill="#ADD1B2" rx="11" ry="11" style="stroke:#181818;stroke-width:1.0;"/><path d="M114.9375,18.8281 Q114.1875,18.8281 113.625,19.125 Q113.0625,19.4063 112.6719,19.9375 Q112.2813,20.4688 112.0781,21.25 Q111.8906,22.0156 111.8906,22.9688 Q111.8906,23.9375 112.0625,24.7031 Q112.25,25.4531 112.6094,25.9688 Q112.9844,26.4844 113.5625,26.7656 Q114.1406,27.0313 114.9375,27.0313 Q115.6719,27.0313 116.4063,26.8594 Q117.1563,26.6875 118.0313,26.3906 L118.0313,28.5469 Q117.625,28.7031 117.2344,28.8281 Q116.8438,28.9375 116.4375,29.0156 Q116.0313,29.0938 115.6094,29.125 Q115.1875,29.1719 114.6875,29.1719 Q113.2813,29.1719 112.25,28.7188 Q111.2344,28.2656 110.5625,27.4531 Q109.8906,26.6406 109.5625,25.5 Q109.2344,24.3438 109.2344,22.9531 Q109.2344,21.5781 109.6094,20.4219 Q109.9844,19.2656 110.7031,18.4375 Q111.4219,17.6094 112.4844,17.1563 Q113.5469,16.6875 114.9375,16.6875 Q115.8438,16.6875 116.75,16.9219 Q117.6563,17.1406 118.4844,17.5469 L117.6563,19.6406 Q116.9688,19.3125 116.2813,19.0781 Q115.5938,18.8281 114.9375,18.8281 Z " fill="#000000"/><text fill="#000000" font-family="sans-serif" font-size="14" lengthAdjust="spacing" textLength="101" x="129" y="27.8467">MonoBehaviour</text><line style="stroke:#181818;stroke-width:0.5;" x1="101" x2="232" y1="39" y2="39"/><line style="stroke:#181818;stroke-width:0.5;" x1="101" x2="232" y1="47" y2="47"/></g><!--class Tilemap--><g id="elem_Tilemap"><rect fill="#F1F1F1" height="48" id="Tilemap" rx="2.5" ry="2.5" style="stroke:#181818;stroke-width:0.5;" width="83" x="7" y="272"/><ellipse cx="22" cy="288" fill="#ADD1B2" rx="11" ry="11" style="stroke:#181818;stroke-width:1.0;"/><path d="M21.9375,283.8281 Q21.1875,283.8281 20.625,284.125 Q20.0625,284.4063 19.6719,284.9375 Q19.2813,285.4688 19.0781,286.25 Q18.8906,287.0156 18.8906,287.9688 Q18.8906,288.9375 19.0625,289.7031 Q19.25,290.4531 19.6094,290.9688 Q19.9844,291.4844 20.5625,291.7656 Q21.1406,292.0313 21.9375,292.0313 Q22.6719,292.0313 23.4063,291.8594 Q24.1563,291.6875 25.0313,291.3906 L25.0313,293.5469 Q24.625,293.7031 24.2344,293.8281 Q23.8438,293.9375 23.4375,294.0156 Q23.0313,294.0938 22.6094,294.125 Q22.1875,294.1719 21.6875,294.1719 Q20.2813,294.1719 19.25,293.7188 Q18.2344,293.2656 17.5625,292.4531 Q16.8906,291.6406 16.5625,290.5 Q16.2344,289.3438 16.2344,287.9531 Q16.2344,286.5781 16.6094,285.4219 Q16.9844,284.2656 17.7031,283.4375 Q18.4219,282.6094 19.4844,282.1563 Q20.5469,281.6875 21.9375,281.6875 Q22.8438,281.6875 23.75,281.9219 Q24.6563,282.1406 25.4844,282.5469 L24.6563,284.6406 Q23.9688,284.3125 23.2813,284.0781 Q22.5938,283.8281 21.9375,283.8281 Z " fill="#000000"/><text fill="#000000" font-family="sans-serif" font-size="14" lengthAdjust="spacing" textLength="51" x="36" y="292.8467">Tilemap</text><line style="stroke:#181818;stroke-width:0.5;" x1="8" x2="89" y1="304" y2="304"/><line style="stroke:#181818;stroke-width:0.5;" x1="8" x2="89" y1="312" y2="312"/></g><!--class RuleTile--><g id="elem_RuleTile"><rect fill="#F1F1F1" height="48" id="RuleTile" rx="2.5" ry="2.5" style="stroke:#181818;stroke-width:0.5;" width="83" x="125" y="272"/><ellipse cx="140" cy="288" fill="#ADD1B2" rx="11" ry="11" style="stroke:#181818;stroke-width:1.0;"/><path d="M139.9375,283.8281 Q139.1875,283.8281 138.625,284.125 Q138.0625,284.4063 137.6719,284.9375 Q137.2813,285.4688 137.0781,286.25 Q136.8906,287.0156 136.8906,287.9688 Q136.8906,288.9375 137.0625,289.7031 Q137.25,290.4531 137.6094,290.9688 Q137.9844,291.4844 138.5625,291.7656 Q139.1406,292.0313 139.9375,292.0313 Q140.6719,292.0313 141.4063,291.8594 Q142.1563,291.6875 143.0313,291.3906 L143.0313,293.5469 Q142.625,293.7031 142.2344,293.8281 Q141.8438,293.9375 141.4375,294.0156 Q141.0313,294.0938 140.6094,294.125 Q140.1875,294.1719 139.6875,294.1719 Q138.2813,294.1719 137.25,293.7188 Q136.2344,293.2656 135.5625,292.4531 Q134.8906,291.6406 134.5625,290.5 Q134.2344,289.3438 134.2344,287.9531 Q134.2344,286.5781 134.6094,285.4219 Q134.9844,284.2656 135.7031,283.4375 Q136.4219,282.6094 137.4844,282.1563 Q138.5469,281.6875 139.9375,281.6875 Q140.8438,281.6875 141.75,281.9219 Q142.6563,282.1406 143.4844,282.5469 L142.6563,284.6406 Q141.9688,284.3125 141.2813,284.0781 Q140.5938,283.8281 139.9375,283.8281 Z " fill="#000000"/><text fill="#000000" font-family="sans-serif" font-size="14" lengthAdjust="spacing" textLength="51" x="154" y="292.8467">RuleTile</text><line style="stroke:#181818;stroke-width:0.5;" x1="126" x2="207" y1="304" y2="304"/><line style="stroke:#181818;stroke-width:0.5;" x1="126" x2="207" y1="312" y2="312"/></g><!--reverse link MonoBehaviour to TilemapEditor--><g id="link_MonoBehaviour_TilemapEditor"><path codeLine="6" d="M166.5,75.37 C166.5,88.03 166.5,101.93 166.5,114.84 " fill="none" id="MonoBehaviour-backto-TilemapEditor" style="stroke:#181818;stroke-width:1.0;"/><polygon fill="none" points="159.5,75.03,166.5,55.03,173.5,75.03,159.5,75.03" style="stroke:#181818;stroke-width:1.0;"/></g><!--link TilemapEditor to Tilemap--><g id="link_TilemapEditor_Tilemap"><path codeLine="7" d="M123.23,212.35 C106.37,231 87.67,251.68 73.19,267.7 " fill="none" id="TilemapEditor-to-Tilemap" style="stroke:#181818;stroke-width:1.0;"/><polygon fill="#181818" points="69.6,271.66,78.61,267.6826,72.9598,267.9571,72.6853,262.3069,69.6,271.66" style="stroke:#181818;stroke-width:1.0;"/><text fill="#000000" font-family="sans-serif" font-size="13" lengthAdjust="spacing" textLength="44" x="25.3806" y="260.9821">tilemap</text></g><!--link TilemapEditor to RuleTile--><g id="link_TilemapEditor_RuleTile"><path codeLine="8" d="M154.16,212.35 C153.28,230.52 153.81,250.63 155.75,266.47 " fill="none" id="TilemapEditor-to-RuleTile" style="stroke:#181818;stroke-width:1.0;"/><polygon fill="#181818" points="156.46,271.66,159.1853,262.1957,155.7729,266.7074,151.2612,263.295,156.46,271.66" style="stroke:#181818;stroke-width:1.0;"/><text fill="#000000" font-family="sans-serif" font-size="13" lengthAdjust="spacing" textLength="48" x="100.1627" y="260.9821">floorTile</text></g><!--link TilemapEditor to RuleTile--><g id="link_TilemapEditor_RuleTile"><path codeLine="9" d="M179.56,212.35 C180.49,230.52 179.94,250.63 177.89,266.47 " fill="none" id="TilemapEditor-to-RuleTile-1" style="stroke:#181818;stroke-width:1.0;"/><polygon fill="#181818" points="177.13,271.66,182.3761,263.3246,177.8451,266.7114,174.4583,262.1804,177.13,271.66" style="stroke:#181818;stroke-width:1.0;"/><text fill="#000000" font-family="sans-serif" font-size="13" lengthAdjust="spacing" textLength="43" x="184.9617" y="260.9821">wallTile</text></g><!--SRC=[ROuz3i8m34RtdCBA14Av00869COkg1p043T4CdMLf6K0xax3Zo1IFLdlUv_i4sECK7kc2tOxwvC4k2aOPm4-Pk1RLuabMC9HX64D3NAabtBeB2QQpSTi46y_jLgSO_gh_eI7ggILBPrnyD87MDsDAO-hyXLZDg3J6-clEUKqB18orx3lcV8sfLsHkRIU]--></g></svg>