<?xml version="1.0" encoding="us-ascii" standalone="no"?><svg xmlns="http://www.w3.org/2000/svg" xmlns:xlink="http://www.w3.org/1999/xlink" contentStyleType="text/css" height="327px" preserveAspectRatio="none" style="width:568px;height:327px;background:#FFFFFF;" version="1.1" viewBox="0 0 568 327" width="568px" zoomAndPan="magnify"><defs/><g><!--class GameObjectInjector--><g id="elem_GameObjectInjector"><rect codeLine="1" fill="#F1F1F1" height="96.8906" id="GameObjectInjector" rx="2.5" ry="2.5" style="stroke:#181818;stroke-width:0.5;" width="315" x="177.356" y="115"/><ellipse cx="266.106" cy="131" fill="#ADD1B2" rx="11" ry="11" style="stroke:#181818;stroke-width:1.0;"/><path d="M266.0435,126.8281 Q265.2935,126.8281 264.731,127.125 Q264.1685,127.4063 263.7779,127.9375 Q263.3873,128.4688 263.1841,129.25 Q262.9966,130.0156 262.9966,130.9688 Q262.9966,131.9375 263.1685,132.7031 Q263.356,133.4531 263.7154,133.9688 Q264.0904,134.4844 264.6685,134.7656 Q265.2466,135.0313 266.0435,135.0313 Q266.7779,135.0313 267.5123,134.8594 Q268.2623,134.6875 269.1373,134.3906 L269.1373,136.5469 Q268.731,136.7031 268.3404,136.8281 Q267.9498,136.9375 267.5435,137.0156 Q267.1373,137.0938 266.7154,137.125 Q266.2935,137.1719 265.7935,137.1719 Q264.3873,137.1719 263.356,136.7188 Q262.3404,136.2656 261.6685,135.4531 Q260.9966,134.6406 260.6685,133.5 Q260.3404,132.3438 260.3404,130.9531 Q260.3404,129.5781 260.7154,128.4219 Q261.0904,127.2656 261.8091,126.4375 Q262.5279,125.6094 263.5904,125.1563 Q264.6529,124.6875 266.0435,124.6875 Q266.9498,124.6875 267.856,124.9219 Q268.7623,125.1406 269.5904,125.5469 L268.7623,127.6406 Q268.0748,127.3125 267.3873,127.0781 Q266.6998,126.8281 266.0435,126.8281 Z " fill="#000000"/><text fill="#000000" font-family="sans-serif" font-size="14" lengthAdjust="spacing" textLength="129" x="286.606" y="135.8467">GameObjectInjector</text><line style="stroke:#181818;stroke-width:0.5;" x1="178.356" x2="491.356" y1="147" y2="147"/><line style="stroke:#181818;stroke-width:0.5;" x1="178.356" x2="491.356" y1="155" y2="155"/><ellipse cx="188.356" cy="168.6484" fill="#84BE84" rx="3" ry="3" style="stroke:#038048;stroke-width:1.0;"/><text fill="#000000" font-family="sans-serif" font-size="14" lengthAdjust="spacing" textLength="213" x="197.356" y="171.9951">&#171;override&#187; InstallBindings() : void</text><ellipse cx="188.356" cy="184.9453" fill="#84BE84" rx="3" ry="3" style="stroke:#038048;stroke-width:1.0;"/><text fill="#000000" font-family="sans-serif" font-size="14" lengthAdjust="spacing" textLength="289" x="197.356" y="188.292">GetDungeonGenerator() : DungeonGenerator</text><ellipse cx="188.356" cy="201.2422" fill="#84BE84" rx="3" ry="3" style="stroke:#038048;stroke-width:1.0;"/><text fill="#000000" font-family="sans-serif" font-size="14" lengthAdjust="spacing" textLength="191" x="197.356" y="204.5889">GetDBManager() : DBManager</text></g><!--class Func`1--><g id="elem_Func`1"><rect codeLine="6" fill="#F1F1F1" height="48" id="Func`1" rx="2.5" ry="2.5" style="stroke:#181818;stroke-width:0.5;" width="87" x="291.356" y="272"/><ellipse cx="306.356" cy="288" fill="#ADD1B2" rx="11" ry="11" style="stroke:#181818;stroke-width:1.0;"/><path d="M306.2935,283.8281 Q305.5435,283.8281 304.981,284.125 Q304.4185,284.4063 304.0279,284.9375 Q303.6373,285.4688 303.4341,286.25 Q303.2466,287.0156 303.2466,287.9688 Q303.2466,288.9375 303.4185,289.7031 Q303.606,290.4531 303.9654,290.9688 Q304.3404,291.4844 304.9185,291.7656 Q305.4966,292.0313 306.2935,292.0313 Q307.0279,292.0313 307.7623,291.8594 Q308.5123,291.6875 309.3873,291.3906 L309.3873,293.5469 Q308.981,293.7031 308.5904,293.8281 Q308.1998,293.9375 307.7935,294.0156 Q307.3873,294.0938 306.9654,294.125 Q306.5435,294.1719 306.0435,294.1719 Q304.6373,294.1719 303.606,293.7188 Q302.5904,293.2656 301.9185,292.4531 Q301.2466,291.6406 300.9185,290.5 Q300.5904,289.3438 300.5904,287.9531 Q300.5904,286.5781 300.9654,285.4219 Q301.3404,284.2656 302.0591,283.4375 Q302.7779,282.6094 303.8404,282.1563 Q304.9029,281.6875 306.2935,281.6875 Q307.1998,281.6875 308.106,281.9219 Q309.0123,282.1406 309.8404,282.5469 L309.0123,284.6406 Q308.3248,284.3125 307.6373,284.0781 Q306.9498,283.8281 306.2935,283.8281 Z " fill="#000000"/><text fill="#000000" font-family="sans-serif" font-size="14" lengthAdjust="spacing" textLength="45" x="320.356" y="292.8467">Func`1</text><rect fill="#FFFFFF" height="15.9688" style="stroke:#181818;stroke-width:1.0;stroke-dasharray:2.0,2.0;" width="8" x="373.356" y="269"/><text fill="#000000" font-family="sans-serif" font-size="12" font-style="italic" lengthAdjust="spacing" textLength="6" x="374.356" y="281.1387">T</text><line style="stroke:#181818;stroke-width:0.5;" x1="292.356" x2="377.356" y1="304" y2="304"/><line style="stroke:#181818;stroke-width:0.5;" x1="292.356" x2="377.356" y1="312" y2="312"/></g><!--class MonoInstaller--><g id="elem_MonoInstaller"><rect fill="#F1F1F1" height="48" id="MonoInstaller" rx="2.5" ry="2.5" style="stroke:#181818;stroke-width:0.5;" width="121" x="274.356" y="7"/><ellipse cx="289.356" cy="23" fill="#ADD1B2" rx="11" ry="11" style="stroke:#181818;stroke-width:1.0;"/><path d="M289.2935,18.8281 Q288.5435,18.8281 287.981,19.125 Q287.4185,19.4063 287.0279,19.9375 Q286.6373,20.4688 286.4341,21.25 Q286.2466,22.0156 286.2466,22.9688 Q286.2466,23.9375 286.4185,24.7031 Q286.606,25.4531 286.9654,25.9688 Q287.3404,26.4844 287.9185,26.7656 Q288.4966,27.0313 289.2935,27.0313 Q290.0279,27.0313 290.7623,26.8594 Q291.5123,26.6875 292.3873,26.3906 L292.3873,28.5469 Q291.981,28.7031 291.5904,28.8281 Q291.1998,28.9375 290.7935,29.0156 Q290.3873,29.0938 289.9654,29.125 Q289.5435,29.1719 289.0435,29.1719 Q287.6373,29.1719 286.606,28.7188 Q285.5904,28.2656 284.9185,27.4531 Q284.2466,26.6406 283.9185,25.5 Q283.5904,24.3438 283.5904,22.9531 Q283.5904,21.5781 283.9654,20.4219 Q284.3404,19.2656 285.0591,18.4375 Q285.7779,17.6094 286.8404,17.1563 Q287.9029,16.6875 289.2935,16.6875 Q290.1998,16.6875 291.106,16.9219 Q292.0123,17.1406 292.8404,17.5469 L292.0123,19.6406 Q291.3248,19.3125 290.6373,19.0781 Q289.9498,18.8281 289.2935,18.8281 Z " fill="#000000"/><text fill="#000000" font-family="sans-serif" font-size="14" lengthAdjust="spacing" textLength="89" x="303.356" y="27.8467">MonoInstaller</text><line style="stroke:#181818;stroke-width:0.5;" x1="275.356" x2="394.356" y1="39" y2="39"/><line style="stroke:#181818;stroke-width:0.5;" x1="275.356" x2="394.356" y1="47" y2="47"/></g><!--reverse link MonoInstaller to GameObjectInjector--><g id="link_MonoInstaller_GameObjectInjector"><path codeLine="8" d="M334.856,75.37 C334.856,88.03 334.856,101.93 334.856,114.84 " fill="none" id="MonoInstaller-backto-GameObjectInjector" style="stroke:#181818;stroke-width:1.0;"/><polygon fill="none" points="327.856,75.03,334.856,55.03,341.856,75.03,327.856,75.03" style="stroke:#181818;stroke-width:1.0;"/></g><!--link GameObjectInjector to Func`1--><g id="link_GameObjectInjector_Func`1"><path codeLine="9" d="M322.516,212.35 C321.636,230.52 322.166,250.63 324.106,266.47 " fill="none" id="GameObjectInjector-to-Func`1" style="stroke:#181818;stroke-width:1.0;"/><polygon fill="#181818" points="324.816,271.66,327.5451,262.1968,324.1309,266.7072,319.6205,263.293,324.816,271.66" style="stroke:#181818;stroke-width:1.0;"/><text fill="#000000" font-family="sans-serif" font-size="13" lengthAdjust="spacing" textLength="282" x="6" y="260.9821">OnGetDungeonGenerator&lt;DungeonGenerator&gt;</text></g><!--link GameObjectInjector to Func`1--><g id="link_GameObjectInjector_Func`1"><path codeLine="10" d="M347.926,212.35 C348.856,230.52 348.296,250.63 346.246,266.47 " fill="none" id="GameObjectInjector-to-Func`1-1" style="stroke:#181818;stroke-width:1.0;"/><polygon fill="#181818" points="345.496,271.66,350.7421,263.3246,346.2111,266.7114,342.8243,262.1804,345.496,271.66" style="stroke:#181818;stroke-width:1.0;"/><text fill="#000000" font-family="sans-serif" font-size="13" lengthAdjust="spacing" textLength="190" x="371.2458" y="260.9821">OnGetDBManager&lt;DBManager&gt;</text></g><!--SRC=[XO_12eCm38RlVOhGqyRemUieFSYOU10lUu1rDKY7Iw6jNZRVVKvKH8Jb49BmvyyNq-WG8DClB1zFD36dNtOUtWo6E86KhaFlROLAGKuXwgP9BLMMwd0umXawPwj9cs6yj5IZemm9lHvyHibsk9AdXIPTuwIREzOpCuBnQqlcdd1vKmDHpmf7Re903_8Zn0uxstb720Myf1r2kHqelfpzupJZogLQxNu1]--></g></svg>