<?xml version="1.0" encoding="us-ascii" standalone="no"?><svg xmlns="http://www.w3.org/2000/svg" xmlns:xlink="http://www.w3.org/1999/xlink" contentStyleType="text/css" height="186px" preserveAspectRatio="none" style="width:253px;height:186px;background:#FFFFFF;" version="1.1" viewBox="0 0 253 186" width="253px" zoomAndPan="magnify"><defs/><g><!--class UIInjector--><g id="elem_UIInjector"><rect codeLine="1" fill="#F1F1F1" height="64.2969" id="UIInjector" rx="2.5" ry="2.5" style="stroke:#181818;stroke-width:0.5;" width="239" x="7" y="115"/><ellipse cx="89.75" cy="131" fill="#ADD1B2" rx="11" ry="11" style="stroke:#181818;stroke-width:1.0;"/><path d="M89.6875,126.8281 Q88.9375,126.8281 88.375,127.125 Q87.8125,127.4063 87.4219,127.9375 Q87.0313,128.4688 86.8281,129.25 Q86.6406,130.0156 86.6406,130.9688 Q86.6406,131.9375 86.8125,132.7031 Q87,133.4531 87.3594,133.9688 Q87.7344,134.4844 88.3125,134.7656 Q88.8906,135.0313 89.6875,135.0313 Q90.4219,135.0313 91.1563,134.8594 Q91.9063,134.6875 92.7813,134.3906 L92.7813,136.5469 Q92.375,136.7031 91.9844,136.8281 Q91.5938,136.9375 91.1875,137.0156 Q90.7813,137.0938 90.3594,137.125 Q89.9375,137.1719 89.4375,137.1719 Q88.0313,137.1719 87,136.7188 Q85.9844,136.2656 85.3125,135.4531 Q84.6406,134.6406 84.3125,133.5 Q83.9844,132.3438 83.9844,130.9531 Q83.9844,129.5781 84.3594,128.4219 Q84.7344,127.2656 85.4531,126.4375 Q86.1719,125.6094 87.2344,125.1563 Q88.2969,124.6875 89.6875,124.6875 Q90.5938,124.6875 91.5,124.9219 Q92.4063,125.1406 93.2344,125.5469 L92.4063,127.6406 Q91.7188,127.3125 91.0313,127.0781 Q90.3438,126.8281 89.6875,126.8281 Z " fill="#000000"/><text fill="#000000" font-family="sans-serif" font-size="14" lengthAdjust="spacing" textLength="65" x="110.25" y="135.8467">UIInjector</text><line style="stroke:#181818;stroke-width:0.5;" x1="8" x2="245" y1="147" y2="147"/><line style="stroke:#181818;stroke-width:0.5;" x1="8" x2="245" y1="155" y2="155"/><ellipse cx="18" cy="168.6484" fill="#84BE84" rx="3" ry="3" style="stroke:#038048;stroke-width:1.0;"/><text fill="#000000" font-family="sans-serif" font-size="14" lengthAdjust="spacing" textLength="213" x="27" y="171.9951">&#171;override&#187; InstallBindings() : void</text></g><!--class MonoInstaller--><g id="elem_MonoInstaller"><rect fill="#F1F1F1" height="48" id="MonoInstaller" rx="2.5" ry="2.5" style="stroke:#181818;stroke-width:0.5;" width="121" x="66" y="7"/><ellipse cx="81" cy="23" fill="#ADD1B2" rx="11" ry="11" style="stroke:#181818;stroke-width:1.0;"/><path d="M80.9375,18.8281 Q80.1875,18.8281 79.625,19.125 Q79.0625,19.4063 78.6719,19.9375 Q78.2813,20.4688 78.0781,21.25 Q77.8906,22.0156 77.8906,22.9688 Q77.8906,23.9375 78.0625,24.7031 Q78.25,25.4531 78.6094,25.9688 Q78.9844,26.4844 79.5625,26.7656 Q80.1406,27.0313 80.9375,27.0313 Q81.6719,27.0313 82.4063,26.8594 Q83.1563,26.6875 84.0313,26.3906 L84.0313,28.5469 Q83.625,28.7031 83.2344,28.8281 Q82.8438,28.9375 82.4375,29.0156 Q82.0313,29.0938 81.6094,29.125 Q81.1875,29.1719 80.6875,29.1719 Q79.2813,29.1719 78.25,28.7188 Q77.2344,28.2656 76.5625,27.4531 Q75.8906,26.6406 75.5625,25.5 Q75.2344,24.3438 75.2344,22.9531 Q75.2344,21.5781 75.6094,20.4219 Q75.9844,19.2656 76.7031,18.4375 Q77.4219,17.6094 78.4844,17.1563 Q79.5469,16.6875 80.9375,16.6875 Q81.8438,16.6875 82.75,16.9219 Q83.6563,17.1406 84.4844,17.5469 L83.6563,19.6406 Q82.9688,19.3125 82.2813,19.0781 Q81.5938,18.8281 80.9375,18.8281 Z " fill="#000000"/><text fill="#000000" font-family="sans-serif" font-size="14" lengthAdjust="spacing" textLength="89" x="95" y="27.8467">MonoInstaller</text><line style="stroke:#181818;stroke-width:0.5;" x1="67" x2="186" y1="39" y2="39"/><line style="stroke:#181818;stroke-width:0.5;" x1="67" x2="186" y1="47" y2="47"/></g><!--reverse link MonoInstaller to UIInjector--><g id="link_MonoInstaller_UIInjector"><path codeLine="4" d="M126.5,75.09 C126.5,88.28 126.5,102.52 126.5,114.75 " fill="none" id="MonoInstaller-backto-UIInjector" style="stroke:#181818;stroke-width:1.0;"/><polygon fill="none" points="119.5,75.07,126.5,55.07,133.5,75.07,119.5,75.07" style="stroke:#181818;stroke-width:1.0;"/></g><!--SRC=[Iyv9B2vM2FNqpCjAJIx9BrAevb800cq56vlyijIYeioKL3ix1S-yufB4d1odpBoKpBpqOWrD1Ik5ilpC5AvQBj_yl7oeT6gHWasDhYwIQG00]--></g></svg>