<?xml version="1.0" encoding="us-ascii" standalone="no"?><svg xmlns="http://www.w3.org/2000/svg" xmlns:xlink="http://www.w3.org/1999/xlink" contentStyleType="text/css" height="186px" preserveAspectRatio="none" style="width:262px;height:186px;background:#FFFFFF;" version="1.1" viewBox="0 0 262 186" width="262px" zoomAndPan="magnify"><defs/><g><!--class GenerateButton--><g id="elem_GenerateButton"><rect codeLine="1" fill="#F1F1F1" height="64.2969" id="GenerateButton" rx="2.5" ry="2.5" style="stroke:#181818;stroke-width:0.5;" width="135" x="77" y="115"/><ellipse cx="92" cy="131" fill="#ADD1B2" rx="11" ry="11" style="stroke:#181818;stroke-width:1.0;"/><path d="M91.9375,126.8281 Q91.1875,126.8281 90.625,127.125 Q90.0625,127.4063 89.6719,127.9375 Q89.2813,128.4688 89.0781,129.25 Q88.8906,130.0156 88.8906,130.9688 Q88.8906,131.9375 89.0625,132.7031 Q89.25,133.4531 89.6094,133.9688 Q89.9844,134.4844 90.5625,134.7656 Q91.1406,135.0313 91.9375,135.0313 Q92.6719,135.0313 93.4063,134.8594 Q94.1563,134.6875 95.0313,134.3906 L95.0313,136.5469 Q94.625,136.7031 94.2344,136.8281 Q93.8438,136.9375 93.4375,137.0156 Q93.0313,137.0938 92.6094,137.125 Q92.1875,137.1719 91.6875,137.1719 Q90.2813,137.1719 89.25,136.7188 Q88.2344,136.2656 87.5625,135.4531 Q86.8906,134.6406 86.5625,133.5 Q86.2344,132.3438 86.2344,130.9531 Q86.2344,129.5781 86.6094,128.4219 Q86.9844,127.2656 87.7031,126.4375 Q88.4219,125.6094 89.4844,125.1563 Q90.5469,124.6875 91.9375,124.6875 Q92.8438,124.6875 93.75,124.9219 Q94.6563,125.1406 95.4844,125.5469 L94.6563,127.6406 Q93.9688,127.3125 93.2813,127.0781 Q92.5938,126.8281 91.9375,126.8281 Z " fill="#000000"/><text fill="#000000" font-family="sans-serif" font-size="14" lengthAdjust="spacing" textLength="103" x="106" y="135.8467">GenerateButton</text><line style="stroke:#181818;stroke-width:0.5;" x1="78" x2="211" y1="147" y2="147"/><line style="stroke:#181818;stroke-width:0.5;" x1="78" x2="211" y1="155" y2="155"/><ellipse cx="88" cy="168.6484" fill="#84BE84" rx="3" ry="3" style="stroke:#038048;stroke-width:1.0;"/><text fill="#000000" font-family="sans-serif" font-size="14" lengthAdjust="spacing" textLength="94" x="97" y="171.9951">OnClick() : void</text></g><!--class MonoBehaviour--><g id="elem_MonoBehaviour"><rect fill="#F1F1F1" height="48" id="MonoBehaviour" rx="2.5" ry="2.5" style="stroke:#181818;stroke-width:0.5;" width="133" x="7" y="7"/><ellipse cx="22" cy="23" fill="#ADD1B2" rx="11" ry="11" style="stroke:#181818;stroke-width:1.0;"/><path d="M21.9375,18.8281 Q21.1875,18.8281 20.625,19.125 Q20.0625,19.4063 19.6719,19.9375 Q19.2813,20.4688 19.0781,21.25 Q18.8906,22.0156 18.8906,22.9688 Q18.8906,23.9375 19.0625,24.7031 Q19.25,25.4531 19.6094,25.9688 Q19.9844,26.4844 20.5625,26.7656 Q21.1406,27.0313 21.9375,27.0313 Q22.6719,27.0313 23.4063,26.8594 Q24.1563,26.6875 25.0313,26.3906 L25.0313,28.5469 Q24.625,28.7031 24.2344,28.8281 Q23.8438,28.9375 23.4375,29.0156 Q23.0313,29.0938 22.6094,29.125 Q22.1875,29.1719 21.6875,29.1719 Q20.2813,29.1719 19.25,28.7188 Q18.2344,28.2656 17.5625,27.4531 Q16.8906,26.6406 16.5625,25.5 Q16.2344,24.3438 16.2344,22.9531 Q16.2344,21.5781 16.6094,20.4219 Q16.9844,19.2656 17.7031,18.4375 Q18.4219,17.6094 19.4844,17.1563 Q20.5469,16.6875 21.9375,16.6875 Q22.8438,16.6875 23.75,16.9219 Q24.6563,17.1406 25.4844,17.5469 L24.6563,19.6406 Q23.9688,19.3125 23.2813,19.0781 Q22.5938,18.8281 21.9375,18.8281 Z " fill="#000000"/><text fill="#000000" font-family="sans-serif" font-size="14" lengthAdjust="spacing" textLength="101" x="36" y="27.8467">MonoBehaviour</text><line style="stroke:#181818;stroke-width:0.5;" x1="8" x2="139" y1="39" y2="39"/><line style="stroke:#181818;stroke-width:0.5;" x1="8" x2="139" y1="47" y2="47"/></g><!--class IButton--><g id="elem_IButton"><rect fill="#F1F1F1" height="48" id="IButton" rx="2.5" ry="2.5" style="stroke:#181818;stroke-width:0.5;" width="80" x="175.5" y="7"/><ellipse cx="190.5" cy="23" fill="#ADD1B2" rx="11" ry="11" style="stroke:#181818;stroke-width:1.0;"/><path d="M190.4375,18.8281 Q189.6875,18.8281 189.125,19.125 Q188.5625,19.4063 188.1719,19.9375 Q187.7813,20.4688 187.5781,21.25 Q187.3906,22.0156 187.3906,22.9688 Q187.3906,23.9375 187.5625,24.7031 Q187.75,25.4531 188.1094,25.9688 Q188.4844,26.4844 189.0625,26.7656 Q189.6406,27.0313 190.4375,27.0313 Q191.1719,27.0313 191.9063,26.8594 Q192.6563,26.6875 193.5313,26.3906 L193.5313,28.5469 Q193.125,28.7031 192.7344,28.8281 Q192.3438,28.9375 191.9375,29.0156 Q191.5313,29.0938 191.1094,29.125 Q190.6875,29.1719 190.1875,29.1719 Q188.7813,29.1719 187.75,28.7188 Q186.7344,28.2656 186.0625,27.4531 Q185.3906,26.6406 185.0625,25.5 Q184.7344,24.3438 184.7344,22.9531 Q184.7344,21.5781 185.1094,20.4219 Q185.4844,19.2656 186.2031,18.4375 Q186.9219,17.6094 187.9844,17.1563 Q189.0469,16.6875 190.4375,16.6875 Q191.3438,16.6875 192.25,16.9219 Q193.1563,17.1406 193.9844,17.5469 L193.1563,19.6406 Q192.4688,19.3125 191.7813,19.0781 Q191.0938,18.8281 190.4375,18.8281 Z " fill="#000000"/><text fill="#000000" font-family="sans-serif" font-size="14" lengthAdjust="spacing" textLength="48" x="204.5" y="27.8467">IButton</text><line style="stroke:#181818;stroke-width:0.5;" x1="176.5" x2="254.5" y1="39" y2="39"/><line style="stroke:#181818;stroke-width:0.5;" x1="176.5" x2="254.5" y1="47" y2="47"/></g><!--reverse link MonoBehaviour to GenerateButton--><g id="link_MonoBehaviour_GenerateButton"><path codeLine="4" d="M98.57,72.25 C107.26,86.21 116.87,101.63 125.04,114.75 " fill="none" id="MonoBehaviour-backto-GenerateButton" style="stroke:#181818;stroke-width:1.0;"/><polygon fill="none" points="92.5,75.75,87.87,55.07,104.38,68.35,92.5,75.75" style="stroke:#181818;stroke-width:1.0;"/></g><!--reverse link IButton to GenerateButton--><g id="link_IButton_GenerateButton"><path codeLine="5" d="M190.43,72.25 C181.74,86.21 172.13,101.63 163.96,114.75 " fill="none" id="IButton-backto-GenerateButton" style="stroke:#181818;stroke-width:1.0;"/><polygon fill="none" points="184.62,68.35,201.13,55.07,196.5,75.75,184.62,68.35" style="stroke:#181818;stroke-width:1.0;"/></g><!--SRC=[Iyv9B2vMS4_DIorAB4brAYqfoSzJgEPI009j1VyyvvpCv6mDJGKhXRByp1IkMYxV_BnyfzICnBBC_D8Y1PiQNLqqpLoUK4Emo040]--></g></svg>