<?xml version="1.0" encoding="us-ascii" standalone="no"?><svg xmlns="http://www.w3.org/2000/svg" xmlns:xlink="http://www.w3.org/1999/xlink" contentStyleType="text/css" height="376px" preserveAspectRatio="none" style="width:742px;height:376px;background:#FFFFFF;" version="1.1" viewBox="0 0 742 376" width="742px" zoomAndPan="magnify"><defs/><g><!--class TabButton--><g id="elem_TabButton"><rect codeLine="1" fill="#F1F1F1" height="145.7813" id="TabButton" rx="2.5" ry="2.5" style="stroke:#181818;stroke-width:0.5;" width="352" x="182.5" y="115"/><ellipse cx="321.75" cy="131" fill="#ADD1B2" rx="11" ry="11" style="stroke:#181818;stroke-width:1.0;"/><path d="M321.6875,126.8281 Q320.9375,126.8281 320.375,127.125 Q319.8125,127.4063 319.4219,127.9375 Q319.0313,128.4688 318.8281,129.25 Q318.6406,130.0156 318.6406,130.9688 Q318.6406,131.9375 318.8125,132.7031 Q319,133.4531 319.3594,133.9688 Q319.7344,134.4844 320.3125,134.7656 Q320.8906,135.0313 321.6875,135.0313 Q322.4219,135.0313 323.1563,134.8594 Q323.9063,134.6875 324.7813,134.3906 L324.7813,136.5469 Q324.375,136.7031 323.9844,136.8281 Q323.5938,136.9375 323.1875,137.0156 Q322.7813,137.0938 322.3594,137.125 Q321.9375,137.1719 321.4375,137.1719 Q320.0313,137.1719 319,136.7188 Q317.9844,136.2656 317.3125,135.4531 Q316.6406,134.6406 316.3125,133.5 Q315.9844,132.3438 315.9844,130.9531 Q315.9844,129.5781 316.3594,128.4219 Q316.7344,127.2656 317.4531,126.4375 Q318.1719,125.6094 319.2344,125.1563 Q320.2969,124.6875 321.6875,124.6875 Q322.5938,124.6875 323.5,124.9219 Q324.4063,125.1406 325.2344,125.5469 L324.4063,127.6406 Q323.7188,127.3125 323.0313,127.0781 Q322.3438,126.8281 321.6875,126.8281 Z " fill="#000000"/><text fill="#000000" font-family="sans-serif" font-size="14" lengthAdjust="spacing" textLength="65" x="342.25" y="135.8467">TabButton</text><line style="stroke:#181818;stroke-width:0.5;" x1="183.5" x2="533.5" y1="147" y2="147"/><ellipse cx="193.5" cy="160.6484" fill="none" rx="3" ry="3" style="stroke:#038048;stroke-width:1.0;"/><text fill="#000000" font-family="sans-serif" font-size="14" lengthAdjust="spacing" textLength="135" x="202.5" y="163.9951">isActive : bool = false</text><line style="stroke:#181818;stroke-width:0.5;" x1="183.5" x2="533.5" y1="171.2969" y2="171.2969"/><ellipse cx="193.5" cy="184.9453" fill="#84BE84" rx="3" ry="3" style="stroke:#038048;stroke-width:1.0;"/><text fill="#000000" font-family="sans-serif" font-size="14" lengthAdjust="spacing" textLength="321" x="202.5" y="188.292">OnPointerClick(eventData:PointerEventData) : void</text><ellipse cx="193.5" cy="201.2422" fill="#84BE84" rx="3" ry="3" style="stroke:#038048;stroke-width:1.0;"/><text fill="#000000" font-family="sans-serif" font-size="14" lengthAdjust="spacing" textLength="326" x="202.5" y="204.5889">OnPointerEnter(eventData:PointerEventData) : void</text><ellipse cx="193.5" cy="217.5391" fill="#84BE84" rx="3" ry="3" style="stroke:#038048;stroke-width:1.0;"/><text fill="#000000" font-family="sans-serif" font-size="14" lengthAdjust="spacing" textLength="315" x="202.5" y="220.8857">OnPointerExit(eventData:PointerEventData) : void</text><ellipse cx="193.5" cy="233.8359" fill="#84BE84" rx="3" ry="3" style="stroke:#038048;stroke-width:1.0;"/><text fill="#000000" font-family="sans-serif" font-size="14" lengthAdjust="spacing" textLength="170" x="202.5" y="237.1826">OnReset(color:Color) : void</text><ellipse cx="193.5" cy="250.1328" fill="#84BE84" rx="3" ry="3" style="stroke:#038048;stroke-width:1.0;"/><text fill="#000000" font-family="sans-serif" font-size="14" lengthAdjust="spacing" textLength="129" x="202.5" y="253.4795">DisablePanel() : void</text></g><!--class Func`2--><g id="elem_Func`2"><rect codeLine="9" fill="#F1F1F1" height="48" id="Func`2" rx="2.5" ry="2.5" style="stroke:#181818;stroke-width:0.5;" width="110" x="303.5" y="321"/><ellipse cx="318.5" cy="337" fill="#ADD1B2" rx="11" ry="11" style="stroke:#181818;stroke-width:1.0;"/><path d="M318.4375,332.8281 Q317.6875,332.8281 317.125,333.125 Q316.5625,333.4063 316.1719,333.9375 Q315.7813,334.4688 315.5781,335.25 Q315.3906,336.0156 315.3906,336.9688 Q315.3906,337.9375 315.5625,338.7031 Q315.75,339.4531 316.1094,339.9688 Q316.4844,340.4844 317.0625,340.7656 Q317.6406,341.0313 318.4375,341.0313 Q319.1719,341.0313 319.9063,340.8594 Q320.6563,340.6875 321.5313,340.3906 L321.5313,342.5469 Q321.125,342.7031 320.7344,342.8281 Q320.3438,342.9375 319.9375,343.0156 Q319.5313,343.0938 319.1094,343.125 Q318.6875,343.1719 318.1875,343.1719 Q316.7813,343.1719 315.75,342.7188 Q314.7344,342.2656 314.0625,341.4531 Q313.3906,340.6406 313.0625,339.5 Q312.7344,338.3438 312.7344,336.9531 Q312.7344,335.5781 313.1094,334.4219 Q313.4844,333.2656 314.2031,332.4375 Q314.9219,331.6094 315.9844,331.1563 Q317.0469,330.6875 318.4375,330.6875 Q319.3438,330.6875 320.25,330.9219 Q321.1563,331.1406 321.9844,331.5469 L321.1563,333.6406 Q320.4688,333.3125 319.7813,333.0781 Q319.0938,332.8281 318.4375,332.8281 Z " fill="#000000"/><text fill="#000000" font-family="sans-serif" font-size="14" lengthAdjust="spacing" textLength="45" x="332.5" y="341.8467">Func`2</text><rect fill="#FFFFFF" height="15.9688" style="stroke:#181818;stroke-width:1.0;stroke-dasharray:2.0,2.0;" width="31" x="385.5" y="318"/><text fill="#000000" font-family="sans-serif" font-size="12" font-style="italic" lengthAdjust="spacing" textLength="29" x="386.5" y="330.1387">T1,T2</text><line style="stroke:#181818;stroke-width:0.5;" x1="304.5" x2="412.5" y1="353" y2="353"/><line style="stroke:#181818;stroke-width:0.5;" x1="304.5" x2="412.5" y1="361" y2="361"/></g><!--class Action`1--><g id="elem_Action`1"><rect codeLine="11" fill="#F1F1F1" height="48" id="Action`1" rx="2.5" ry="2.5" style="stroke:#181818;stroke-width:0.5;" width="98" x="448.5" y="321"/><ellipse cx="463.5" cy="337" fill="#ADD1B2" rx="11" ry="11" style="stroke:#181818;stroke-width:1.0;"/><path d="M463.4375,332.8281 Q462.6875,332.8281 462.125,333.125 Q461.5625,333.4063 461.1719,333.9375 Q460.7813,334.4688 460.5781,335.25 Q460.3906,336.0156 460.3906,336.9688 Q460.3906,337.9375 460.5625,338.7031 Q460.75,339.4531 461.1094,339.9688 Q461.4844,340.4844 462.0625,340.7656 Q462.6406,341.0313 463.4375,341.0313 Q464.1719,341.0313 464.9063,340.8594 Q465.6563,340.6875 466.5313,340.3906 L466.5313,342.5469 Q466.125,342.7031 465.7344,342.8281 Q465.3438,342.9375 464.9375,343.0156 Q464.5313,343.0938 464.1094,343.125 Q463.6875,343.1719 463.1875,343.1719 Q461.7813,343.1719 460.75,342.7188 Q459.7344,342.2656 459.0625,341.4531 Q458.3906,340.6406 458.0625,339.5 Q457.7344,338.3438 457.7344,336.9531 Q457.7344,335.5781 458.1094,334.4219 Q458.4844,333.2656 459.2031,332.4375 Q459.9219,331.6094 460.9844,331.1563 Q462.0469,330.6875 463.4375,330.6875 Q464.3438,330.6875 465.25,330.9219 Q466.1563,331.1406 466.9844,331.5469 L466.1563,333.6406 Q465.4688,333.3125 464.7813,333.0781 Q464.0938,332.8281 463.4375,332.8281 Z " fill="#000000"/><text fill="#000000" font-family="sans-serif" font-size="14" lengthAdjust="spacing" textLength="56" x="477.5" y="341.8467">Action`1</text><rect fill="#FFFFFF" height="15.9688" style="stroke:#181818;stroke-width:1.0;stroke-dasharray:2.0,2.0;" width="8" x="541.5" y="318"/><text fill="#000000" font-family="sans-serif" font-size="12" font-style="italic" lengthAdjust="spacing" textLength="6" x="542.5" y="330.1387">T</text><line style="stroke:#181818;stroke-width:0.5;" x1="449.5" x2="545.5" y1="353" y2="353"/><line style="stroke:#181818;stroke-width:0.5;" x1="449.5" x2="545.5" y1="361" y2="361"/></g><!--class MonoBehaviour--><g id="elem_MonoBehaviour"><rect fill="#F1F1F1" height="48" id="MonoBehaviour" rx="2.5" ry="2.5" style="stroke:#181818;stroke-width:0.5;" width="133" x="7" y="7"/><ellipse cx="22" cy="23" fill="#ADD1B2" rx="11" ry="11" style="stroke:#181818;stroke-width:1.0;"/><path d="M21.9375,18.8281 Q21.1875,18.8281 20.625,19.125 Q20.0625,19.4063 19.6719,19.9375 Q19.2813,20.4688 19.0781,21.25 Q18.8906,22.0156 18.8906,22.9688 Q18.8906,23.9375 19.0625,24.7031 Q19.25,25.4531 19.6094,25.9688 Q19.9844,26.4844 20.5625,26.7656 Q21.1406,27.0313 21.9375,27.0313 Q22.6719,27.0313 23.4063,26.8594 Q24.1563,26.6875 25.0313,26.3906 L25.0313,28.5469 Q24.625,28.7031 24.2344,28.8281 Q23.8438,28.9375 23.4375,29.0156 Q23.0313,29.0938 22.6094,29.125 Q22.1875,29.1719 21.6875,29.1719 Q20.2813,29.1719 19.25,28.7188 Q18.2344,28.2656 17.5625,27.4531 Q16.8906,26.6406 16.5625,25.5 Q16.2344,24.3438 16.2344,22.9531 Q16.2344,21.5781 16.6094,20.4219 Q16.9844,19.2656 17.7031,18.4375 Q18.4219,17.6094 19.4844,17.1563 Q20.5469,16.6875 21.9375,16.6875 Q22.8438,16.6875 23.75,16.9219 Q24.6563,17.1406 25.4844,17.5469 L24.6563,19.6406 Q23.9688,19.3125 23.2813,19.0781 Q22.5938,18.8281 21.9375,18.8281 Z " fill="#000000"/><text fill="#000000" font-family="sans-serif" font-size="14" lengthAdjust="spacing" textLength="101" x="36" y="27.8467">MonoBehaviour</text><line style="stroke:#181818;stroke-width:0.5;" x1="8" x2="139" y1="39" y2="39"/><line style="stroke:#181818;stroke-width:0.5;" x1="8" x2="139" y1="47" y2="47"/></g><!--class IPointerEnterHandler--><g id="elem_IPointerEnterHandler"><rect fill="#F1F1F1" height="48" id="IPointerEnterHandler" rx="2.5" ry="2.5" style="stroke:#181818;stroke-width:0.5;" width="169" x="175" y="7"/><ellipse cx="190" cy="23" fill="#ADD1B2" rx="11" ry="11" style="stroke:#181818;stroke-width:1.0;"/><path d="M189.9375,18.8281 Q189.1875,18.8281 188.625,19.125 Q188.0625,19.4063 187.6719,19.9375 Q187.2813,20.4688 187.0781,21.25 Q186.8906,22.0156 186.8906,22.9688 Q186.8906,23.9375 187.0625,24.7031 Q187.25,25.4531 187.6094,25.9688 Q187.9844,26.4844 188.5625,26.7656 Q189.1406,27.0313 189.9375,27.0313 Q190.6719,27.0313 191.4063,26.8594 Q192.1563,26.6875 193.0313,26.3906 L193.0313,28.5469 Q192.625,28.7031 192.2344,28.8281 Q191.8438,28.9375 191.4375,29.0156 Q191.0313,29.0938 190.6094,29.125 Q190.1875,29.1719 189.6875,29.1719 Q188.2813,29.1719 187.25,28.7188 Q186.2344,28.2656 185.5625,27.4531 Q184.8906,26.6406 184.5625,25.5 Q184.2344,24.3438 184.2344,22.9531 Q184.2344,21.5781 184.6094,20.4219 Q184.9844,19.2656 185.7031,18.4375 Q186.4219,17.6094 187.4844,17.1563 Q188.5469,16.6875 189.9375,16.6875 Q190.8438,16.6875 191.75,16.9219 Q192.6563,17.1406 193.4844,17.5469 L192.6563,19.6406 Q191.9688,19.3125 191.2813,19.0781 Q190.5938,18.8281 189.9375,18.8281 Z " fill="#000000"/><text fill="#000000" font-family="sans-serif" font-size="14" lengthAdjust="spacing" textLength="137" x="204" y="27.8467">IPointerEnterHandler</text><line style="stroke:#181818;stroke-width:0.5;" x1="176" x2="343" y1="39" y2="39"/><line style="stroke:#181818;stroke-width:0.5;" x1="176" x2="343" y1="47" y2="47"/></g><!--class IPointerExitHandler--><g id="elem_IPointerExitHandler"><rect fill="#F1F1F1" height="48" id="IPointerExitHandler" rx="2.5" ry="2.5" style="stroke:#181818;stroke-width:0.5;" width="158" x="378.5" y="7"/><ellipse cx="393.5" cy="23" fill="#ADD1B2" rx="11" ry="11" style="stroke:#181818;stroke-width:1.0;"/><path d="M393.4375,18.8281 Q392.6875,18.8281 392.125,19.125 Q391.5625,19.4063 391.1719,19.9375 Q390.7813,20.4688 390.5781,21.25 Q390.3906,22.0156 390.3906,22.9688 Q390.3906,23.9375 390.5625,24.7031 Q390.75,25.4531 391.1094,25.9688 Q391.4844,26.4844 392.0625,26.7656 Q392.6406,27.0313 393.4375,27.0313 Q394.1719,27.0313 394.9063,26.8594 Q395.6563,26.6875 396.5313,26.3906 L396.5313,28.5469 Q396.125,28.7031 395.7344,28.8281 Q395.3438,28.9375 394.9375,29.0156 Q394.5313,29.0938 394.1094,29.125 Q393.6875,29.1719 393.1875,29.1719 Q391.7813,29.1719 390.75,28.7188 Q389.7344,28.2656 389.0625,27.4531 Q388.3906,26.6406 388.0625,25.5 Q387.7344,24.3438 387.7344,22.9531 Q387.7344,21.5781 388.1094,20.4219 Q388.4844,19.2656 389.2031,18.4375 Q389.9219,17.6094 390.9844,17.1563 Q392.0469,16.6875 393.4375,16.6875 Q394.3438,16.6875 395.25,16.9219 Q396.1563,17.1406 396.9844,17.5469 L396.1563,19.6406 Q395.4688,19.3125 394.7813,19.0781 Q394.0938,18.8281 393.4375,18.8281 Z " fill="#000000"/><text fill="#000000" font-family="sans-serif" font-size="14" lengthAdjust="spacing" textLength="126" x="407.5" y="27.8467">IPointerExitHandler</text><line style="stroke:#181818;stroke-width:0.5;" x1="379.5" x2="535.5" y1="39" y2="39"/><line style="stroke:#181818;stroke-width:0.5;" x1="379.5" x2="535.5" y1="47" y2="47"/></g><!--class IPointerClickHandler--><g id="elem_IPointerClickHandler"><rect fill="#F1F1F1" height="48" id="IPointerClickHandler" rx="2.5" ry="2.5" style="stroke:#181818;stroke-width:0.5;" width="164" x="571.5" y="7"/><ellipse cx="586.5" cy="23" fill="#ADD1B2" rx="11" ry="11" style="stroke:#181818;stroke-width:1.0;"/><path d="M586.4375,18.8281 Q585.6875,18.8281 585.125,19.125 Q584.5625,19.4063 584.1719,19.9375 Q583.7813,20.4688 583.5781,21.25 Q583.3906,22.0156 583.3906,22.9688 Q583.3906,23.9375 583.5625,24.7031 Q583.75,25.4531 584.1094,25.9688 Q584.4844,26.4844 585.0625,26.7656 Q585.6406,27.0313 586.4375,27.0313 Q587.1719,27.0313 587.9063,26.8594 Q588.6563,26.6875 589.5313,26.3906 L589.5313,28.5469 Q589.125,28.7031 588.7344,28.8281 Q588.3438,28.9375 587.9375,29.0156 Q587.5313,29.0938 587.1094,29.125 Q586.6875,29.1719 586.1875,29.1719 Q584.7813,29.1719 583.75,28.7188 Q582.7344,28.2656 582.0625,27.4531 Q581.3906,26.6406 581.0625,25.5 Q580.7344,24.3438 580.7344,22.9531 Q580.7344,21.5781 581.1094,20.4219 Q581.4844,19.2656 582.2031,18.4375 Q582.9219,17.6094 583.9844,17.1563 Q585.0469,16.6875 586.4375,16.6875 Q587.3438,16.6875 588.25,16.9219 Q589.1563,17.1406 589.9844,17.5469 L589.1563,19.6406 Q588.4688,19.3125 587.7813,19.0781 Q587.0938,18.8281 586.4375,18.8281 Z " fill="#000000"/><text fill="#000000" font-family="sans-serif" font-size="14" lengthAdjust="spacing" textLength="132" x="600.5" y="27.8467">IPointerClickHandler</text><line style="stroke:#181818;stroke-width:0.5;" x1="572.5" x2="734.5" y1="39" y2="39"/><line style="stroke:#181818;stroke-width:0.5;" x1="572.5" x2="734.5" y1="47" y2="47"/></g><!--class GameObject--><g id="elem_GameObject"><rect fill="#F1F1F1" height="48" id="GameObject" rx="2.5" ry="2.5" style="stroke:#181818;stroke-width:0.5;" width="111" x="582" y="321"/><ellipse cx="597" cy="337" fill="#ADD1B2" rx="11" ry="11" style="stroke:#181818;stroke-width:1.0;"/><path d="M596.9375,332.8281 Q596.1875,332.8281 595.625,333.125 Q595.0625,333.4063 594.6719,333.9375 Q594.2813,334.4688 594.0781,335.25 Q593.8906,336.0156 593.8906,336.9688 Q593.8906,337.9375 594.0625,338.7031 Q594.25,339.4531 594.6094,339.9688 Q594.9844,340.4844 595.5625,340.7656 Q596.1406,341.0313 596.9375,341.0313 Q597.6719,341.0313 598.4063,340.8594 Q599.1563,340.6875 600.0313,340.3906 L600.0313,342.5469 Q599.625,342.7031 599.2344,342.8281 Q598.8438,342.9375 598.4375,343.0156 Q598.0313,343.0938 597.6094,343.125 Q597.1875,343.1719 596.6875,343.1719 Q595.2813,343.1719 594.25,342.7188 Q593.2344,342.2656 592.5625,341.4531 Q591.8906,340.6406 591.5625,339.5 Q591.2344,338.3438 591.2344,336.9531 Q591.2344,335.5781 591.6094,334.4219 Q591.9844,333.2656 592.7031,332.4375 Q593.4219,331.6094 594.4844,331.1563 Q595.5469,330.6875 596.9375,330.6875 Q597.8438,330.6875 598.75,330.9219 Q599.6563,331.1406 600.4844,331.5469 L599.6563,333.6406 Q598.9688,333.3125 598.2813,333.0781 Q597.5938,332.8281 596.9375,332.8281 Z " fill="#000000"/><text fill="#000000" font-family="sans-serif" font-size="14" lengthAdjust="spacing" textLength="79" x="611" y="341.8467">GameObject</text><line style="stroke:#181818;stroke-width:0.5;" x1="583" x2="692" y1="353" y2="353"/><line style="stroke:#181818;stroke-width:0.5;" x1="583" x2="692" y1="361" y2="361"/></g><!--reverse link MonoBehaviour to TabButton--><g id="link_MonoBehaviour_TabButton"><path codeLine="13" d="M133.52,64.64 C160.53,79.33 193.58,97.31 225.95,114.91 " fill="none" id="MonoBehaviour-backto-TabButton" style="stroke:#181818;stroke-width:1.0;"/><polygon fill="none" points="130.08,70.74,115.86,55.04,136.77,58.44,130.08,70.74" style="stroke:#181818;stroke-width:1.0;"/></g><!--reverse link IPointerEnterHandler to TabButton--><g id="link_IPointerEnterHandler_TabButton"><path codeLine="14" d="M285.19,72.22 C293.54,85.29 303.07,100.21 312.44,114.88 " fill="none" id="IPointerEnterHandler-backto-TabButton" style="stroke:#181818;stroke-width:1.0;"/><polygon fill="none" points="279.19,75.83,274.32,55.21,290.99,68.29,279.19,75.83" style="stroke:#181818;stroke-width:1.0;"/></g><!--reverse link IPointerExitHandler to TabButton--><g id="link_IPointerExitHandler_TabButton"><path codeLine="15" d="M431.81,72.22 C423.46,85.29 413.93,100.21 404.56,114.88 " fill="none" id="IPointerExitHandler-backto-TabButton" style="stroke:#181818;stroke-width:1.0;"/><polygon fill="none" points="426.01,68.29,442.68,55.21,437.81,75.83,426.01,68.29" style="stroke:#181818;stroke-width:1.0;"/></g><!--reverse link IPointerClickHandler to TabButton--><g id="link_IPointerClickHandler_TabButton"><path codeLine="16" d="M591.78,64.43 C563.74,79.16 529.36,97.22 495.71,114.91 " fill="none" id="IPointerClickHandler-backto-TabButton" style="stroke:#181818;stroke-width:1.0;"/><polygon fill="none" points="588.69,58.14,609.65,55.04,595.21,70.54,588.69,58.14" style="stroke:#181818;stroke-width:1.0;"/></g><!--link TabButton to GameObject--><g id="link_TabButton_GameObject"><path codeLine="17" d="M488.2,261.05 C525.21,281.62 563.15,302.69 591.52,318.45 " fill="none" id="TabButton-to-GameObject" style="stroke:#181818;stroke-width:1.0;"/><polygon fill="#181818" points="595.99,320.94,590.0652,313.0726,591.6192,318.5118,586.18,320.0658,595.99,320.94" style="stroke:#181818;stroke-width:1.0;"/><text fill="#000000" font-family="sans-serif" font-size="13" lengthAdjust="spacing" textLength="54" x="520.4211" y="322.4922">TabPanel</text></g><!--link TabButton to Func`2--><g id="link_TabButton_Func`2"><path codeLine="18" d="M332.31,261.05 C331.89,280.52 333.7,300.44 337.72,315.88 " fill="none" id="TabButton-to-Func`2" style="stroke:#181818;stroke-width:1.0;"/><polygon fill="#181818" points="339.17,320.94,340.5436,311.1874,337.7964,316.1324,332.8514,313.3852,339.17,320.94" style="stroke:#181818;stroke-width:1.0;"/><text fill="#000000" font-family="sans-serif" font-size="13" lengthAdjust="spacing" textLength="132" x="185.3042" y="309.9367">Exit&lt;TabButton,Color&gt;</text></g><!--link TabButton to Func`2--><g id="link_TabButton_Func`2"><path codeLine="19" d="M358.5,261.05 C358.5,280.52 358.5,300.44 358.5,315.88 " fill="none" id="TabButton-to-Func`2-1" style="stroke:#181818;stroke-width:1.0;"/><polygon fill="#181818" points="358.5,320.94,362.5,311.94,358.5,315.94,354.5,311.94,358.5,320.94" style="stroke:#181818;stroke-width:1.0;"/><text fill="#000000" font-family="sans-serif" font-size="13" lengthAdjust="spacing" textLength="142" x="376.6159" y="309.8748">Enter&lt;TabButton,Color&gt;</text></g><!--link TabButton to Func`2--><g id="link_TabButton_Func`2"><path codeLine="20" d="M384.69,261.05 C385.11,280.52 383.3,300.44 379.28,315.88 " fill="none" id="TabButton-to-Func`2-2" style="stroke:#181818;stroke-width:1.0;"/><polygon fill="#181818" points="377.83,320.94,384.1486,313.3852,379.2036,316.1324,376.4564,311.1874,377.83,320.94" style="stroke:#181818;stroke-width:1.0;"/><text fill="#000000" font-family="sans-serif" font-size="13" lengthAdjust="spacing" textLength="137" x="173.2213" y="310.3282">Click&lt;TabButton,Color&gt;</text></g><!--link TabButton to Action`1--><g id="link_TabButton_Action`1"><path codeLine="21" d="M423.12,261.05 C441.02,281.02 459.37,301.48 473.36,317.08 " fill="none" id="TabButton-to-Action`1" style="stroke:#181818;stroke-width:1.0;"/><polygon fill="#181818" points="476.82,320.94,473.7924,311.568,473.4831,317.2164,467.8347,316.9071,476.82,320.94" style="stroke:#181818;stroke-width:1.0;"/><text fill="#000000" font-family="sans-serif" font-size="13" lengthAdjust="spacing" textLength="155" x="491.2729" y="309.8748">ChangeActive&lt;TabButton&gt;</text></g><!--SRC=[dLB9JiCm4BtdAqOv1T4SscCK8j65vO1QeNn09-v03SOZnKw41FmxTbeSbAf2mGTBVeiyxzb2eJ5GOZLlh6KD7n6uTGdIN0ihMu8CAcO5L_24oj2HNUiDIssfNYWfNXDgITibMioEyEe7k73-bkLkw5lvxJ- -Tsd7s1x9a4q4AwwpXTy7YgKqM2dQe2QL1Euh4bqjyKsZnNOMv-LqKiuALqvWV3kijrF77V07rZodFRQIcnhoppJjMutkVyU-GxrJT5xZ8luXwLe_e-cVCaqBYDsn2nV3BRxHkdeXOOSQVsCUi4dNKn67z2ToFy88VJVj6FqUzJCTlbzlyuPG-ZS0]--></g></svg>