<?xml version="1.0" encoding="us-ascii" standalone="no"?><svg xmlns="http://www.w3.org/2000/svg" xmlns:xlink="http://www.w3.org/1999/xlink" contentStyleType="text/css" height="294px" preserveAspectRatio="none" style="width:196px;height:294px;background:#FFFFFF;" version="1.1" viewBox="0 0 196 294" width="196px" zoomAndPan="magnify"><defs/><g><!--class TabGroup--><g id="elem_TabGroup"><rect codeLine="1" fill="#F1F1F1" height="64.2969" id="TabGroup" rx="2.5" ry="2.5" style="stroke:#181818;stroke-width:0.5;" width="168" x="21.275" y="115"/><ellipse cx="70.025" cy="131" fill="#ADD1B2" rx="11" ry="11" style="stroke:#181818;stroke-width:1.0;"/><path d="M69.9625,126.8281 Q69.2125,126.8281 68.65,127.125 Q68.0875,127.4063 67.6969,127.9375 Q67.3063,128.4688 67.1031,129.25 Q66.9156,130.0156 66.9156,130.9688 Q66.9156,131.9375 67.0875,132.7031 Q67.275,133.4531 67.6344,133.9688 Q68.0094,134.4844 68.5875,134.7656 Q69.1656,135.0313 69.9625,135.0313 Q70.6969,135.0313 71.4313,134.8594 Q72.1813,134.6875 73.0563,134.3906 L73.0563,136.5469 Q72.65,136.7031 72.2594,136.8281 Q71.8688,136.9375 71.4625,137.0156 Q71.0563,137.0938 70.6344,137.125 Q70.2125,137.1719 69.7125,137.1719 Q68.3063,137.1719 67.275,136.7188 Q66.2594,136.2656 65.5875,135.4531 Q64.9156,134.6406 64.5875,133.5 Q64.2594,132.3438 64.2594,130.9531 Q64.2594,129.5781 64.6344,128.4219 Q65.0094,127.2656 65.7281,126.4375 Q66.4469,125.6094 67.5094,125.1563 Q68.5719,124.6875 69.9625,124.6875 Q70.8688,124.6875 71.775,124.9219 Q72.6813,125.1406 73.5094,125.5469 L72.6813,127.6406 Q71.9938,127.3125 71.3063,127.0781 Q70.6188,126.8281 69.9625,126.8281 Z " fill="#000000"/><text fill="#000000" font-family="sans-serif" font-size="14" lengthAdjust="spacing" textLength="62" x="90.525" y="135.8467">TabGroup</text><line style="stroke:#181818;stroke-width:0.5;" x1="22.275" x2="188.275" y1="147" y2="147"/><line style="stroke:#181818;stroke-width:0.5;" x1="22.275" x2="188.275" y1="155" y2="155"/><ellipse cx="32.275" cy="168.6484" fill="#84BE84" rx="3" ry="3" style="stroke:#038048;stroke-width:1.0;"/><text fill="#000000" font-family="sans-serif" font-size="14" lengthAdjust="spacing" textLength="142" x="41.275" y="171.9951">&#171;override&#187; Init() : void</text></g><!--class InitClass--><g id="elem_InitClass"><rect fill="#F1F1F1" height="48" id="InitClass" rx="2.5" ry="2.5" style="stroke:#181818;stroke-width:0.5;" width="85" x="62.775" y="7"/><ellipse cx="77.775" cy="23" fill="#ADD1B2" rx="11" ry="11" style="stroke:#181818;stroke-width:1.0;"/><path d="M77.7125,18.8281 Q76.9625,18.8281 76.4,19.125 Q75.8375,19.4063 75.4469,19.9375 Q75.0563,20.4688 74.8531,21.25 Q74.6656,22.0156 74.6656,22.9688 Q74.6656,23.9375 74.8375,24.7031 Q75.025,25.4531 75.3844,25.9688 Q75.7594,26.4844 76.3375,26.7656 Q76.9156,27.0313 77.7125,27.0313 Q78.4469,27.0313 79.1813,26.8594 Q79.9313,26.6875 80.8063,26.3906 L80.8063,28.5469 Q80.4,28.7031 80.0094,28.8281 Q79.6188,28.9375 79.2125,29.0156 Q78.8063,29.0938 78.3844,29.125 Q77.9625,29.1719 77.4625,29.1719 Q76.0563,29.1719 75.025,28.7188 Q74.0094,28.2656 73.3375,27.4531 Q72.6656,26.6406 72.3375,25.5 Q72.0094,24.3438 72.0094,22.9531 Q72.0094,21.5781 72.3844,20.4219 Q72.7594,19.2656 73.4781,18.4375 Q74.1969,17.6094 75.2594,17.1563 Q76.3219,16.6875 77.7125,16.6875 Q78.6188,16.6875 79.525,16.9219 Q80.4313,17.1406 81.2594,17.5469 L80.4313,19.6406 Q79.7438,19.3125 79.0563,19.0781 Q78.3688,18.8281 77.7125,18.8281 Z " fill="#000000"/><text fill="#000000" font-family="sans-serif" font-size="14" lengthAdjust="spacing" textLength="53" x="91.775" y="27.8467">InitClass</text><line style="stroke:#181818;stroke-width:0.5;" x1="63.775" x2="146.775" y1="39" y2="39"/><line style="stroke:#181818;stroke-width:0.5;" x1="63.775" x2="146.775" y1="47" y2="47"/></g><!--class GameObject--><g id="elem_GameObject"><rect fill="#F1F1F1" height="48" id="GameObject" rx="2.5" ry="2.5" style="stroke:#181818;stroke-width:0.5;" width="111" x="49.775" y="239"/><ellipse cx="64.775" cy="255" fill="#ADD1B2" rx="11" ry="11" style="stroke:#181818;stroke-width:1.0;"/><path d="M64.7125,250.8281 Q63.9625,250.8281 63.4,251.125 Q62.8375,251.4063 62.4469,251.9375 Q62.0563,252.4688 61.8531,253.25 Q61.6656,254.0156 61.6656,254.9688 Q61.6656,255.9375 61.8375,256.7031 Q62.025,257.4531 62.3844,257.9688 Q62.7594,258.4844 63.3375,258.7656 Q63.9156,259.0313 64.7125,259.0313 Q65.4469,259.0313 66.1813,258.8594 Q66.9313,258.6875 67.8063,258.3906 L67.8063,260.5469 Q67.4,260.7031 67.0094,260.8281 Q66.6188,260.9375 66.2125,261.0156 Q65.8063,261.0938 65.3844,261.125 Q64.9625,261.1719 64.4625,261.1719 Q63.0563,261.1719 62.025,260.7188 Q61.0094,260.2656 60.3375,259.4531 Q59.6656,258.6406 59.3375,257.5 Q59.0094,256.3438 59.0094,254.9531 Q59.0094,253.5781 59.3844,252.4219 Q59.7594,251.2656 60.4781,250.4375 Q61.1969,249.6094 62.2594,249.1563 Q63.3219,248.6875 64.7125,248.6875 Q65.6188,248.6875 66.525,248.9219 Q67.4313,249.1406 68.2594,249.5469 L67.4313,251.6406 Q66.7438,251.3125 66.0563,251.0781 Q65.3688,250.8281 64.7125,250.8281 Z " fill="#000000"/><text fill="#000000" font-family="sans-serif" font-size="14" lengthAdjust="spacing" textLength="79" x="78.775" y="259.8467">GameObject</text><line style="stroke:#181818;stroke-width:0.5;" x1="50.775" x2="159.775" y1="271" y2="271"/><line style="stroke:#181818;stroke-width:0.5;" x1="50.775" x2="159.775" y1="279" y2="279"/></g><!--reverse link InitClass to TabGroup--><g id="link_InitClass_TabGroup"><path codeLine="4" d="M105.275,75.09 C105.275,88.28 105.275,102.52 105.275,114.75 " fill="none" id="InitClass-backto-TabGroup" style="stroke:#181818;stroke-width:1.0;"/><polygon fill="none" points="98.275,75.07,105.275,55.07,112.275,75.07,98.275,75.07" style="stroke:#181818;stroke-width:1.0;"/></g><!--link TabGroup to GameObject--><g id="link_TabGroup_GameObject"><path codeLine="5" d="M105.275,179.15 C105.275,196.09 105.275,216.89 105.275,233.42 " fill="none" id="TabGroup-to-GameObject" style="stroke:#181818;stroke-width:1.0;"/><polygon fill="#181818" points="105.275,238.84,109.275,229.84,105.275,233.84,101.275,229.84,105.275,238.84" style="stroke:#181818;stroke-width:1.0;"/><text fill="#000000" font-family="sans-serif" font-size="13" lengthAdjust="spacing" textLength="88" x="6" y="227.811">ActiveTabPanel</text></g><!--SRC=[Iyv9B2vM24bCSY_ABorGgEPI009j1HkR_BBKegBCb5GxEmNFlCmI3Kq5AuMo_CmKhbek4DyPhC-cHbSNhfaBRegkhfs2acDoIMPPAb0i834lDKT9mJqnDzK_AIirkGG0]--></g></svg>